/* XPM */
static char *result[] = {
/* columns rows colors chars-per-pixel */
"64 64 14 1 ",
"  c black",
". c #010101",
"X c #020202",
"o c gray1",
"O c gray3",
"+ c #131313",
"@ c gray8",
"# c #151515",
"$ c #161616",
"% c gray10",
"& c #1B1B1B",
"* c gray12",
"= c #202020",
"- c gray13",
/* pixels */
"                                                                ",
"                                                                ",
"                                                                ",
"                                                                ",
"                                                                ",
"                                                                ",
"                                                                ",
"                                                                ",
"                                                                ",
"@@@@@@@@@@@++@@@@@@@@@@@@@@@@@@@@+@@@@@@@+@@@@@@@@@@@@@@@@@@@@@@",
"-----------**=-------------------==------*=---------------------",
"                                                                ",
"oooooooooooooooooooooooooooooooooooooooooooooooooooooooooooooooo",
"                                                                ",
"                                                                ",
"                                                                ",
"                                                                ",
"                                                                ",
"                                                                ",
"                                                                ",
"                                                                ",
"                                                                ",
"                                                                ",
"XXXXXXXXXXXXXXXXXXXXXXXXXXXXXXXXXXXXXXXXXXXXXXXXXXXXXXXXXXXXXXXX",
"OOOOOOOOOOOOOOOOOOOOOOOOOOOOOOOOOOOOOOOOOOOOOOOOOOOOOOOOOOOOOOOO",
"................................................................",
"                                                                ",
"                                                                ",
"                                                                ",
"                                                                ",
"                                                                ",
"                                                                ",
"                                                                ",
"                                                                ",
"                                                                ",
"oooooooooooooooooooooooooooooooooooooooooooooooooooooooooooooooo",
"                                                                ",
"$$$$$$$$$$$$$$$$$$$$$$$$$$$#@#$$##$$$$$$$$$$$$$$$$$$$$$$$$$$$$$$",
"&&&&&&&&&&&&&&&&&&&&&&&&&&&&%%&&%%&&&&&&&&&&&&&&&&&&&&&&&&&&&&&&",
"                                                                ",
"                                                                ",
"................................................................",
"                                                                ",
"                                                                ",
"                                                                ",
"                                                                ",
"                                                                ",
"                                                                ",
"                                                                ",
"..................  ............  ..............................",
"                                                                ",
"ooooooooooooooooooXXooooooooooooXooooooooooooooooooooooooooooooo",
"##################@@############@###############################",
"XXXXXXXXXXXXXXXXXXXXXXXXXXXXXXXXXXXXXXXXXXXXXXXXXXXXXXXXXXXXXXXX",
"                                                                ",
"                                                                ",
"                                                                ",
"                                                                ",
"                                                                ",
"                                                                ",
"                                                                ",
"                                                                ",
"                                                                ",
"                                                                "
};
