/* XPM */
static char *result[] = {
/* columns rows colors chars-per-pixel */
"64 64 216 2 ",
"   c #01000D",
".  c #04020A",
"X  c #010015",
"o  c #090014",
"O  c #000019",
"+  c #090A18",
"@  c #140716",
"#  c #0C1219",
"$  c #151B1B",
"%  c #1A1E19",
"&  c #05100F",
"*  c #2E0015",
"=  c #1C2219",
"-  c #1A281C",
";  c #183A1E",
":  c #252B1D",
">  c #243A1E",
",  c #2B3F1D",
"<  c #29321E",
"1  c #39391E",
"2  c #000020",
"3  c #191123",
"4  c #3C1A21",
"5  c #1E3425",
"6  c #0F3526",
"7  c #2D2B2C",
"8  c #243D29",
"9  c #223727",
"0  c #322830",
"q  c #472C2A",
"w  c #48352B",
"e  c #53352D",
"r  c #683928",
"t  c #773C26",
"y  c #6C3632",
"u  c #17421F",
"i  c #2C431F",
"p  c #3D491C",
"a  c #105331",
"s  c #24432C",
"d  c #29442D",
"f  c #2D4828",
"g  c #334B21",
"h  c #3C4A21",
"j  c #365122",
"k  c #3A5523",
"l  c #3B5825",
"z  c #36522A",
"x  c #2B4A31",
"c  c #2D5334",
"v  c #315334",
"b  c #3B663E",
"n  c #3C683D",
"m  c #41491F",
"M  c #434B21",
"N  c #454921",
"B  c #445524",
"V  c #535B23",
"C  c #7E4733",
"Z  c #466627",
"A  c #566925",
"S  c #4D7729",
"D  c #547629",
"F  c #626C28",
"G  c #6C7B2C",
"H  c #707B2A",
"J  c #303E4B",
"K  c #4F3F4A",
"L  c #1E4E4B",
"P  c #374448",
"I  c #3F5E4C",
"U  c #3C6848",
"Y  c #3D7B4C",
"T  c #3B7344",
"R  c #27614B",
"E  c #45454A",
"W  c #4D464A",
"Q  c #4D494A",
"!  c #494848",
"~  c #51444A",
"^  c #53494A",
"/  c #5C4A49",
"(  c #5A444A",
")  c #415D4B",
"_  c #4A5D4A",
"`  c #4B574A",
"'  c #5B5E4A",
"]  c #6E4549",
"[  c #634B49",
"{  c #6C4A49",
"}  c #664748",
"|  c #724B48",
" . c #7A4B48",
".. c #7B5248",
"X. c #7A5149",
"o. c #6D5249",
"O. c #4D624A",
"+. c #46694A",
"@. c #546947",
"#. c #437345",
"$. c #45754C",
"%. c #4B744B",
"&. c #457B4C",
"*. c #4A7D4B",
"=. c #437845",
"-. c #557C4B",
";. c #696B4A",
":. c #796948",
">. c #68744A",
",. c #737149",
"<. c #813E21",
"1. c #9A4E32",
"2. c #874128",
"3. c #B05C3F",
"4. c #C55E31",
"5. c #CA653F",
"6. c #CF6336",
"7. c #D2673D",
"8. c #D5683D",
"9. c #DB6A3C",
"0. c #D96738",
"q. c #E46D3A",
"w. c #E96E39",
"e. c #EC703A",
"r. c #F4743C",
"t. c #F6753C",
"y. c #844D43",
"u. c #865347",
"i. c #8C5446",
"p. c #885748",
"a. c #955646",
"s. c #995646",
"d. c #935A47",
"f. c #9A5846",
"g. c #9A5948",
"h. c #955849",
"j. c #904D46",
"k. c #A35A45",
"l. c #AB5C44",
"z. c #A25E4B",
"x. c #A85644",
"c. c #B45E42",
"v. c #BA5B42",
"b. c #896246",
"n. c #A4614E",
"m. c #BC6142",
"M. c #B66042",
"N. c #D16841",
"B. c #FC7941",
"V. c #56812B",
"C. c #5D872D",
"Z. c #5F923F",
"A. c #638C2E",
"S. c #618728",
"D. c #7E8A2E",
"F. c #79852E",
"G. c #62912F",
"H. c #6F9B2E",
"J. c #659431",
"K. c #6A9531",
"L. c #679C32",
"P. c #6A9D33",
"I. c #66963E",
"U. c #6D9C3A",
"Y. c #67983C",
"T. c #729C33",
"R. c #7C9F33",
"E. c #7AA82F",
"W. c #79A72F",
"Q. c #6DA133",
"!. c #74A334",
"~. c #7BA634",
"^. c #76A834",
"/. c #7BAB35",
"(. c #75A73C",
"). c #7EB238",
"_. c #3D834C",
"`. c #34844C",
"'. c #45824C",
"]. c #4C824B",
"[. c #4E884F",
"{. c #548747",
"}. c #558946",
"|. c #5A8D44",
" X c #528548",
".X c #548A48",
"XX c #5E9141",
"oX c #508B51",
"OX c #629340",
"+X c #8B9630",
"@X c #8E9B32",
"#X c #859631",
"$X c #939F33",
"%X c #818C2F",
"&X c #82A635",
"*X c #84AA36",
"=X c #8BAC36",
"-X c #96A334",
";X c #92AF37",
":X c #9CAB35",
">X c #8BB438",
",X c #88B037",
"<X c #95B137",
"1X c #9AB237",
"2X c #94B138",
"3X c #9BB438",
"4X c #A3B137",
"5X c #A3B739",
"6X c #A8B738",
"7X c #A5B839",
"8X c #ADBC3A",
"9X c #B1BE3A",
"0X c #B4C23C",
"qX c #B8C83D",
"wX c #ADC03B",
"eX c None",
/* pixels */
"eXeXeXeXeXeXeXeXeXeXeXeXeXeXX O O O X ; A.!.Q.P.!.Q.Q.Q.Q.Q.Q.Q.Q.Q.Q.Q.Q.Q.U.!.!.G.5 X X X X X eXeXeXeXeXeXeXeXeXeXeXeXeXeXeXeX",
"eXeXeXeXeXeXeXeXeXeXeXeXeXeXN B N N 1 A T./.~.~.~.~.~.~.~.~.~.~.~.~.~.~.~.~.~.~.&XT.A 1 h M B m eXeXeXeXeXeXeXeXeXeXeXeXeXeXeXeX",
"eXeXeXeXeXeXeXeXeXeXeXX   m D.$X@X+X+X@X<X3X3X1X3X3X3X1X3X3X1X1X3X3X3X3X3X3X3X1X3X1X@X#X@X@X$X%Xp   X X X eXeXeXeXeXeXeXeXeXeXeX",
"eXeXeXeXeXeXeXeXeXeX: < % F :X0XwX8XwXwX8X8X8X9X8X8X8X8X8X9X8X8X8X8X8X8X8X8X8X8X8X8X8X8X8X9X0X:XA % : : < : eXeXeXeXeXeXeXeXeXeX",
"eXeXeXeXeXeXeXeXeXm H #XF.@X6XqX0X0X0X9X9X9X9X9X9X9X9X8X9X9X9X8X9X8X9X9X9X9X8X9X0X9X0X0X0X0X0X8X@XF.D.%X+XG m eXeXeXeXeXeXeXeXeX",
"eXeXeXeXeXeX= $ X V -XwX6X6X8X8X8X8X8X8X8X8X8X8X8X8X8X8X8X8X8X8X8X8X8X8X8X8X8X8X8X8X8X8X8X8X8X8X6X6X6X6X9X-XV X $ = eXeXeXeXeXeX",
"eXeXeXeXeX1 F G F D.6XqX0X0X9X8X8X8X8X8X8X8X8X8X8X8X8X8X8X8X8X8X8X8X8X8X8X8X8X8X8X8X8X8X8X8X8X8X9X9X0X0XqX6XD.F G F 1 eXeXeXeXeX",
"eXeXeXeX  N $X6X4X4X8X8X8X8X8X8X8X8X8X8X8X8X8X8X8X8X8X8X8X8X8X8X8X8X8X8X8X8X8X8X8X8X8X8X8X8X8X8X9X9X9X9X8X8X4X4X6X$XN   eXeXeXeX",
"eXeXeXeX; G 7XqX0X0X9X8X8X8X8X8X8X8X8X8X8X8X8X8X8X8X8X8X8X8X8X8X8X8X8X8X8X8X8X8X8X8X8X8X8X8X8X8X8X8X8X8X8X9X9X0XqX6XG ; eXeXeXeX",
"eXeXo f S &X7X0X0X8X8X8X8X8X8X8X8X8X8X8X8X8X8X8X8X8X8X8X8X8X8X8X8X8X8X8X8X8X8X8X8X8X8X8X8X8X8X8X8X8X8X8X9X9X0X0X0X5X~.S i o eXeX",
"eXeXO l K.,X5X8X8X8X8X8X8X8X8X8X8X8X8X8X8X8X8X8X8X8X8X8X8X8X8X8X8X8X8X8X8X8X8X8X8X8X8X8X8X8X8X8X8X8X9X8X8X7X7X8X9X5X,XK.l O eXeX",
"eXeXO l J./.*X<X7X8X8X8X8X8X8X8X8X8X8X8X8XwX8X8X8X8X8X8X8X8X8X8X8X8X8X8X8X8X8X8X8X8X8X8X8X8X8X8X8X8X9X7X;X=X=X1X8X8X>XK.l O eXeX",
"eXeXO l K.!.Q.&X5X9X8X8X8X8X8X8X8X8X9X8X8X8X8X8X8X8X8X8X8X8X8X8X8X8X8X8X8X8X8X8X8X8X8X8X8X8X8X8X8X8X9X5X&XQ.P.*X7X8X*XG.l O eXeX",
"eXeXX B &X2X=X;X7X9X8X8X8X8X8X8X8X8X8X8X8X8X8X8X8X8X8X8X8X8X8X8X8X8X8X8X8X8X8X8X8X8X8X8X8X8X8X8X8X8X9X5X;X=X*X=X<X2X/.G.g X eXeX",
"eXeXX V :X8X7X7X8X8X8X8X8X8X8X8X8X8X8X8X8X8X8X8X8X8X8XwX8X8X8X8X8X8X8X8X8X8X8X8X8X8X8X9X8X8X8X8X8X8X8X8X7X7X7X5X&X!.^.J.f X eXeX",
"eXeXu G 4X0X0X9X8X8X8X8X8X8X8X8X8X8X8X8X8X8X8X8X8X8X8X8X8X8X8X9X8X8X8X8X8X8X8X8X8X8X8X8X8X8X8X8X8X8X8X8X9X9X0X7X=X/.,X#XD g eXeX",
"X g V.~.5X9X9X8X8X8X8X8X8X8X8X8X8X8X8X8X8X8X8X8X8X8X8X8X8X8X8X8X8X8X8X8X8X8X8X8X8X8X8X8X8X8X8X8X8X8X8X8X8X8X9X8X5X5X5X1XR.V.g O ",
"O l J.>X7X9X8X8X8X8X8X8X8X8X8X8X8X8X8X8X8X8X8X8X8X8X8X8X8X8X8X8X8X8X8X8X8X8X8X8X8X8X8X8X8X8X8X8X8X8X8X8X8X8X8X8X8X8X0X8X,XK.l O ",
"O l J.>X8X9X9X8X8X8X8X8X8X8X8X8X8X8X8X8X8X8X8X8X8X8X8X8X8X8X8X8X8X8X8X8X8X8X8X8X8X8X8X8X8X8X8X8X8X8X8X8X8X8X8X8X8X9X9X8X>XL.l O ",
"O j J.*X5X9X8X8X8X8X8X8X8X8X8X8X8X8X8X8X8X8X8X8X8XwX8X8X8X8X8X8X8X8X8X8X8X8X8X8X8X8X8X8X8X8X8X8X8X8X8X8X8X8X8X8X8X9X9X5X,XC.j O ",
"O > Z A.&X3X7X9X8X8X8X8X8X8X8X8X8X8X8X8X8X8X8X8X8X8X8X8X8X8X8X8X8X8X8X8X8X8X8X8X8X8X8X8X8X8X8X8X8X8X8X8X8X8X8X8X9X7X3X&XA.Z > O ",
"$ # X k J.*X7X9X9X8X8X8X8X8X8X8X8X8X8X8X8X8X8X8X8X8X8X8X8X8X8X8X8X8X8X8X8X8X8X8X8X8X8X8X8X8X8X8X8X8X8X8X8X8X8X9X9X5X=XJ.k O # $ ",
"# - f A T.2X7X9X8X8X8X8X8X8X8X8X8X8X8X8X8X8X8X8X8X8X8X8X8X8X8X8X8X8X8X8X8X8X8X8X8X8X8X8X8X8X8X8X8X8X8X8X8X8X8X8X8X7X2XT.A , - # ",
"O g D &X3X8X8X8X8X8X8X8X8X8X8X8X8X8X8X8X8X8X8X8X8X8X8X8X8X8X8X8X8X8X8X8X8X8X8X9X8X8X8X8X8X8X8X8X8X8X8X8X8X8X8X8X8X8X7X1X~.V.g O ",
"X k K.,X3X8X8X8X8X8X8X8X8X8X8X8X8X9X8X8X8X8X8X8X8X8X8X8X8X8X8X8X8XwX8X8X8X8X8X8X8X8X8X8X8X8X8X8X8X8X8X8X8X8X8X8X8X9X9X8X>XJ.k X ",
"O j G.).,X<X6X8X8X8X8X8X8X8X8X8X8X8X8X8X8X8X8X8X8X8X8X8X8X8X8X8X8X8X8X8X8X8X8X8X8X8X8X8X8X8X8X8X8X8X8X8X8X8X8X8X8X8X9X7X,XJ.j O ",
"O j K.^.Q.~.5X9X8X8X8X8X8X8X8X8X8X8X8X8X8X8X8X8X8X8X8X8X8X8X8X8X8X8X8X8X8X9X8X8X8X8X8X8X8X8X8X8X8X8X8X8X8X8X8X8X8X8X9X7X,XC.j O ",
"O k K.!.Q.~.7X0X9X8X8X8X8X8X8X8X8X8X8X8X8X8X8X8X8X8X8X8X8X8X8X8X8X8X8X8X8X8X8X8X9X8X8X8X8X8X8X8X8X8X9X9X8X8X8X8X8X8X0X7X,XG.j O ",
"X k K.~.Q.&X5X8X8X8X8X8X8X8X8X8X8X8X8X8X8X8X8X8X8X8X8X8X8X8X8X8X8X8X8X8X8X8X8X8X8X8X8X8X8X8X8X8X8X8X8X9X8X8X8X8X8X8X0X7X,XG.j O ",
"O l P./.!.~.;X5X8X8X8X8X8X8X8X8X8X9X8X8X8X8X8X8X8X8X8X8X8X8X8X8X8X8X8X8X8X8X8X8X8X8X8X8X8X8X8X8X9X7X1X1X8X9X8X8X9X8X3X<X*XL.l O ",
"O B P./.!.!.!.=X5X9X8X8X8X8X8X8X9X8X8X8X8X8X8X8X8X8X8X8X9X8X8X8X8X8X8X8X8X8X8X8X8X8X8X8X8X8X8X8X9X5X&X&X7X9X8X9X0X7X=X!./.K.l O ",
"X j C.K.!.!.Q.~.5X9X8X8X8X8X9X8X5X5X8X8X8X8X8X8X8X8X8X8X8X8X8X8X9X8X8X8X8X8X8X8X8X8X8X8X8X8X8X8X8X5X,X&X1X7X8X8X7X<X~.P.P.C.g X ",
"eXeXi A H.^.Q.&X8X9X8X8X8X8X9X7X*X*X5X9X8X8X9X9X8X8X8X8X8X8X8X9X9X8X8X8X8X8X8X8X8X8X8X8X8X8X8X8X8X7X6X1X*X2X7X8X2X~./.K.Z 9 eXeX",
"eXeXO z J.^.Q.&X3X8X8X8X8X8X8X1X&X&X5X9X9X8X7X5X8X8X8X8X8X8X8X8X7X8X8X8X8X8X8X8X8X8X8X8X8X8X8X8X8X9X9X6X~.!.5X5X/.P.^.K.B # eXeX",
"o 5 c #.}.OXT.~.*X1X8X9X0X8X<X;X2X1X7X9X9X7X2X2X5X9X9X8X8X8X9X7X2X2X7X8X8X8X8X8X8X8X9X9X9X9X8X8X8X8X0X8X/.!.=X=X!.!.!.T.A.D g X ",
"o s #.[.&..XU.!.Q.&X5X9X9X5X~.~.5X9X8X8X9X5X~.~.5X9X8X8X8X8X9X5X~.~.5X9X8X8X8X8X8X8X8X7X8X8X8X8X8X8X8X5X&XP.!.!.!.!.!.!./.K.k O ",
"o x =.oX'.[.|.U.P.~.>X1X1X=X!./.5X0X9X9X0X5X~.~.5X9X9X8X8X9X9X5X(.~.6X9X9X8X8X8X9X8X3X2X2X3X8X0X9X8X3X=X~.!.!.!.!.!.~./.).Q.B O ",
"X d =.[.].].*.}.U.~.~.!.~.!.Q.&X7X9X9X9X9X5X~.&X5X9X8X8X8X8X9X5X~.~.5X9X8X8X8X8X9X5X=X!.!.*X6X9X9X6X=X!.!.!.!.!.!.!.!././.K.l O ",
"o 8 b #.n #.$.[.OXU.P.!.P.!.Q.&X<X5X5X3X5X<X~.~.<X7X8X9X9X8X7X<X~.~.2X5X8X9X9X8X5X<X(.L.L.~.1X5X5X<X~.P.!.!.U.U.!.!.A.S.J.C.j O ",
"eXeX9 d 9 x =.[. X}.!.W.!.!.!.!./.&X&X&X*X~.!.!.!.;X7X9X0X6X=X!.!.!.!.;X6X9X9X8X;X!.!.!.!.!.~.&X&X~.(.!.W.P.}.|.(.T.Z f k g eXeX",
"eXeXo   . 9 n =.$.[.I.!.!.!.!.!.!.P.!.Q.Q.Q.!.!.L.~.3X8X7X3X~.Q.!.T.L./.3X8X7X3X~.P.Q.!.!.!.Q.P.Q.!.!.!.!.OX].*.Y.S., X O O eXeX",
"eXeXeXeX& $ 9 v #.].{.OX!.~.!.!.!.!.!.!.!.!.!.!.!.!.&X=X=X*X!.!.!.!.!.!.&X=X=X*X^.!.!.!.!.!.!.!.!.W.~.U.OX{.].=.Z p - + eXeXeXeX",
"eXeXeXeX% # o d #.].&.{.I.!.!.!.!.!.!.U.!.!.!.!.!.!.!.Q.!.Q.!.!.!.!.!.!.Q.!.Q.Q.!.!.!.!.!.!.!.!.!.T.!.U.{.&.].#.s O $ $ eXeXeXeX",
"eXeXeXeX+ 9 v n &.].&.*.|.I.!.W.!.!.OXOXT.W.!.!.!.!.!.!.!.Q.OXOXU.!.!.!.!.U.XXZ.T.W.!.!.!.!.~.!.OXXXOX|.].&.].=.b x 5 + eXeXeXeX",
"eXeXeXeX  d #. X*.*.*.*.&.{.U.!.!.U. X XU.!.!.!.!.!.!.!.W.Y. X XU.~.!.!.W.U. X XU.~.!.!.!.!.!.U.}.&.*.].'.*.*.].].#.d   eXeXeXeX",
"eXeXeXeX  x *.oX[.].].*.&.].OXU.U.OX*.].XXU.!.~.!.!.U.I.Y.Z.*. XU.~.!.W.W.U.].*.XXU.!.~.~.!.U.|.].&.&.&.*.*.].].oX*.x . eXeXeXeX",
"eXeXeXeXX x %.[.[.*.].*.*.].]. X X].*.*.*.|.U.E.~.U.}.]. X].*. XP.E.~.~.E.U.}.&.*.|.U.E.E.!.|.*.].&.*.].].].].[.[.%.x X eXeXeXeX",
"eXeXeXeX  8 b #.T T &.*.].*.&.&.$.%.*.'.&. XOXQ.!.OX XY &.=.*. XOXU.U.U.U.Y. X&.Y ].I.U.P.OX X&.&.].].*.].%.#.T #.n 8   eXeXeXeX",
"eXeXeXeXeXeXd s 6 a Y _.'.].'.*._ _ *.].&.[. X|.|. X].'.*.*.*.]..X}.{..X|..X'.&.&.].{.}.}..X].'.].].].'.[.=.c 8 d d eXeXeXeXeXeX",
"eXeXeXeXeXeXX @ * h @.-.].*.&.%.! ! %.*.*.%.&.$.&.$.*.*.*.].'.*.*.&.&.&.=.%.-.-.*.&.*.&.&.%.*.*.%.*.*.*.*.#.8 o o o eXeXeXeXeXeX",
"eXeXeXeXeXeX. 4 y C b.:.@.R R L L P _ O.+.) ) I I ) ) +.Y _._.'.'.&.'.Y U ' :.:.-.`._.Y U ) _ O.O.O.O.O.O._ J 7 3 . eXeXeXeXeXeX",
"eXeXeXeXeXeX. e u.g.g.p.{ E ^ ^ ^ ^ Q W W ~ Q ^ W ~ ~ ` %.].*.'.*.].*.$.) } j.b.>.'.].%.` K W ! Q Q ~ W Q ~ ~ ! 7 & eXeXeXeXeXeX",
"eXeXeXeXeXeX. 0 u.g.s.j.|  .k.x.c.a.( J } { { { { ] ] o.;.;.,.;.+.$.>.;.! ( j.a.:.,.,.:...] ( K E K W W K ~ X.{ 7   eXeXeXeXeXeX",
"eXeXeXeXeXeX  q y.h.g.a.u.k.7.q.w.5.| P ..a.a.i.i.i.i.i.i.d.d.../ / u.u.^ ^ u.a.d.d.d.d.a.u.[ E E ! Q Q P / i.i.q   eXeXeXeXeXeX",
"eXeXeXeXeXeXt 1.3.l.s.a.x.5.q.e.e.9.k.a.l.m.M.M.m.M.M.M.c.v.v.x. . .x.l.X.X.x.c.k.s.h.s.k.i.[ ! [ { Q Q [  .h.f.1.<.eXeXeXeXeXeX",
"eXeXeXeXX r 4.9.q.5.s.a.N.q.q.q.w.q.8.7.8.9.8.0.9.8.9.9.9.9.9.N.s.s.7.N.s.g.N.7.x.i.a.s.s.i./ / u.u.^ ~ u.i.i.l.0.4.t O eXeXeXeX",
"eXeXeXeXO 2.9.t.r.9.c.l.9.e.w.q.q.q.w.w.w.w.w.w.w.w.w.w.w.e.e.9.x.l.9.q.k.l.9.q.l.i.a.g.f.p./ / d.a.{ { h.f.i.l.N.9.r X eXeXeXeX",
"eXeXeXeXO t 0.e.w.9.7.7.q.w.q.q.q.q.q.w.w.q.q.q.q.w.q.q.q.w.e.8.k.k.9.9.k.f.9.9.l.i.a.f.s.u.^ ^ i.a.p.u.a.a.h.k.m.3.C X eXeXeXeX",
"eXeXeXeXX t 6.e.w.q.q.w.q.q.q.q.q.q.q.q.9.q.q.q.q.9.q.q.q.q.w.7.z.k.9.9.l.l.9.9.l.i.a.a.f.i./ / i.a.s.g.a.a.a.s.h.y.w X eXeXeXeX",
"eXeXeXeXeX2.q.B.t.B.t.t.w.q.q.q.q.q.q.q.w.q.q.q.q.w.q.q.q.q.e.7.f.k.0.q.5.5.w.9.l.i.a.f.s.d...u.i.g.g.s.z.z.z.n.n.i.e eXeXeXeXeX",
"eXeXeXeXeXeXw.B.e.w.e.w.q.q.q.q.q.q.q.q.q.q.q.q.q.q.q.q.q.q.w.7.k.k.8.w.q.q.w.8.l.i.a.s.a.f.a.a.a.a.f.a.g.g.a.g.n.g.eXeXeXeXeXeX",
"eXeXeXeXeXeXeX9.9.q.q.q.q.e.q.q.q.q.q.q.q.q.q.q.q.q.q.q.q.w.w.0.m.m.9.w.e.q.8.m.f.d.a.a.a.a.f.f.f.a.g.a.a.a.a.a.d.eXeXeXeXeXeXeX",
"eXeXeXeXeXeXeXeXeXeXeXeX9.B.q.q.q.q.q.q.q.q.q.q.q.q.q.q.q.q.q.q.9.9.9.w.w.8.c.a.a.a.a.a.a.a.a.f.a.g.z.a.eXeXeXeXeXeXeXeXeXeXeXeX",
"eXeXeXeXeXeXeXeXeXeXeXeX9.B.e.q.q.q.q.q.q.q.q.q.q.q.q.q.q.q.q.w.w.w.w.q.w.0.k.p.d.f.f.a.a.f.a.a.a.f.n.a.eXeXeXeXeXeXeXeXeXeXeXeX"
};
