/* XPM */
static char *result[] = {
/* columns rows colors chars-per-pixel */
"64 64 220 2 ",
"   c #4B3FF3",
".  c #5635F3",
"X  c #5C36F4",
"o  c #563EF6",
"O  c #5A3CF6",
"+  c #5E37F8",
"@  c #573FF8",
"#  c #5D3EF8",
"$  c #6435F5",
"%  c #6C35F5",
"&  c #653AF7",
"*  c #6C39F7",
"=  c #643DF8",
"-  c #6C3DF8",
";  c #7335F5",
":  c #7C35F4",
">  c #743AF7",
",  c #7C3CF7",
"<  c #733DF8",
"1  c #793EF8",
"2  c #3C5DF0",
"3  c #3D6DF2",
"4  c #4744F2",
"5  c #4D45F5",
"6  c #454EF3",
"7  c #4C4CF6",
"8  c #4E4EF9",
"9  c #5442F6",
"0  c #5941F7",
"q  c #514CF7",
"w  c #5644F9",
"e  c #5B44F9",
"r  c #544CFA",
"t  c #5B4BFB",
"y  c #4553F5",
"u  c #4A53F7",
"i  c #455CF6",
"p  c #495CF7",
"a  c #4D54F9",
"s  c #4C5CF9",
"d  c #5657F6",
"f  c #5B5EF7",
"g  c #5354FA",
"h  c #5A52FC",
"j  c #545DFC",
"k  c #595DFC",
"l  c #6543FA",
"z  c #6B43FA",
"x  c #644CFC",
"c  c #6C4AFC",
"v  c #7E40F7",
"b  c #7B4BF7",
"n  c #7343FA",
"m  c #7C43F9",
"M  c #724CFC",
"N  c #7D4BFB",
"B  c #6655F7",
"V  c #665EF6",
"C  c #695EF6",
"Z  c #6452FC",
"A  c #6A57F9",
"S  c #645DFC",
"D  c #6B5DFA",
"F  c #7D54F7",
"G  c #745EF7",
"H  c #7C5DF6",
"J  c #7453FB",
"K  c #7B55FA",
"L  c #725DFC",
"P  c #7C5CFA",
"I  c #4563F6",
"U  c #4963F7",
"Y  c #446CF6",
"T  c #496CF7",
"R  c #4C63F9",
"E  c #466EF8",
"W  c #4C6CF9",
"Q  c #5364FB",
"!  c #5A64FB",
"~  c #546CFB",
"^  c #5A6CFC",
"/  c #4474F5",
"(  c #4A73F7",
")  c #467CF4",
"_  c #4C7CF6",
"`  c #4D73F9",
"'  c #4F7AF8",
"]  c #5C77F5",
"[  c #517FF7",
"{  c #5273FB",
"}  c #5D75FA",
"|  c #547CFA",
" . c #5B7CFB",
".. c #6662F7",
"X. c #6963F7",
"o. c #666FF7",
"O. c #6B6DF7",
"+. c #6463F9",
"@. c #6B63F9",
"#. c #656CFD",
"$. c #6C6CF9",
"%. c #7661F7",
"&. c #7C62F7",
"*. c #776FF7",
"=. c #796EF7",
"-. c #7463F9",
";. c #7964F9",
":. c #736CFC",
">. c #7C6CFB",
",. c #6572F7",
"<. c #6972F7",
"1. c #617DF7",
"2. c #6473F9",
"3. c #6B73F9",
"4. c #657DFC",
"5. c #6B7DFC",
"6. c #7472F7",
"7. c #7973F7",
"8. c #7779F7",
"9. c #7A7CF5",
"0. c #7473FA",
"q. c #7B75FA",
"w. c #737CFC",
"e. c #7C7AFB",
"r. c #8336F3",
"t. c #823DF6",
"y. c #8B3EF4",
"u. c #803DF8",
"i. c #8542F6",
"p. c #8C43F5",
"a. c #8D4BF7",
"s. c #8345F9",
"d. c #824BFA",
"f. c #8A4DF9",
"g. c #9143F4",
"h. c #924CF5",
"j. c #994DF3",
"k. c #8155F6",
"l. c #8F50F7",
"z. c #815AF6",
"x. c #8453FB",
"c. c #8B54F9",
"v. c #835CFC",
"b. c #8C5CF9",
"n. c #9354F6",
"m. c #9955F4",
"M. c #945BF7",
"N. c #995DF5",
"B. c #9054F8",
"V. c #915CF8",
"C. c #A05EF2",
"Z. c #826EF7",
"A. c #8564FB",
"S. c #8C64FA",
"D. c #836CFC",
"F. c #8C6CFA",
"G. c #9564F7",
"H. c #9A63F5",
"J. c #946CF7",
"K. c #9B6BF5",
"L. c #9264F8",
"P. c #916CF8",
"I. c #8476F2",
"U. c #8D7DF7",
"Y. c #8475FB",
"T. c #8C73F9",
"R. c #837DFB",
"E. c #8B7BF9",
"W. c #9474F6",
"Q. c #9A72F5",
"!. c #927AF6",
"~. c #9173F8",
"^. c #907AF8",
"/. c #4580F3",
"(. c #4C83F5",
"). c #4E8BF4",
"_. c #4E80F8",
"`. c #5284F7",
"'. c #538BF5",
"]. c #5B8DF7",
"[. c #5583F9",
"{. c #5C84FA",
"}. c #5689F8",
"|. c #5C8AF8",
" X c #5691F4",
".X c #5B92F5",
"XX c #5C9AF3",
"oX c #628FF7",
"OX c #698EF7",
"+X c #6483FB",
"@X c #6C84FB",
"#X c #658CF9",
"$X c #6B8BF9",
"%X c #768EF7",
"&X c #7C8EF7",
"*X c #7484FB",
"=X c #7B84FA",
"-X c #738BF9",
";X c #7B8BF8",
":X c #6493F6",
">X c #6B93F7",
",X c #659BF4",
"<X c #6B99F5",
"1X c #6690F8",
"2X c #6C90F8",
"3X c #7393F6",
"4X c #7B93F6",
"5X c #729AF4",
"6X c #7C9CF3",
"7X c #7390F8",
"8X c #8487F7",
"9X c #8B85F6",
"0X c #838CF6",
"qX c #8A8AF5",
"wX c #8383F9",
"eX c #8980F8",
"rX c #8189F8",
"tX c #9283F5",
"yX c #8491F5",
"uX c #8199F3",
/* pixels */
"L v.V.H.S.S.S.A L R s i s s k +.L v.V.L.L.F.F.D G U s j s s Q S L v.V.N.N.v.S.@.-.W W Q I s k S L P L.L.L.S.S.@.-.~ Q W I R k S ",
"M d.a.M.V.v.q.@X+X2.s a 7 a r x M d.a.B.b.b.Z.@X5.^ 7 7 7 7 r x M N l.j.V.v.0.@X@X] j j a a h Z M x.c.c.b.S.w.-X@X2.Q R i a h x ",
"n v d.c.c.0.#X-X@X*X2.a 7 9 e = > , p.d.f.>.5.+X*Xw...q 5 4 e l n v p.a.x.:.+X+X5.@X#.r a 7 w z n N f.f.x.>.+X@X@X*X2.s a g t x ",
"; : , s.:.|.:X<X3X%X=X@.w @ # & > , m d.;.4.+X2X$X%X;XO.q 5 9 l < , p.d.0.+X#X$X@X@Xe.@.w o X & - , s.d.-. .+X#X>X7X4X2.8 t = % ",
"; , < D | `..X>X6X4X8XR.@.t e z n n M @.{.|.:X,X5X6XuX0X:.w 9 = < v m $.`..X,X<X5X4XwXR.L O X X * < u.L  .[.|.:X>X7X0XR.L + & ; ",
"n n S { _ (.[.@X-X0XqX9XR.-.x - n n +.| |. X.X:X>X4X0XtX^.-.e - > < D ' (.'.oX1X3X&XqXE.T.P l l & , A ~ | _.|.oX-X*XwX^.F.F & < ",
"c S ` ` ) ( | 4.w.R.E.U.E.F.K - - B E ( [.[.[.4.w.e.T.Q.J.D.K - n B Q T E {  .4.w.e.!.!.T.T.P l z B ^ W _ _ [.+Xw.e.T.J.J.F.&.z ",
":.Q W W E E ^ #.:.>.F.L.G.L.b.$.7.R I Y W ~ ^ #.:.>.S.H.P.F.F.o.7.Q W I I W ^ #.:.>.~.W.P.P.S.3.7.Q Q E Y E ~ #.:.>.S.H.L.S.S.$.",
"-.Q Q s i i j S L v.B.B.B.S.S.D P Q i y i j ! S L P B.m.b.v.S.C %.^ Q R i i k S L P S.G.N.V.S...%.~ ~ R I p j S L P B.N.V.b.S.@.",
"+X2.j a y u w x M s.a.f.c.b.e.*X@X3.s y 6 g t x M s.h.h.c.c.>.@X@X} Q j y 7 r Z M N a.h.n.c.0.$X2X1.~ s u a r x M d.c.B.b.v.7.*X",
"7X=X#.j u 9 @ & ; , i.f.x.:.+X*X-X-X2.a u 7 t - < t.p.f.x.:.+X5.@X-X2.k g 5 w = < , y.p.a.:.{.|.$X*X$.h q 5 0 l < m p.c.v.0.1X>X",
"6X0X=X2.g w # & < , m d.:.{.+XOX3X3X7X2.u t z * ; r.i.N :.{.+X#X@X@X=X3.j h w = : : t.d.:.|.|.OX*Xe.R.@.r r # $ * , m N :.#X|.:X",
"-XyXyXwX-.t x x n N n @.| |.XX,X5X4X;X=X@.# - > 1 , n #.[.].,X<X<X7X=X=X:.x l - 1 m M +.|. X.X>X-XrXwX=X$.t z $ * < n D  .{.}.+X",
"*XrXqXeXT.L e - n n D { _ ).|.#X-XwXE.Y.D.F * n m n V ) ).'..X1X7X;XwXR.T.k.& & n n +._ '.`.|.$X%X0X8XwXR.&.z z - c A { { `.}.+X",
"w.R.E.W.P.F.K - - Z ~ ( ) (  .4.w.R.!.F.S.P.z.n c C W / /.[. .+X*XR.E.F.L.J.F l n S ` ` ( {  .4.*XeXE.T.F.L.F n x h Q W ` _ | 4.",
"$.>.F.K.J.L.v.#.=.Q R / E W ^ #.:.D.P.J.F.S.L.<.7.Q T 3 E ^ ^ #.:.D.F.F.J.J.S.3.:.Q R I W W ~ #.:.D.F.P.G.L.S.<.7.Q R R Y ( ~ #.",
"D v.b.H.G.S.S.@.%.Q R i p s k S L v.V.M.b.b.F.X.&.^ R 2 i j ! S L v.b.v.G.H.S.D ;.Q s i i R k S L v.S.L.L.L.S.C P ~ Q U I i j S ",
"J N f.B.V.V.e.@X@X4.R s u 7 r x M N h.h.c.v.9.*X@X3.Q y 6 7 r x M d.a.f.a.b.e.-X+X3.s I i a r x M N x.V.M.b.e.$X@X2.j j y y t Z ",
"- , r.p.f.e.@X$X$X-X2.j a 8 w = n u.p.c.x.:.+X@X;X=X2.s 7 5 w l n t.y.i.s.:.#X<X7X=X2.a 7 q e = n v s.a.a.>.+X$X5X3X3.j 7   o = ",
"; : t.1 @. .#X1X7X%X=X$.t w @ l < t.s.N 0.{.+X1X5X4X;X3.r w w = 1 i.s.d.-.[.}.2X&X;X=X+.9 # # = - 1 u.i.;.4.|.:X>X4X8X:.t o . X ",
"- m M +.| }.|.1X-X;XwXR.L e e l 1 , M @. .|. X:X5XuXyXwX-.e # & > s.s.@.| `.}.$X4XyXrXR.@.w e = - 1 , L } |. XXX>X0X9XE.-.x e = ",
"c M #.[.[.`.|.OX-XrXeXT.F.G e = 1 1 S ` [ ).'.#X@XwX9X^.D.G l = < 1 D { _ ).}.#X%X0XqXE.Y.P = z > n D { _.). X#X-X0XtXtXR.:.Z c ",
"z B ` ` ' ' | +Xw.R.E.W.T.D.K - < S W ` ( ' | 4.0.e.W.Q.F.Y.P z n S ~ { ) ) | +Xw.R.tX!.T.D.H z z B ~ { ) (.| 2.0.R.!.!.E.T.H c ",
"*.R R R W W ~ #.:.D.~.J.P.S.b.O.6.Q W E T W ^ #.:.>.F.K.S.A.b.O.:.Q ~ W E ` ~ #.:.D.J.K.P.D.S.3.0.Q { W Y Y ^ #.-.>.L.P.Y.P.L.O.",
"H R p p s p j S L v.b.N.M.b.S.X.%.^ R I i R k +.L P b.N.V.c.v.@.;.Q R R i i k +.@.P M.H.b.S.S.@.%.W ~ Q i i k S D v.b.V.b.V.V.C ",
"5.#.s p a a r x M d.p.j.B.v.0.$X@X .R s u 8 t x M N a.m.M.c.:.w.+X2.Q s a 7 r t M d.h.j.x.x.0.@X@X2.g j a 7 r x M d.a.B.a.a.Z.5.",
"@X@X^ g g q e = > , p.a.x.3.|.1X3X*X2.g r 5 # & > , i.a.c.=.4.+X+X@X2.j g w @ = * , p.h.c.:.{.$X-X*X3.j g 5 9 = z m f.a.c.;.5.+X",
"3X-X*Xo.a h e - > m d.x.0.|.|.#X-X*X=X:.t @ X $ ; : u.s.;.+XoX:X>X-X%X3.h t @ = ; 1 i.x.:.{.{.#X-X%X&X3.h w @ & > 1 u.f.;.+XOX>X",
"5X6X4X=X@.e z < - n b @.{.'..X$X;X=Xe.Y.-.x = & - n M @.+X].XX,X<X3X%XwX:.Z x - > n M -.{.]. XOX2X%X0XeX-.x l & > < 1 -.{.].XX,X",
"%X0XqXeXY.J * - z > B ~ _ ).|.@X%X0X9XE.T.P x z z c S | `.)..X1X7X=XwXE.T.P z < z z A } | ).|.#X-X=XR.T.T.P l l - < S { }.'..X1X",
"w.e.E.W.F.F.z.c n V ~ W / _  .4.w.wX9XtXT.F.P c x S ~ ` _ `. .4.w.e.T.F.L.M.b n x h Q W _ _ | 4.w.R.T.J.P.S.F z c B W ( (._. .4.",
":.>.F.H.L.S.S.O.7.Q Q Y 3 T ^ #.:.>.T.W.Q.L.S.2.7.Q W Y Y W ~ #.:.>.S.M.M.V.A.2.0.j ~ W / T ^ #.:.D.P.K.S.S.S.<.6.Q T / W W ^ #.",
"L v.B.M.b.b.A...;.! R I I s k D L P v.L.H.J.F.V %.R W W R s k S L v.V.m.M.v.S...%.W Q U i s Q S L v.V.N.V.b.S.@.H W W I R s k S ",
"J d.h.B.b.S.8.*X@X5.Q R y a r x M N s.h.m.B.q.@X$X .i j g a w x M d.a.h.V.b.0.@X@X#.g s y a t x M d.c.m.b.c.:.+X@X} p s s g h Z ",
"n s.f.c.x.0.OX$X$X;X3.s 7 5 @ & - , y.i.p.;.+X$X$X@Xo.q r 9 @ & * t.y.f.v.w.#X#X-X=X#.g y 7 t z > , i.h.c.0.+X#X@X@X,.a a r w z ",
"; 1 m x.0.|.$X$X-X=X=X3.g w e & ; : , d.-.+X|.oX-X-X=XO.h t # & ; , s.K 0.|.1XOX7X;X;X3.8 9 = * ; : t.s.:.{.OX2X2X$X*XO.w w = & ",
"; ; < D | [.#X>X7X;X;X=X-.t x z n n N @. .}..X:X3X%X-X0X0.Z c - < n M #.`.|.:X,X3X4XyX=X@.w & > : > n D | }.XX:X3X%X=XY.L @ & % ",
"> * Z ~ _ _.{.OX7XyX9XE.D.K l - n M +.| }.).'.1X-X;Xe.E.T.z.c n z c ..' ' [.|.OX-X;XqX9XE.P = < n M @.{ _ (.|.$X-X0XR.T.D.K * < ",
"c +.~ Y / '  .4.w.wXE.Q.L.A.J z z V _ | [._.[.4.w.e.Y.F.L.L.F M x k ~ ` T `  .4.w.R.R.W.~.P.F n c +.{ ' _ _ [.+X*XR.U.W.F.F.K c ",
"7.Q ~ I Y W { #.:.>.J.K.H.v.v.o.6.W T T ` ` ^ #.:.D.F.F.L.L.S.,.0.Q Q R I E ^ #.:.>.F.J.G.L.S.<.7.Q ~ ( / ( ~ #.:.D.P.J.P.F.S.<.",
";.{ ~ U I p k S -.P V.C.N.S.D.S G R I R R R k S L v.v.V.G.L.F...&.~ j s i i j S D P b.N.m.c.S.C G ~ R W R R k S L v.V.M.V.v.L.+.",
"@X2.Q R y y h Z M d.c.m.M.v.>.+X+X} i a a 8 h x M d.f.c.B.c.0.$X-X3.d s i a h Z M N f.j.B.b.:.@X@X} R R s g r x J d.h.h.c.v.0.-X",
"*X@X<.j g 5 @ = < , p.B.V.q.+X#X$X-X#.r w 9 e & ; t.t.f.x.0.{.+X=X=X3.s u a e l < , y.h.c.0.oX1X>X2X1.s g r e x < u.p.f.x.:.+X@X",
"2X-X*X3.h w . $ % > s.f.>.+X|.:X>X%X=X@.r w $ % ; : u.m -.+X+X4.w.=X=Xo.q w X & > , d.x.0..X:X:X>X3X=X$.r w e z , t.i.x.0.{.#X$X",
"3X%X=XwX-.x = % % * < D  .|. X:X3X&X0X8X$.Z z * % < m S | {.:X1X7X4X;XwX-.# & $ - M M 3.]..X:XOX$X9.Y.Y.L # e & , , N #.`..XXX<X",
"%X;XwXY.T.P c z z z S { |  X XOX-X=X0X0X9X&.n n M c +.{ _ ).|.2X7X;X8XE.T.F = l = - ..[ |  .+X#X-XwXE.F.D.A & ; > n B ( (.'..X$X",
"w.R.E.T.T.F.K M c S W W _ _.[.4.w.e.Y.R.^.K.v.M c +.{ ( ) _.[.5.*XR.R.W.W.P.P z x d T Q ~ {  .4.w.R.^.W.D.F.F n z Z W E ) |  .5.",
":.D.P.F.P.J.S.O.q.Q R I 3 ` ^ #.:.>.A.A.M.N.L.3.7.Q W E E T { #.:.D.F.L.H.L.A.o.:.g a j U T ~ #.:.D.W.T.T.T.S.O.:.^ ` / I R ! #.",
"L v.b.b.S.L.J.D P ~ Q i 3 s k S L v.c.c.a.m.S.@.P ~ R R i i k S L v.V.N.m.b.A.S P Q s a i i j +.L P L.S.S.L.G.@.-.W W R i s k S ",
"M d.a.f.x.V.I.$X$X2.k s 6 7 h Z J d.a.g.a.f.>.5.@X} Q R u u r x M d.h.h.V.A.0.*X+X2.k g y 6 7 x J x.c.c.x.l.D.@X-X} s g 8 7 r x ",
"< t.i.d.s.;.#X$X$X-X3.j 7 4 w l < i.g.a.x.:.4.+X@X$X4.j g 7 w = < u.p.c.v.7.#X@X@X*X3.j a 5 9 = - s.p.f.f.;.#X@X-X@X2.t r 8 @ = ",
": : , N $. .#X$X-X*X=X$.r w . $ ; r.i.N 0.#XOXOX$X$X*X$.h w # % ; , m x.0.oX1X2X5X%X;X3.g q o & ; : u.s.;. .|.oX-X-X=X:.h w e & ",
"; 1 n D | [.|.2X3X;XwX=X$.x = $ ; , N #.`.|.:X>X>X-Xe.Y.G # & % > z M 3.|.|.:X<X5X4X0X=X:.t x & ; > < L  .}. X#X3X&XwXR.$.t = * ",
"n M V ` _ (.}.#X%XrXqXeXT.P l z z M S ( _ `.|.1X7XrXE.F.S.K & x z z ! _.}.{..X1X%XrXqX9XR.;.l n n n A { _ ).].OX-X;XqXeXY.P - < ",
"x A ~ ` / _ | 5.w.R.E.T.P.L.K z z B ` _ _ | {.+X*XR.^.W.F.A.L z l ! ` T { |  .4.w.R.E.E.T.~.z.n c S { ' _ _ [.4.w.R.E.U.F.P.F M ",
"*.~ { ` Y Y { #.:.D.F.G.G.L.A.3.7.Q T E ` ` ~ #.:.D.Q.K.P.A.A.o.6.R R s R Q ^ #.:.>.F.S.S.L.G.O.:.Q ` ` ` E ^ #.:.>.F.L.P.G.S.3.",
";.W ~ R I i j S L v.b.m.M.S.S...P W I p s s j S L v.M.H.L.S.A...@.R j a y s k S L v.B.c.B.M.L.C %.W W R i R k D L v.V.n.B.b.F.@.",
"@X .j j i a r x M d.a.j.c.v.9.2X-X} s s g 7 r x M d.B.m.b.v.q.+X+X2.j a u 7 r x M d.a.a.c.b.q.@X@X} g g u y h Z J d.l.n.c.b.Z.@X",
"+X-X3.d a 8 0 = < u.p.h.x.3.|.@X7X%X2.d g q w l < v p.l.b.0.OX#X$X-X2.j q 5 @ & ; r.y.s.N =.+X@X*X*X$.w 7 4 9 l < , p.x.c.=.5.@X",
"OX-X=XO.a t l & % , i.d.:.[.{.$X-X-X=XO.r r l - % : u.N 0.|.:X>X>X5X0X:.t @ X $ ; : v N @.4.+XOX-X*Xe.@.8 5 X % ; , m d.:.@X#XoX",
">X4X8XwX-.e - z < n N $.{.'. X1X%X;X=XY.L w & * > < n @.[.}.|.1X$X;X8X^.P e l = < M N $.| `.XX:X5X4X9XR.@.w e & > 1 n .. .|.,X,X",
"2X;XeXU.D.F l l M M +.[.`. X|.#X-X0XeXT.D.K - - z M +.{ _ _.|.#X-X=XE.!.~.P e x M J @.| `.)..X$X%X0XqXeXY.G = z n n S { ' `.|.:X",
"w.Y.W.Q.F.D.H l z V ' _ _ [.[.4.*XR.!.W.P.A.K c x f ' | _ _ | 4.w.R.T.Q.J.F.L z l +.{ [ (._  .4.*XR.!.!.T.T.&.l z +.~ W / _ [.+X",
"$.>.P.K.F.A.b.,.:.R R W W W ^ #.:.D.P.J.~.P.S.<.6.W T ` ` W ^ #.:.D.F.J.K.F.A.2.6.Q W W W W ^ #.:.D.P.P.F.F.F.3.0.Q ^ E Y T ^ #."
};
