/* XPM */
static char *result[] = {
/* columns rows colors chars-per-pixel */
"64 64 20 1 ",
"  c #170F0B",
". c #180F0B",
"X c #17100C",
"o c #19110C",
"O c #25170E",
"+ c #27180F",
"@ c #28180F",
"# c #271910",
"$ c #2C1C13",
"% c #301F15",
"& c #2F2016",
"* c #312116",
"= c #352419",
"- c #39271B",
"; c #3C291D",
": c #3E2C20",
"> c #412C1F",
", c #422E21",
"< c #463124",
"1 c #483325",
/* pixels */
"11,-=*%oo%*=->>,><>-=%@.o%=--->>,<>-=%$oX$::::<1<<,-=$@.X@&=;<<<",
"1,>-*%@@@@%*->>>>>--%%@@$@$=-->>>>>-=%$%&$=:::<<<<,-=@O@@@#=-;<<",
">>-=%@%@%%@==-->>---%@@%%$$$=-;>>>--*#%=**%-=:::,,;-%@@$@#@&-;;,",
"-==*@%==%*%@*===-==*$$%%==%$*=;;>>-*$*===:=$*:::,>-%@$*%**&@=---",
"=%$@%==---=*@%===*$$**=-;--=$*;;:-=$=-;;;;;*$**---%@#%==-==*$**=",
"@@@$%=>>>-==%@@*&##===;<,,,;*$*-*&$*-,,,,:;=*#$*=$@$%==--->=*O@@",
"@@@%=>>>>>--=*@@@O$=;;<111<;=%$%$#*=:,<<<<:-=%#$##$%%=->>--=*@O@",
".@%%=->>>>;-=*@oX#$-;,1111<>-=$oX#$=:<<11<,:-*#oo#$$=-->>>>==*@X",
"X@@*=->>>->==$@X O#-><1111::--$ X#*=;,<11<<:;*#Xo$**-;:;>>;--*$X",
"@@@%==>>>--=**@@OO#=;<11<<:-=*$$#$$*-;<<1<<;=$$$##&=;;;>,>>-=&@@",
"%@@@*=----=*&#$$$@#$-,<<<,:=*#**$$#*=;>,<:;=*#&*==$=-;;;>>-;=$*=",
"=*@@%%==-=**#&*===$$-,,:::=****=::*$*;;>;;=&#&*=--*$==;;->--&=--",
">-**@$*****#**-----=*::;==*$*-;;::;*$=---=*$==;;;;=*&======&=;;<",
">>-=%@$%*$#$*-;>,:;;:%%*$$#*;,:<::;-=#$%=##*-;;:;;;==$&$&*#*=;:<",
"1>>=*$OO@O#*-->>,,:==*#$$#%-,,<1<,:-=$O@##*=::<<<,;;;&####$=;;<<",
"1<>-=$@.X@%=--><,,:::*$oo$%-,<11<::-=$@.X$=-::<11<>;==#oo$&=;:11",
"1>>-%$@.o$*-::,,<,:;;*$ X$&:::,1>>>>-$O.o#$::<<<1<,;:$#XX$%=::<<",
"1<>-=$@@##$=--,,,,,;=*$$$#$*-:,,>>>-%$O@###=:,,<11<;=%####%=::<<",
"<>-=*%%%$$#*=:::,,;;*$*=$$#$*;;:>>-=%@%%%$$*::,,<,:;=$%$*#$&=:::",
">==*@*==-=*#*=-:,;;=$*=::**$*----=%@@%=-=%$#$:-:::;=%%=*::*%%=-:",
"==&#*-;>::-=$**:=:*&:&::::-=$**=%%@@%=--:-*%#=-:;;=**:::::-$#$*-",
"==#&->,<<::=*$$=$$#*::::<<:-*$$%%@@%%-->---*%#%%**$*==:<<,-*$#$*",
"#$=;;<<<<<:::$$##O#=:::11<:--$##@@@%=->>,:-=%$@@#$*=::<11<:-*$$$",
"o#=;;><1<::::=$XX#$*:<11<<<:--$X.@%==;>,>,--*%#.o$*-::1111,;-=#o",
"o$*=;:<11<,;:&#XX#$=;,<1<<<:-*$o.@%=->>>>>;=%%@.X$==::111<::==#X",
"$#$=;:<<<<>;*&$$##$==:<1<<::**##@@@==->>,:;%%$+@#$&:::<:<<::=%$$",
"&$$=-:::,:;=&#**&$$==:,:,::-*$$$$$@%==->:::%$O$%$&#=::::<:::&#$%",
"==*#=;;:;;;=#$:::::&==:::--=$$%%=%%$%==-==%%O$%-=:=$%::::::%$$%:",
";;==$-:===***-:::::*$&*===*%:%======%===**=#&&::::::$=::::=$&*::",
"<<:-*&***$$*-;:<:::=&$%%%%$*::;:>>>==@@%%%#::::::::::$$&$%#%::::",
"<<::-*#$##$=-,<<::::*$$$#$%*::,<>>>-=%@@#$&=::111<::=%$$##$=::<1",
"11<;-*$Xo$**:,<<11<::$#XX$*:::<<1>>>=%@.X#%=:::11::::=$oX#$::<11",
"11,-=%@oo$&*;<111<<<-*$XX&=->,1111>=%%@..%*->><111::=*$oo$*::<<1",
"11>-**@@&#$=;<<<1<<>-=@#@#=;>><1>1>>=%@%$%%=;,<<<<:;=*##$$*:::11",
"<,>=%@****#==;,,::;-=$**==*=-;>>>>>>%%%%%@@*-><<:::-*#$&**$=::<<",
">>-=@*-=-*$#=;;;;;-=$*=--==*=-->>>=%%*=*=%%@=;,;:--=$&*=;=-*=:::",
"-==%*>>--===$=;;-=*&==-;;-;-%==-===@==>====%&=--=**$==;;:::=*:=:",
"&$@*->>>--==*$*=*&$&=-;>,,>;-$%%%%$=>>>>>--=*$=*&&#&=;:<::::*$&$",
"$#*=>>>1>>-=*#@#$#&=-><11<,;=$@@$%%>>>>>>>--*&$$##*=;,<<<:::=*#$",
"o#$=>>1>1>>=*$@XX#*=->111<,;=%@..$*=>>>>>,;;=&$XX&*=::<111:::=$X",
"o$&=;,<><>>=%@@XX@==->111<>-=%@..%*=;,<<>,>-=&#oX#%:,,1111,:-=$X",
"$$*=-->>>-=*@@@@#@@=->><<>>-%@@%%$%=;,><<>;-*&#$$#*;;,,,<<,;=*$%",
"**$*==>>>-=*%@@#$#@*=->>>>-=%@%=-*@*;;><,,;-&#&**%$-;;:;:;--*$*=",
"-==*==----=*@$&*=*$#$*=>--=%$%=--=*%;;>>>;-*$*=-::-*---::-*=$*==",
";;-;%%%%%%$@%@%%>=%%@%*=**%@*-->>>;=*==--;-*=::::::-%%=-=*%$:&::",
",>;;=%%@@OO%*%>>>=>%*$$%%@@%=->>>>>;=#&**=*-:::<:::-*#$%$##%::::",
"1<>;=%@@@O@%*>=>>>>=-%@@@@@%->>1<<<>;&#$#$-:::11<,;=*$OO#+#*:<:<",
"1<>>-=@..O@$%>>>>>>>-%@..@@%->><<<<>;*#oo$=:::111,;-=$+  O#%::<<",
"11,;:&#XX#$&*;,,>>;-=%@. O$%=>><<,::-$#oX$*=:,,<<,;--$@  O$=;:<<",
"<<:::*#$##$$*;>>>;;-%@@@OO$%=>>>,::;*$$$$$$*-,,,,>--*$OOoO$=-::<",
",:;;=$&==$#$=-;>>>;=%$$$$$$%==->----*$$*%%$*--::>-==$@@@@##$*:::",
";-=*&*==:=*$$--;>;=*%%=%===%==-----=$===:=*%*--:-==$@@$*&$$#$-::",
"=&&$=-:::--=%==--=$$=-;---;=$$%=%**$*--;:--=$=*==*$##&*==**$#=:=",
"$$#&-;::::--=%%%**#=-;;,,;;=*@$$$$$-;;;,:-:-=#%%=@@@$==-;-=**$*$",
"##&=;:,<1<;:;*@$#$$=::<1<,>-*$O@O@%-;,,,<,::-*$$@$$$*=>>:;--=*##",
"o$*=-:<1<<<;=%$oo#*;;,<111:;=$#X.@%=;,,<<,:::-$oo$=---><<<:::=$o",
"o#==-;<<11<:**#XX#*-::<111,;=%@..@%=->><<<,:;=$oX#$::,<<1<:::*#o",
"$$*-;;,<1<:-**#$$#*-;:,<<<;;*%@@O@@*->><<,,:-%##$$&:::<<1<:-*&#$",
"**$*-;:::::==#=-*$%=;:;,,>--*@@$#@@%=->>::-:-%%***$%=:::<::-*#*&",
"--*$=:::::=*#*=::-=%-;::;;==$==%===$*=>--:==$===*:*$%-::;--=***=",
":;;**=-=-=*$==::>:--%=--==*$==-=---*@%====*$*-;;::=%$*:::=*$==:=",
",::;=$%==*$=-:::<,:-*%%*%$$==>>>>>>=%@@%*%$*--,<:::=*$$&&&$*::::",
"<,;-**$$&#==;;,<1,:-=%$##$*=->>>>>>=*$@$$$*-;:<1<::-*$####*=::<<",
"1<,--*$oo&==;;,<1,:-=$$oo$=;>>><>>>==*$oX$=-:,<11<:-:*$XX#$*-<<<"
};
