/* XPM */
static char *result[] = {
/* columns rows colors chars-per-pixel */
"64 64 27 1 ",
"  c #450000",
". c #4C0000",
"X c #4F000F",
"o c #540000",
"O c #5A0000",
"+ c #55000F",
"@ c #59000F",
"# c #550010",
"$ c #5C0011",
"% c #640013",
"& c #6C0115",
"* c #6D0618",
"= c #6F0818",
"- c #730016",
"; c #7A0017",
": c #750218",
"> c #7C0019",
", c #83001A",
"< c #8C001C",
"1 c #93001E",
"2 c #98001F",
"3 c #950020",
"4 c #990021",
"5 c #8B6646",
"6 c #8C6847",
"7 c #8E6B49",
"8 c #916D4A",
/* pixels */
"44<,;&O66O&;,<1111<;-&o55O>>,<1112<,-&O58O>>,13343<,;%.66.%:,<34",
"41<;-%$oo$%->,111<<;-&+oo$&->,<<1<<,-&%OO%:>><3333<>-$@..#%&><11",
"1,,;&@%&%%%&;,,<<,,;&@$%&%$%->,<<<,;%%&::*%:><<11<<;&@%%$%@&>,<<",
",;;&O&--;&&%&-;>;;;-$%&---%%&;,<<,;&%&&;:::%*><<<<>&@%&&*&%$;>,,",
"-%%@%;,,>;-&@%--&&&%&&:>,,>-%&>,,>&$->>,,,>-%&->>>&@%&-;;;;-%&--",
"%@@$-><1<,>;&@&&*$$&>:<11<<>&%*>:&$:><<<<<,:&$$*:%@%&-;<<,,;%@%%",
".@%&;,<<<<,>;&@..X$;,<34341<;&%Oo$&:,13433<,;%$oo$$%-;,<<<,;&%+.",
"5.%-;,<211<>;&.87.&><<44341<;:O88.&:>13444<,>&o77o%&;,<<<<<,&&.5",
"6.%&;,<11<,;-&.77.%;<13444<,>>O88o%:><34433<>&o78o&&;<<11<<;-&O5",
".@%%;,<1<<,-&&#. +$*,13343<>-&%oo#%&><1433<,-%$oo%&:,<<<11<,-&%o",
"%%@$&;>,,,;-&$%&%@@&><<13<<-&$%*&%$*:,<<1<<:&$%:::%-;><<<<,>&%&&",
">&@O&-;;;;-&$%&---%@><1<<>;&%&:::>*$&>,<<>:&%%&:>:&%&>>,<,;-%-;,",
"<>-&%%&-&&%%%->>,,;-:>,>:-&%;>>>,,>-%;>,>&&%&:>,>>-&%:-::-:%:>,<",
"1<,-&@%&*%@$-><<<<,,>&&:&%$&><<1<1<>-$%&;%$&:<<1<<,>:%%&%&%&:,<1",
"21<;&%#..@$&-,<111<>:&$oo$&;<13433<>-%Xoo$%:,11321,,>&$oo$&:>,33",
"211;-%o77.&;><1143<,>:o78o&;<14243<>;%.67o::,<3341<,:&o78o*:>133",
"22<,-%o78o*:,<1411<<>=o88o*><11221<,>%.78o&:><13431,::+88o&:>144",
"21<,-%$oo$%:>,<111<>:%%oo$%&><111<<,;%@..#&:,<13431,>%#..$&-><14",
"1<,;&$%&&%#&:,<<1<>>&%*:*%$%;,,<<,>-%@&&&$$*><<<1<<>:%%*%&%&;,<1",
",,-&%&-;::&%&>><<<>:&*:>>&%%&;>,,;&%@%-;:*%%:>,,,,,:%%*:>>*%&;>,",
":*&$&>,,,,>:%&:>>:&&*:><<>>:%&-:--$@$-,,,>-%%&;>>>*&&:>,<,;&@%-;",
":&$&><<11<,::$&:*$$&>,<333<>&$%&%@O%-;,<<,>-%@&-:&%&>><<3<,-%@%&",
"O%*>,<1333<>:&%..#$:><3333<,;&$..+%&;,<11<,>&%@.o$&:><4433<>&%$O",
"6o:><134431,>:O87.%:,334333>;:O87.&-,,1111<;*&o78o::<<4444<,>:O5",
"6o&:,<44421<>*o88X%:,334433>;*o88.&-,<<211<;&&.88o:><<3343<,>:@6",
"o$%:><3341<>*%$oo#$-><33331>&&$.o$%-;,<<11<-&$@..%*:><3333<,:&$o",
"%%%->,<<<<,:&$&::&%::,<11<<>&@%%%%@&-;,<<,,&$@%&*&%*:,<1<<,:&$%%",
":-&$:><,,,>-$&:>>>:&::>,,>>*%%&&*&&%&-;,;;;&@$-;>::&:>><<>>&$%*:",
"<>:&%>>>;--&&:><,,>:&&&::-*%-:;;;,>-&&-;:-&%*:>,,,,:&:>>>:-%::>,",
"3<,>*%&*&%%*:,<1<,>:&$&&&&%&><<<<<,>-%&%%%%-:,<<1<<>:%&&*&$&>,<3",
"33<,:&$oo$%&,<3333<>:&$oo$&:,<311<<,;%o..%*:><3333<,:&$oo$%-,<44",
"343,>:o88o&:,133343,>&o77o*>,334221>;&.77+::,33443<,::o88O&:<344",
"221,:&o88o&-,3443311,&o77o:>,34422<,;%o88O::,13443<,;&o77o:><<34",
"21<;&%$oO%%-,<34331<>&$oo$:><<1322<,-&@OO%&-,<3<33<>-&$oo%&>,133",
"1<,;&@&-:%$&>,<<<<,>-%&&:&&->,<<<<,;&%&--%@&><<1<<<>&$%&*&%;><<3",
"<,>-%-;,;:%%:>,,,>;-%&;>>>:%:>><,,;-&-----%O:,<>>>>:%&&:>>:&>><<",
">;-&-,,,;;-&%;;>:*&%&&>,<,,:&;-:--&&-;,;;;-&%>>::%&%-;,,,,,>&::>",
"&%$&;<<<<,>;&%&:*&%-;><<<<<,;%&&&&%-,<<<<,,;&%***%$%:><1<<,>*&**",
"o$%-,<121<,;&$$oo$&;><1441<,;%$oo%&;,<<11<<>:&%o+%%:,<1433<::&$O",
"6o%-,11221<;&%.78o-;,134421,;%.78O;,,<1211<,;&o87o*:<<34433>::O6",
"7o&:,11111<;%%.78o&;,<22221,-&o78O::,<3211<,:*o88o*>,124443,::o7",
"o%&-><111<,-%@#..#%-,<1221<>&%@OO%&-,<1121<>*%$oo#&>,<1143<>:&%O",
"*%%&;,<<<,>-%@$%%$$&-,<1<,,;&@%;>&@&><<11<,;%$%**%%>,<<<<<>>*$&:",
">;-&--;;>>:&@$%&-&%$&-;,,>;&$--,>;&&:,<<<,;&%&:>>,>&:>,,<>:*%%::",
",>>>&&&&&%%%-O-,,;-%O&---&&@&;,,,,>>&*:>;>:&:,<<<<>:%&;>:&&%::>,",
"<<<,-%$%$$@%--,<,,,;-%%&&$@%-,<<<<<,;$%&:&&>,<<<3<,>&$%&%$$&,<<1",
"33<,;&@o.+O&-,<<<<,<>&@oo#O&;<<221<,>&#Oo%:>,<344<<>&%#..#$&<<1<",
"43<,;:o77.%&;,112<<<>-.67.%-,<12443<>:o78O:>,<4443<::&.77 $*,333",
"44<<>:o88.%&:<111<<,;&o77 %&><1122<<:*o78o&:,11211<>;& 78 %:,<13",
"33<>>*$oo$$&;,111<,;-$@..+%&;<111<<>&%$oo%%&><121<,>-%X  +%*><<1",
"<<,>:$&::&$%-,<<1<,;&@%&%%%&-><<<,>>&%%&*&%&>><<<,,-%@@@$$#%:><<",
",>::%**:>:*$&;;<,,;&%&-----&-;>,>;:-%:;;:-&%&;>>,;;%@@%&%*$$%>,>",
":&%%&>>,,>>&%--;>-&%::>,>>>;%&-&&&&%->>>,,>-%&;;-&%@$%-;:-:%$*>:",
"&%$&:,<31<,>-&&&&&$&>,<<<<,>&@$$%%$;,,<<<<,>-%&*&%@$%;,,,,>:&&&&",
"o$%-><1<1<<>>&$Oo$%:,<1431<>&%+..@&>,<<111<,>&%Oo%%&;,<11<,>:&$o",
"5o&:,<3333<<>&o78o&><<4443<>-&o77o&;<<12231<>>O88o:;>,1121<<>:o6",
"6O-:><34431>:*.78o&><<4333<,-*o88.&-,<12211<,:o88.:><<3444<,>:O5",
"o$&->,13431>&%$o.$&:,<1133<,&%#o.#%&;<1141<,>%$oo$&:><3341<>*&$o",
"*&%&>,<<31,:&%::*&%:><<<<<>:&$O%%$@&;,<<1<>>:&%&**%&:<<31<,>&%%&",
":>-%;,,<,>:*%&>>>>:&>><,,,>&%---::-%&-,,,>:&%*::;:&%&:,<,,>:%%&:",
",,>;&;;::*&%&:,<,,>:&:>>:-&%;;;,,,,&@&----&%&;>,,>;&%&:>::&%::>>",
"1<<>-%%::&$-:,<111<>&%%&&&%&;,,<<<,;&@%&:&%&:,<11<>:&$%**%%*><<1",
"41<>-&$oO%&>><1321<,:%$oo%&:,,<11<<>-%@oo%&:,<2441<>:&$oo$%:><33",
"43<>::O57O:>,<1321<>-&o55O:>,<1221<>:&O57O::<<4441<,>&.56.%:,<33"
};
