/* XPM */
static char *result[] = {
/* columns rows colors chars-per-pixel */
"64 64 210 2 ",
"   c gray13",
".  c #222222",
"X  c #232323",
"o  c gray14",
"O  c #252525",
"+  c gray15",
"@  c #272727",
"#  c #282828",
"$  c gray16",
"%  c #2A2A2A",
"&  c gray17",
"*  c #2C2C2C",
"=  c #2D2D2D",
"-  c gray18",
";  c #2F2F2F",
":  c gray19",
">  c #313131",
",  c #323232",
"<  c gray20",
"1  c #343434",
"2  c #353535",
"3  c gray21",
"4  c #373737",
"5  c gray22",
"6  c #393939",
"7  c #3A3A3A",
"8  c gray23",
"9  c #3C3C3C",
"0  c gray24",
"q  c #3E3E3E",
"w  c #3F3F3F",
"e  c gray25",
"r  c #414141",
"t  c gray26",
"y  c #434343",
"u  c #444444",
"i  c gray27",
"p  c #464646",
"a  c gray28",
"s  c #484848",
"d  c #494949",
"f  c gray29",
"g  c #4B4B4B",
"h  c #4C4C4C",
"j  c gray30",
"k  c #4E4E4E",
"l  c gray31",
"z  c #505050",
"x  c #515151",
"c  c gray32",
"v  c #535353",
"b  c gray33",
"n  c #555555",
"m  c #565656",
"M  c gray34",
"N  c #585858",
"B  c gray35",
"V  c #5A5A5A",
"C  c #5B5B5B",
"Z  c gray36",
"A  c #5D5D5D",
"S  c gray37",
"D  c #5F5F5F",
"F  c #606060",
"G  c gray38",
"H  c #626262",
"J  c gray39",
"K  c #646464",
"L  c #656565",
"P  c gray40",
"I  c #676767",
"U  c #686868",
"Y  c DimGray",
"T  c #6A6A6A",
"R  c gray42",
"E  c #6C6C6C",
"W  c #6D6D6D",
"Q  c gray43",
"!  c #6F6F6F",
"~  c gray44",
"^  c #717070",
"/  c #717171",
"(  c #727272",
")  c gray45",
"_  c #747474",
"`  c gray46",
"'  c #767676",
"]  c #777777",
"[  c gray47",
"{  c #797979",
"}  c gray48",
"|  c #7B7B7B",
" . c #7C7C7C",
".. c gray49",
"X. c #7E7E7E",
"o. c gray50",
"O. c #808080",
"+. c #818181",
"@. c gray51",
"#. c #838383",
"$. c #848484",
"%. c gray52",
"&. c #868686",
"*. c gray53",
"=. c #888888",
"-. c #898989",
";. c gray54",
":. c #8B8B8B",
">. c #8C8B8B",
",. c gray55",
"<. c #8D8D8D",
"1. c #8E8E8E",
"2. c #8F8E8E",
"3. c gray56",
"4. c #909090",
"5. c gray57",
"6. c #929292",
"7. c #939393",
"8. c gray58",
"9. c #959595",
"0. c gray59",
"q. c #979797",
"w. c #989898",
"e. c gray60",
"r. c #9A9A9A",
"t. c #9B9B9B",
"y. c gray61",
"u. c #9D9D9D",
"i. c gray62",
"p. c #9F9F9F",
"a. c #A0A0A0",
"s. c gray63",
"d. c #A2A2A2",
"f. c gray64",
"g. c #A4A4A4",
"h. c #A5A5A5",
"j. c gray65",
"k. c gray66",
"l. c #AAAAAA",
"z. c gray67",
"x. c #ACACAC",
"c. c gray68",
"v. c #AEADAD",
"b. c #AEAEAE",
"n. c #AFAFAF",
"m. c gray69",
"M. c #B1B1B1",
"N. c #B2B2B2",
"B. c gray70",
"V. c #B4B4B4",
"C. c gray71",
"Z. c #B6B6B6",
"A. c #B7B7B7",
"S. c gray72",
"D. c #B9B9B9",
"F. c #BAB9B9",
"G. c gray73",
"H. c #BBBBBB",
"J. c #BCBCBC",
"K. c gray74",
"L. c gray",
"P. c gray75",
"I. c #C0C0C0",
"U. c #C1C1C1",
"Y. c gray76",
"T. c #C3C3C3",
"R. c gray77",
"E. c #C5C5C5",
"W. c #C6C5C6",
"Q. c #C6C6C6",
"!. c gray78",
"~. c #C8C8C8",
"^. c gray79",
"/. c #CACACA",
"(. c #CBCBCB",
"). c gray80",
"_. c #CDCDCD",
"`. c #CECECE",
"'. c gray81",
"]. c #D0D0D0",
"[. c gray82",
"{. c #D2D2D2",
"}. c LightGray",
"|. c gray83",
" X c #D5D5D5",
".X c gray84",
"XX c #D7D7D7",
"oX c #D8D8D8",
"OX c gray85",
"+X c #DADADA",
"@X c gray86",
"#X c gainsboro",
"$X c #DDDDDD",
"%X c gray87",
"&X c #E4E4E4",
"*X c gray90",
"=X c #E6E6E6",
"-X c #E7E7E7",
";X c gray91",
":X c #E9E9E9",
">X c #EAEAEA",
",X c gray92",
"<X c #ECECEC",
"1X c #F6F6F6",
"2X c gray97",
"3X c #F8F8F8",
"4X c #F9F8F8",
"5X c #F9F9F9",
"6X c gray98",
"7X c #FBFBFB",
/* pixels */
"3X-XU.1.K s - @ @ > c [ a.~.:X6X5X;XT.8.Y s * X o , B { y.!.>X6X6X:X!.w.L t & @ $ 2 m ( q.R.-X3X2X*XI.9.Q g ; @ # : a P 8.R.=X2X",
"=X|.M.&.S t : * = , s T 6.G.OX:X:X.XV.:.L a - $ $ - s P >.Z.oX:X;XXXA.-.C q ; ; , 9 M Q <.Z.oX;X=X XV.1.R f 3 3 2 5 d U 3.A.XX-X",
"E.B.w.[ m r y i i y i V } y.A.W.R.N.9.` M e 0 e w 6 7 k Q 0.A.!.Q.Z.q.Q j 0 r a g k z G  .p.J./.^.H.i. .D f h c z h d H $.h.K.!.",
"e.-.' H z N U Q Y H N l A ' <.w.9.%.( S h h b C C v d u v / 5.s.p.3.) n a z V F J J C c J  .8.s.f.e.+.K c B K Q ~ W J S _ 1.y.p.",
"U Z x j Z { q.d.y.:.` C g m U / E F m z V U | -.:.$.( C s c E ..{ T m f Z ` &.<.1.&.) Z j b H / ] / D x Z / *.0.y.e.;.( H T ~ Q ",
"y 8 9 x ( t.L.`./.S.t.[ B d k c k i p D [ 5.x.L.Y.D.f.X.m r h M x a y N | a.A.U.U.N.9.( b q q f k f u b W 4.m.T.!.U.c.-.J d a a ",
"& = r D =.C.+X,X,X+XK.w.^ x 7 > : ; f _ e.Z.}.=X-X@XI.9.K u 2 < - > u K 5.H.XX=X-X.XC.;.J t = * - > y Z @.b.}.-X:X#XR.r.Y s > = ",
"O * a U 7.R.:X7X7X,X).h.| v > # @ & h X.l.(.-X2X2X:X^.e.R j > % # & y L 9.E.=X2X2X;X~.t.~ h * @ @ = y K 4.I.-X6X6X>X).i.E h , O ",
"O * p L 4.Y.:X6X7X>X~.u.` z ; # @ # s [ k.).;X2X2X-XY.4.I j > # # - p J 1.I.=X2X2X;X/.i.~ f * @ @ - p P 6.U.-X6X6X;XE.0.U d : O ",
"* : e B +.m. X;X;X XM.-.P g 2 - & & q L 8.H.XX=X=X{.x...V y ; - = 1 a S +.b.|.-X-XXXG.3.G e ; : < 5 f J *.m.}.-X-X|.N.-.G u , - ",
"h u 9 j E 6.m.I.I.b.5.~ m i s f i 0 0 b  .d.G.R.I.z.=.K h 0 w i p p a m Q 5.N.R.R.V.w.( k 7 t l m c g B ( 7.M.T.R.V.w.{ C p f l ",
"[ L z f Z ( &.6.4.#.! Z j n G Y Y G m v E ;.e.w.3. .J z p j M S H J Z b F ` <.r.0.#.E m p j D Q / P M j Z ) =.0.w.,.{ L m S Q | ",
"g.4.) D v N L ! W G b j Z _ :.e.t.4...R H ! ) E G c p i N Q o.:.<.=.| E S H W ) E V g s B / ;.q.6.+.E V x C K U Y J B v J } 5.g.",
"/.H.y.} Z a g v x a r c ( t.H.(./.D.y.o.P x h s e 4 3 l ' e.m.L.P.M.y.$.Y g d l g e q M { r.Z.T.I.z.1.` F g p y t y u m ) 9.V.!.",
":X@XJ.4.I d 2 > : : t S -.S.@X,X>XXXB.:.T h > $ @ @ 5 F 0.L..X*X=X|.C.6.W a * = = ; i T 7.S..X-X*X[.b.:.E f - # + ; t S #.n.}.=X",
"3X,X).u.Q g - + O % i R e.!.:X6X6X;XT.9.Q l ; + o O 0 R k.].:X3X5X-XT.u._ f & o O * d ! r.R.=X3X2X*XI.0.W a $ o o # t G ,.P.=X2X",
"3X,X_.p.Q s * O O $ i R e.E.;X6X6X;XT.8.E k ; @ + o 9 Y h.'.>X5X5X-XR.a.} j $ O O # t U 0.T.*X1X2X=XR.e.W d & o o $ e S ,.I.-X2X",
":X+XK.8.T a : & & - t G =.N. X;X;X XM.$.D s 4 > * & 4 Z 5.J.oX;X;X}.M.3.W s : & $ = 9 S <.Z.|.*X=X.XD.8.U u - % @ * w N +.M.XX;X",
"!.A.r.| D d a d f p u M ) 9.B.E.E.M.5.W x y g l d 0 6 z ] y.S.~.Q.m.3.Q n u d k s r 0 b | i.V.Y.R.A.a.+.A y u f d i r k Y 4.N.Q.",
"8.%.W C x C P Q / Y Z b G ` <.i.y.=.! C h v J ^ ! D x l H { 6.d.a.;.R c p v T [ ~ S z g D { ,.w.r.4...L k z A ! ` W B s x P O.5.",
"K C j s C ) -.w.r.<.] H c B T } ' J v l S / ;.a.f.6.} J v Z E } { U x i v ! 1.i.w.$.R m f m I / ( Y B k n Y $.u.h.q.] M i f M H ",
"d u t N ` 0.N.T.T.N.7.( M i j m z y w M ` 0.A._.].U.s.} N s g c x s e j Y 4.B.E.E.N.5.E x t d l k p y z T 4.C.(.'.P.t.! x e t a ",
"- 1 h W 1.B.|.=X=X}.n.%.G i < > - = r J ,.B.XX>X,X%XL.,.G f 4 : : : t V o.b.|.;X>XoXV.%.S i > : - , y V #.C.@X,X<X$XS.;.I h 1 ; ",
"+ - l ` w.U.=X3X3X-XT.8.T f = + + & a W e.R.-X3X2X,X).q.U k 2 $ # ; s K 3.U.;X6X7X,X!.7.P g : @ # ; f L 6.!.>X3X5X>X!.r.[ B , @ ",
"o & d Q 9.I.=X3X3X-XE.9.P u $ O @ * d W e.E.-X2X2X>X/.q.L a - # # - d P 5.T.:X6X7X<X~.7.I j , # $ 1 z Y 4.T.;X2X2X;XR.r.] m : o ",
"+ % r L ;.n.[.*X*X}.M.#.N 9 = = - 1 s I <.A.XX-X=XXXS.;.C 9 = & - < i G &.M. X:X,X@XS.$.V y 1 > > 4 j J @.b. X-X-X.XC.,.L i * @ ",
"8 6 q N ] 0.m.P.P.b.3.Y f 9 p x x g g A ' q.V.T.U.N.w._ k 4 6 q y u p C ` 6.m.R.!.D.e.W g q a c z d i m Q 5.N.E.Q.A.t.' c 7 5 8 ",
"Z m l k L o.3.8.5.&./ M a c U [ ` Y D n S ! #.3.1.@.~ V p a c A J J D V L ` =.0.q.:.' V p j G ) ( T A v S ( -.e.t.4.| F s s x C ",
"4.#.! A m I ^ Q U J B k V ) 4.u.q.*._ F l z M D F V c f b P X.3.9.5.%.( D H T Q T K Z x M R &.w.r.6.+.T n B K W ! P B l m U o.3.",
"T.V.e.[ A h h d i r e c / r.G.Q.U.c.3.~ b w 9 w t t t n ~ 5.M.T.Q.J.l.3.Q v l g p s g B ~ 6.B.R.R.S.s.O.S p p f s y t b ~ 6.N.T.",
"=XXXD.4.U f , & $ # 8 M %.S.OX-X*X}.N.-.G r * # & : y J :.C..X;X;X+XP.y._ h , * & 2 a G &.B..X=X=X.XC.,.L u ; * % - t J ,.Z..X=X",
"1X-XQ.w.W j ; + o # q A 5.!.;X1X2X;X(.d.~ p # + @ * d Q t.Q.-X4X5X;X!.t.E p # + # = a I 0.E.=X2X2X*XU.5.P a & O + % a ~ i.!.-X2X",
"2X=XU.6.U a & + + @ 0 F 7.Q.;X2X1X;X].x.[ d % + + - x ) y.E.=X2X3X-XT.6.K t $ + @ ; d Y w.Q.-X2X2X*XU.3.J i % O O * h ' a.!.-X2X",
"=X}.b.#.S u , = = ; 8 V =.C..X=X=X.XK.t.Q p ; % * 1 x / 4.B.}.*X*X}.b.+.B 9 % * * : y S ;.S.XX*X*X}.M.#.N 9 % $ & < j ~ 9.F.XX-X",
"~.V.8./ n i d h j p w x / 0.N.U.U.N.w.[ M e r s f d j G ] 7.b.L.L.c.<.T l q e d d r 0 k ) p.H.R.I.m.8.Q h 7 9 r i a f J #.d.J./.",
"y.<.{ H v D E ~ Q H b k D ` =.6.5.$.~ B s h C Y E I D m G ) $.3.1.+.T m j N H R T D z s S +.w.e.3.O.W m p k V J P J A V Q &.w.a.",
"Y G B c J o.7.w.8.&.( G n A U W I C x d v L O.7.0.1.+.! A G L P K C c z L X.3.w.q.:.) A c G ~ W D v d y c E $.4.5.;.| I B K Q Q ",
"w 8 0 c ` y.A.R.T.N.0.[ C a g k d t r n R :.b.T.R.A.f.,.Q x f p u u p A o.s.G.~.!.A.y. .S f g s w 5 3 p P 1.b.P.P.m.0.` N a a i ",
"O # 6 N &.C.XX:X:XXXC.-.S r , - ; , h E ;.n.}.-X=X.XD.e.' k , * * 3 g Y 3.S.OX>X>XOXH.q.! f , * # * 9 m O.v.{.*X&X[.n.%.S t - $ ",
". + 0 S 5.E.:X6X6X,X~.7.D w $ @ # > m | i.E.=X2X3X-XW.p.` j - # $ > k E 8.R.:X6X6X>X).g.' k * + + & u L 7.Y.=X3X3X*XU.6.I s = o ",
"o $ t H 5.Q.>X6X6X<X/.7.Z 9 # + @ > n ..f.^.;X3X3X=XE.i._ h : % % > f K 3.Y.;X5X6X>X).a.Q a % + + * d W w.T.=X3X3X=XU.6.I d = o ",
"= < i F &.C.+X,X<X$XH.*.m 6 % $ = < k ) q.J.OX;X;X|.V.5.T a 2 5 4 1 t V $.V.OX:X:XOXD.,.Z 8 % @ $ ; s W 6.Z..X;X-X|.b.+.Z t > ; ",
"a i i B _ q.S./.(.K.p.` z 6 7 y d d h G  .u.S.E.Y.M.9.' B u s M m p q c ' i.J.^.!.C.0.Q j 7 q i s d k U %.s.G.^.!.N.1.U k w u s ",
"P G C M J ' ;.q.e.4.X.K j j M I Q Y A v F ' ;.5.1.+.W B j n G W E D v z J X.8.u.e.,._ V g n K ! _ ) T G ~ %.e.f.y.*.E n d x S P ",
"7.=.} T B C F K K H Z n Z R +.0.y.6. .K n Z H F A n g p N ~ $.3.1.#.) G c B L W ! R G N Y o.4.r.u.0.+.Y B P ]  ./ D z g A ` ;.8.",
"T.M.w...G d i t r r u V ( 5.M.E.~.J.h.;.W x a e 9 6 6 h E 5.b.L.P.n.q.| C w w p h l n E *.s.Z.Y.Y.N.8./ B h c c s w 0 v } s.H.Q.",
"=X}.M.1.R f , & & ; u J -.C.oX:X:X+XT.l.*.V 2 % @ & 0 V %.M.|.=X=X}.Z.5.I r % & * 4 M ' 7.V.}.*X*X{.x.O.G f 2 - % - 9 D 7.U.@X-X",
"2X=XY.r.] z = + O & i I q.^.,X6X6X:X_.m.<.A , + O % y P 0.E.;X5X5X-XQ.t.T y # O + - z ~ 6.L.*X3X3X=XP.5.Q c > + O # u E p.).;X1X",
"2X=XY.y.| M : O O * i K 0./.<X6X6X;XQ.s. .b : + + & i I 9.R.;X6X5X;XT.8.J q O o O # t F ;.J.*X3X5X;XT.w.] B 1 + O - j ~ e.E.=X1X",
"*X{.m.,.~ c < = * : r Z -.G.#X<X,XXXM.%.F u : * * : i H *.B..X:X;X Xm.+.m 6 % # @ = 8 c { l.|.:X>XOXS.6.~ z < ; = , h I &.b.{.*X",
"P.x.2./ C s d h j a y b _ y.K.'.`.A.3.I h 8 q y p s g A ' e.S.!.E.M.5.W l q w r e 0 7 d L <.N.~.(.H.i. .Z i i h f a s M W 1.n.U.",
"5.X.Y M h N P Q ! I N l D [ 4.p.i.-.T c d x B D K U L A P | 4.r.0.*.) S k b A H H C l d M ! -.t.y.3.{ F h x F Q Q P V k V ( :.0.",
"H b d a N ( ,.e.q.-._ D v C J R R A h s Z ( +.:.1.-...Y m V L Y I H Z N P { -.7.7.*./ A x B P W R F n h m R %.0.w.>.' S c Z I T ",
"q 6 3 g T 4.N.R.T.N.9.[ D d y i i w 8 x ) 7.c.J.J.c.6./ v e e i a d l E =.s.A.!.!.Z.e.} F h h h p e q k R 4.m.Y.T.V.w.[ S d i t ",
"@ $ 6 b  .x.[.*X*X|.B.3.R p = $ $ = r H -.m.{.*X&X].z...n 8 & & - 4 n ..s.L.OX>X>XoXD.9.` b 4 : * : r Z $.M.|.-X;X.XA.5.W d ; @ ",
". + r D -.K.*X1X1X*XR.r.W i # O o # s ) y.T.*X2X2X*XK.-.C w # + # 2 M X.j.(.:X5X5X;X!.d.o.B < @ @ = j Q 9.R.-X3X3X;X!.i._ j % . ",
"  * d J :.K.*X3X2X*XY.9.P u & o O & g ` u.R.*X1X2X-XU.,.A e # + $ 1 x / y.Q.:X5X5X-XT.t.] x = + + - l ~ 0.E.;X2X2X-XE.w.! h = . ",
"% : a D +.b.}.=X-X}.n.+.N r > ; * - a Y ,.N.|.=X-X.XB.@.M 0 * & - 3 s H -.B. X;X-X}.c.&.P p - * * < f K *.A.@X>X;X.XB.*.G p = @ ",
"p a p b / q.B.Y.Y.m.3.U g w f c j p a Z ] q.B.R.T.C.0.! l q r p f d a N ( 6.m.Y.P.l.-.T m p t p p u r l E e.K.(.!.C.0.( b w 9 r ",
"P L N l J X.1.8.5.#.E c y k K / ~ U S m K ..5.w.8.&./ V j N P Q ) / K n C E +.3.:.} H l s x Z L K Z k y v ) 4.t.0.=._ S k z m S ",
"7.3.} H m G Y R I A z a v R =.e.w.:.[ H v S T T J V x h S } 4.y.s.t.%.L g h B J F n s t x Y @.5.4.@.Y x p b L W T F b k S ~ o.,.",
"E.G.i.{ C a s k k i t m ) 8.B.R.T.N.9.) b y t t e w w b _ e.Z.Q.~.G.a.{ x 7 0 p a r q l R 4.N.Y.U.b.<.Y l r u f s e q v ( 8.b.I.",
";XoXZ.=.G p , : < 3 j ! 7.Z..X-X=X|.m.#.Z w = + $ > s L :.C.XX:X:XXXA.,.Z 8 = - : 2 s J -.V..X-X=X{.x.@.S u * = & ; r V %.N.|.=X",
"3X;XY.3.L d - @ # 1 m  .d.!.;X5X5X-XU.4.L y # o o ; n ' t.!.>X6X6X;XQ.w.L r % + # < x ~ w.E.-X3X2X&XL.5.R g : O + ; u H 5.T.-X3X"
};
