/* XPM */
static char *cfa7714d69624bded434566627468cb6G3GYlq02OhALdqJM[] = {
/* columns rows colors chars-per-pixel */
"128 128 35 1 ",
"  c #E9AF87",
". c #E7AC8E",
"X c #E8AD8E",
"o c #EDB583",
"O c #E9B089",
"+ c #F0B783",
"@ c #F4BB85",
"# c #F8BE87",
"$ c #F2B88F",
"% c #F9BF88",
"& c #E4A796",
"* c #E6AA92",
"= c #E9AD91",
"- c #E3A49B",
"; c #F7AE9F",
": c #F8AF9E",
"> c #F5BC94",
", c #F2B39B",
"< c #FAB39D",
"1 c #FFBB9B",
"2 c #E2A2A0",
"3 c #F6ABA3",
"4 c #F8AEA1",
"5 c #F7A7AA",
"6 c #F9A7AC",
"7 c #F7A8A8",
"8 c #FDA7B3",
"9 c #FAA8B0",
"0 c #FFA7BA",
"q c #FDC38B",
"w c #FFC88F",
"e c #FDC495",
"r c #FFCC94",
"t c #FFC49A",
"y c #FFCB99",
/* pixels */
"22222222&.  ooo++@+@@#w#%qqqqwwwwrrrrryyryyyyttttt1<<<::337568000086772;::<<11>t1trtyyrrryrrrrwwwqwqq%q%##@@@@+o+oooo . 22222222",
"22222222-&.  ooo+@++@@@@##qqqqqwwrrrrryryyyytytt1t1><<:3;;755800008677;&3:<<11>ettyyyyryyrrrwwwwwwrqqq%#@#@+++ooooo  .&222222222",
"222222222- .  oo++@++@##w%q%qrwwwrrrrrryyyyytyttt111<<::337568000885733;:<<1>11tttytyyyyyrrrwrrrwwwqqq%#@@@++o+ooo ..&2222222222",
"22222222222..  oooo+@+@#####qqwqwwrrrrrryyyyytttt111<<::3;7768800885773:::<1>111ttyyyyyyyrrrrrwwwwqq#%@#@@+@oo+oo .. 22222222222",
"22222222222-..o ooo@++@@@#wqqqqqqwrrrrryrryyyytt1t11<<<:337765800885773::<<><t1etttyyyyyrrrrrwwwwwqq%%#@#@+@++oo  . -22222222222",
"222222222222&. ooooo@++@@#%%qqqqwwwwrrrrrrryyytt1tt11<:::&3765800855373::<>>11tttytyryyrrrrwwwwwqqqq###@@@++ooo  ..-222222222222",
"2222222222222 .   o+o@@+@@####qqqqwrrrrrrryyyyytet111<<:3;37688008557;33:<<1111ttyyyyyyyrrrwrwqwqq#q%#@@@++++ooo..&2222222222222",
"22222222222222 ..ooo+o+@@@@#%qqqwrwwrrrrryrryyyrtt111><:3337680008557333:<11111ttyyrryrrrrrrwwwqq##%##@@@@o+oo  . 2222222222222-",
"O22222222222222...ooo++@+@@###qqqwwwrrrrrryyyyyttee>1><:33775880088573&::<1111ttytyyyyrrrrwwwqqqq##w%#+@+o+o  .. 2222222222222&.",
"..22222222222222.. ooo+++@@@q#q%qqqrwrrrrrryryyytt1t11<:333755800885733:,<<11ettyyyyyrrrrrrwqwwq#w#@w@@@++oo  ..2222222222222..O",
"...&2222222222222.  ooo++@@@@#%qqqwqwwrrrryyyyytt11t11<<:;3755800065733::<<1t1tetyrryyrrrrwrwqq#q#w@@+++ooo  ..2222222222222... ",
"  ...222222222222-.. oo+o@@@@@##qqqwwwrrrrryyyyyet111<<::3;355800865773:<<1111tttyyyyrrrwwwwqwqq#@w@@++@oo   .2222222222222... o",
"oo ...222222222222-.. ooo+@@@@@%#qqqwwrwrrryyyyyyte11<<<:3&35580086773::<<11ttttyyyyrrrwrwwwqqq#w@@@@+o+ooo .2222222222222O.* oo",
"ooo  ..222222222222- .ooo+o@@@@#%qqwqwwrrrryryryyttt11<<:333588008677;3:<11t1tttyyyyrrrwwwwqqq#wqw@+@++ooo..-222222222222...o o+",
"ooo o*..222222222222& . oo++@@@#@#qqqwwrrrrryyyyrrtt1>><::3758800867333:<<1ettttyyyyrrrrrwwqqq#@@@@+++oo ..-222222222222..  ooo+",
"+o+oo  ..222222222222..  o++o@@##%%qqwwwrrrrrryyytt1111<:3375580086733::<>11tttyyyyrrrwrwqwqq##q@@+++ooo. &22222222222-.. oooo++",
"++ooooo ..222222222222..o o++@+@@#%qqqqwwrrryyrryttee1<<:33356800867;&,<<<111ttyyyyrrrrrrwrqq#q@@@+++o   .22222222222&.. oo+o@++",
"+++@+oo  ..-22222222222. ooo+o+@@###qqqwwrrrrryyyytte11<<:;-7680086723::<<1ettyyryyrrwwwwwqq##@@@@+ooo ..22222222222.. o ooo@+++",
"#@++@o+oo  ..22222222222..oooo++@###qqwwwwwrrrrrytyte11><:&3768008673::<<1tettyyyrrrrrrwqqqqw@#@@++oOo..22222222222...ooo+@+++@+",
"@@@@+o@oooo...22222222222*. ooo++@#%#qqwwwrrrryyryyt1e1<<:377680085733:<<1>1ttyyryrrwrwrwqqwq@@@@oooo..22222222222..  oooo+@@+@+",
"%@@++++@oooo ..2222222222-*.oo+@+@@@%qqqqwrwrryyrytte11<<::3768008573::<>1etttyrrrrrrwwwq#q#q@+@+oo ..22222222222.. ooooo+++@@%@",
"##@@@@++@ooo  ..2222222222-   o++@@@##qqqrwrrrrryyreet11<:337680085333<<<1tttyyryrrwrrwqqq##@++++oo.*2222222222-.. oooo++@+@@@#@",
"###@@+@+++ooo  ..-222222222&  ooo@+@##qqqqwwrrrrryyrtt11<:;3365005533::<<11ttyrryrrrwwwqq##q@+@ooo  -2222222222.. oooo++++@@@@##",
"%%#%@@@@@++oooo ..2222222222.  oo++@#w#qqqwwrrrrryyyte1<<::;75800857;:<<11ttryyrrrwrwqrq#wq@@++oo .&222222222&.*oo+oo++@@@@##@%%",
"%%%#q@@@@@++oooo ..-222222222..ooo+@@@%%qqwwwrrrryyrttt1<:3;758088533:<<1tttyyyyrrwwqqq#%@q+@+oo ..222222222...oooo+@+@@@@q@#%%%",
"%%####@#@@@+++oooo .*222222222.. o++@@@%#qqwwrrrrryyytt1><:3358008533:<<1tttyyyrrrrwrq%ww#@+++oo..222222222..  ooo++++@@@@##qqq%",
"q##q###q@@@@+++@oo  ..222222222*.ooo++@%%qqqwwwrrrryyt1><<:375800877;:<<>ettyyyrrrwwqq#%w@++oo . 222222222.. oo++++@+@@@####qqqq",
"qqq###q#@@@@@+++oooo ..222222222. oo++@##%qwqrrrryyyttt1<<:;35500877::<<t1tyryyrrrwqqq%#@@@ooo.*222222222..ooooo+++@@@#######qqw",
"qqqqq#q###q#@@@+++ooo ..22222222-.ooo+@@#%%qrwwrrryrytt11<:3355006723<<11ttyryrrrwqwq%%%@@+oo *222222222.. o++++@+@@@@###qqqqqqw",
"rwwqqqq#q####@@@@++ooo ..222222222. o+++@#%%qwwrrrryytt>1<:;7550867;3<11tttyyrrrrwqqq%#@++oo .22222222-..oo+@++@@#@@##qqqqqqqqqw",
"wwwwqqqqqqq##q@@@+++o+oo .22222222-. oo+@@#%qqwwrryyrttt1><:37500673:<11etyrrrrrrqqq%#@@++oo.222222222. ooo+++@@#q##qqqqqqqwqqww",
"wwwwqwwqqq#qq###@@+@++ooo .22222222*.oo++@@%qqqwrrryyytt1><:37500673:<<11yyrrrrrwrqq%%@+ooo.-2222222&. o+o+++@@@@##q#qqqqqqwwwww",
"wrwwwwwwwqq#####qq@@+++ooo .-2222222*.oo++@#%qqwwrrrrytte><:;7600673:<11tyyryrrwqwq%%@@+oo.&2222222.. ooo++@@@@@##q#qqwwwwwwrwrw",
"wwwrwwwwwwqqq#qq#@@@@+++ooo .&2222222. oo+@@%qqrwwrrrrrt11<:378006-3:<11tyryrrrwqq%%@@+oo..2222222.*oo+o+++@@####qqqqqwwwwwwrrrr",
"rrrrwwwwwwwqqqqqq###@@@@+++o ..2222222  oo+@@%qqrwrrryyt11<:37500673:<11tyyyrrrqwq%%+++o  2222222.*ooo+++@@q###qqqqqwwwwwwrwrrrr",
"rrrrrwwwwwwwqqqqqq###@@@+++ooo*.2222222 oo++@#%qwwwryyytt1>:;750057:<<1ttyyrrrwqqq%@@+o *2222222. ooo++@@@@#qqqqqqqqwwrwwwrrrrrr",
"rrrrrrrwwrwwwwqwqq#####@@@+++oo .2222222.oo+@@%qqqwrryrtt1><:360857:<11tyyyrrwqqq%@++oo.2222222. o++@@@@###q##qqqqwwwwrrwrrrrrrr",
"yyrrrrrrrrrwwwwwqqqqqq##q@@@++oo .2222222. o+@%%qwwwrryyte<<3360053:<11tyyrrrrqq%@@+oo.2222222.oo++++@@@##qqqqqwwwwwrwrrrrrryryy",
"yyyrrrrrrrrrwwwwwwqqqqq#q#@@@++oo .222222-.oo@@#q%qwrrrytt1<3368853:<11ryyrrwwq%%@+oo.2222222  oo+++@@####qqqwwwwrwrrrrrrrrryyyy",
"rryrryrrrrrrrrwwwwwqqqq####@@@@+oo .-22222* oo+@%qwqwrrytt1<:360853:<etyryrwrq%%@++o.-22222&.oo+++@@@####qwqwwwwwwrrrrrrrrrrryyy",
"ryyyyyrryrrrrrrrrwwwwqqqqq#q#@@+++oo &22222* o+@@%wwwrryrt1<:368853:<1tyyrrrwq%@@+o *22222. o++++@####qqqwqwwwwwrrrrryryrryrrryr",
"yyyrryryrryrrrrrrrrwwwwwwqq###@@@++oo .22222. o+@#qwqrrrytt1:&50873<<ttyyrrrqq%@+o *22222. oo++@@@###qqqqwwwwwrrrrrrrrryryyryyyy",
"yyryyyyryrrrrrrrrrrrwrwwwwqq####@@++oo .22222.oo+@#wwrrrrtt<:;58853<11yyrrwwq%@+o *22222. o+++@##q#qqqwwwwwwrrrrrrryyrryryyyyryy",
"tyyyyrryrryyrryyrrrrrrrwwwwwqqqq#@@@++o .22222 o++@qqwrryyt1<;5885:<1tyrrrqq%@+oo*22222.oo++@@@#qqqqwwwwrwrrrrryrrrryryyyyyyryyt",
"yrrtytyyyryyryrryrrrrrrrwwwwwwqq####@++oo.22222.o+@%%qrrryt1<;5885:<>tyrrwq%#@+o.22222.o+++@@##qqqqqwrrwrrrrrrrrrryyyyyrytytyyyy",
"trrtrtyyyyyyryyyyyyyrrrrrrrrwwwwqq##@@@+oo.22222 o+@#wrrrytt<:5883=<1tyrwqq#@+o.22222.oo++@##qqqqqwwwwrrrryrrrryrryyyyyyyyrytttt",
"ttttyttytryyyryyyyyrrryrrrrrrwwwqqq##q@@++o.22222 o+#%wwrrt1>:2883:1tyyrwq%#+o.2222& o++@@##qqqqwwrrrrrrrrrrryyyryytytryytyttttt",
"1ttttttttyrtryyyryyyrryrrrrrrrwwwwqqqq##@@+o -222-oo@#%rryyt1:5885:1trrrqq#@o 2222. ++@@@#qqqwwwrrrrryryrrryyyyyyyytyettttttt11t",
"1t11ttttttttytyyyyyryyryrrrrrrrrwwwwwqq#%#++o .222*o+@%qrryt1:3863<1yrrrq%@+ -222. o++@##qqqwwwrrrryrrrrryyyytyyyyttrttttttt1tt1",
"11tt1t1ttttttttytytryyyyyyyryyrrrrrwwwqq###@++o.222.o+#qwrry1<3863>1yyrwq@+ *222.o++@@##qqwwwrrrrrrrrryyyyyyyttyttttttt1tt111111",
"111111111tttt1tttttyyrtyyyryyyyyrrrrrrwwqq##@++o.222.o@%wrryt<3863<tyrww%+o*222.o+@@#qqqwwwrrrrrryyryyyyyyyetrttttt1te1t1111111<",
"<1<1<11111111111e1tttyttyyyyyrryyrrrrrrwwwqq#@@+o.222 o@%wryt<386=1trrq%@o.222 o+@@qqqqwwrrryyryyyyyyytttyttttettt11t1111111<1<<",
"<<<<<<<<<<111111t11tettttttttyyyyyryrrrrrwwqq##@+o 222 +%qrre<386:1yrwq@+ 22- ++@%#qqwrrrrrrryryryttrttttt1tt1t1t1111111>11<>><<",
"<<<<<<<<><<1<<>111>1e>11t1ttttyyyyryyrrrrrrwwqqq#@+ 222o@%wry1:66<tyrw%@ 22-o+@@#qqwwrrryryyyyytyytttett1tt111111>>><1<<<<<$<<<<",
"::::::::<<<<<<<<>1<<111>1tt1tttttttyyyyyyyrrrrwqq%@+o-22o@qwrt:65<tyw%@o22.o+#%qqwwrrrrryryyyttetttettt1>111<<>1><<$$<:<<::::$::",
":;;;::::::$$::<<<<<<<<><1>111tttttttyyyyyyrrrrrqwq%#@o*2&o%wrt<67>yrw@o22.o@%%wqwrrrryyyyytyetttt1111111<<<<><<$<::::$::::::;;::",
":;;;;;;;;;;;::::$$$:<$<<>><><1111t11ttteyryryyrrrrwq%@o.2*o%ry<571yr%o22.@@%%wwrrrryyryyytttt1111111<<<<<<<:::::::::;;;;;;;;;;33",
"53;3;;;;;3;;;;;;;;;::::::::$<<<<><111t1tttttyryrrrrwwq@o.2.@qy>771rq@&2 +%qwwrrryyyrttttt>t111><<<<::::$$:::::;;;;;;;;3;;;;33333",
"37;;333333&;;;;;;3;3;;;;;;;:::::::<<>><1>>1ettytyyrrrwq%@ 2 @rt73tr@.2o@qqwrryyyyrttt1111<><<:::$::::;;;;;;;;3;3;333&3;3333;;333",
"33333;;37;3;733;3333;33;;;;3;;;;;;::::$::$<11111teyryrrwq@o2oqy74y% -o@qwryyytet1t11>%$$::::::;;;;;;3;;;3;;&;33;3;;3;3333;;33333",
"3377333733373;333333337337;3;3;33;;;;;;;;:::::<<11ettyyrrw%o2+r3<ro2@qqryyret11<><:::::;;;;;;;3;;333333733;373333;3&733;33333333",
"3373337373337373;773;333333333333&;3;3;3;;;;;;;::::<<11ttyrw@-q<1$-#wrrtt1<<$$:::;;;;;;3;33;333;3733;7333;33;3773;333373;2377373",
"5773337;7333;337;733337;33;33333335333733333333333&&:3::<<>tyq-erOwyt>><::3333&333333333377;77;2377;3773&77733;777-33;77;3353;33",
"33777;3;7;3;3;377;57333&7337337337333335333333353353353333333;>$$<;3333333333353333333333333333337337&377;777333737;773372777333",
"33333;;737;&7&323;737333333253332333333333333333333333333;;:1tr@Ort<:;;3333333333333333333333337323333333333&7373337337733333373",
"3333237333333337333333333333333333333333333333333;;;:<<<1tyrr@.te-#ryy11<<:,4;;;333333333333333333333333333333333337333373737323",
"33333333333333333333333333333:33:373333;;;;;::<<<<>11tyyrrw%o-q<1q2+#wrrytt>1<<<<<::;;;;333333333333:333333333333333333333333337",
"33333333333333733333:3:33=7;33:33;;;::;:<<<<<<11>ttyyyrrqw# -@r7:r@2 #wwrryyytt111<1<<<<<:::::333:3:33373333333:7333333333333333",
"33::33:337:33333:3:3:3;3;3;::::::<:<<<<<<<1>11ttyyyrrrwq#+&2+we73rw+2 +%qrrrrryytt111111<<<<<<<<:::::;:;=;3::3=33:33=333=3333333",
"3333::3333:3:33:;3:::::,::::<<<<<1><1111eetttyyyyrrrwwq@o&2+%rt53tr%o2*o@qwrrrryryyrttt1111<<1<1<<<<<::,:::::::;::,:3:333333=333",
"73:3::::33:3:::::::,::<<<><<1><<11111ttttyyyyyrrrrwwq#@o22o@wr<531rw@o2-o@qqwwrrrrryyytttt1>1111111<<<<<<<<:::::::::::3333:3:3::",
";;3,,::<::,:::<<<<<<<<>1<<<1111t1t1tttyyyyryrrrrrqq#@+ 22 @qry<651yrq+.2-o+@#qwwrrrrryyyyyttte1t1111111<<<<<<<<<:<:,:::::::::;;;",
":::::::::<<<<<<11<<111<111>1e11ttttyyyyyyyrrrrwww##@o 22 +#qrt:65<trr#+*22 +@#qwwwwrrrryryyyyettt111t1t11111<1<<><<<<<<::<<<:::;",
"<::<<<<<<<<11<<><<111t11etetttteyyyyryrrrrrrrwwq%#@o 22.+#qry1:66<tyrq@o&22 o+##qwwwwrrrryrryyyytttttt1111111111>><<<<<<<<<<<::<",
"<<<<>1<<<1>111111t1111etttttryyyyyrrrrrrrrrwwq%#@+o 22&+@qwry1=66:tyrwq@o222 o+@#qqqwwwrrrrryyyyyyyetttttt11tt1t111<<<><<><<<<<<",
"1<<<11<<11111111t1ttttttttyyyyyyyrrrrrrrwwwq##@+oo&222o+#qryt>386:<trrq#+o222 o+@@%#qwwwrrrrrryyryyyyytttttte1tt111>11111111<<<<",
"1>11111>11111t1etttttttyyyyyyyyrrrrrrrwwwqw%#@+o &222o+@qwrrt>386:>tyrwq@+ 222* o+@##qqwwrrrrrrrrryyyyyyyryyttttet1ttett11111><<",
"1111eteett1ttttttettyyyyyyyyrrrrrrrrrwqwq#%@@+o -222 +@#wrrtt<3863<1yrrq#@o 222& o+@@#%qqqwwrrrrrrrrryrryyyyytttttttttt11>t11111",
"11t111ettttttyettyyyyyyryyrrrrrrrwwwqqqww#@+oo 2222 +@#qwryt1:3883:eyyrwq#@o 222- o++@##qqwqwrrrrrrrrrryyyyyyyyttryttttett1tt1t1",
"t1ettttttttyyyyyyyyyyyryrrrrrrrrrwwwqw##@@@oo*2222 +@@qwryrt>:3883<1tyrrw#@+o.222- oo+@@%%qqqwwrrrrrrrrryyyyyyyyyytttttttttett11",
"1tttttyyyyyyyyyyryyyryrrrrrrrrrwqwqq##q@++oo*2222.o+@#qrrryt>:7083:1tyyrwq#@+o.2222*oo+@@###qqwqwwrrrrrrrrryryyyyyyyyytyytttttt1",
"ttttetyyyyyyyyyryryrrrrrrrrrwwwwqq##@@@+oo *2222.o+@#qwryrr1>;5887:<tyyrrwq#@+ .2222  o++@#q#qqwwwwwrrrrrrrrryyyyryyyyyyyyttyttt",
"tttyyyyyyyyyyyyryrrrrrrrrrrwwwwqq##@@++oo  2222.o++@qqwrrytt<;5887:>1yyyrwq#@+o -2222  oo+@@#q#qqqwwwwrwrrrrrrryrryyyryyyyyyrrtt",
"tyyyyyyryyyyyyrrrrrrrrwrwwwwwqq#w##@++oo.&2222- o@@#qwrryrt><35885;<>tyrrwwq#@+o 22222& oo++@@q@#qqwwwwrrrrrrrrrrryyyyyyyyyyyyyy",
"yyyyyyryryrrrrrrrrrrwwwwwqwqqqw@#@@++oo*&22222 o+@##qwrrrte1:;5885&<1tryrrwqq#@+o.22222& oo++@@@@##qqwwwwwrrrrrrrrrryrryyyyyyyyy",
"yyyyyyryryrrrrrrrrwwwwwwwqqwq@q@@+@ooo 222222.o+@@qqwrryyyt>:350873:11yyrrwwq#@++o.22222&.ooo+@@@qqqqqqqqwwwwwrrrrrrrrrryyyyyrry",
"yyrrrryrrrrrrrrrwrrwwwwwqq##@@@@@+oo *222222.o+@@#qwwrryytt>:760853:<1tyrrrww##@+o .22222- ooo+@@##@q#qqqqwwwwwwrrrrrrrrryrrryyr",
"ryryrrrrrrrrrrrwrwwwwqqqwqqq@@@++oo &222222. o+@#qqwrrryrte<:358853:<ettrrrwwq##@+o .22222-* oo++@@@@q##qqqwwwwrwwrrrrrrrrrrryry",
"yyrrrrrrrrrrrwwrwwwwqqqqq#@@@+++o   222222.oo+@q#qwwrrrytt1<:358857:<>tryyrrwqqqq@+o .222222* oo++@@#qq@#qqqwwwrrrwrrrrrrrrrryyr",
"rrrrrrrrrrrwrwwwwqqqqq##@@@+@+ooo. 222222.oo++@#qqwrrryyt1<$;76085;:<11yyyrrwwq#q@@+o *222222& oo++@@@@@##wqqqwwwwwwrrrrrrrrrrrr",
"rrrrrwrrrwwwwrqwwqqqq#@#@@@++ooo..222222* o++@#qqwwryryttt>:;750853:<<1tyyrrrwwq#@@++o.-222222 .ooo++@@#@@qqqqqwwwwwrwwrwrrrrrrr",
"rrrrrrrrwwwwwwwqqqq##@@@@+++oo  &222222*.oo+@@#qqwrrrryre1<:3760867;:<ttyyyrrwww###@@oo.2222222..ooo+++@@##@#qqqqwwwwwwrwwwrrrrr",
"rrrwwwwrwwwwqqqq###q@@#@@++o   -222222-. o++@#qqwwrrrryrt1>:375086-&:11ttyyyrrwwq##@@+o .2222222&. oo++@+@@@@##q#qqwwqwwwwwrrrrr",
"rwwwwrwwwwwqqqq#%#q@@@@+++oo  2222222-. o++@##qqwwrryrrt11<:-7688633:<1ttyyyrrrwwq#q@++oo.2222222-* ooo++@@@#@###qqqqqwqwwwwrrrr",
"rrwwwwwwqqqqqqw##@#@+@++oo *.2222222-.ooo+@@q#qwwrrrryytt1<:3788867;:<1tttyrrrrwwqq#@@++oo.22222222. ooo+++@@#@#qw#qqqqwqqwrwrrw",
"wrrqwwwwqqqq#@w@@@#+++ooo  .22222222. oo+@@##qqwwrryrytt1><:3750057;:<1tttyryrrrwwq###++oo .22222222. ooo++++@@@q#w#qqqqwqwqqwww",
"wwwqwwqqqq##qq@#@+++++ooo..22222222. oo+@@##qqwwrryryttt>1<:;7808673:<1tttyyyyrrwwq##@#++oo..222222-2..oooo+@@+@#@###wq#qqwwwwwr",
"wqqqqqqq#q@q@@@++#+ooo  ..22222222. oo+@@###qqwwrrryyttt1<:375500673:$<11ttryrrrwwwq##@+++o ..22222222.. ooo++#@@@#@###qqqqqwwwq",
"wwqqqq#q#@@@#@+++++ooo .&22222222.. oo+@##qqwwwrrryyytt11<:;3580087-;:<1ettyyrrrrwwqq###++ooo..22222222..ooooo++@+@##q@#qqqqqwww",
"qqq#q#@w#@#@@@++++oo ..&22222222..oo@++@###qwwrrrrrrtett<<:;35500853;:<1tttyyrrrrwwwqq#@@@@@o .-22222222&.  ooo+++@@@@@@#w#q%%qw",
"q%q##@##@@@@@@+o+ooo. -22222222-. oo+@@@##qqwwrryryyytt1<<:;758008733:<<11ttyrrrrwwwwq###@++ooo.222222-22-.. ooo++@+@@@q@@##qqqq",
"q%%%##@q@@+++++oo o. 222222222-. oo+@@###qwwwrrrryyyrtt1<<:&765086533:<<11ttyyyyrrwwwq###@++ooo .222222222- .ooooo++++@@@#qw#%%q",
"#%##q@#@+++@o+oo  .&222222222-. oo++@@###qqwwrrryyyyrtt1<::3-6800857;:<<11tytyyrrrwwwqq###@++oo  .2222222222.. ooo+++++@@@@@%#%q",
"###@#@@+++@oooo  . 2222222222.  o@@@@@##qqwwwrryryyttet1<<:;768008533::<111ttyyryrrrwwqqq##@@+ooo..2222222222.. oooo++@+@@#@##@%",
"####@@@++@ooo  .. 2222222222..oo@+@@####qwwwrrrryyyttet<<:;3758000573::>11ettyyrrrrwwwwqqq@@@++oo ..22222-2222&.  oooo+++@@#@##%",
"@#@@@+@oo+oo o.. 2222222222O. oooo@@@##qqwwrrryyrrye1111<:3;758008573;$><1tttyyrryrrrwwwq#%#@+@oooo..2222222222 . oooo++++@+@@@#",
"@@@+++++ooo o..&2222222222..ooo+++@#%#qqqwwrrrrryytet11><:;3758008533;:<<1tttyyyrrrrrwwqqqqq#@@+ooo .*2222222222 ..oooo++++@+@@#",
"@@+++@+oooo . -2222222222*. ooo@+@@@q#qqwwrrrryyryttt11><:;375500867;;:<<1t1ttyryrrrrrwwwqq##@@@+@ooo.--222222222&..oooo+o+@++@@",
"@+@+o+oooo . 22222222222*. ooo+@+@#%#qqqwwwrrryrryttt11<::377650085733:<<111ttyyyyrrrrwwqqq#%#@+@+ooo..22222-22222-..  oooo+@+@@",
"@+o+ooo  ..&22222222222-.  oo++@@#%##qqwwwrrrryryyrtt1<<<&377580086733:<1<11trtyyrrrrrrwwqqqq##@++ooo ..-2222222222- . oooo+o+++",
"@+o+oo o.. 22222222222-.  ooo++@#@%%qqqwwrrrryrryttt11<<:;;775800867733<>>1ttyyyyrrrrrwwwqwq#%##+++ooo ..222222222222&.   oo++++",
"o+ooo o..&222222222222..oooo++@##%qqqqwwrrrryyyyytttt11<:;33558008673&::<11ettyyyyrrrrrwwwqq#%%#@@@+oooo..222222222222&.* ooo+++",
"oooo  .. 222222222222..oooo++++#%qqqqwwrrrryyrryttt1t>><:;;7558000677;:$<<1tetytyyyrrrrrwwqqq%%#@#+++ooo ..2222-2222222 ..  ooo+",
"oooo ..&222222222222.. ooo+++@@%%%qqqwwrrrrryyyyyrttt1<::;3758800857333:<<11ttttyyyyyrrrwwwwqq%%@#@+@oooo ..222222222222 ..  ooo",
"ooo ..-222222222222.. ooo++++#@#%%qwqwwrrrrryyrtytt>1<<<:;375580085773;:<<1111tytyyrrrrrrwwwqq%qq@@@@+oooo ..222222222222&..o oo",
"  . .-222222222222.. ooo@++@+@##%qqwwwwrrryryyytttt111><3;33558008553;;:<<111tttyyrrrrrrwrwwwqw%q@#@@++@+oo ..222222222222&..   ",
" .*.2222222222222*. oooo+++@@#%%qqwqwwwrryryyyryettt><<<:3335580085577;:<<<11ttyryyyrrrrrrwwwqq%q##+@@++oooo*.2222-22222222-. .o",
".*.2222222222222&.* o+@+@++@@%%%qqwwwwwrrrrryyyyte111<<<&;-755800885773:<<<111tytyyryrrrrrwwwwq%qq%#@@@++ooo ..2222222222222-..X",
"..22222222222222.   oo++@@+@%%qqqqwwwwrrrryyyyyrtt111<<::;7765800885333=:<<1>tttyyyryyyrrrrrwwq%%%%%#%@@++ooo *.22222222222222*.",
"*2222222222222-. oooo+@+@@#@%qqqqwwwwwrryryyrttrett11<<:3;376880088577&:<<<111tttttyyryrrrrwwww%q%%%q#@@@++ooo ..22222222222222.",
"22222222222222.. ooo+++@@+@%%qqqqwwwrrryryyryyytt111<<::3;37588008857333:<1>11ettytryyrrrrrrwwq%q%%%%@#+@+++ooo  .22222222222222",
"2222222222222.. oo++o++@@##%%qqwwrwwwrrrryryyyett1e1<<:::337558008857733:<<11111ttyyyyryrrrrrwq%qq%q%#$#+++++ooo ..2222222222222",
"222222222222O. oo+o@o+@#%@%%%qqqwwwwrrrryyyyytttet>1<<<::375588008865733:<<<1t1ttettyyryyrrrrwqwqqqq%%%#%#+o+oooo*..222222222222",
"22222222222X*.o +o+o+#@%@%q%qqqqwwwwrrrryryyyrytt111<<:::37355800886535:::<<111ttyytyyryrrrrwwwwwqqqq%%%@@+o@++oo .*&22222222222",
"2222222222.O. ooo++o@#@#@%%%qqqqwwrwrrrrryyyrrttt11<<<:;733565800085537:::<<<11tttytyryrrrrrwrwwrwwq%q%###@@+o++oo O.&2222222222",
"222222222&X.o o++++@@@%%%#%qqwwwwrwrryrrryyyrytte111<<,;3357698008857537;,<<111t1tyttyyyrrrrrrrwwwqq%q%%@%@@++++ooo OX2222222222",
"22222222&XX ooo+@++@@#@#%%%qwqwwwrwrrrrrryyytettt>1><<;;3377680008867-43;:<1111t1tytyyryyryrrrrwwwwqqqqq@#@@o@+oooo  XX222222222",
"2222222-XX..ooo@@++@@@@@#%qqwwrqrwwrrrrrryyyyyte111<<<:;;37366800086777;;:<<<<e1ttrtyyyyyrrrrrrwrrwqqq%q%q@@@+@+ooo  XXX22222222"
};
