/* XPM */
static char *_0e1111b24a94594d0e36875d1f2d5c4Vra2Op3tcCa4zz84[] = {
/* columns rows colors chars-per-pixel */
"64 64 121 2 ",
"   c #223C14",
".  c #274316",
"X  c #284716",
"o  c #2E4C18",
"O  c #2E5119",
"+  c #31541A",
"@  c #365B1C",
"#  c #385E1D",
"$  c #336017",
"%  c #37621D",
"&  c #3B641E",
"*  c #3C6A1F",
"=  c #3E6720",
"-  c #3E6C20",
";  c #3F7021",
":  c #416D21",
">  c #47692E",
",  c #427422",
"<  c #457B24",
"1  c #497E25",
"2  c #328000",
"3  c #3D8400",
"4  c #428700",
"5  c #468800",
"6  c #4A8A02",
"7  c #4A8A0D",
"8  c #508C0D",
"9  c #468A11",
"0  c #4C8B14",
"q  c #4D8C1B",
"w  c #518D17",
"e  c #518D1B",
"r  c #4C8326",
"t  c #4A8C22",
"y  c #4F8529",
"u  c #508527",
"i  c #538E25",
"p  c #508628",
"a  c #548D29",
"s  c #559027",
"d  c #57912B",
"f  c #58922C",
"g  c #5C9433",
"h  c #5E953C",
"j  c #609737",
"k  c #61973B",
"l  c #649A3D",
"z  c #599541",
"x  c #659A41",
"c  c #6A9E44",
"v  c #669A48",
"b  c #6A9C4C",
"n  c #659D56",
"m  c #6C9F55",
"M  c #679E59",
"N  c #699F5B",
"B  c #699F5C",
"V  c #719F52",
"C  c #6FA149",
"Z  c #70A24A",
"A  c #71A34C",
"S  c #72A34D",
"D  c #71A053",
"F  c #77A752",
"G  c #78A753",
"H  c #78A754",
"J  c #79A955",
"K  c #71A25A",
"L  c #7DA65D",
"P  c #7DAB59",
"I  c #7EAC5A",
"U  c #7FAD5C",
"Y  c #7CA764",
"T  c #7DA969",
"R  c #82AF5F",
"E  c #86AC6A",
"W  c #88AD6D",
"Q  c #84B161",
"!  c #86AF75",
"~  c #8BAF71",
"^  c #8CB070",
"/  c #8BB27B",
"(  c #8CB37C",
")  c #94B375",
"_  c #99B678",
"`  c #FCDE73",
"'  c #FEE077",
"]  c #FFE27F",
"[  c #9CB982",
"{  c #A2BD87",
"}  c #ABC188",
"|  c #B5C790",
" . c #B7C891",
".. c #BACA93",
"X. c #BDCE9E",
"o. c #B4CBA0",
"O. c #C2CE97",
"+. c #D7D89E",
"@. c #FEE385",
"#. c #FFE484",
"$. c #FFE789",
"%. c #FEE798",
"&. c #C4D4A9",
"*. c #D6DDAD",
"=. c #C6D8B3",
"-. c #CEDEBD",
";. c #D2E0BD",
":. c #D7E2BE",
">. c #ECE3A3",
",. c #ECE3A5",
"<. c #FEE9A0",
"1. c #E5E7BD",
"2. c #E6E8BD",
"3. c #EAE9BC",
"4. c #EBE9BC",
"5. c #F2EDBC",
"6. c #CFE0C1",
"7. c #D2E2C3",
"8. c #DBE4C0",
"9. c #D9E5C4",
"0. c #EBECC2",
/* pixels */
"6 h / 4 d d d d d d d d d d d d d d d d d d f d d d d d d a p d a d d d d d d d d d d d d d d d d d d d d d d d d f d d d d d d ",
"h  .5.W f d d d d d d d d d d d d d f d f d a d d d d d f a r p y d d d d d d d d d d d d d d d d d d d d d d d d a d d d d d d ",
"/ 5.' 9.g i f d d d d d f d d d d a a f d r r f d d d d d f a r d d d d d d d d d f d d d d d d d d d d d d d f a , a d d d d d ",
"4 W 9.0 d f d d d d d d a d d d f a 1 d p : f d d d d d d d d d d d d d d a d d d a d d d d d d d d d d d d d f u @ a f d d d d ",
"d f g d d d d d d d d p r f d d d f a 1 d f a d d d d d d d d d d d d f a r d d a 1 1 f d d d d d d d f g a f p < d d i d d d d ",
"d d i f d d d d d f a y d d d d d a p f a 1 y f d d d d d d d d d d d d d r y a < % , f d d d d d d d g F l d u & s g l d d d d ",
"d d f d d d d d d d d f d d d d f a 1 u p : f d d d d d d d d d d d d d f y , d , & d d d d f f d d f i g J i f l d Z F i d d d ",
"d f d d d d d d d d d d d d d d d f u + d f d d d d d d d d d d d d d d f 1 & d r f d d d d a a d d f i g Z d c H g C i d d d d ",
"d a d d d d d d d d d d d d d d d f a r d d d d d d d d d d d d d d d d d d f d f a 1 a d p 1 < a d d d f i x U i d d d d d d d ",
"p r d d d d f f d d d d d d d d d f g d d d d d d d d d d d f d d d d d d d d d f p % y a 1 , 1 d d d d f i l J d d d d d d d d ",
"r f p - d d i i d d d d d d d d f i 5 g d d d d d d d d f d p d d d f d d d d d d f 1 , p % = a d d d d d d d f d d d f u - f d ",
"< f y & a f c l d d d d d d d f 7 h / 4 d d d d d d d d d p r d f d p d d d d d d f 1 : u & f d d d d d d d d d d d d f u & a d ",
"# p , f d c R F d d d d d d f s h | 5.E d d d d d d d f a r f d d y r d d d d d d d f f d f d d d d d d f d d d d d d d f a , d ",
": u # i g A i d a d d d d d g 5 ( 5.` 9.g s f d d d d d d f a f p r f d d d d d d d d d d d d d d d d d a d d d d d d d f u @ a ",
"d d d g g d d d g g d d d d d g 4 ^ 9.e d f d d d d a d d p 1 d d d f d d d d d d f d d d d d d d d f a 1 a d d d d d d d d d d ",
"d d l R I f d l R P f d d d d d d d g s d d d d d p y f a 1 d d f f a d d d f f d a a d d d d d d d d f a y f d d d f f d d d d ",
"i j A g g a j A f g d d d d d d f d i f d d d d a y a d d d d d a y y d d a p a d r y f d d f d d d d d d d d d d f i 6 g d d d ",
"d d d d d d d d d d d d d d d d d d f d d d d d d f d d d a d f p r f d f a < 1 d a < d d d a d d d d d d d d d f 0 v T 4 f d d ",
"d d d f f d d d f f d d d d d d d d d d d d d d d d d d p r d d d f d d d f a < < p & < f p 1 d d d d d d d d d f q ..4.D f f d ",
"d d d d d d d d d d d d f d d f d d d d f d d d d f f p r f d d d d d d d d f r . r < & a , r d d d d d d d d g 8 B >.#.6.w f d ",
"d d d d d d d d d d d d a f d a f d d f a d d d d i d d d f d d d d d d d d f u O 1 d p & @ d d d d d d d d d d g 3 { :.7 f d d ",
"d d d d f d f d d d f a r p d y a f d p y d d d g x d d d i d d d d d d d d d d a d a < : a d d d d d d d d d d d s g k i d d d ",
"d d d d a a a d d d d f a r a a r d p r d d d d g J l i f l d d d d d d d d d d f d d f f f d d d d d d d d d d d f s i f d d d ",
"d d f a r y r f d d d d f a r a p p 1 f d d d f i g A d c J d d d d d d d d d d d g d d d d d d d d d d d d d d d d f f d d d d ",
"d d d f a y f d d d d d d d d d f a r d d d d d d d i x J i d d d d d d d d d f f 8 g d d d d d d d d d d d d d d d d f d d d d ",
"d d d d d d d d d d d d d d d d d d d d d d d d d f g i d d d d d d d d d d f w 9 N 7 f d d d d d d d f d d d d d d a a f d d d ",
"d d f f d d d d d d d d d d d d d d d d d d d d d g Z l d d d d d d d d d g f x | ,.) q f d d d d d d i f d d f d f a r p d d d ",
"d a p p f f d d d d d d d d d d d d d d d d d d f i c R i f d d d d d d f i 4 Y 2.$.X.9 f d d d d d g l i d d i d d f a r d d d ",
"f a 1 r p a d d d d d f f d d d d d d d d d d d f i l A i d d d d d d f q x T 2 b 7.d i d d d d f i j J l d f l d f d d f d d d ",
"a a d d 1 r f d d f d i d d d d d d d d d d d d d d d d d d d d d d d f 9 | 4.D f w f d d d d d d d i g P f c J d a d d d d d d ",
"1 1 1 d a r d d d a f g g d d d d d d d a d a d d d d d d f a , a d f w n ,.] 7.e f f d d d d d d d d f i c J i d g d d d d d d ",
"d a < 1 a & 1 f a < c Q J d d d d d f a r y r f d d d d d f p + a f d g 4 { 8.q f d d d d d d d d d d f g d f d l P f d d d d d ",
"d f r X 1 1 : p * p c f g d d d d d d d a y d d d d d d d d d p < f d d s g x i d d d d d d d d d d d g F l i g A g d d d d d d ",
"d f u # r d y $ & f i p a f d d d d d d d d d d d d d d d d f a : f d d f d i f d d d d d d d d d d f i g G a d i d d d d d d d ",
"d f f f f g , > f f p < r a d d d d d d d d d d d d d d d d d d f d d d d d f d d d f f d d d d d d f i g Z d d d d d d d d d d ",
"d a a d g A c J a a f p , 1 d d a d d d d d d d d d d d d d d d d d d d d d d d d d a a a d d d d d d d d d d d d d a f d d d d ",
"p < r d i c J d a 1 f 1 X r d a y d d d d d d d f d f f d d d d d d d d d d d d d a 1 < r a d d f f f d d d d d f a y a d d d f ",
"f u - 1 d d a d f p 1 r # , d 1 , f d d d d d a p f a p f d d d d d d d d d d d f f a < * r d d a a p d d d d d d f p y f d d p ",
"f r . r d y r f f p O y p & a & : f d d d d f a r a p r a d d d d d d d d d d a p a d u + , d a , - y d d d d d d d d d d d a r ",
"1 r + , d < < d d p & y f a * @ a f d d d d d f a r f a r f d d d d d d d d d a < - r f u # a < & & f d d d d d d d d d d d d f ",
"O y u @ d & & f g d g d f u @ d d d d d d d d a f d d d d d d d d d d d d d d f p + - < a f d < = f d d d d d d d d a a f d d d ",
"@ y f a * = s j J l A s d d d d d d d d d f p 1 a d d d d d d d d d d d d d d d f a o @ y d d d d d d d d d d d d f p r a d d d ",
"a d f a = a f d g A f d d d d d d d d d d d d a y d d f d d d f f d d d d d d d d d a a d d d d d d d d d f d f d d d a y d d d ",
"d d d d f d d d d s d d d d d f d f d d d d d d f d a a f d d p a d d d d d d d d d f d d d d d d d d d a a d p d d d d f d d d ",
"d d d d d d d d d d d d d d d a a a d d d d d d d f p 1 a d p < < f d d d d d d d d d d d d d d d d d f a y p r d d d d d d d d ",
"d d d d d d d d d d d d d d a r y r f d d d d d d f p < r a < - = f d d d d d d d d d d d d d f d d d d f p r f d d d d d d d d ",
"d d d d d d d d d d f g d d f a y d d d d d d d d d f p < d , + a d d d d d d d d d d d d d d a d d d d d d d d d d d d d d d d ",
"d f p , d d d d d f e 5 g d d d d d d d d d d d d d f 1 # a 1 a f f d f a d d d d d d d d f a 1 a d d d d d d d d d d d d d d d ",
"d f p * a d d d f 7 b ! 3 f d d d d d d d d d d d d d a a d d a , a d p 1 r f d d d d d d p y a d d d d f d d d f f d d d d d d ",
"d d f a - a d d f t O.4.Y d f d d d d d d d d d d d d d f d f a & r a < - y f d d d d f a r f d f f d d a d d d a a d d d d d d ",
"d d f p @ a d f w M ,.@.-.w w g d d d d f d d d d d d d d d d f p < a * @ a d d d d d d d f d f s w g a < a d p < 1 d d d d d d ",
"d d d d d d f d g 3 [ ;.3 d K 0 d d d d a d d d d d d d d d a f 1 & p @ d d d d d d d d d d a i g m 5 a 1 r a < < r d d d d d d ",
"d d d d f g i d i g g g i _ 0.L d d f a 1 a d d f a 1 f d a 1 , a d d d d d d d d d d d f p r 9 } 1.b f a y a < r d d d d d d d ",
"d d d d f A l i c F c 5 K *.%.&.k i f f a p d d f a * < a < & * a f d d d d d d d d d a y y i z +.<.o.s a p a y d d d d d d d d ",
"d d d f i l F C R i l x 5 V -.i i f d d a f d d a f , + d ; & f f d d d d d d d d d f p r f g 4 ~ =.4 f d d d f d d d d d d d d ",
"d f f d f i g R F l U F d d 7 f d d d a 1 a d d d f 1 * d r f a a d d d d d d d d d d d f d d f i 0 f d d d d d d f d d d d d d ",
"d a a d d d f i g P d a d d f d d d d f a y d d d d d d a d a 1 r f d d d d d d d d d d d d d d d f d d d d d d d a d d d d d f ",
"p < r d d d d d d d d d d d d d d d d d d a f d d d f a < 1 f a 1 f d d a d d d d d d d d d d d d d d d d d d f d < r f f d d a ",
"1 1 d d d d d d d d f d d d d d a d d d a y p d d d d d a 1 , p = , f p 1 d d d d d d d d d d f d d d d d d f d p f r 1 1 f f r ",
"- y f f d d d d d d a f d d f a < f d d f p r f d d d d f u   1 r * p * r d d d d d d d d d d p d d d d d d d p 1 r p # * f < * ",
": f p a d d d d d a r a d d f p : d d d d d f d d d d d f p # r d p & # d d d d d d d d d d p r a d d d d f p y p # : = f < + @ ",
"p p 1 r d d d d d f p r f d d f p , f d d d d d d d d d d d f f a ; # f d d d d d d d d d p r d d d d d d d d d f p : f 1 # f p ",
"# y d d d d d d d d d d d d d f 1 # f d d d d d d d d d d d d d d d d d d d d d d d d f a r d d d d d d d d d d d d f p r f p + ",
"a d d d d d d d d d d d d d d d d a d d d d d d d d d d d d d d d d d d d d d d d d d d d d d d d d d d d d d d d d d d d d d d "
};
