/* XPM */
static char *_9ec4e1d1443423ab4e2c323505cda6bKkJeboGnV8cQXtDB[] = {
/* columns rows colors chars-per-pixel */
"64 64 181 2 ",
"   c black",
".  c #00010C",
"X  c #000213",
"o  c #000D15",
"O  c #000F1D",
"+  c #001216",
"@  c #00151D",
"#  c #001B21",
"$  c #0B1D25",
"%  c #002722",
"&  c #0F2326",
"*  c #052428",
"=  c #0E252A",
"-  c #142926",
";  c #16262A",
":  c #142A2C",
">  c #192A2E",
",  c #152930",
"<  c #1D2E32",
"1  c #1E3333",
"2  c #1D3138",
"3  c #203234",
"4  c #223539",
"5  c #263A3E",
"6  c #2C3C3F",
"7  c #2C3E42",
"8  c #313F44",
"9  c #2C4146",
"0  c #2A4348",
"q  c #304044",
"w  c #33454A",
"e  c #38464D",
"r  c #354A4E",
"t  c #394A4E",
"y  c #364C51",
"u  c #394D52",
"i  c #3E5255",
"p  c #3F5458",
"a  c #405356",
"s  c #41565A",
"d  c #445A5D",
"f  c #495C5E",
"g  c #465D61",
"h  c #4A5D61",
"j  c #4C6266",
"k  c #4E6569",
"l  c #4F6A6C",
"z  c #516364",
"x  c #506669",
"c  c #536B6D",
"v  c #5B6B6C",
"b  c #546D71",
"n  c #5A6E72",
"m  c #557073",
"M  c #5C7376",
"N  c #5D757A",
"B  c #5E797D",
"V  c #627376",
"C  c #61767B",
"Z  c #69777A",
"A  c #63797D",
"S  c #6A7A7D",
"D  c #717C7D",
"F  c #5F7D81",
"G  c #657D82",
"H  c #697E84",
"J  c #648184",
"K  c #6B8285",
"L  c #6D858A",
"P  c #6D898D",
"I  c #718386",
"U  c #788486",
"Y  c #72868B",
"T  c #7A878A",
"R  c #738A8E",
"E  c #7B898B",
"W  c #6F8D90",
"Q  c #738D91",
"!  c #7A8E93",
"~  c #759295",
"^  c #7A9396",
"/  c #779699",
"(  c #7B969A",
")  c #7C9A9D",
"_  c #7E9EA1",
"`  c #7DA0A2",
"'  c #819496",
"]  c #899496",
"[  c #879A95",
"{  c #83979B",
"}  c #839B9D",
"|  c #8B999C",
" . c #829DA2",
".. c #8D9DA2",
"X. c #83A2A6",
"o. c #8BA3A5",
"O. c #85A6A9",
"+. c #8AA6AA",
"@. c #86A9AC",
"#. c #89AAAD",
"$. c #93A2A4",
"%. c #99ACA5",
"&. c #92A7AA",
"*. c #9AA7AB",
"=. c #91A9AC",
"-. c #9CACAD",
";. c #88B0AF",
":. c #89A6B2",
">. c #86ABB1",
",. c #8BADB1",
"<. c #93ADB2",
"1. c #9AADB5",
"2. c #8DB1B4",
"3. c #94B2B6",
"4. c #99B2B6",
"5. c #96B3B9",
"6. c #9AB4BA",
"7. c #97B8BF",
"8. c #9BBABE",
"9. c #A0ADB1",
"0. c #A3B3B7",
"q. c #A3B9B6",
"w. c #A4BCBC",
"e. c #A9BABC",
"r. c #ABC1BE",
"t. c #9DBDC1",
"y. c #A5BEC2",
"u. c #A8BFC5",
"i. c #A4C1C6",
"p. c #ACC2C6",
"a. c #A6C5CA",
"s. c #ABC5CB",
"d. c #AAC9CE",
"f. c #B3C3C4",
"g. c #BEC6C4",
"h. c #B4C9C4",
"j. c #B8CCC6",
"k. c #B1C5CA",
"l. c #B9C6CA",
"z. c #B1C9CE",
"x. c #B8C9CC",
"c. c #B7D0C5",
"v. c #BCD3CD",
"b. c #AECBD1",
"n. c #B2CDD3",
"m. c #B2CED3",
"M. c #BACCD2",
"N. c #AFD0D4",
"B. c #B3D1D6",
"V. c #B6D1D6",
"C. c #BAD2D6",
"Z. c #B5D3D9",
"A. c #BBD4DC",
"S. c #B6D9DD",
"D. c #BADADF",
"F. c #BCDDE2",
"G. c #C5CBC9",
"H. c #CED2CE",
"J. c #C6D4D6",
"K. c #C0D6DF",
"L. c #C0DAD9",
"P. c #D6D7D2",
"I. c #D3DDDF",
"U. c #CBE0D9",
"Y. c #D1E6DD",
"T. c #D3ECDE",
"R. c #C4D9E2",
"E. c #CEDFE5",
"W. c #D7DEE1",
"Q. c #CAE3E2",
"!. c #CDE7EA",
"~. c #DCE5E7",
"^. c #D2E4E9",
"/. c #D3ECED",
"(. c #D5F1EC",
"). c #D7F5F4",
"_. c #E3E8EC",
"`. c #E1FAFA",
"'. c #F5FBF7",
"]. c #F5FBF8",
"[. c white",
/* pixels */
"k.k.k.k.k.k.U.Y.V   P.[.x.p.k.k.k.k.k.k.k.k.k.k.k.k.k.h.h.q.r._.W.f.f.k.k.k.k.k.k.k.k.k.k.k.k.k.p.v.T.%.  H.[.I.u.k.k.k.k.k.k.k.",
"y.y.y.y.y.y.h.j.v X G.'.p.y.y.y.u.u.y.y.y.y.y.y.y.y.y.w.q.o.-.I.J.e.e.u.y.y.y.y.y.y.y.y.y.y.y.y.y.r.c.[ . g.].J.w.u.y.y.y.y.y.y.",
">.>.@.@.>.@.G N i : =.n.>.>.#.@.>.>.>.>.>.>.>.>.@.@.O.O./ g n 6.3.O.O.@.@.>.>.>.>.>.>.>.>.@.@.@.2.P b j % o.n.5.@.>.@.@.>.>.>.>.",
">.>.,.>.>.@.J G p : =.C.,.>.,.2.,.>.>.>.>.>.>.>.>.2.#.O.) j M 6.6.O.#.,.,.>.>.>.>.>.>.>.>.,.2.>.,.Q N k % +.V.8.@.>.,.>.>.>.>.>.",
"@.3.b.a.#.O.J B a > =.n.#.@.a.n.5.O.#.#.#.#.#.X.8.Z.i.@.` k N 6.6.X.<.b.s.O.O.#.#.#.#.#.#.a.n.3.@.Q N x ; +.B.6.X.6.n.i.@.#.#.#.",
"@.3.s.i.#.O.J B a > =.n.#.@.y.b.3.O.#.#.#.#.#.X.6.n.t.@.` k N 6.6.X.<.a.a.O.O.@.#.#.#.#.#.i.b.3.@.Q N x ; +.B.6.O.5.d.y.@.#.#.#.",
">.) u j X.X.G B a > =.n.#.#.n e / 3.#.#.#.#.O.,.P 8 N ,._ k N 6.3.+. .a h O.#.#.#.#.#.2.2.c r ~ ,.P N x ; +.V.8.,.~ w M >.@.#.#.",
",./ $ t X.X.G B a > =.n.#.#.g O Q 3.#.#.#.#.O.,.G   x 2._ k N 6.3.+.) < w O.#.#.#.#.#.2.3.a O Q ,.P N x ; +.Z.8.2.P X j ,.@.#.#.",
"#.O.) _ @.@.J B a > =.n.#.@. .) O.#.#.#.#.#.@.@.X.) _ #._ k N 6.5.+.+.) _ @.@.#.#.#.#.#.#._ ) X.>.W N x ; +.Z.6.@.O.)  .#.#.#.#.",
"#.#.,.>.@.@.J B a > =.n.#.@.,.,.#.@.#.#.#.#.@.@.#.,.#.#._ k N 6.5.+.+.>.>.@.@.@.#.#.#.@.@.>.,.@.>.Q N x ; +.Z.6.O.#.,.>.#.#.#.#.",
"#.#.@.@.#.@.J B a > =.n.#.@.@.@.#.#.#.#.#.#.@.@.@.@.O.#. .k N 6.5.+.+.O.@.@.@.#.#.#.#.#.#.@.@.@.>.Q N x ; +.V.6.@.#.@.@.#.#.#.#.",
"#.#.#.#.#.@.J B a > =.n.#.@.#.#.#.#.#.#.#.#.#.#.#.#.@.#. .k N 6.5.+.+.#.#.#.#.#.#.#.#.#.#.#.#.@.>.Q N x ; +.B.6.O.#.#.#.#.#.#.#.",
"#.#.#.#.#.@.J B a > =.n.#.@.#.#.#.#.#.#.#.#.#.#.#.#.@.#. .k N 6.5.+.+.#.#.#.#.#.#.#.#.#.#.#.#.@.>.Q N x ; +.V.6.O.#.#.#.#.#.#.#.",
"#.@.@.@.#.@.J B a > =.n.#.@.@.@.@.#.#.#.#.#.#.#.@.@.O.#. .k N 6.5.+.+.@.@.#.#.#.#.#.#.#.#.@.@.@.>.Q N x ; +.V.6.@.#.@.@.#.#.#.#.",
"@.,.u.y.,.#.J B a > =.n.#.@.8.p.3.@.#.#.#.#.O.X.3.s.8.@._ k N 6.6.X.#.y.y.O.X.@.#.#.#.@.@.8.i.3.2.~ N x ; +.B.6.X.3.i.8.@.#.#.#.",
"O.3.C.n.,.#.J B a > =.n.#.O.s.C.8.@.#.@.@.#.O._ 8.K.a.@.` k N 6.5.X.<.n.z.X._ @.#.@.#.O.O.s.V.8.3.~ N x ; +.V.6.X.8.C.a.O.#.#.@.",
",.X.S L #.#.A N i : =.n.#.#.R C  .3.>.>.>.>.#.#.( C Q ,.) j M 6.4.+. .S K #.#.#.>.>.>.#.#.L A  .3.P m k > o.n.6.#.} C Q ,.#.>.>.",
"7._   w 3.3.B b i : =.C.3.5.d   / t.3.3.3.3.3.8.K   k 5. .g M w.6.<. .# 7 3.8.3.3.3.3.3.5.i   / 8.P l j : o.V.8.8.Q   j 5.3.3.3.",
"Q K i j R Q G G a 3 } y.~ Q x i G ^ Q P Q Q Q ~ C u n ~ L x M o.} R K a h Q ~ Q P Q Q Q Q k i G ~ J G c 3 { y. .Q S i c Q Q Q Q ",
"u i d d u i G J w + I o.d u d g i r a h p 0 y u p g f f g j k K A i s d d u r d h r 0 u u d g p r c L j o K =.S w a g a y u h h ",
"! ! R Q Q Q  . .Y S o.4.^ Q Q R ^ } S w S 9.{ R Q Q Q ^ ^ ! ^ o. .! ! R Q { { j u | -.! Q Q Q Q Q ( X.^ C o.6. .R Q R Q ' R d d ",
"C.M.z.z.z.z.z.z.n.n.z.s.z.z.z.z.L.(.$.  $.[.E.a.n.z.z.z.z.z.z.z.z.z.z.z.n.!.!.z   ~.[.M.z.n.z.z.z.z.z.z.n.z.s.z.z.z.z.n.Q.z.6 7 ",
"4.4.3.3.3.3.3.3.3.3.3.3.3.3.3.5.+.o.S o E ^.p.<.5.3.3.3.3.3.3.3.3.3.3.3.3.o.o.a * f.E.6.1.5.3.3.3.3.3.3.3.3.3.3.3.3.3.<.o.^ q q ",
"X.X.X.O.O.O.O.O.O.O.O.O.O.X.O.#.J l f : K n.3.O.O.X.O.O.O.O.O.O.O.X.O.@.X.b l t 1 <.s.#.O.O.X.O.O.O.O.O.O.O.O.O.X.O.#.) m c q q ",
"+.#.8.6.#.#.#.#.#.#.#.#.5.8.,.>.R A k * K C.5.X.3.8.3.#.#.#.#.#.,.8.5.#.@.A B t < 6.n.#.O.5.8.,.#.#.#.#.#.#.@.3.8.3.#.X.S N q 9 ",
"+.3.D.n.#.#.#.#.#.#.@.#.n.D.3.#.P N j = K V.3.) t.F.a.O.#.#.#.O.7.S.N.@.@.B N t < 6.n.O.X.b.D.8.@.#.@.#.#.#.X.i.F.a.@._ A N q q ",
"+.+.+.+.O.O.#.#.#.#.@.@.#.+.@.#.P N j = K V.5.X.#.#.#.#.#.#.#.#.#.#.#.@.@.B N t < 6.n.#.O.#.#.#.@.#.#.#.#.#.@.#.#.#.#._ A N q q ",
",.~   6 _ X.@.#.#.#.O.X.7   ~ 2.L N j ; K V.5.2.G   j ,.@.#.@.,.~   r @.O.B N t < 6.n.#.#.u   P @.O.#.#.#.O.,.M   c 2.) A N q q ",
"#.) d c X.X.@.#.#.#.@.O.c d ) >.L N j ; K V.5.>.Q i G >.@.#.@.>.) d M @.O.B N t < 4.n.#.O.M d / @.@.#.#.#.O.,.L p J 2._ A N q q ",
"+.@.@.@.@.@.@.#.#.#.#.#.#.#.@.#.P N j ; K V.5.O.#.#.#.#.#.#.#.#.#.2.;.#.@.B N t < 6.n.+.O.#.#.#.#.#.#.#.#.#.O.#.#.#.#._ A N q q ",
"+.@.@.@.@.@.@.#.#.#.#.#.@.+.@.#.P N j ; K V.5.O.#.@.@.#.#.#.#.#.#.@.@.#.O.B N t < 4.n.+.O.@.@.#.#.#.#.#.#.#.+.#.@.@.#._ A N q q ",
"+.+.#.#.#.#.#.#.#.#.#.#.#.#.@.>.P N j = K V.5.O.#.#.#.#.#.#.#.#.#.#.@.@.O.B N t < 4.n.#.@.#.#.#.#.#.#.#.#.#.#.#.#.@.#._ A N q q ",
"+.+.#.#.#.#.#.#.#.#.#.#.#.@.@.>.P N j = K V.5.O.#.#.#.#.#.#.#.#.#.#.#.@.@.B N t < 6.n.#.@.#.#.#.#.#.#.#.#.#.#.#.@.@.#._ A N q q ",
"+.+.O.O.#.#.#.#.#.#.#.#.O.O.O.,.P N j = K V.5.O.#.O.O.#.#.#.#.#.#.O.@.#.@.B N t < 6.n.#.O.@.@.#.#.#.#.#.#.#.#.O.O.O.#._ A N q q ",
"+.#.,.,.#.#.#.#.#.#.#.@.>.,.#.#.P N j = K V.5.O.#.,.,.@.#.#.#.@.#.<.,.#.@.B N t < 6.n.#.O.,.,.#.#.#.#.#.#.#.#.#.,.#.#._ A N q q ",
"+.<.n.a.O.O.#.#.#.#.@.@.a.b.2.@.P N j = K V.5.X.8.n.y.@.#.#.#.O.5.B.d.@.@.B N t < 6.n.,.#.a.n.3.O.#.#.#.@.,.,.t.d.8.@._ A N q q ",
"+.<.i.y.O.O.#.#.#.#.@.@.y.i.,.#.P N j = K V.5.X.5.a.8.@.#.#.#.@.3.d.i.@.@.B N t < 6.n.,.#.t.i.,.O.#.#.#.@.,.,.6.y.5.#._ A N q q ",
"#.( 8 f O.+.#.#.#.#.#.+.f q / >.L N j ; K V.3.#.L 3 M ,.#.#.#.,.~ 5 j ,.+.B N t < 4.n.#.#.k 6 ~ #.O.#.#.#.+.,.G 3 B 2._ A M q q ",
"#./ < i O.+.#.#.#.#.#.+.i 3 / >.L N j ; K V.3.#.K + n ,.+.#.+.,.~ * s ,.+.B N t < 4.n.#.#.d ; ~ #.O.#.#.#.O.,.A # M 2.) A N q q ",
"H S n M G G G G G G G G M n A A / #.S # ! /.=.N S n N G G G G H A n N G K +.+.d > p.Q.L S N n A G G G G G G G C n C A L +.( q q ",
"V V C C N N N M C C N N C C N m ( 6.K X ' `.=.k A C C N N N N N N A B M A 3.3.f & x./.H n A C N N M M M C N N N C C m K 3.X.6 7 ",
"A A C S S S H K f t Z T S A S A K R G c K o.Y A S A S S S A S I H C C S G Y R M c ^ } G A S A S A H I M u Z T H A S A G R L n n ",
"G G H H H H K K a 1 D ] H H H H H G H K G N G H H H H K H Z S E U Z S H H G G K K A B G G H H H H K R v 2 S ] Y G H H H G G K K ",
"O.O.O.O.O.X.N c a 4 $.l.+.O.O.O.O.O.O.O.O.+.O.O.O.O.X.( ~ x A 0.1.}  .O.O.O.O.O.O.O.+.O.O.O.O.O.#.P M j , ..k.1.O.+.O.O.O.O.O.O.",
"#.#.#.#.#.#.M c a 1 *.M.#.#.#.#.#.#.#.#.#.#.#.#.#.#.X.} / x A e.0. .o.#.#.#.#.#.#.#.#.#.#.#.#.#.,.P n j ; $.M.6.#.#.#.#.#.#.#.#.",
"O.,.a.y.+.+.G N a < &.n.#.O.t.a.3.X.+.#.#.#.#.O.5.d.8.O._ k N 6.4.X.#.a.i.#.#.#.#.#.#.+.O.t.a.,.+.Q N x ; o.n.6.O.5.s.t.+.#.#.#.",
"O.3.Z.b.#.+.G A a > &.n.#.O.d.S.5.X.#.#.#.#.#.X.t.S.a.:. .k N 6.5.X.<.Z.N.,.#.#.#.#.#.+.O.d.Z.3.+.Q N x - +.n.8.X.8.S.a.+.#.#.#.",
"#.X.C K +.O.G B a > =.n.#.#.L M ) @.@.#.#.#.O.#./ M P >._ k N 6.3.+. .S G #.#.#.#.#.#.#.#.L C ) #.P N x ; +.V.6.#.) M P #.#.#.#.",
",./   7 O.O.G B a > =.n.#.>.i   L 2.@.#.#.#.O.,.A   j 2.) k N 6.3.+.( + 4 O.#.#.#.#.#.>.,.t   P #.P N x ; +.Z.6.,.L   d ,.@.#.#.",
"#.X.L R #.O.G B a > =.n.#.#.~ K _ #.@.#.#.#.@.#.) J ~ ,._ k N 6.5.+.X.L P #.#.#.#.#.#.#.#.Q K _ >.P B x ; +.V.6.#._ J ~ #.#.#.#.",
"#.#.>.#.#.@.J B a > =.n.#.@.#.>.#.#.#.#.#.#.#.#.#.>.#.#. .k N 6.5.+.+.>.>.#.#.#.#.#.#.#.#.#.>.#.>.Q N x ; +.B.5.O.#.>.#.#.#.#.#.",
"#.@.O.O.#.@.J B a > =.n.#.@.@.O.@.#.#.#.#.#.#.#.@.O.O.#. .k N 6.5.+.+.O.O.#.#.#.#.#.#.#.#.@.O.@.>.Q N x ; +.V.6.@.#.O.@.#.#.#.#.",
"#.#.#.#.#.@.J B a > =.n.#.@.#.#.#.#.#.#.#.#.#.#.#.#.#.#. .k N 6.5.+.+.#.#.#.#.#.#.#.#.#.#.#.#.@.,.Q N x ; +.Z.6.O.#.#.#.#.#.#.#.",
"#.#.#.@.#.@.J B a > =.n.#.@.#.#.#.#.#.#.#.#.#.#.#.#.@.#. .k N 6.5.+.+.#.#.#.#.#.#.#.#.#.#.#.#.@.,.Q N x ; +.V.6.O.#.#.#.#.#.#.#.",
"#.#.#.#.#.@.J B a > =.n.#.@.#.#.#.#.#.#.#.#.#.#.#.#.@.#. .k N 6.5.+.+.#.#.#.#.#.#.#.#.#.@.#.#.@.,.Q N x ; +.B.6.@.#.#.#.#.#.#.#.",
"#.#.#.#.#.@.J B a > =.n.#.@.#.#.#.#.#.#.#.#.#.#.#.#.#.#._ k N 6.5.+.+.#.#.#.#.#.#.#.#.#.#.#.#.#.>.Q N x ; +.B.5.O.#.#.#.#.#.#.#.",
"#.@.X.O.#.#.J B a > =.n.#.@.O.X.+.#.#.#.#.#.#.#.#.+.O.#._ k N 6.5.+.+.X.O.#.#.#.#.#.#.,.,.@.O.@.,.Q N x ; +.V.5.X.O.X.O.#.#.#.#.",
"@.#.6.3.#.O.G B a > =.n.#.@.3.6.<.#.#.#.#.#.#.#.<.8.3.@._ k N 6.6.+.+.6.5.#.#.#.#.#.#.#.#.5.8.,.2.Q N x ; +.B.6.O.,.6.3.@.#.#.#.",
"O.3.A.n.X.X.G B i > =.n.#.O.n.R.8.@.#.#.#.#.#.O.y.R.a.@._ k N 6.6.X.<.A.n.#.O.#.#.#.#.O.O.b.A.8.2.~ N x ; +.B.8.X.8.A.s.O.#.#.#.",
"@.#.1.<.+.X.G B a > =.n.#.@.1.4.<.#.#.#.#.#.#.#.<.1.<.@._ k N 6.6.+.+.1.1.#.#.#.#.#.#.@.@.<.1.,.2.~ N x ; +.V.6.O.<.1.<.#.#.#.#.",
"3.( @ t <.<.B m a < =.V.,.,.g X Q 5.,.#.,.#.,.8.L   k 3. .k N 6.6.<. .: 9 #.<.#.#.#.#.,.<.p . / 8.P m j : +.V.8.5.Q   k 5.,.#.,.",
"+.^ q h +.+.J F a > -.C.+.O.c 9 Q #.X.X.X.X.O.<.L 4 n #.) b A 6.4.+.) t a X.+.X.X.X.X.O.O.j 7 ~ 2.Q J c & =.A.6.#.R 5 n #.O.X.X.",
"N N N N N A O.#.h @ w.Q.K M B B N N N C C C N N N N A G G P Q w.-.A G N N N N C C N N N N B B B M / 8.L   w.).<.k N N N M M M N ",
"N N N N N A X.#.h @ w.Q.K M B B N N N C C C N N N N A G G P Q w.-.A G N N N N C C N N N N N N B M / 8.L   w.).<.k N N N N N N N "
};
