/* XPM */
static char *_d497f67f88b4128b39109f821a99998tGXwrx1k1AZxoTTh[] = {
/* columns rows colors chars-per-pixel */
"64 64 137 2 ",
"   c #010000",
".  c #0B0100",
"X  c #010905",
"o  c #0C0A06",
"O  c #030D0A",
"+  c #0E0A09",
"@  c #120300",
"#  c #140A04",
"$  c #180C06",
"%  c #140D0A",
"&  c #1B0E0A",
"*  c #16100D",
"=  c #1C110D",
"-  c #1E1311",
";  c #21120E",
":  c #29140F",
">  c #351007",
",  c #35130C",
"<  c #251512",
"1  c #2C1511",
"2  c #241915",
"3  c #2D1916",
"4  c #2E1B18",
"5  c #311612",
"6  c #3C1512",
"7  c #341A15",
"8  c #3B1B15",
"9  c #321C19",
"0  c #3B1D1A",
"q  c #2F211D",
"w  c #35211D",
"e  c #3B201E",
"r  c #342721",
"t  c #3C2321",
"y  c #3C2B24",
"u  c #3F322C",
"i  c #570F15",
"p  c #411716",
"a  c #421C17",
"s  c #421D1A",
"d  c #4A1E1B",
"f  c #571517",
"g  c #591416",
"h  c #59171A",
"j  c #541E1D",
"k  c #5A1C1D",
"l  c #42211D",
"z  c #4C201D",
"x  c #52211E",
"c  c #5C201F",
"v  c #432623",
"b  c #492522",
"n  c #452926",
"m  c #4A2926",
"M  c #4C2729",
"N  c #442C29",
"B  c #4D2C2B",
"V  c #542321",
"C  c #5C2322",
"Z  c #522A25",
"A  c #592826",
"S  c #532D2C",
"D  c #5B2C29",
"F  c #43322B",
"G  c #4A342D",
"H  c #52302F",
"J  c #5F312D",
"K  c #493630",
"L  c #4E3D36",
"P  c #4D3F38",
"I  c #543231",
"U  c #593533",
"Y  c #543E34",
"T  c #5C3A35",
"R  c #503F38",
"E  c #5B3F39",
"W  c #612524",
"Q  c #642827",
"!  c #612E2A",
"~  c #61312C",
"^  c #623731",
"/  c #633A33",
"(  c #613C36",
")  c #613F38",
"_  c #4F4038",
"`  c #554035",
"'  c #574035",
"]  c #5B4237",
"[  c #57453D",
"{  c #5B403B",
"}  c #5C403A",
"|  c #5D423B",
" . c #664037",
".. c #604039",
"X. c #62433B",
"o. c #60433D",
"O. c #64463D",
"+. c #6B4339",
"@. c #68443B",
"#. c #64493E",
"$. c #6C4A3E",
"%. c #704B3F",
"&. c #574840",
"*. c #614741",
"=. c #664941",
"-. c #644C45",
";. c #694940",
":. c #6B4D43",
">. c #6F4F43",
",. c #6B4D44",
"<. c #704C40",
"1. c #655147",
"2. c #6C5145",
"3. c #625148",
"4. c #675148",
"5. c #6B544A",
"6. c #6A544B",
"7. c #6B594F",
"8. c #6C584E",
"9. c #725346",
"0. c #735648",
"q. c #755748",
"w. c #75594B",
"e. c #755B4F",
"r. c #795B4B",
"t. c #7A5B4C",
"y. c #7B5C4D",
"u. c #7C5D4D",
"i. c #6F5B51",
"p. c #6E5C51",
"a. c #705A50",
"s. c #725B50",
"d. c #725E53",
"f. c #7F604F",
"g. c #6F6054",
"h. c #736156",
"j. c #7E6151",
/* pixels */
"& & & % % * * * * * * ; ; ; ; = * * & & & & & & & & & & & & & & % % % % % & & & & & & & & & % & ; ; = * * = ; ; ; ; ; ; ; = = = ",
"& & % X X                 . . .       .   % & & & & & & & & & & + + + % + % & & & & & & & o X X             . .           @ # # ",
"& % 5 s p G P L L L L Y Y L L L Y ` G 0 t < # = 1 1 1 1 1 1 1 1 1 1 1 < < < < 1 1 5 : % & 8 a s Y Y Y L L L L L Y Y Y Y Y n t t ",
"% X s Q k ,.d.a.a.a.e.u.y.a.i.a.t.u.;.S U 9   ; 8 8 8 8 8 8 8 8 8 8 0 9 9 9 9 0 8 8 5 + % V W ! r.u.e.a.a.a.a.a.y.y.y.y.y.T I I ",
"% X p k f =.p.8.8.7.e.r.w.8.8.8.w.y.O.M S 4   ; 8 8 8 8 8 8 8 8 8 8 7 4 9 3 3 7 8 8 5 + % j k C q.r.e.8.8.8.8.8.w.w.w.w.w.U M S ",
"=   G ,.=.o.E E / / ( ....} { } / / @.:.>.y   < 0 7 0 x x 0 7 0 x x s 7 8 v m b 7 0 3 % & } :.=.....} } } } { E / / / / / =.-.-.",
"; . _ d.p.E M S k k V B B S S S k i +.u.u.G   < 9 3 s W C 0 3 9 C W d 8 8 M U B 4 9 3 & & 3.d.5.H M S S S S B S k k k k k 5.p.i.",
"; . L e.8.E S S C C A H S H I H A C  .9.9.N   < 0 7 s V V e w w V V z e s m B n 7 9 3 & & -.e.5.U H I H I H S S A A A C C =.4.,.",
";   Y y.w./ k C C C C C C S H H H H S S H 9   ; 8 8 7 4 9 B I H 0 3 b I I t 3 9 7 9 3 & & :.y.9.U S H H H A c A S I S C C C C C ",
";   Y u.w./ k C C C C C C S H H H H I I I 9   = 8 8 7 3 3 m S M 9 1 v I I t 1 3 3 9 3 & & :.y.9.U S H H I A c A H H S C C C C C ",
";   Y e.e.( V A A A A C C S H H S S S m B 4 o ; 8 8 8 s s T } E v t m S S b t t 7 0 3 & & :.e.0.U S S S S A C A H H S C C V z x ",
"; . L a.8.{ B I H I S C C S H S C C d 7 8 : % ; 8 8 d C C 5.p.8.U I A C C S I B 8 8 7 & & -.i.5.I H A C C C C A H H S C C 0 3 4 ",
"; . L d.8.} S H H H S C C S I S C C z 8 8 : % ; 8 8 d C C 4.8.5.I S S C C S I B 8 8 5 & & -.a.5.I B S C C C C A H I S C C 0 4 9 ",
"&   l ~ D $.9.:.S H m 0 0 0 w w 0 0 0 7 0 < + ; 8 8 8 s a D J J -.5.T 6 a m I B 8 8 5 & & S ~ J -.5.} S H b a s l l s a s 8 8 8 ",
"% X p W h %.j.9.S I m 3 4 3 3 3 4 4 4 9 9 < o = 8 8 8 8 8 j k C 8.d.` > 8 m I B 8 8 7 & & j k C 8.d.*.S U v 8 8 8 8 8 8 8 8 8 8 ",
"% X 0 C j $.w.:.B H n 3 9 9 9 9 9 9 9 3 9 < + = 8 8 8 8 8 V C A 1.7.Y , 8 m H m 8 8 5 & & V C A 1.5.} M H l 8 8 8 8 8 8 8 8 8 8 ",
"* * ; < < 2 2 2 < < < ; ; = = = & & = ; ; = * * ; ; ; * * < < < 2 2 - % & = - - * = = ; ; ; ; < 2 2 2 < < = & & & & & & & ; ; ; ",
"                    . % # & & &                 . .                 . % % .                                   . % % o       . . ",
"Y Y Y L L Y Y Y L _ G p s ; & ; t t G ` Y Y Y Y L L L L L L L L t t 4 # % 9 t n Y Y Y Y Y Y Y Y L L L L R N t w % o < t t L L L ",
"y.u.e.a.a.e.u.y.a.d.,.c W 1 # < I S ;.u.t.u.u.y.a.a.a.a.a.a.a.8.U U t # $ m I E u.y.y.y.y.y.y.y.a.a.a.a.d.} I B %   9 U I 8.d.a.",
"w.r.e.8.8.e.r.e.8.p.=.f k 1 # ; B M O.y.w.w.r.w.8.8.8.8.8.8.8.5.S S w # $ v B U r.w.w.w.r.r.r.w.8.8.8.8.i.E M N % o 9 S M 5.i.8.",
"/ / ^ / / ( } ) / ^ ) =.=.q   2 *.-.o.E ......} E E E } { / ^ / ;.2.G . @ Y 9.$.E } ( / / ( } ) / ^ E { E O.>.} %   y ,.-.} E E ",
"k k k k k S B S k g ^ g.p.r   2 5.d.} M B B B B S S S S S C k C w.j.Y . @ #.f.9.M B S k k S B S k k A B M >.j.4.%   u d.8.U M S ",
"A A A A A S S S A C T 5.,.q   2 5.e.o.S H S S S S S S H H A A D >.9.G . @ } y.2.H I S A A S S S A C A H S O.9...%   u e.8.U S S ",
"H H H H H A C A H I S c C 1   2 9.y.+.k C C C C C C A H H H H S C C 8 O   [ d.1.S H S H H A C C C C C C C C C j *   F y.w.~ k C ",
"H H H H I A c A H H S C C 1   2 9.y.+.k C C C C C C A H H H I H C W a O   [ d.4.S H S H H A C C C C C C C C W x *   F y.w.! k C ",
"S S S S S S A S H H S x x <   2 9.y.+.k C C C C C C A H H S S S b V 8 %   [ a.4.S H H H H S A A A A A A A V x d *   F y.w.J A A ",
"C C C C C S I H H I m 7 8 ;   2 9.y.+.k C C C C C C A H H A C C 4 4 < = . ..u.2.S H H H H H H H H H H H I l 8 7 ; . F y.w.T S I ",
"C C C C C S H S H I M 8 8 ;   2 9.y.+.k C C C C C C A I H A C C 0 9 1 = . ..u.2.S S H H H H H H H H H H I l 8 7 =   F y.w.T S H ",
"S S b 9 0 0 l 0 w w 0 7 9 = o = D !  .5.5.T S S a a s l s 0 0 0 8 8 1 % . B T E 5.5.*.S H l 0 l w w w w w 0 9 3 &   w T U >.9.9.",
"H I v 3 4 8 8 8 3 3 4 9 9 = + & C h O.p.p.} S B 8 8 8 8 8 7 4 9 8 8 1 + o v S T i.d.-.S I s 8 8 7 3 3 3 3 9 9 3 %   9 H S 9.y.r.",
"B H v 3 9 7 8 8 4 4 4 4 4 = + & V k ..5.5.E B B 8 8 8 8 8 7 4 7 8 8 : + o v S I 5.5.*.M S 0 8 8 9 4 9 9 9 3 9 3 % o 9 H B 2.q.9.",
"* * & & & & & & & & & & & & & & & & - 2 2 - * = ; ; = * = ; ; ; ; ; = * * < < < 2 2 < * * = ; ; = = = = = & & & & & = ; ; 2 3 3 ",
"% % % + + + + + + + + + + & & & o o o     o % # # # .                           @ . @ % % % & % & & & & & % o % & & & % % # # # ",
"& & ; < < < < < < < < < < < 1 < < < 1 1 1 ; % < t e N L L Y Y Y Y Y Y Y Y Y Y Y t t 9 o % 1 5 1 1 1 1 1 1 1 < < 1 < 1 1 1 1 1 1 ",
"& & 1 0 9 9 9 9 9 9 9 9 9 9 9 9 9 9 0 8 8 1 # 3 U S o.d.a.y.y.y.y.y.y.y.y.t.u.q.I U N . % 8 8 8 8 8 8 8 8 0 9 9 9 9 0 8 8 8 8 8 ",
"& & < 9 9 3 3 3 4 4 4 3 3 4 4 4 3 3 7 8 8 1 # 1 S M E i.8.w.w.w.w.w.w.w.r.w.y.9.M S v o % 7 8 8 8 8 8 8 8 7 3 3 9 4 7 8 8 8 8 8 ",
"& & 1 9 3 v m b 8 7 s x z 0 7 0 n m t 7 0 <   w >.>.#.E } } ..../ / / / / / / / :.>.Y . * 7 7 0 m M t 7 7 d V z 9 3 w M m 0 7 7 ",
"& & < 9 3 m U S 8 8 d W W s 7 8 H U n 3 9 <   r t.y.>.M S B B B k k k k k k h ! y.f.#.. = 3 4 9 H U v 3 3 x W V 4 3 t I I w 3 9 ",
"& & 1 0 7 b B m l e z V V s a s M S v 7 0 <   r w.r.:.S H S S S C C A A A C C ~ 2.9.] . = 3 9 9 M B b 0 0 z C x 0 0 v B B 9 3 9 ",
"& & 1 8 8 7 3 w I I m 3 9 V C C 8 8 8 8 8 1 . r w.y.$.k C C C C C C S H H A C A S H v # & 3 9 9 8 8 z C C d 7 s C C x 3 9 9 9 9 ",
"& & 1 8 8 7 3 0 B S b 3 4 x C C 8 7 8 8 8 1 . t r.t.$.k C C C C C C S I I A C A I I n # & 3 9 9 8 7 d k k s 7 a C C z 3 4 4 9 9 ",
"& % 1 8 8 e t n ....U 0 s A A A d d s 8 8 1 . r w.e.;.V A C C C C C A S S A C C m B t # & 7 7 0 l l S / / Z a z C C V 0 s 0 7 7 ",
"% + 1 8 8 B I T r.y.<.k C S I H C W z 8 8 1 . r 8.i.-.S I A C C C C C C C C C V 3 3 1 & & 8 8 8 H S *.p.p./ k C C C C C C a 8 8 ",
"% + 1 8 8 M S T w.y.$.k C S I S C C d 8 8 1 . r 8.i.-.S H A C C C C C C C C C V 4 9 3 & & 7 8 8 H S *.8.8.^ k C C C C C C a 8 8 ",
"& & 1 0 7 0 0 l ~ D / 9.9.m 8 l C C d 8 8 ;   3 ~ D ( 5.4.U S S s a s a a 0 0 0 9 9 3 & & 7 8 8 l 0 Z ~ D O.5.#.a a b S S s 8 8 ",
"& & 1 9 4 8 8 a C h / y.y.m , 8 C W d 8 8 ; X 1 C h / d.i.T S H 8 8 8 8 8 7 4 4 9 9 3 & & 7 8 8 8 7 d C k ;.h.1.8 8 v I I l 8 8 ",
"& & < 9 3 7 8 s C j ^ 0.9.n , 8 V C d 7 8 ; X 1 A k T 5.5.U S S 8 8 8 8 8 7 9 9 3 9 1 & & 7 8 8 8 7 z A j o.7.*.8 8 l S S 0 8 8 ",
"* * = ; ; = * = < < < 2 2 ; & = & & & & & % % & ; ; < 2 2 - = = = ; & & & & ; = * * * * * ; ; ; ; ; ; < < 2 3 2 = = ; < < ; ; ; ",
"                          % & & o o + + + + + % # % # @ @ o o o % & % % % # % o                           . . @ & & % o o . . . ",
"Y Y Y Y Y Y L L L Y K t t < & = < < 1 1 1 1 1 1 1 < 1 5 1 1 1 1 1 5 ; % + 7 a l Y Y Y Y Y Y Y Y Y Y Y L Y N t w & & 1 s a K L L ",
"y.y.y.y.y.e.a.a.a.d.,.S U 3 # ; 9 9 8 8 8 8 8 8 9 9 0 8 8 8 8 8 8 a 1 % o z W ~ u.y.y.y.y.y.u.u.y.u.e.i.d.} I B & % 8 W C 5.d.e.",
"w.w.w.w.r.e.8.8.7.i.-.M S 1 # ; 3 9 7 8 8 8 8 8 3 3 7 8 8 8 8 8 8 8 1 % + d k D r.w.r.w.w.w.w.w.w.r.e.7.p.E M m & % 6 k k 5.i.8.",
"/ / ( } ..E E E { E o.>.>.w . = 9 3 t M m l 8 0 m m b 8 8 b M m 8 8 1 %   Y ,.O...} ........} ) / / ^ / ^ o.,.[ & . y ,.=.( ^ / ",
"k k A B B B S S S M } u.y.r   * 4 3 n I I b , l I U M 7 8 S I H 8 8 1 %   &.d.4.S S B B B B B S k k k k f =.h.3.& . F d.i.D k k ",
"A A A S S S S S I S E 9.9.w   = 7 7 v B B b 0 l B B m a s m B m 8 8 1 &   [ d.4.H H H S S H H H C C C C C O.5.} & . F a.5.J C C ",
"H I A C C C C A H H S c C 1 % ; 8 8 7 9 3 m U B 9 3 s C C 0 4 9 4 9 < = . ..u.2.S H S C C S H S C C C C C C C j = . F a.8.J k C ",
"H H S C C C C A H H S C C 1 % ; 8 8 7 3 3 b S m 3 3 0 C C 0 3 3 9 9 < = . ..u.2.H I S C C S H S C C C C C C W x = . F a.8.J k C ",
"H H S C C C C A H H S x x 1 % ; 7 8 0 s 0 I } T t t b C C v t t 9 9 < * . } y.2.S S A C C S H S A A A C C V V d = . F a.8.J c C ",
"H H S C C C C A H I m 7 8 ; & ; 9 3 z W k ;.d.5.H I S C C S I H 9 9 < %   [ d.-.c C C C C S H H H I S C C 0 3 3 = . F a.8.J k C ",
"H H S C C C C A H I M 8 8 ; & = 9 4 z C k =.p.4.S H S C C S H S 9 9 < &   [ d.,.C C C C C S H H H I A C C s 4 3 = . F a.8.D k C ",
"H I b a s 0 0 0 w w 0 8 8 = % & 4 9 0 0 9 Z ! ^ 9.q...6 s V C C 8 8 1 & # m ! ^ 9.9.$.S S l 0 l s l s a s 0 9 3 = @ w T T -.5.4.",
"H H b 7 8 7 4 4 3 3 7 8 8 = + & 4 9 4 4 3 z k ~ w.y.#., 8 x C C 8 8 1 & % d k ! t.y.>.B I 0 8 8 8 8 8 8 8 7 9 3 = # 9 S S 5.i.8.",
"S H b 8 8 7 9 7 9 9 7 8 8 = + & 4 9 9 9 3 V C ~ w.t.#., 8 V C C 8 8 1 & % d C ~ w.r.:.S H l 8 8 8 8 8 8 8 7 9 3 = # 9 I S 5.8.8."
};
