/* XPM */
static char *_1b0490a0ebe4db39fb6538ac5e6d6b9vaus1cMys422Qot3[] = {
/* columns rows colors chars-per-pixel */
"64 64 90 1 ",
"  c #0B1112",
". c #161A17",
"X c #1C1E1A",
"o c #1F211C",
"O c #22231D",
"+ c #272720",
"@ c #282522",
"# c #272820",
"$ c #2C2A23",
"% c #312E27",
"& c #342E29",
"* c #313026",
"= c #36322A",
"- c #3B342D",
"; c #3E392F",
": c #3F3630",
"> c #3F3930",
", c #403A2F",
"< c #443C33",
"1 c #493F36",
"2 c #494236",
"3 c #4D443A",
"4 c #4F483A",
"5 c #51463C",
"6 c #53493D",
"7 c #564C40",
"8 c #594E42",
"9 c #575140",
"0 c #5D5244",
"q c #615546",
"w c #625846",
"e c #635748",
"r c #655A4A",
"t c #695E4D",
"y c #6C624E",
"u c #6F6450",
"i c #716651",
"p c #746A54",
"a c #796E56",
"s c #7C6E59",
"d c #7A7157",
"f c #7D7359",
"g c #82765C",
"h c #85765F",
"j c #83785D",
"k c #84795E",
"l c #867760",
"z c #897760",
"x c #877B60",
"c c #887B60",
"v c #8B7B63",
"b c #897C61",
"n c #8C7D62",
"m c #8E7F64",
"M c #937F67",
"N c #8E8064",
"B c #928366",
"V c #918466",
"C c #968369",
"Z c #9A866C",
"A c #9A876C",
"S c #9D886E",
"D c #9D896E",
"F c #9E8B6E",
"G c #9F8C70",
"H c #A08A70",
"J c #A38F72",
"K c #A48E72",
"L c #A68F74",
"P c #A59073",
"I c #A59173",
"U c #A69074",
"Y c #A89275",
"T c #AA9377",
"R c #AD9678",
"E c #AE9779",
"W c #AE9A79",
"Q c #B29E7C",
"! c #B39E7D",
"~ c #B4A07E",
"^ c #B9A482",
"/ c #BCA783",
"( c #BDA684",
") c #BDA884",
"_ c #C0AA86",
"` c #C3AC88",
"' c #C5AE89",
"] c #C7B08B",
"[ c #C8B08B",
"{ c #C9B28C",
/* pixels */
"=8pgkDDJ/~nU)Qs1$&$&--1<<<<<1<%O=8pgkDDJ/~nU)Qs1=0bDDDI)QgI_Ypc4",
"0pjggfffffggpb)g>167i6460ye37w1%8pjggfffffggpb_g3pgffffffgffdV/s",
"ykggggggjgggkfb[64yifutifytue211ykggggggjgggkfn'ygjggggjgggjjfgY",
"0kgggggggggggfN(6rifuaifufpftr3<0kgggggggggggfN_pgggggggggggggkH",
"8kgggggggggggfbD4ujggffggggkftt<0kgggggggggggfbHrgjggggggggggggy",
";yffkkkkkkgkkkki4tgkkgfkffgafka1>yffkkkkkkgjjkki4tfkjkkkkkjjkkde",
"X-40ppiiipfapiy@.-0ipiyy70pr0i6=o-40ppiiiagffpi-$1wpfaiiiuffiu4&",
"56wig<OO$8aii0qw02<eha4OO=pf864556wig<OOO1y07--OOO+<04.OX=pf8645",
"JE]]`p-$8jgnUKY[)AcY'{^y;ifmDcLUJE]]`p-#$$$=#$%-%$$%=$$#;ifmDcLL",
"gggfNQw=igggggggggggjdD/yggggggggggfNQe+$<701<1ee211w3--iggggggg",
"ggggdJE6jggggggggggggfNKagggggggggggdIE$-60ee66rirrwwe36dggggggg",
"gggjfnCpjgggggggggggjfnCyggggggggggjfNzX5eyguiidiuifji02yggggggg",
"ggggggdafggggggggggggggprfgggggggggggky&7iggkkfugkfugfr6tfgggggg",
"kkkkka81ygkjkjjkkkjjgjd01tgkkkkkkkkhka02ygkgffjkkgfggjf01tgkkkkk",
"ddddf0=O<0dfdffdddffjp7-O<tapafdddddf0=O<0dpwyfdfperjp7=O<tapafd",
"#-58i4*<22qigk-$#=16gw-,-<12e8X##-58i4*<22qigh-$#=16gw-;-<12e8X#",
"1igAAmgDQWCJ~Qc22uifgcACACkDQWl21igAAmgDQWCJ~Qc12uiggcACACkDQWh4",
"wkggggjgggggdN)aekkjggggggjjdB`iwxjgggjgggggdN)aekjjggggggjjdB`p",
"pggggggggggggfhKagggggggggggfcJapggggggggggggfhKagggggggggggfcJd",
"fgggggggggggggkHggggggggggggfbA3akggggggggggggkHggggggggggggfbA1",
"0kggggggggggggkfigjjgggggggggkk20kggggggggggggkfigjjgggggggggkh4",
"2ygkxkkkkkkxkgfw6yffkkkkkkkkjbBw3ygkxkkkkkkxkgfw6yffkkkkkkkkjbMe",
"X-0uyyiiippyid7$ -00yppiiiiipp4&X-0uyyiiippyid7$ -00yppiiiiipp4&",
"63<qi0oo#60*6c06w06qii-+OO>68t4563<qi0oo#60*6c06w06qii-+OO>68t45",
"UDkY{~r%6ugjbLKU[^kY{Qu1%4pkgcLKUDkY{~r%6ugjbLKU[^kY{Qu1%4pkgcLK",
"gggjaIQ<iggggggggggkdD^w6ugggggggggjaIQ<iggggggggggkdD^w6ugggggg",
"ggggfNc7gggggggggggggfBDrgggggggggggfNc7gggggggggggggfBDrggggggg",
"ggggggdpjggggggggggggfbApjggggggggggggdpjggggggggggggfbApjgggggg",
"ggggggfafggggggggggggjgaafggggggggggggfafggggggggggggjgaafgggggg",
"gjkjks81tgkkkjgggkkkggd01rfgjggggjkjks81tgkkkjgggkkkggd01rfgjggg",
"gfffd0=O<wdaafgjgfdddr8=O10tfgkjgfffd0=O<wdaafgjgfdddr8=O10tfgkj",
"tw144;-;2267ri0gi158i5;2<=6rptaft0244;-;2267ri0gi158i5;2<=6rptaf",
"-8ifgCCD~WxJ~Ws2-0kAACD~WfG^Upm6-8ifgCCD~WxJ~Ws2-0kAACD~WfG^Upm6",
"0pkjjgggfggjdN_g2pjggggfgjgfdV/a0pkjjgggfggjdN_g2pjggggfgjgfdV^s",
"ukggggggggggjfn'ygggggggggggjfkLpgggggggggggjfn'ygggggggggggjfgY",
"0kgggggggggggfN_pgggggggggggggcAwjgggggggggggfN_pgggggggggggggkH",
"0kgggggggggggfbHrgjggggggggggggr0kgggggggggggfbHrgjggggggggggggy",
";yffkkkkkkgkkkki4tgkkkxkkkjjkkf0<yffkkkkkkgkkkki4tgkkkxkkkjjkkde",
"X-40ppiiipfapiy@.-0ipiyiiuffiu4&o-40ppiiipfapiy@.-0ipiyiiuffiu4&",
"56wig<OO$8aii0qw02<eha4OX=pf864556wig<OO$8aii0qw02<eha4OX=pf8645",
"JE]]`p-$8jgnUKY[)AcY'{^y;ifmDcLUJE]]`p-$8jgnUKY[)AcY'{^y;ifmDcLL",
"gggfNQw=igggggggggggjdD/yggggggggggfNQw=igggggggggggjdD/yggggggg",
"ggggdJE6jggggggggggggfNKagggggggggggdJE6jggggggggggggfNKaggggggg",
"gggjfnCpjgggggggggggjfnCyggggggggggjfnCpjgggggggggggjfnCyggggggg",
"ggggggdafggggggggggggggprfggggggggggggdafggggggggggggggprfgggggg",
"jkkjka81tfjkkkjkkkjjgjd01tgkkkkkkkkkka81ygkjkjjkkkjjgjd01tgkkkkk",
"ddddf0-$2rddddfdddffjp7-O<tapafdddddf0=O<0dfdffdddffjp7-O<tapafd",
"##$##-#+O%<+$$O$$=16gw-,-<12e8X##-58i4*<22qigk-$#=16gw-,-<12e8X#",
"#=13>=1666054<<X;uifgcACACkDQWl21igAAmgDQWCJ~Qc12uifgcACACkDQWh4",
"%17it60tttuyr6w$9bjjggggggjjdB`iwxjgggjgggggdN)aekkjggggggjjdB`p",
"=7ifypdytuattt21yjggggggggggfcJapggggggggggggfhKagggggggggggfcJd",
"4pfujaifufpdify<4kggggggggggfbA3akggggggggggggkHggggggggggggfbA1",
"4kggjggjgggjjjge6kjjgggggggggkk20kggggggggggggkfigjjgggggggggkh4",
"2ygkfgkffkgffffw4yffkkkkkkkkjbBw3ygkxkkkkkkkkkd03tffkkkkkkkkjbMe",
"X-0y60y70pu60e7% -00yppiiiiipp4&X-0uyyiiiiiiiy8-#100iiiiiiiipp4&",
"64<wi0oO$60=5aq5w06qii-+OO>68t4563<qi0oOoo#@XXO%$#OO#OoOOO>68t45",
"UDkY{~r%6uggbLKU[^kY{Qu1%4pkgcLKUDkY{~r+$%1<%=%132$$21##$4pkgcLK",
"gggjaIQ<iggggggggggkdD^w6ugggggggggkaIQ.2<433w14t0<2301#-ugggggg",
"ggggfNc7gggggggggggggfBDrgggggggggggfBc%16uu60ity6wtiu0:2ggggggg",
"ggggggdpjggggggggggggfbApjgggggggggggki:8uyutidutpdifft1=jgggggg",
"ggggggfafggggggggggggjgaafgggggggggggky=ifpfifufafifugg0>fgggggg",
"jjjjka81tgjjjjjggkjjggs0<rfgjggggjjjka82tgkjkjjgjkkjjgs01rfgjggg",
"fffff0-$2rfffffggffffr0:#2eygfggfffff0-$1rfffffggffffr0-#2eygfgg",
"ye121$###$216tykp114t<+#+$16tyggye121$##@$216tykp114t<+#+$16tygg"
};
