/* XPM */
static char *result[] = {
/* columns rows colors chars-per-pixel */
"64 64 169 2 ",
"   c #3E0B0E",
".  c #3E1110",
"X  c #3A1D16",
"o  c #37261B",
"O  c #3D2419",
"+  c #3F2B1E",
"@  c #3F2E20",
"#  c #2D2537",
"$  c #43070E",
"%  c #43080E",
"&  c #4F0612",
"*  c #4C0F12",
"=  c #560013",
"-  c #530A12",
";  c #431311",
":  c #491513",
">  c #441912",
",  c #4D1A15",
"<  c #511513",
"1  c #541B15",
"2  c #5E1D17",
"3  c #661E19",
"4  c #45251B",
"5  c #4B251A",
"6  c #452B1B",
"7  c #4A2B1D",
"8  c #552317",
"9  c #5A2017",
"0  c #572618",
"q  c #5B2318",
"w  c #572B1D",
"e  c #5C2B1C",
"r  c #473719",
"t  c #4A361D",
"y  c #473919",
"u  c #4D3B1C",
"i  c #5E391E",
"p  c #632519",
"a  c #652A1B",
"s  c #6A2E1C",
"d  c #62301F",
"f  c #6D311E",
"g  c #422F21",
"h  c #453323",
"j  c #4B3423",
"k  c #4A3A27",
"l  c #4C3C28",
"z  c #523121",
"x  c #513D21",
"c  c #5A3F27",
"v  c #503E2B",
"b  c #483732",
"n  c #40363E",
"m  c #513B3B",
"M  c #6F3521",
"N  c #6E3823",
"B  c #713521",
"V  c #743A24",
"C  c #793E26",
"Z  c #4C471C",
"A  c #55461F",
"S  c #52481E",
"D  c #56521F",
"F  c #4F402A",
"G  c #534127",
"H  c #5B4323",
"J  c #554B24",
"K  c #5D4925",
"L  c #52442B",
"P  c #564A2C",
"I  c #5C4E2E",
"U  c #4B5020",
"Y  c #5B5424",
"T  c #5C5A25",
"R  c #57532B",
"E  c #5D512D",
"W  c #5E5B2D",
"Q  c #554836",
"!  c #5B4E32",
"~  c #5E5334",
"^  c #5D5238",
"/  c #614F29",
"(  c #6E4F2C",
")  c #794027",
"_  c #7D4229",
"`  c #65572C",
"'  c #6A522A",
"]  c #655D2D",
"[  c #74552F",
"{  c #644F35",
"}  c #604B39",
"|  c #625533",
" . c #6A5435",
".. c #665A33",
"X. c #6A5D34",
"o. c #775531",
"O. c #7B5731",
"+. c #735C35",
"@. c #7D5A36",
"#. c #765D3A",
"$. c #7A5D3B",
"%. c #596325",
"&. c #5C6C27",
"*. c #5D642B",
"=. c #5D6D29",
"-. c #61642D",
";. c #6A642D",
":. c #626D2D",
">. c #6B6E2D",
",. c #64722D",
"<. c #6C6234",
"1. c #676A30",
"2. c #6A6B32",
"3. c #736534",
"4. c #736C34",
"5. c #78613C",
"6. c #697230",
"7. c #747135",
"8. c #5B5255",
"9. c #624B44",
"0. c #6D5B52",
"q. c #69605E",
"w. c #7A6B5E",
"e. c #6E6363",
"r. c #81472C",
"t. c #84492E",
"y. c #864D30",
"u. c #8C5333",
"i. c #915736",
"p. c #925937",
"a. c #955C39",
"s. c #985F3B",
"d. c #84613E",
"f. c #8F693E",
"g. c #9B633D",
"h. c #90693E",
"j. c #846444",
"k. c #8C6B46",
"l. c #9E6740",
"z. c #936D45",
"x. c #9F6840",
"c. c #99754C",
"v. c #9C784E",
"b. c #9E7951",
"n. c #A26C43",
"m. c #A67146",
"M. c #AA7347",
"N. c #AA7449",
"B. c #AE7A4C",
"V. c #B37E4E",
"C. c #A27D52",
"Z. c #B47F50",
"A. c #887E78",
"S. c #A58157",
"D. c #A7845A",
"F. c #A9865C",
"G. c #AB885E",
"H. c #B58050",
"J. c #B88352",
"K. c #AD8B61",
"L. c #B38F64",
"P. c #B69267",
"I. c #BA9569",
"U. c #BD986C",
"Y. c #C09B6F",
"T. c #C39E72",
"R. c #C6A175",
"E. c #C8A376",
"W. c #938B84",
/* pixels */
"h h h h h h h h h h h h h h h h h h h h h h h h h h h h h h h h h h h h h h h h h h h h h h h h h h h h h h h h h h h h h h h h ",
"h h h h h h h h h h h h h h j g h h h h h h h h h h h k h h h h h h h h h h h k h h h h h h h h h h h h h h h h h h h h h h h h ",
"h h h h h h h h h h h h h h h h h h j h h h h @ h j j 7 e a s N N s p e 7 7 j h h h h h h h h h h h h h h h h h h h h h h h h h ",
"h h h h g h h h h h h h h h h h h h h h h z w w a B ) y.g.l.n.N.M.n.x.g.y._ B d w w z h h h h h h h h h h h h h h h h h h h h h ",
"h h h h h h h h h h h h h h h h @ k j w p f u.a.N.B.B.Z.H.J.J.H.J.H.J.J.V.V.B.N.a.u.f a e j j h h h h h h h h h h h h h h h h h ",
"h h h h h h h h h h h h h h h 7 w f B r.l.m.H.H.H.J.H.H.H.H.V.V.H.H.V.V.H.H.H.H.H.H.m.l.r.B d e j h h h h h h h h h h h h h t h ",
"h h h h h h h h h h h h h j a V t.a.l.V.H.J.V.H.H.H.H.Z.H.H.H.H.H.H.Z.H.H.H.H.H.V.H.H.J.V.l.a.t.B e z h h h h h h h h h h h g h ",
"h h h h h h h h h h h j e N t.p.p.m.J.H.H.H.H.H.H.H.H.H.H.Z.Z.H.H.Z.H.H.Z.H.H.H.H.H.H.H.H.J.n.a.p.r.B e j h h h h h h h h h h h ",
"h h h h h h h h h h w N t.u.a.g.p.n.J.V.H.H.H.H.H.H.H.H.H.V.H.Z.H.H.H.H.H.Z.H.H.H.V.J.V.V.H.n.i.g.n.i.t.B z h h h h h h h h h h ",
"h h h h h h h h h a C i.a.g.a.a.a.g.V.H.V.H.H.H.H.H.V.H.H.H.H.H.V.H.Z.H.Z.Z.H.Z.V.J.J.V.H.V.g.p.M.B.p.s.u.C d g h h h h h h h h ",
"h h h h h h h 4 e C u.a.a.V.l.p.a.p.s.V.H.H.H.H.H.V.V.Z.Z.H.H.H.H.H.H.V.Z.Z.Z.Z.J.V.H.J.V.s.p.p.s.s.a.a.l.u.C e 4 h h h h h h h ",
"h h h h h h 4 e C t.a.a.a.n.g.p.a.a.i.s.n.N.V.V.V.J.J.H.J.H.Z.H.H.H.H.H.H.J.J.V.V.V.M.n.g.p.s.a.p.a.a.g.Z.n.t.) p 5 h h h h h h ",
"h h h h h o , V ) p.a.a.a.p.a.a.a.a.l.a.u.a.s.a.g.N.N.N.M.V.J.J.H.J.V.M.M.N.N.l.a.s.a.i.p.a.a.a.a.p.s.a.n.g.p.C V 1 O h h h h h ",
"h h h j + > f f f p.a.a.a.a.a.a.a.a.l.s.s.a.a.a.a.i.i.a.i.g.l.g.g.l.g.a.p.p.p.a.a.p.a.n.g.a.s.a.s.a.a.p.p.s.p.f f s > g h h h h ",
"h h h h O p f f s ) u.s.a.a.a.u.u.u.t.u.i.a.a.a.s.s.s.i.u.u._ C _ _ u.u.p.a.s.a.a.a.s.p.y.t.u.i.u.a.s.a.a.u.) f B M s o l h h h ",
"h h h + ; 9 p s s a s ) ) C C f f s a s B C r.t.r.r.t.r.C _ _ _ _ _ ) C _ y.t.r.t.r.C M s a s f B C C C C s a s s p 2 ; h k h h ",
"h h h g : 1 1 1 1 1 1 1 p a a s s B f f s a s s s s V r.r._ _ _ _ _ _ _ _ V a s s s a s f f f a s M a p 1 1 1 1 1 1 1 : h l h h ",
"h h h + ; 1 1 1 1 1 1 1 1 2 s s _ t.s f s B f s s f f f B f B B B B B B M f f f s f s f f s f f s s 2 1 1 1 1 1 1 1 1 ; h l l k ",
"h h h h X 1 1 9 s 1 1 1 1 , a s V V s s f f f f f B s a a a p p p p p p s s s f f f f f f f f a f p , 1 1 q s 1 1 1 < X k l k l ",
"h h h h o . 1 1 8 1 1 2 1 1 a f s f s f s p p 3 - 9 c 0 * $ : , , , % * 0 i e = 3 p 3 a f f f f f s 1 1 1 1 9 1 1 1   t F k l l ",
"h h h h h O . : < < < 1 1 * a a 9 8 8 8 5 c c c H | 3.E t ( [ +.[ [ ' u %.,.*.T D Y Y 8 1 0 9 2 a p & - & : < < : . g L L h k k ",
"h h h h h h + O X 6 5 6 5 4 7 7 O k E P I ..| X.3.<.<.X.$.D.v.D.D.v.D.#.=.,.,.,.,.,.,.*.%.&.U @ u t r r y 6 X 4 O l L L L k h h ",
"h h h h h k k h F | | | | | | | | | | ..| | | <.<.<.<.] $.G.F.F.F.F.G.5.=.,.,.,.,.,.,.,.,.,.,.,.,.,.,.,.,.:.W P L L L L L L k h ",
"h h h h k l k k E ..| | | | | | | | | | | | | <.<.<.<.` #.F.D.F.F.D.F.$.&.,.,.,.,.,.,.,.,.,.,.,.,.,.,.,.,.,.,.*.L L L L L L k k ",
"h h h k l l k G | | | | | | | | | | | | | | <.<.<.<.<.I d.P.P.F.F.P.P.d.Y ,.,.,.,.,.,.,.,.,.,.,.,.,.,.,.,.,.,.,.W F L L L L P k ",
"h h k l l l j Q | | | | | | | | | | | | ` <.7.4.<.<.<./ z.T.R.U.Y.R.T.z.T ,.,.,.,.,.,.,.,.,.,.,.,.,.,.,.,.,.,.,.=.L L L P E ! P ",
"h h k k l k P | | | | | | | | | | | | | ..4.4.4.4.3.<.A b.E.T.R.E.R.R.v.J ,.,.,.,.,.,.,.,.,.,.,.,.,.,.,.,.,.,.,.1.L L L E I I I ",
"h h h h l P | | | | | | | X.<.<.<...| | | <.7.4.4.4.] o.U.R.T.R.R.R.R.U.[ *.,.,.,.,.,.,.,.,.,.:.,.,.,.,.,.,.,.,.,.F ! I I ! / P ",
"g h g g Q ..| | | | | | | ..<.<.<...| | ~ X.4.4.4.7.;.k.R.R.R.R.R.R.R.E.k.%.6.,.,.,.,.,.,.,.,.,.,.,.,.,.,.,.,.,.,.W I ` ` I I P ",
"k h k L | | | | | | | | | ..<.X.<.X.| | | ..4.4.4.7.] j.I.T.R.R.R.R.R.I.j.%.,.,.,.,.,.,.,.,.,.,.,.,.,.,.,.,.,.,.:.E I ! ! I I v ",
"l l k v | | | | | | | | | | X.<.<.X.| | | X.3.4.4.4.4.A H c.P.T.T.P.c.H Z ,.,.,.,.,.,.,.,.,.,.,.,.,.,.,.,.,.,.,.:.E I I I I P G ",
"k l k L | | | | | | | | | | X.<.X.| | | ..<.<.<.4.4.7.1.H h.c.v.c.c.h.H =.6.,.,.:.,.,.,.,.,.,.,.,.,.,.,.,.,.,.,.,.-.I E I L L L ",
"l k l | | | | | | | | | | | | <.| | | | X.<.<.<.<.<.2.,.5.F.F.F.F.F.F.5.&.6.,.,.,.,.,.,.,.,.,.,.,.,.,.,.,.,.,.,.,.:.E L L L L L ",
"h G I | | | | | | | | | | | | | | | | | X.<.<.X.<.X.<.=.5.K.F.F.F.F.F.5.&.,.,.,.,.,.,.,.,.,.,.,.,.,.,.,.,.,.,.,.,.,.R l L L L L ",
"! | ..| | | | | | | | | | | | | | | | | X.<.<.<.<.<.6.&.5.F.F.F.F.F.G.5.=.,.,.,.,.,.,.,.,.:.,.,.,.,.,.,.,.,.,.,.,.,.&.J L L L L ",
"| | | | | | | | | | | | | | | | | | | ..<.<.<.<.<.:.,.=.+.F.F.F.F.F.F.#.:.,.,.,.,.:.,.,.,.,.,.,.,.,.,.,.,.,.,.,.,.,.,.*.G L L L ",
"| | | | | | | | | | | | | | | | | | | ..<.<.<.<.+.2.,.,.' v.F.F.F.F.v.' ,.,.,.,.,.,.,.,.,.,.,.,.,.,.,.,.,.,.,.,.,.,.,.*.l L L L ",
"| | | | | | | | | | | | | | | | | | | X.<.<.<.X.<.:.,.=.' C.G.F.D.F.C.' =.,.,.,.,.,.,.:.,.,.,.,.,.,.,.:.,.,.,.,.,.,.,.=.L L L L ",
"| | | | | | | | | | | | | | | | | | | ..<.<.<.<.1.,.,.,.' C.F.F.F.G.S.' ,.,.,.,.,.,.,.,.,.,.,.,.,.,.,.,.,.,.,.,.,.,.,.,.R L L L ",
"| | | | | | | | | | | | | | | | | | | | X.<.<.<.<.,.,.=.' C.F.F.D.G.v.' ,.,.,.,.,.,.,.,.,.,.,.,.,.,.,.,.,.,.,.,.,.,.,.6.R L L L ",
"| | | | | | | | | | | | | | | | | | | | X.<.<.X.1.,.,.,.' S.F.F.F.G.S.' ,.,.,.,.,.,.,.,.,.:.,.,.,.,.,.,.,.,.,.,.,.,.,.,.R F L L ",
"| | | | | | | | | | | | ....X.| | | | | X.<.<.<.<.,.,.&.5.G.F.F.F.F.G.3.=.,.,.,.,.,.,.,.,.,.,.,.,.,.,.,.,.,.,.,.,.,.,.,.R F L L ",
"| | | | | | | | | | | | X.<.<.<.| | | | X.<.<.X.<.,.,.&.5.G.F.F.F.F.G.5.&.6.,.,.,.,.,.,.,.,.,.,.,.,.,.,.,.,.,.,.,.,.,.:.R L L L ",
"| | | | | | | | | | | X.<.<.<.<.X.~ | | | <.<.<.<.1.,.&.5.G.F.F.F.F.G.5.&.6.,.,.,.,.,.,.,.,.,.,.,.,.,.,.,.,.,.,.,.,.6.*.v L L L ",
"| | | | | | | | | | ~ | <.<.<.<.<.| | | | X.<.<.X.<.6.&.#.F.D.F.F.F.F.#.&.6.,.,.,.,.,.,.,.,.,.,.,.,.,.,.,.,.,.,.,.,.:.P L L L L ",
"| | | | | | | | | | | ..<.<.X.<.<...| | | X.<.3.2.4.7.Y j.P.P.D.F.P.P.d.Y ,.,.,.,.,.,.,.,.,.,.,.,.,.:.,.,.,.,.,.,.,.` P ! P L F ",
"| | | | | | | | | | | | X.<.<.<.<.<.X.~ ..3.4.4.4.4.4.` z.T.E.T.T.R.T.z.T ,.,.,.,.,.,.,.,.,.,.,.,.,.,.,.,.,.,.,.,.~ I I I I ! P ",
"| | | | | | | | | | | | ..<.<.4.7.7.3.X.X.2.4.4.4.4.4.H b.E.T.E.T.T.R.b.J :.,.,.,.,.,.,.,.,.,.,.,.,.,.,.,.,.,.,.-.I I ` I I ~ P ",
"| | | | | | | | | | | | | ..3.7.4.4.4.2.X.3.7.4.4.7.;.o.U.E.T.T.E.T.E.U.o.&.,.,.,.,.,.,.,.,.,.,.,.,.,.,.,.,.,.,.] I E I I ! ` P ",
"| | | | | | | | | | | | | ..4.4.4.7.4.4.3.2.4.7.4.7.] k.E.T.T.R.T.T.T.E.k.&.6.,.,.,.,.,.:.,.,.,.,.,.,.,.,.,.,.,.W I E I E I I P ",
"| | | | | | | | | | | | | | 3.7.4.4.4.7.3.X.| 3.4.4.] j.I.R.E.E.E.E.T.I.j.%.,.,.,.,.,.,.,.,.,.,.,.,.,.,.,.,.,.,.R L P ! ! P v v ",
"| | | | | | | | | | | | | ~ ;.4.4.4.4.4.7.<.~ <.X.<.<.k H c.P.T.T.P.v.H Z ,.,.,.,.,.,.,.,.,.,.:.,.,.,.,.,.,.,.,.R G L L L G h P ",
"| | | | | | | | | | | | | | | X.4.4.4.7.2.X.| ..<.<.<...H f.c.v.v.c.f.H =.,.,.,.,.,.,.,.,.,.,.,.,.,.,.,.,.,.:.,.R G L L P l g l ",
"| | | | | | | | | | | | | | | | X.<.3.<.<...| | X.<.3...#.F.G.F.F.K.F.#.=.,.,.,.,.,.,.,.,.,.,.,.,.,.:.,.,.,.,.:.L L L L v h h l ",
"| | | | | | | | | | | ......| | | X.<.X.X.X.| | ..<.<.] #.G.F.F.F.F.F.5.&.,.,.,.,.,.,.,.,.,.,.,.,.,.,.,.,.,.,.%.F L L L l h h G ",
"| | | | | | | | | | ..<.<.X...| | X.<.<.<.<.| | | <.<.] #.G.G.G.G.G.F.5.&.,.,.:.,.,.,.,.:.,.,.,.,.,.,.,.,.,.,.R L L L L k h h L ",
"v | | | | | | | | | ..<.<.<.4.| | ..<.<.<.<...| | X.<...#.L.T.T.T.T.L.+.*.,.,.,.,.,.,.,.,.,.,.,.,.,.,.,.,.,.-.L L L L F k h k F ",
"x | | | | | | | | | | ..3.4.2.<.| | X.<.<.X.| | | ..<.` $.Y.E.R.R.R.T.$.%.,.,.,.,.,.,.,.,.,.,.,.,.,.,.,.,.,.R v L L L F h h l L ",
"P | | | | | | | | | | | X.<.X.<.| | | <.<.<.X.| | | <.K c.E.T.R.R.T.E.c.Y 6.,.,.,.,.,.,.,.,.,.,.,.,.,.,.,.P P G L L L l k k F L ",
"| | | | | | | | | | | | X.3.<.3.X.| | | X.<.X.| | | ..H K.E.T.R.R.T.E.G.K :.,.,.,.,.,.,.,.,.,.,.,.,.,.-.W E I P L L F l k F F L ",
"| | ..X.X.| | | | | | | | ^ ^ Q <.X.~ | | X...| | ..I @.T.T.R.R.T.R.R.Y.@.%.,.,.,.,.,.,.,.,.,.,.,.,.:.E I I I I L L F l l k F F ",
"| | X.<.<.X.| | | | | ..Q e.A.8.b 3...! ~ ..| ..| | x k.I.E.T.T.T.R.E.I.k.S ,.,.,.,.,.,.,.,.,.,.,.W I ! I ` I ! P L l l k l l l ",
"| ~ ~ X.<.<.| | | ~ ~ Q 8.A.W.q.# ~ ^ # n ! E ~ ..G @.F.K.T.E.R.R.E.T.G.F.@.J ,.,.,.,.,.,.,.,.,.-.! I E E I E Q L k h l F k l l ",
"| +. .+.3.3.X. .+. .+.{ 0.w.0.b m  .} 9.m Q +.+.+.O.C.S.C.F.I.Y.U.I.D.S.S.C.O.;.7.>.:.,.,.,.,.,.] P ` I I I E P k h h L L F k l "
};
