/* XPM */
static char *result[] = {
/* columns rows colors chars-per-pixel */
"64 64 239 2 ",
"   c #1A0301",
".  c #140F05",
"X  c #250800",
"o  c #281A09",
"O  c #361C0D",
"+  c #281A15",
"@  c #331C15",
"#  c #042900",
"$  c #172700",
"%  c #013000",
"&  c #1B3500",
"*  c #252906",
"=  c #293507",
"-  c #243D01",
";  c #2A3C05",
":  c #2D3B0C",
">  c #343103",
",  c #323D0E",
"<  c #2E2613",
"1  c #342214",
"2  c #372814",
"3  c #35251B",
"4  c #3A251C",
"5  c #3B2A1D",
"6  c #2E3711",
"7  c #313313",
"8  c #343C14",
"9  c #373518",
"0  c #3B341D",
"q  c #3C3B1C",
"w  c #3F2B21",
"e  c #3F3622",
"r  c #462C14",
"t  c #432B1D",
"y  c #44381D",
"u  c #412D22",
"i  c #4D2F28",
"p  c #453224",
"a  c #4A3425",
"s  c #453B23",
"d  c #4A3B24",
"f  c #473529",
"g  c #4C3629",
"h  c #4D392A",
"j  c #523E27",
"k  c #54352B",
"l  c #533C2C",
"z  c #593E2E",
"x  c #553D31",
"c  c #5A3D31",
"v  c #2B4502",
"b  c #2D440B",
"n  c #334604",
"m  c #32430D",
"M  c #354A0E",
"N  c #38540B",
"B  c #2E4411",
"V  c #354413",
"C  c #394414",
"Z  c #354A12",
"A  c #3A4B15",
"S  c #36441A",
"D  c #3C451A",
"F  c #3D4C1A",
"G  c #3C5216",
"H  c #3E531A",
"J  c #3D5D18",
"K  c #3C6213",
"L  c #414A17",
"P  c #42441C",
"I  c #434C1C",
"U  c #54411B",
"Y  c #415417",
"T  c #42551B",
"R  c #46561C",
"E  c #445B1D",
"W  c #485C1D",
"Q  c #46621D",
"!  c #49641E",
"~  c #466A1D",
"^  c #444323",
"/  c #4B4425",
"(  c #454C23",
")  c #4B4B24",
"_  c #4D4429",
"`  c #414D28",
"'  c #4C4B2A",
"]  c #54432D",
"[  c #59422E",
"{  c #554929",
"}  c #534B2D",
"|  c #455422",
" . c #4A5424",
".. c #455B21",
"X. c #4A5C24",
"o. c #4E532A",
"O. c #4E5B29",
"+. c #515926",
"@. c #54532C",
"#. c #545B2B",
"$. c #5A5B2E",
"%. c #564231",
"&. c #5C4432",
"*. c #544A31",
"=. c #5D4B33",
"-. c #5A4639",
";. c #5E4A3A",
":. c #565635",
">. c #5D5433",
",. c #5B5B32",
"<. c #614635",
"1. c #624A36",
"2. c #644639",
"3. c #644C3A",
"4. c #694E3B",
"5. c #635436",
"6. c #615B34",
"7. c #64533B",
"8. c #6C533D",
"9. c #645C3A",
"0. c #6B5A3D",
"q. c #71553F",
"w. c #466121",
"e. c #4B6324",
"r. c #4D6A24",
"t. c #4E6329",
"y. c #4E6B29",
"u. c #516726",
"i. c #516C25",
"p. c #54632B",
"a. c #5A642E",
"s. c #536C2A",
"d. c #596B2E",
"f. c #56752A",
"g. c #54732C",
"h. c #55792B",
"j. c #5C6434",
"k. c #556B32",
"l. c #5B6C33",
"z. c #5A6438",
"x. c #5B7333",
"c. c #5C7736",
"v. c #5C7B33",
"b. c #626435",
"n. c #616C35",
"m. c #696F37",
"M. c #64633A",
"N. c #656C3B",
"B. c #69683C",
"V. c #63743B",
"C. c #647738",
"Z. c #6B733D",
"A. c #647D3B",
"S. c #5B504B",
"D. c #694E41",
"F. c #6D5441",
"G. c #6D5A42",
"H. c #6C594A",
"J. c #715642",
"K. c #755A44",
"L. c #795D46",
"P. c #745C49",
"I. c #7B5E49",
"U. c #695F54",
"Y. c #725F53",
"T. c #6D6241",
"R. c #6C6C41",
"E. c #6B6348",
"W. c #756345",
"Q. c #786747",
"!. c #736B45",
"~. c #756349",
"^. c #7D624B",
"/. c #7C6A4C",
"(. c #6D7441",
"). c #6C7F41",
"_. c #727343",
"`. c #727E43",
"'. c #7C734B",
"]. c #79774B",
"[. c #7A6754",
"{. c #7C6B53",
"}. c #7F7B51",
"|. c #805A4C",
" X c #82654E",
".X c #826C4E",
"XX c #82704E",
"oX c #836651",
"OX c #856A52",
"+X c #8A6D54",
"@X c #856D5A",
"#X c #8C6E59",
"$X c #857353",
"%X c #8D7156",
"&X c #86735B",
"*X c #8D725A",
"=X c #857A58",
"-X c #937359",
";X c #93745B",
":X c #96795E",
">X c #99795F",
",X c #8D7360",
"<X c #937661",
"1X c #957A62",
"2X c #9B7C62",
"3X c #937C6C",
"4X c #9D7E69",
"5X c #827374",
"6X c #A07F65",
"7X c #5E8235",
"8X c #62823A",
"9X c #66853B",
"0X c #6B8644",
"qX c #748246",
"wX c #7D814D",
"eX c #88855A",
"rX c #91865D",
"tX c #9E8165",
"yX c #968864",
"uX c #9D8269",
"iX c #9B8479",
"pX c #A28166",
"aX c #A4856A",
"sX c #A8866C",
"dX c #A6896D",
"fX c #AA8A6E",
"gX c #A68A74",
"hX c #AC8D72",
"jX c #B08F72",
"kX c #AE9075",
"lX c #AF9178",
"zX c #B29276",
"xX c #B4957A",
"cX c #B79A7E",
"vX c #BA9B7D",
"bX c #AC938B",
"nX c #B79A83",
"mX c #C09E84",
"MX c #C4A488",
/* pixels */
"| ! /.#X;XqX1X:XaXhXdX8XQ.OXK.4.<.l 4 s ) l 3.1.x.d. X+XoXOX XOX XoX XoX^.^.oX7.e , s.7X..d e.{.{.g.V.0XqXyX2X2XuXhXzXtXK.l ] W ",
"! ! x.&X3X`.].<X1XsXrX7XP.^.F.3.[ l t ) _ &.5.5.s.7.+X XoXoXoX X X X X XoX XI.;.2 # | s.w.z.k.@X(.h.8X}.qX9X:XpXdXaX;XOX^.[ ) H ",
"Q E y.(.1X}.C.#X*X6XyXh.G.P.5.=.c ) y  .*.=.5.5.>.&. X X XoX.XOXoXoXoX XK.&.4 4 =.%.& G | e.s.5.u.h.R.|. X'.eXyX2X*X X^.I.&.P T ",
"G b :.c./.@Xv.!.#X;XeXh.5.M.O.c l X.L t.;.} $.5.F.=.&.&.&.c =.2.7.4.7.l @ -.@X2XfXdXOX: n ~ t.#.e.f.K.W.^. X%X>X;X+X XL.q.l P F ",
"b : *.R.s.[.Z.g.oX$X0Xf.' k.} c }  .Y +.x X.5.4.4.&.h a a a f p 1 X u P.4XhXfXfXfXfXzXtX*.K X...w.a.M.!.oX^.;XpX%XOX^.G.[ p $ = ",
"*.b -.,.i.N.C.h.0.'.0Xr.( l.l z @...Y | _ +.5.5.1.1.[ l k a O w F.<XhXxXhXsXfXzXsXaX>X*X[.o.T T R s.c.^.^. X1X2X+X X[ p %.;.G.8.",
"OX7.d ] W s.x.f.X.B.0X! | p.c ] s.R Y ( | #.b.5.4.4.&.j p h ,XlXvXnXvXzXkXsXpX>X+XI.K.K.L.P.I Z R y.R.I.R.+X2X>X+X&.H.uXaXgXdX:X",
"OX.XF.p D R d.i.r.@.9X..H @.]  .s.Y W ( T e.[ c 1.<.j 4 l 2XvXxXkXsXpX1X;X+X XL.L.I.I.^.K.I.>.v t.w.G.T.B.-X2X-X Xo 1XzXdXpXuX1X",
">X X XJ.t Z e.t.r.X.7X..A ) ..H #.H v b O.H.I. XK.&.@ P.hX;X^.OX+X X X+X X X X XL.q. Xq.I.K.8.Z r.e.9.+.9.+XpX;X8.+ H.zXkXzXhXhX",
"-XK.3.L.3.= Y ..Q E x.H A L ..H v D {.uXfXhXsX6XtX-XoXzXnXxX1XJ.L.+X+X X X X|.^.L. XL.^.L.K.F.F w.i./ O.0.OX2X;X7.h l 1XtX2X2X1X",
"K.K.1.=.=.0 V E T E e.F V F G Z [.yXzXxXhX6X2X2X>X>X2X2XsXxXlX-X5.!.+X X X XI.I.L. Xq.L.K.8.h Z ~  .( a.4.#X2XOX-.&.a I. XK.K.K.",
"L.K.F.%.%.s 6 G H T W Z C M ` 3XlXkXyXuX6X2X2X2X>X>X;X1X2XuXhXgX=Xp.D. X XL.L.L.q.q.L.q.;.g w A Q T w.@.5.W.T.@.G.Q.W.G.OX^.^.^.",
"K.K.K.1.s / 9 : F A G , V - G.@X X#X%XZ.<X6X1X1X>X1X;X*X;X+X^.P.B.s.i -.K.^.I.I.|.q.q.3.j h < A M W T t.h.y.s.N.Z.B.Q.0. X^.I.L.",
"^.K.3.f p d D = C C V V ; F R.oX X X^.!.l.;X>X>X>X>X;X*XL.l %.k j.s.l l j 4.<.r a y a a h p 6 Z M Y ..r.e.e.e.u.B.^.B.u.K.^.L.I.",
"3.x w 1 o X < 9 : C b : o.k.~.oX X X X XB.l.#X>X-X>X-X'.@X1.&.c l.p.} ] l u Y.3X2X%XL.3.f o % v Z G T E Q Q ! ..u.$.8.i.$.I.q.8.",
"  @ h 3.@X1X@XJ.%.: : 3.R.k.I.oX X^.^.^.I.s.j.OXOXOX-X(.+XK.l c s.#.+.( r [.bXlXpXfXfXfXpX*XW.*.D V | X.E E E Q R u.+.@.! d O X ",
"uXuX).gXnXhX:X8.3.y _ ~.g.z.I.W. XI.I.I.L.8.~ ,.oXI.oXn./.OX%.x u.e.X.w.C 3X-X XOX+X-X4XdXhXfX>XK._ s.g.t.G F C C I e.m ' D.[.@X",
"lXwX(.2X>X-X%XOXq.} @.N.t.F.^.^.W.L.L.I.K.q.#.r.>.K.I.#.#.7.%.l ! R e.i.m ,X;X*X%X#XOXI.^.+X^.4.4.4.2.#.s.p.G Z * # q &XuXyXnXlX",
"!.R./.*X;X1X>X>XOX1./ l.p.K.L.K.0.a.K.B.0.q.5.e.! 7.K.) J F _ ] G Y e.s.# #X2X+X XJ.=.4.K.J.q.4.8.8.1.=.=.M.9.C :.oXoX1X=X].<X@X",
"(.{.{.=X*X;X>X;X>X^.s @.b.8.$.d.x.i.,.9.0.8.,.o.e.X.7./ Z T P / G R r...$ F.#X3.z &.K.oX+XOX Xq.K.8.7.1.c =.5.1XlXsXoX3.!.R.^.^.",
"8X/.OX'.8X;X1X;XOXG.y ) $.e.g.x.g.g.O.:.>.4.$.W +.W I ^ n A C D G Y Q F * a oXOX^.OXOX^.L.J.K.K.K.K.8.6.5.z l 2X6X-X|.[ b.Z.I.Q.",
"C.oXOX(.C.^.J.3.3.8.] / e.e.e.E ..e.w...@.7.3.@.Y I L A m C A C G G H ; 7 p P.#X^.J.2.&.[ q.L.K.K.K.q.4.b.j.d 0.%X.Xq.[ b.n.L._.",
"c.^. XA.$.<.=.<.<.7.%. ...H Y Y E E M v v A ( *.P L L L m m V V 8 M S e $ 1 a &.&.z &.&.4.4.q.q.K.K.q.q.1.n.s.] I. Xq.[ a.x.J.Z.",
"x.<.B.h.} <.&.&.@.#.} | P I T E Q v :.{.~.| V C L C C A , m V m * 8 K.OX XK.3.&.k c =.&.&.<.4.q.K.K.L.q.<.8.C.s.' 8.4.z +.d.1.Z.",
"p.&.8Xs.} &.&.} s.{ T d &.*. .E n U.bXnXeXi.e.T 8 C , V , , V = 9 ^.>X6XaXpXpX>X+X<.z <.<.&.<.<.4.8.4.4.3.J.0.x.i._ +. .) y.) 8X",
"+.b.8XW } &.&.i.o.I F _ >.p.e.F D Y.Y.:.Y X.e.W Y C , , : m m t K.-XrXaXsXfXfXfXfX2XK.j <.&.&.<.[ <.1.5.a.9.4.>.f.u.^ i.o.s.X.8X",
"| C.v.E ' z #.X.I R n n 9 - $ * p y > 9 4 4 0 P L L , , 6 : 8 4. X%XpXfXsXfXjXfXdXpX2XL.z &.&.2.<.<.3.=.X.y.s. .| i.T e.s.s.X.v.",
" .7Xr.E ^ } Q T r.v ' #X1X*X&X'.j.O.| @.5.3.<.j y 8 C : 6 = [ I. X+X>XpXsXjXfXsXpX2X1X2X^.x [ y y d a k _ ) e.s.u.t.E X.s.s.X.f.",
"e.8Xr.E P ) H r.Z ( 2XhXsXsXdXuX0Xv.k.T.^.oX^.^.K.h : 8 : 0 q.I.+XpXdXsXjXfXfXaX2X'.2X1X;X3.-.&X6X6X-X Xq.[ y V E y.w.e.s.i...e.",
"i.h.r.E D F w.J ; P. X4.4.8.2.3.N.v.h.y.7.K.K.K.G.h $ V & 5 q. X>XtX>X1XpX-X%X%X.Xb.OXI.3.h nXMXmXmXzXfXpX>X-XL.' Z W ..y.e.W W ",
"s.f.i.A C H J : F F.4.4.8.8.8.2.=.k.g.l.^.+X*X-X+XK.] = ' H.d &.8.3.<.&.[ 5.b.{ x X.>.4.&.-.dXcXzXpX6X>X>X2X2X2X*X=.m V ..r.H Y ",
"i.i.e.V A E 8 V 9 &.<.&.1.1.3.F.;.' t.9.I.+X1X2X>XK.1.5 F.sX6X X&.l &.<.&.k { e._ R ,.4.&.1.OX-XpXpXpXpX6X>X1X;X-X+X*.V V w.T A ",
"w.g.T m T A ; # o 4.I.OX-X1X2X-XI.~.Y ,.4.<.4.L.K.c ] a &.*XdXaX-Xq.<.j z &.k ' t. .E 3.l 1.+X#XpXaXpX6X6X>X>X;X-X X3.s V F H V ",
"..e.V Z & % ^ K.;XaXpXaXaXpXXXn 3.I.b.W.+X XL.q.&.l &.a &.8.OX>X+X.X Xq.&.h p g p.y.E ' l 6.$XOX;XaX6X6X2X2X>X-X+X8.=.h B V A V ",
"T G b B E.;XpXsXsXaXaXaX2X%Xz.,XaXlXzXsX-X+X+X+X X8.l 4 ] J.q.8.^.OX XOX XK.1.k s y.w.` h n./.oX%XpX6X6XpXpX>X#X X8.&.&.e V F C ",
"- Z S ,XfXsXpXpXaXaXaX2X;XW.yXmXcXxXsX>X-X+X+XOX.X X8.J.%.<.8.3.&.8.L.OX X.X X8.k X.g.H ' N.8.K. X>XsXpXsX;X4.F.q.1.[ j < # % # ",
"G.; *.dXpX>XpXsXaXpX2X1X2XK.^.gX*X;X;X;X-X#X+X X Xq.L.+X X4.[ 1.1.&.l 3. X Xq.1.1.*.i.e.| M.4.3.1.q.OX-X2X3.l l l &.p #XlXaXuX&X",
"-XP.l K.>XpXsXpXaX6X6X6X>X8.] uXJ.<.1.3.F.L. X X Xq.K.^.I. XK.<.-.1.<.l [ K.8.1.] ' r.w...R.D.3.4.<.l &.:.x &.l l h ] uXxXgXaX2X",
"+X+X7.&.q.>XaXsX6X6X6X%XF.1.f *XI.<.2.1.=.&.1.8.J.8.K.K.L.K.I.L.4.l l l p u a l '  .e.y.J N.T.3.7.<.<.=.#.x l l l w I.1X-X+X#X#X",
"+X+XK.&.1.4.4. X>X;X X8.8.2.p P.+X&.1.=.<.1.<.&.<.3.q.q.8.3.x =.8.8.K.I.I.I.+X#X;.Z Q ....,.M.n.3.=.&.>.p.z l z s _ *X;X;X;X-X-X",
"%X+XW.[ 4.4.4.[ 4.8.4.8.4.[ l h OX3.<.<.<.<.&.<.1.-.&.&.h -.oX;X2XaXsXfXhXhXuXL.<.( G G ..c.7.l.$.-.&.+.p.k l j m ^.-X-X-X;X-X-X",
"+X%XW.[ 4.<.1.4.1.1.4.4.1.[ x 8 I.J.<.<.<.=.&.1.2.h p h   ,XjXaXsXhXsXuX*X X=.k x ] T H F f.z.3.s.@.c t.#.z l D P.;X-X-X;X-X-X-X",
"%X+XZ.] 8.1.<.5.4.1.<.<.<.&.l V ;.I.&.<.<.=.1.1.l u i a   {.lXaXpX*XG.l p a z [ l g e E F ..f.#.@.i.} t.O.k / >.OX$X*X-X-X-X-X%X",
"%X+XZ.$.<.8.<.1.3.4.3.=.&.z d F h F.=.&.c x z a p p 3 . . %.oX4.&.k l x c l l l h a u 7 H F e.h.o.u.t.t.) d +.R.`.`.$X#X#X-X-X#X",
"%X+X`.g.;.<.&.k #.>.<.&.%.%.s H d [ 1.&.[ j p a 5 + f K.oX[.P.x t t t p l a 4 p f l ] s 7 G F E e. .r.e.y Y d.v.C.Q.Q.'.'.#X%X%X",
"#X#XqXh.x.J.P.3.:.e.x l g w 0 w.j [ 1.=.) P s 4 f oX6XfXzXxXnXnXkX2XOX0.a 3.1X;X;X>XpXK.g s G V R W e.! Z E x.(./.'._.(.m..X+X%X",
"+XOXwXv.h.a.I.oXM.O.g @ + + 9 y.d &.1.@.| ) @ &.;X2X>XpXgXaXaXsXgXxXzXhXOXF.1X-X+X+X+X8.x h 8 A V Y R E M j..X%X#X+XoXL.0. X X/.",
"^.oX].7Xa.g.7.Y.u.9.P.;.p + 7 i.} <.1.X.N 5 F.;X>X;X-X;XaXsXsXaXaXpXuXtX+XF.4.+X XI.q.&.f 4 $ Z C A Y G ; 3.-X-X#X.XK.9.^.^.L.b.",
"@.P.!.9Xt.g.@.5.~ 9.L.q.q.d 7 g.>.<.#.Y G.;X-X|.#X*X-X#X+XsXdXsXaXaXpX2XoXK.x l K.[.'.m.F.K.[ 8 - - F Z 9 ^.-X+XI.3.9.b.=.<.&.&.",
") @.7.8Xs.r.X.e.r.G.K.q.5.L 8 y.@.@.Y B.*X/.+.) +X-X%X$X X1XfXaXaXaXpXpX^.8.%.w ^.#X$XZ.+XpXpX-X^.=.: V l  X XK. XXXC.l -.<.&.&.",
"] | x k.g.e.r.y.e.F.J.6.R A 7 X.+.g.C.f.~ W $.7.@X*X$XZ.L.^.aXsXfXdXpX@X&.h w w ^. XOXC..X2X>X6X6X>XG.9 [ q.^.<XaX`./.K.&.<.c &.",
"l G _ #.i.w.i.r.O.8.a.Q Y V A y.x.v.i.,.0.F.4.4. X%X].l.2.l 1.I. X+XH.w w u w p  X.X+XZ..X2X>X>X>X;XK.3 1.+X%XiXwX!.2X X<.&.[ [ ",
"l D A ) ! W s.J @.$.~ Y F M G X.| I =.D.J.8.8.3.^.#XqXl.2.%.a p t 5 u f p w + e  X+X+X_.XX>X>X>X;XK.l 5 ^.-XoX}._.;X X2.2.=.} l ",
"x 7 b T E E e.H ) e.L A M X.c.A.).9XC.x.j.5.8.1.L.+X9X$.3.=.x x ] z h a w 3 + p  X+XOX'.Z.-X>X>XJ.l ] ( OX#XoXx..XK.&.-.$.#.-.&.",
"a &.q V G F G A R F V G c.0X0X7Xh.s.e.t.X.| _ -.q..X8X) k p O O O 4 t w 5 u p s  X+XoX Xm.+X1XK.j &.=.Q (.[.(.s.8.=.c a.a.2.&.a ",
"2XhX#X$ A A Z A m m Z k.).a.,.T.W.^.L.J.J.J.x g 4._.h./.gX2X1X1X&XH.f   @ k / P  X X^. Xn.^.I.z <.c $.w.c.V.c.| [ <.a.s.c l 1.+X",
"kXfXI.a 6 V S 8 , A I z.9.@.q.-X;X;X-X@XI.=.p p c 0X~ <XcXsXhXzXnXnXnXgX+X&.y  .J.K.K.L.B.5.[ &.[ &.d.r.h.A.r.y <.,.s.%.=.;XsXzX",
"kX2X&.=.e : & # - ; / K.F.@.=.K.OX-X*X*XF.4 u u ^ 7XK ,XpX;X;X-X;X;X2XdXkX2X3.F =.J.8.8.M.$.<.&.&.=.d.i.g.f.G 8 >.s.] t #XjXfXfX",
"fX^.{ >.%.= S.E.8.} / %.d %.=.&.&.8.K.F.f u u 4 w.8XN @XpX1X2X>X>X>X;XOXK.L.@Xo./ =.,.,.5.$.&.&.1.5.l.u.r.i.V q s.) i } pXsXfXhX",
"pX>.$.=.j S.bXxXhXhXaX=XoX2.a c -.&.l k u u w ' f.x.Q &X6X1X>X1X>X-X^.K.^.^.oX6.^ c b.a.=.a.=.3.4.5.j.,.Q E = A ( a G M.sXhXfXhX",
".X+.a.=.U 5XbXsXhXgXhXyXxXzX1X3.x %.l h w 5 5 P./.V.y.&XtX1X1X-X^.J.K.^.^.^.^.>.C z V.f.j u.6.4.1.=.=.5.W G : 7 d .. .=. X;XdXsX",
"n.i.>.3.d iXjXhXhXdXdXwXgXcXvXpX%.g f u 5 3 h <.3.n.l.;X-X XK.8.F.^.oX^. X^.I.l C j A.A.s X.6.2.=.[ { 1.( m 7 ( e.o.x c j &.J.^.",
"i.p.>.] E.bXaXkXfXfXsXqXdXhX1XL.2.e w 3 3 f -.1.0.s.,.I.8.8.K.^. X X X X^. XI.%.8 U A.8X/ I a.1.1.} ) ) S A N G ^ x &.] &.&.2.6.",
"e.d.5.+XwXyXuXuXhXdXdX).<X-X^.8.3.f 5 3 p ] ;.3.M.g.G.I.^.oXoX X XoXoX X X^.^.-.q 8 v.8X .) i.&.<.[ I 8 Z t.E.H.3.l f l l %.x p."
};
