/* XPM */
static char *result[] = {
/* columns rows colors chars-per-pixel */
"64 64 226 2 ",
"   c #34190F",
".  c #1F250E",
"X  c #2B2806",
"o  c #25330F",
"O  c #2C2A19",
"+  c #362716",
"@  c #3D271C",
"#  c #332E19",
"$  c #3C2D1C",
"%  c #2A3414",
"&  c #2F3318",
"*  c #313311",
"=  c #343C17",
"-  c #3C3913",
";  c #35321A",
":  c #3B351D",
">  c #373A1B",
",  c #3B3C1C",
"<  c #333722",
"1  c #3E3620",
"2  c #3E3E20",
"3  c #401F18",
"4  c #42271D",
"5  c #472A1D",
"6  c #432C1C",
"7  c #43341E",
"8  c #4E351E",
"9  c #433A1F",
"0  c #4B3B1E",
"q  c #462F20",
"w  c #4B2E21",
"e  c #443421",
"r  c #4C3423",
"t  c #443B22",
"y  c #4C3B24",
"u  c #4D3928",
"i  c #533525",
"p  c #593727",
"a  c #533B26",
"s  c #593A27",
"d  c #543629",
"f  c #5A372A",
"g  c #553B29",
"h  c #5B3D2B",
"j  c #5E3E31",
"k  c #613E2D",
"l  c #623B30",
"z  c #3E4718",
"x  c #3D421D",
"c  c #3F4121",
"v  c #41431E",
"b  c #47491B",
"n  c #454B1E",
"m  c #484D1E",
"M  c #53451E",
"N  c #4B521E",
"B  c #444422",
"V  c #4B4424",
"C  c #464A23",
"Z  c #4B4C24",
"A  c #474228",
"S  c #4D432A",
"D  c #4E4C29",
"F  c #524325",
"G  c #5B4326",
"H  c #534B26",
"J  c #584B26",
"K  c #54442A",
"L  c #5D422D",
"P  c #544B2A",
"I  c #5B4B2C",
"U  c #465120",
"Y  c #4D5224",
"T  c #4D5924",
"R  c #4E5329",
"E  c #525426",
"W  c #585627",
"Q  c #545A25",
"!  c #595D26",
"~  c #535429",
"^  c #5B542C",
"/  c #555A29",
"(  c #5A5C2A",
")  c #49413D",
"_  c #564637",
"`  c #5D4331",
"'  c #5D4C33",
"]  c #5C5432",
"[  c #5C5B31",
"{  c #5F5239",
"}  c #62412E",
"|  c #69412F",
" . c #634B2C",
".. c #68492E",
"X. c #62532D",
"o. c #6A572F",
"O. c #625D2D",
"+. c #644432",
"@. c #6A4634",
"#. c #644B33",
"$. c #6B4A35",
"%. c #6A4738",
"&. c #654D39",
"*. c #6C4D39",
"=. c #724D36",
"-. c #724E3A",
";. c #794E3C",
":. c #635334",
">. c #6C5335",
",. c #635A34",
"<. c #6B5B34",
"1. c #65543B",
"2. c #6D533B",
"3. c #665B3A",
"4. c #6C5C3B",
"5. c #725034",
"6. c #73533C",
"7. c #79553E",
"8. c #735B3C",
"9. c #7D5C3E",
"0. c #556227",
"q. c #5C6126",
"w. c #5D622B",
"e. c #5F6535",
"r. c #626627",
"t. c #636A27",
"y. c #62652B",
"u. c #646A2C",
"i. c #6A6D2D",
"p. c #67702B",
"a. c #646333",
"s. c #6B6334",
"d. c #666B32",
"f. c #6B6B32",
"g. c #65673A",
"h. c #6C623C",
"j. c #6B6C3A",
"k. c #716237",
"l. c #70633D",
"z. c #736B3D",
"x. c #7A683F",
"c. c #6D7433",
"v. c #78753B",
"b. c #584F48",
"n. c #6C5843",
"m. c #745641",
"M. c #795641",
"N. c #745A44",
"B. c #7B5B44",
"V. c #765E49",
"C. c #7C5E48",
"Z. c #6F6442",
"A. c #756143",
"S. c #7B6344",
"D. c #776B43",
"F. c #7B6B45",
"G. c #776048",
"H. c #7D624A",
"J. c #7D6C4C",
"K. c #6D7345",
"L. c #767444",
"P. c #7A7346",
"I. c #797949",
"U. c #7E6551",
"Y. c #7D7B52",
"T. c #756462",
"R. c #81593E",
"E. c #825D45",
"W. c #8A5F47",
"Q. c #835F49",
"!. c #836246",
"~. c #8A6243",
"^. c #816B42",
"/. c #83644C",
"(. c #8A654C",
"). c #83694D",
"_. c #8C6A4D",
"`. c #91684D",
"'. c #85764A",
"]. c #81734D",
"[. c #846651",
"{. c #866A52",
"}. c #866A57",
"|. c #8B6D54",
" X c #8D6E58",
".X c #916E55",
"XX c #996F55",
"oX c #837451",
"OX c #8C7156",
"+X c #847B53",
"@X c #897C54",
"#X c #8D7359",
"$X c #8C7B59",
"%X c #927156",
"&X c #997356",
"*X c #937A53",
"=X c #93745B",
"-X c #9B765C",
";X c #95795E",
":X c #9A7A5E",
">X c #A17A5E",
",X c #8D7466",
"<X c #967B61",
"1X c #9B7C62",
"2X c #987A65",
"3X c #A27E63",
"4X c #89864A",
"5X c #888252",
"6X c #8E815A",
"7X c #94825E",
"8X c #95895B",
"9X c #948261",
"0X c #9E8164",
"qX c #A38266",
"wX c #A98466",
"eX c #A38B67",
"rX c #A68669",
"tX c #A9866A",
"yX c #AC8A6C",
"uX c #B18B6E",
"iX c #A5926A",
"pX c #B0946E",
"aX c #AF8E71",
"sX c #B18E70",
"dX c #B59374",
"fX c #B89575",
/* pixels */
"0 y B , 7 _.rXqXrXrXrXyXeX1X%X|.M.y Z U Q E m  .$.5.-.$.$.>.#.I w./ ~ =X3X3XwXtXqX*X/.h $ +.8.8.l.L.D.F./.B.2.} : B Z v y a y 0 ",
"l.] Z Z V | |.rXrXrXrXrXqX1X1X-XC.+.V R Y E ~ ~ G @.@.+.k ,.X.W 0./ ^ XX1X3XqXtXtX0X/.k $ $ 1.>.s.f.y.4.%.2.2.i @ , b 1.:.2.8.A.",
":XOX~ Y ( $...(.qXrXqXqXqX1X1X1X|.&.d A Y Q / E g h } h h y./ E / R P Q.:X:XqXeXrXyX|.h e # ~ ,.,.y.y.#.+.} g w # % B.>XqXtXtXqX",
"0X1XH.~ / ( ^ $.).:XqXqX3X1X1X:X|.L g d C Y / E y y g F Z T W 4.#.C I B.:X:X0X8XyX>XS.+.y v Z u.y.w.#.k ` h r w # t .XqXtXrXrXqX",
"rXeX:X2.Y / ~ <.o.7.1X1X1X1X;X#XN.h g d t C R R b V C , ~ H.|.{.%.S L 6./.=X5X4X=X(.z.@.y m Q q.y.( L h g i w 6 > K %X1XrXtXyXrX",
"0X1X{.%.P Q E a...L H.=X<X=X[.B.+.` ` d t B R R B c S V..X=X-X).#.` g *.%.M.I.I.~.!.j.#.F m q.! y.O.s d i w 7 7 , #.%X1XqXrXrXqX",
"(.Q.M.*.K ~ E d.K ,.$.H.[.B.M.#.g j j g e 2 C c Z M. X-X-X X|./.#.` u +.$.$.h.z.7.<.u.o.E E ! ! y.0.F u r r 9 V , $.(.(._. X|.(.",
"C.B.7.$.g Y Y w.^ a.+.#.#.$.+.d g g g g e : > _ /.=X-X=XOX/./.6.+.+.q r h #.O.y.>.X.! i.O.Q q.W / ( Z F t > x A A $.M.B.E.Q.E.!.",
"M.7.6.#.g Z ~ w.d.u.I I :.L r 8 r r a u q ; t Q. X=X|.H.H.6.6.+.` j @ @ r I W W y.^ O.t.t.y.! ! T Q Z n ] /.1.x A $.6.M.B.B.B.M.",
"-.-.$.+.g C E w.c.d.( / y r 4 m./.` 6 r r 2 2.(._.B.$.@.>.>.$.+.h h @ O 6 a / I u.r.t.t.t.u.y.q./ n Z S.=X-XOX2.9 #.+.$.m.6.*.-.",
"$.$.+.h u C Q 0.u.d.w./ y 6 _ ,X$X#X&.$ A C #.M.+.h ..+.#.#.+.h h u + O , V / ! r.r.r.r.r.r.r.! N 4.=X:X-X-X%X.X1.P g ` $.$.%.@.",
"+.k s i V C q.w.y.d.w.w.Z A }.=X#X#X#Xn.z C K h h h } K I L h h g $ & > v Y ! ! Q q.q.q.q.q.! W H.1X0X*X%X1X-X%XOX4.u a h } } k ",
"F g H b Z Z Q w.w.e.w.( b n.<X$X$X#X#X$XV.v , y a K a J ^ J r r i K K ` ' L Y Q Q q.q.q.Q Q N !.-X:X8X*X'.*X.X/.B.B.K e F s p p ",
"J r.O.#.F H / Q 0.( 0./ E {.;X,X$X#X#X+X$X[.1.' V V K ~ / ^ 7./. X X{.H./.2.u Z T Q ! q.Q Q E 5._.6X4X%X_.'.R.=.=.@.L B C ! F a ",
"y.r.(. X(.2.#.I ~ E / R g.+X%X=X$X#X#X$X$X;X;X|.I Z E / ~ G.1X<X:X;X#X|.{.N.d r N Q W N N Q Q X.z.v.4X~.~.v.^.=.$.$.} F b ! r.O.",
"O.B.=X%X1X{.*.*.K C Y P N.D.{.#XoXoXOXOXOX).[.H.M E ~ ~ R g H.<X:X;X=X#X/.&.i e N W N ,.O.Q N E i.c.v.R.R.k.z.>.$.<.L H W r.i.i.",
"o.E.-X-X1X;X6.6.+.t R ~ 1.h.2.[.J.oX|.OXY.>.6.#.V E N N F.{.h (.<X=X#X|.N.p w 7 Y b G.-X-X|./.A.a.d.i.>.5.f.z.8.o.r.( ~ ! r.p.i.",
"o.7.%X1X1X0X/.*.$.u C Y ,.,.I +.h.D.H.J.4.l X.F C Z / |.1XqX{.2.=X=X#XB.h r q t z A.1X<X=X=X=X}./.&.0.O.@.d.c.f.f.f.w.~ W r.r.r.",
"X.;._.qXqX1XOX*.*.a c Y ( ,.~ d ] ,.6.h.k #.( F n ^ =X1X0X9X0X/.&.N.2.d w r @ * A.1X0X1X;X=X%X XC.-.K ! ^ y.i.p.i.d.0.~ ! ! O.! ",
"J =.E.3XqX1X;XM.$.h 2 R / ( E y P I :. .k ^ W C I Q.$X$X<X7X1XOXL d i r w 5 ; H.3X1X1X<X;X-X#XQ.6.L 4 m ! 0.w.w.0.T U E ! E E E ",
"J =.7.:X1X1X:X/.+.k t C Y R ( Z E J J } h / ~ H B.(.Y.].#X).M.@.O.I r 0 e # y |.1X1X1X1X<X XQ.*.h i @ ; U Q ! Q S._.^.k.m m ~ E ",
"H @.$./.1X:X;XOX#.+.u C Z R / Y Q H E a F w.~ Q 1.B.4.j.j.<.=.:./ y.F C 1 , t ` ).1X<X;X XC.&.h d w @ : E Q ~ .XyXtXwXwX_.E ( ! ",
"E  .<...(.<X=XOX2.h u B Z R Y / / Y ~ Y E y.( ! Z <.I / :.^ +. .w.u./ E 2 B A d h B.#X{.B.#.d i r w V Z U <.>XuXsXdXyXqXqX).Q ( ",
"! J O.X. ./.=XOX6.h u c Z D R ~ Q Q ( ~ ^ y.y./ C [ W P I a a J y.y.w.D C C U a f h k &.#.i u y e Z U [ _.3XuXdXfXfXfXuXeX>XA.Q ",
"! ! ( ^ X...B.OX6.s u , C C Z R E Q Q Q Q Q Q Y Y ( q.~ J 8 7 Z / ( Q C C ] ^ B i i G h d e 5 V Z m 4.-XwXyXsXfXfXfXfXdXyX>X>Xl.",
"1.Q W ! O.X.} ..L d r , C C Y Y Y ] W ^ 4.A.l.4.Y / w.Q ~ Z t E ! E ,.N./.).(.' 9 5 F F V M V Z E ^.>XtXyXyXfXfXfXfXfXfXuXwXrX&X",
"Q.>.~ ! y.(  .J 5 7 7 9 x ] A.H.[.(.C./.=X,X#X X{ Y ( 0.w.W W Q N H.&X=X{./.[.N., Z E W ~ H m ~  X-XqXyXyXsXsXfXsXfXfXfXyXwXwX-X",
"(.7.$.P Q ! ^ ~ t 9 B z 1.-X-X=X%X X}.#X=X#X#X XH.P / ( 0.( ( N S.=X=X%X(.M.V.C.S m ! ! ! ~ ~ %X1X-X1XrXyXyXsXiXiXsXdXdXwX>XtXtX",
";X6.*.+.H Q w.~ C Z C , V.:X#X%X%X X X.XOX%X#X/.V.' Y / / ~ E h.=X-X%X/.*.*.m.N.j x ~ Q / m !..X/.%X:X0XqXrXeX8X0XyXsXdXqX-XsXyX",
"%X6.$.@.g Y ( ( E E Z D 8 /.-X X X X}.OX%X#X XH.*.` C R / E Y _. X}.2.} +.@.<.<.h : C E Q m 4.7.=./.|.=X:X:X+XOX.X:XyXsXsXpXyXqX",
"7.6.>.$.L C E / / ~ Z ~ I F /. X|./.*.M.[. X X[.*.` y C ~ Y ,. X}.7.k +.` } k.$.h 0 c ! ( E ( <.<.*./.).=XOXP.(.(.(.-XqX:X*X_.E.",
"7.7.>.-.%.t C Y ~ ~ Y ~ ( ~ h Q./.$.} h h #.m.N.g d u B Z Y #.{.{.6.h h f X.<.k L m A w.q.Q ( f.,.+.M.B.^.B.S.B.B.!.!.!.~.F.M.E.",
"7.8.>.-.$.g c C D R R / a.( I #.&.L h h h a d d i i r b Z E V h N.1.g p d O.h f ^ ~ E ! y.q.u.p.u.I +.<.s.m.2.-.7.7.7.E.x.9.7.7.",
"6.4.2.=.$.` > B C C C / w.O.( #.j g y w y B u a y u B E ! ! W r a F F 5 F J i i ~ ( ! ! ( ! w.u.y.W O.O.I $.@.%.$.6.;.8.8.;.7.7.",
"k.l.$.%.$.h : > , C D R [ w./ [ I H y H.B.>.t v Y Z ~ w.y.y.! V H H V 3 Z u 5 7 Y 0.0./ Q / 0.( ( w.( I A  .} } @.$.@.<.=.@.$.@.",
"j.<.@.@.} e . A D x C / / ( / w.( m [.qX-X(.C.1.N / w.w.w.y.! H E E v 9 R S I P ,.,.[ ~ C n m m N Q Q Z E I f h h } } ^ } } }  .",
"^ ^ k } r   _ %X XH.P Y / / 0.e.Y 4.rXrXqX-X1X:XS.~ / w.y.y.w.E / Q C Q Y  X<X=X=X#X#X{.H.V.N.4.1.] Z Y Y S u a a d s ~ g a 8 [ ",
"~ P d u   *.=X1X-X#X{.{ C / [ ( Q 1XyXtXtXrXqXqX1X|.,.Q w.y.w.Q ! Q E Q h.1X<X<X<X=X=X#X=X#X#X#X#X{.` C Y Z y D V r u Z y 8 F ~ ",
"R V w 4 6.$X,X<X<X=X{.m.K D / T 4.rXyXyXyXyXtXrX3X;XB.K E ! ( / E Q / Y OX1X7X<X;X-X=X=X$X#X#X#X#X X&.S R Y R ( V 7 Z A H v ~ e ",
"R B 6 2.OX@X;X<X1X<X|.*.2.S R U 1.~.%XqXqXtXrX|.E.6.+.g C ~ / Q E / Y h.:X1X$X<X:X:X,X<X=X<X;X=X=X;XN.u A Y R w.Z ( Y A w.R ~ Z ",
"Y Y ^ H.{.+X9X1X<X-X#Xm.-.*.S C I E.!././.0X%X=. .} k e Z ~ ~ Q ~ ( E oX<X=X$X$X-X<X<X=X$X$X<X=X;X1X}.d A D / ( ( e.D e.( / / R ",
"~ / [ G.F.L.{.1X<X-X$XB.-.m.&.B V -.7.7.6.7.@.H M 0 $ , x m U / Q ~ E {.1X<X$X+X#X<X;X=X,X5X<X<X;X:X;X' > C R / y.w.w.T Y T / / ",
"R / / 3.h.l.=. X;X=X%XQ.*.-.$.P Z #.-.$.+.h F l._.%XOXOX).A.4.Y E Y Z 6.{.=XoXI.#X;X;X#XY.+X-X;X<X1X1XV.# x Y ~ Q T a.H.G.3.] R ",
",.R R [ a.X.$.6.{.[.M.@.+.h g ~ Y a $.+.i 7.3XuXyXyXyXqX0XqX-X` C Z Z >.+.*.Z.K.H.[.|.Y.I.].#X,X;X;X;X|.e > A ~ Z.OX1X2X<X$X}.G.",
"{.H.2.~ ( ~ P j h h i i r w t / ~ e a g 7 &XuXuXyXyXwXqX0X0X1X2.t C / ] +.} ,.e.+.+.A.K.L./. X-X-X;X;X[.e > B ~ =X3X0X9X;X<X;X=X",
"|.}.C.&.D / [ #.g 8 4 + + t S ( / Z y y F -XtXuXuXyXyXwXrXqX<X6.d t R I h L ] ( k #.h.( $.[.$X-X=X#XH.#.r > , :.E./.%X6X;X=X<X=X",
".X{.C.*.A R =X<X#X{.H.1.K A Y T Y E Y C ,.-XyXuXuXuXtXrXrXqX|.B.+.d D E J I [ I i ( / K d #.|.{.C.M.$.h 7 , x :.E.~.~.].#X-X-X$X",
"|.C.m.*.S ] <X2X<X1X;X=X|./.n.^ Z R E Y 8.&XqXwX0XtXyXrXrX:X{./.6.j A R ~ ~ ( K F ^ J r g i ` +.+.&.j g : , , #.F.!.!.L.|.-X,X-X",
"B.m.*.#.u :.%X<X1X<X;X#X#X#X|.[.&.C D Y S.&X&X>X&X>XwXqX0X-X#X(.B.` t R E / / ~ E / V e V F 8 i h g i w & 2 v ,.7.7.D.s.7. X|.H.",
"+.#.j d e 2. X2X<X;X;X;X=X#X#XoXN.t Z ~ 9.(.`.XX&XXX0XqX1X-X%X|.N.r : C R E Y R Y Y P V C H y i i 8 h C.n., c ( *.<.a.>.*.*.#.} ",
"h g g i e 2.Q.<X1X;X<X;X$X#XOX#Xm.t C ~ =.W.~.`._.`.&X0X1X-X-X(.h 4 $ c Z z ~ :.2.6.B.L C Z C t 9 #.|.qXrX X2.[ L ( ' ` h h h k ",
"F i u e , #.-. X<X<X#X#X<X+XOX#Xn.y C / :.8.7.^.R.R._.>X-X*XB.h w 5 : > B G.%X|./.E.B.$.y C C C V E.-XqXeXrX1X-X|.4.` r i i a d ",
"V y y C Y K @./.1X2X#X#X,XI.$XOX&.u C ~ y.<.5.v.5...=.{.|.=.h d w @ , % 1.1X1X=X/.!.Q.m.a 2 B B B 7.|.3XtXrXrXqX0X1X/.' C y r r ",
"b ~ E ! Q J k *.{. X$X-X=XL.Y.B.j u C E u.t.i.f. .o.>.+.} i g q 6 1 B % H.1X:X%X(..X{.B.+.e c B , $.B.=XtXqXqXqX1X0X<Xm.b B , t ",
"^ / / Q Q ~ g h #.%.6.N.A.g.>.#.g u b Y ( i.c.f.r.i.,.f d i w $ > B A = /.3X:X|. X-X|.B.*.r , , B +.M.B.;XqXqXqXqX1XV.t x ' :.] ",
"%X X[.G.,.U P h l #.+.+._ I k h u r B U Q u.i.i.p.0.v r 8 9 e t S S c x $.|.=X{.OXOX|.6.k u 1 x B L *.6.6./. X;X(.+.6 X G.3X1X1X",
"<X=XOX#Xn.z D r i h L k K I g g a r B Z Q w.u.j.D.B.^. X=X=X*X&X=X/.t , y 6.2.B.|. XB.h h V 9 B C K +.#.$.k k +.h e X U.yX0X2X1X",
"-X=XOX[.g > C &.2.a 8 u P I a u e y B Y Q ! ).3X3XtXyXyXrXqX3X:X1Xm.$ > t +.+.+.*.2.h h u C V C Z P g L h L s K H , H.tX0XqXqX1X",
"=X=X|.2.$ o n.3X3X-XH.1.D Y S e 7 t Z E q. .(.qXaXuXyXyXrXqX0X0XOXh e > v s } +.} h g a e Z A C E P F I J F K Y Y Z B.0XqX1X1X2X",
"=XOXH.j $ < ,X0XqXqX0X1X%X' V V 9 B Q / 0.G E..X3XyXyXtXtXqXqX:X*.i 7 : C Z F a a g y A v V Z B U R D / E Z C D Y I | B.1X1X1X2X",
"/./.*.r O b.2XqXrXqXqX0X1Xm.Z Z A U ( w.y.M 7.(./.&XyXtXqX:XqX_.d u t x x C I :.' K v C K n.I 4.B.Z.j.3.] D P Z Z H k ..C. X}.Q.",
"$.&.j y O T.2XyXrXrXeXrXqXV.y C Z ~ q.w.y.W @.!.W./.-X-X%X=X.X@.s y Z Z B..X&X=X|./.` > &./.#X XOXoXoX[.Q./.[.&.C H a } #.-.=.$.",
"+.h g - ) ,XqXrXyXrXrXrXrX XM.>.Z R ! ( w.Z G 7.E.!.!.M.M.7.-.} ^ ~ Z 4.>X:X3X-X.X(.&.: #.B.$X#XOX@X+X{./.oX[.+.B Z P I +.$.$.%.",
"h d a * _ 2XqXrXyXrXrXrXrX&X|.{.#.A Y ~ 0.E a >.6.M.M.B.6.7.$.L ( / U _.>X1XrX3X=X(.m.u u 7.D.J.OX+XoX[.oXU.2.+.t C E P h } } L "
};
