/* XPM */
static char *result[] = {
/* columns rows colors chars-per-pixel */
"64 64 155 2 ",
"   c #412F1F",
".  c #4F391F",
"X  c #4F3722",
"o  c #4D3A25",
"O  c #4D3C2F",
"+  c #533C25",
"@  c #553E29",
"#  c #593D2B",
"$  c #454A0F",
"%  c #4B4716",
"&  c #434C15",
"*  c #46461A",
"=  c #4C461B",
"-  c #464A19",
";  c #4C4D1C",
":  c #50401B",
">  c #534D1E",
",  c #455415",
"<  c #495315",
"1  c #465B14",
"2  c #495B16",
"3  c #465219",
"4  c #4C541D",
"5  c #475A1A",
"6  c #4C5C1C",
"7  c #52551E",
"8  c #525D1E",
"9  c #5A5A1F",
"0  c #476015",
"q  c #496015",
"w  c #4E611B",
"e  c #53621E",
"r  c #5A651F",
"t  c #54691F",
"y  c #59681F",
"u  c #4C4222",
"i  c #4D4D22",
"p  c #544425",
"a  c #5A4426",
"s  c #544C25",
"d  c #594C25",
"f  c #56422A",
"g  c #5B442C",
"h  c #554B29",
"j  c #5C4B2C",
"k  c #4D5422",
"l  c #4E5B21",
"z  c #535423",
"x  c #5A5425",
"c  c #535C22",
"v  c #5B5C24",
"b  c #56532A",
"n  c #5C532A",
"m  c #565B2A",
"M  c #5C5B2A",
"N  c #5D4631",
"B  c #5E4A31",
"V  c #5C5231",
"C  c #5D5B33",
"Z  c #60462E",
"A  c #614A2E",
"S  c #605D27",
"D  c #62542D",
"F  c #625C2C",
"G  c #614631",
"H  c #634B33",
"J  c #694E36",
"K  c #654E39",
"L  c #694E38",
"P  c #635234",
"I  c #695235",
"U  c #635C33",
"Y  c #6A5B34",
"T  c #65523A",
"R  c #6C533B",
"E  c #655B3A",
"W  c #6C5C3C",
"Q  c #725E37",
"!  c #71563D",
"~  c #725A3E",
"^  c #4F6120",
"/  c #556222",
"(  c #5B6423",
")  c #576922",
"_  c #5C6A24",
"`  c #5E622A",
"'  c #5F692A",
"]  c #5F7125",
"[  c #5D6131",
"{  c #616426",
"}  c #626C26",
"|  c #63632B",
" . c #6A662F",
".. c #646C2A",
"X. c #6A6D2C",
"o. c #647226",
"O. c #697526",
"+. c #6B7927",
"@. c #667329",
"#. c #6A742A",
"$. c #6C7A2B",
"%. c #626133",
"&. c #6B6432",
"*. c #656C32",
"=. c #6F6C34",
"-. c #66613A",
";. c #6B623B",
":. c #6E6939",
">. c #726236",
",. c #716E35",
"<. c #74633C",
"1. c #746B3B",
"2. c #796C3D",
"3. c #727533",
"4. c #757238",
"5. c #7C703D",
"6. c #594B47",
"7. c #635143",
"8. c #6E5642",
"9. c #6E5B40",
"0. c #705740",
"q. c #745B43",
"w. c #795E45",
"e. c #765F49",
"r. c #795F49",
"t. c #6E6341",
"y. c #746344",
"u. c #7B6246",
"i. c #7C6946",
"p. c #766249",
"a. c #7C634B",
"s. c #7E694D",
"d. c #7D7643",
"f. c #6D605F",
"g. c #7D6551",
"h. c #7F6851",
"j. c #7F6959",
"k. c #826D47",
"l. c #81664D",
"z. c #83694E",
"x. c #84754C",
"c. c #826651",
"v. c #856B52",
"b. c #896E55",
"n. c #8B6F59",
"m. c #877056",
"M. c #8B7156",
"N. c #8E745A",
"B. c #91765C",
"V. c #93785E",
"C. c #98795F",
"Z. c #8C7462",
"A. c #947761",
"S. c #957961",
"D. c #997B61",
/* pixels */
"( n g p z.V.B.b.w.l.B.B.B.M.b.B.N.N.N.v.b 4 U I | _ O.] _ r 9 9 x W l.z.M.B.V.B.v.0.N H R ! g g P q.v.l.z.z.0.Z D x m ' ] ) ] / ",
"_ n g p z.N.b.B.C.S.V.B.B.V.V.B.A.N.N.N.M.E 6 m v ) o._ ) r r / ` W ~ w.l.l.v.w.g g v.B.C.v.Z J Z N u.w.z.z.v.l.C / / ) ) ) _ y ",
"_ v h f z.b.z.M.B.C.C.V.B.B.B.B.B.N.N.N.N.N.p.c / ) ) ) ( 8 r ( } F q.w.l.r.q.H g a.C.B.B.v.g H G Z :.=.y.a.q.q.H 5 w / / e ) / ",
"c 8 z s >.k.z.z.l.z.b.M.V.V.V.B.B.A.B.B.B.N.u.h / ( / e e c v { } (  .Q ~ w.q.A g M.V.B.B.s.Z G Z g | ..Y R g f 8.9.[ / w / ) e ",
"l m b z ..W l.r.l.a.a.w.w.v.B.V.B.c.W L q.T f s 5 w e / c / m ..} { ..| ~ q.R a I C.B.B.B.l.Z H A g m ..v P r.m.B.B.M.v.-.5 / / ",
"n W W U _ n L J L 0.q.w.! J W w.! # # H a.a.a.e.;.M l 1 6 / _ ( } } ..( Y Q J # q.V.B.N.V.u.Z A G g x ( 9 n m.A.N.M.v.e.K V ^ 5 ",
"x z D M / E ! ! ! ! R L K G J G + H a.C.V.C.V.V.B.M.M.y.-.m y } } y } ( | I Z g a.B.B.B.N.q.g H j g h 8 l i g g.w.G f T a.M.v.-.",
"h.E z z / P ! R ! ! 0.! K @ @ N r.V.V.B.B.C.B.B.B.B.B.B.M.b.-.e / ( / ( ( M j j i.M.M.B.M.W Z Z N Z f 4 4 , T R T e.M.V.A.V.Z.N.",
"M.b.E l 8 P R R R ! ! ! J g + 8.b.b.b.n.B.B.B.A.B.N.N.M.N.N.p.l / c / / / x b ' 4.b.M.N.m.&.H Z g g f k z a.V.B.A.S.C.B.M.V.B.B.",
"<.P I H s H J L R ! ! R g g @ w.l.a.l.l.r.a.l.n.N.A.B.n.a.T N f l 6 / 8 e d x ' ' i.M.l.:.&.Z Z Z Z h 8 1.C.M.B.B.B.N.N.M.M.B.b.",
"S j d g f N H J J R R Z G f H a.l.l.a.r.r.q.R R q.u.g.G X @ H H N h k ^ l c ( ` c ,.~ Z { F g g j g v ( 3.k.M.B.B.B.N.M.l.M.l.A ",
"X.v 7 d a g H G H R J g G f L r.8.0.a.w.R g G G N N X N a.v.T P H B f k l c _ _ / { d j ( x g f j d M @.#.,.z.M.M.M.N.x.2.u.Z j ",
"+._ 7 9 > Z G G j P D Z g g s.c.N f 0.N f N N N f   7.A.V.V.h.H J H G f 6 c / / / / n c / x d f n M | O...| <.l.b.N.n.d.=.j a D ",
"+.r r { d j a j h x z h d R v.q.N + N K R L J G N g.Z.A.V.N.V.h.J H H G s 6 c / 9 e l / / c z s c ( _ } _ ( S S ! a.n.d.O.x d F ",
"o.y } < $ p I P h 4 3 z z w.a.T g H R R L L L N N r.c.N.A.A.A.N.s.J G A N h k l w 6 l / ^ ^ l 8 / ) _ _ ) ( / 9 x d W *.O.| Z ..",
"} _ ( F y.b.B.M.M.l.W b x u.e.H # J J L L L L N + g H K q.v.N.C.v.J G H B G G f 3 k 6 5 w 5 5 5 e / / / e e w 8 z d x ..O...Z ..",
"y e Q B.C.B.B.B.N.V.M.T U y.9.N f K J H J H g f J ! L H g Z L a.R G H H H f g H q.a.h.E 5 p.j.;.v c l 6 w l 5 6 l z m _ o.X.M ( ",
"e e ~ l.b.B.B.M.N.b.q.B U &.V N u f G Z g x q.b.B.b.q.! L H Z g H K G # # K a.b.M.n.v.8.v.S.B.B.M.m.v.v.s.l.p.m 5 c m ' ) _ ( / ",
"8 8 W q.w.v.M.b.q.R a.b.v.s.p.R h * i s 9 &.b.N.M.b.! ! ! ! J H N N N H w.l.u.~ W K j a.S.V.N.V.N.V.N.Z.N.v.w.H b l / ) ) ) / ( ",
"e 8 F T ! q.q.T l.B.C.B.N.b.q.G f z c ( } >.b.M.M.z.! ! ! R R R L # L v.l.q.W P + L M.V.V.B.B.B.N.V.N.s.R Y G Z N f h ^ / e / / ",
"8 7 ` M D H j q.B.B.B.M.a.H j j j v o.o.O.F z.M.M.z.I ! R ! R T L H w.l.u.! Y D e.V.S.V.B.V.V.n.h.s.R g @ | F j g G N N / / / / ",
"; 4 ( ` S g d W q.a.z.l.j G H c B v o.$.} v I Q u.~ H J J R J I H g H e.~ I | W A.S.V.V.B.v.W G f f f g u ` { z n G G G k 5 l z ",
"4 s ' _ x N n Y w.w.q.W G H h c n ` o.$.o.v d 9 9 H H A J J I D g j P I <.Y | Y e.V.V.M.0.Z g g g g g j c / } ( n G g p b ;.9.l ",
"7 8 ) _ x b v M ! q.q.W n g j c v ( ] o._ r 9 / 9 A Z A D D F g g h Y P &.| #.F j l.v.j d G f # g N G j c / ( c n g N w.v.r.0.k ",
"7 8 / ) x c e x g h J Y n f h x ( ( _ _ ) / c 8 8 n h v | } j + p d | Y U } +...x x A d n g f N g # g f 5 5 l ^ s 0.v.z.q.J P 4 ",
"4 / / e e 6 5 z s 7 d { n @ s c c c _ e 0 w ^ / c x v ( y c j ~ W g M ..| | +...` v ( M A g f @ N W W W E -./ 0 U c.~ J J J j ; ",
"k c / e c 6 5 4 x / 9 _ n s h 4 / 6 1 U s.C l c / / e e Y u.b.B.r.+ o c _ ` o.o.} @...V N f # f b.C.V.V.C.N.m.t.n J Z H H H k s ",
"k 1 2 1 1 1 4 l / ( ( _ v s g z 1 c h.A.A.8.i 5 5 w -.a.c.b.v.z.! r.a.q.U / _ ] ] ] n # g g + v.C.V.N.V.V.N.B.m.z b v D N x 4 - ",
"v.y.y.-.%.n k 5 e e e / / b 4 , E M.S.B.N.P N C [ W q.a.a.<.R z.M.V.V.V.B.v.[ _ _ ' 8.8.q.B 7.Z.B.B.V.B.N.B.N.m.n 9 v v g z $ y.",
"B.V.V.B.B.M.v.y.-.U [ C l 5 b h.S.S.N.B.e.q.B.B.B.M.g.B Y ..w.C.V.B.V.N.N.N.K c ) P v.m.a.H j.A.V.B.B.B.V.N.B.v.h r { { d - p.A.",
"B.B.B.B.V.V.Z.N.N.N.N.m.c.T g.A.V.A.N.q.r.D.S.N.N.N.M.T v +.M.V.B.V.N.V.N.v.B h / P Q q.Z H M.A.B.V.V.B.B.V.z.V f ( _ / z v.D.V.",
"B.B.B.B.N.B.N.V.N.V.j.q.K N G q.b.M.q.O K e.M.A.N.a.N x ..+.4.z.B.B.V.N.N.p.N f / F Y F g B w.v.N.V.B.V.N.q.p p h ` } e i.V.V.V.",
"N.B.V.V.V.A.V.M.v.r.B B e.b.b.c.e.8.@ N f g N g.q.o > S #.+...A Q l.b.b.b.J j d / | F F f T 0.w.a.b.M.g.j : d a s ` ( ( z.B.B.V.",
"V.V.N.M.m.a.q.J G @ O a.S.B.C.B.B.m.e.N f j f o + f c 9 #.+...n ..S I l.y.Z d / } } | ( 9.M.a.T 0.w.q.d > x d d b z r | k.V.B.B.",
"v.T J j g d g + f q.a.R e.n.b.l.q.R T N f h x s g s z { } +.@.( } { > A G f f ' @._ ' ' M R a.g.P ! Y v ( v s f ( v x o.k.B.B.B.",
"g f g + x { + ! b.B.B.M.l.8.N g f N g g f * - < 4 l v v r O.@.} } ( x a f @ u ( } _ / ' v p j R R x S r / v c z ( O.( ..3.! ! Q ",
"a a g p X.=.l.V.B.M.M.N.B.z.G G N N # @ Z J R ~ V - / ' _ ( ' _ _ / v d p h h ( _ _ _ / k j J R W ;.U ` c 8 6 z { } } @...# f + ",
"f f n ` +.>.v.M.B.M.M.B.b.v.T H H G g N z.c.v.v.c.y.V _ _ / / _ / 9 c z & , 4 4 e e / c q.l.v.b.b.b.v.v.a.W b z r O.o.O.X.j + g ",
"p d x $.#.> a J l.n.b.w.T q.G g g + + H r.z.c.c.a.a.T z / 6 q / / / 5 < U a.l.i.t.-./ b 0.e.w.w.w.r.w.8.R T G d v } o.O.X.g f a ",
"x s _ $.{ 9 a # j R J # g g G f a f g N H R q.w.T G N k 5 C t.m w 2 %.v.B.V.B.V.A.c.h x J I ! ! W R g @ f f g g ( } O.O...j j a ",
"( x } @.{ x d a f @ N N f j g d d 7 f Z G G G j N g @ h p.N.b.N m m.V.S.V.N.N.N.N.9.B N J J J R W J j H G N N f v O.O.O.} R w.J ",
"m ( } } } M d d + o o o O v ( v r 9 # a g G N f N H w.v.N.n.e.@ b.D.V.V.V.B.V.V.m.B B N Z J J J L G N Z g g g j v O.o.O.| q.u.q.",
"0.v _ ) _ ( ( n g + p f d / } @._ d j g f s g + N c.M.M.n.m.8.N B.V.V.V.V.V.N.A.a.G G g N J H I H g G Z Z Z g d S #.o.o.Y ! ~ w.",
"~ K c / ( ( ) n g f z s x / o._ ( D # = h h ; s G H R e.a.p.N T C.V.V.V.V.A.N.N.R G N g f G H A B j j Z G j g j v } } ..! ! ! ! ",
"J K j 8 / _ / x x i x x v ) _ ] ' j f u.n.c.b ; g N W r.u.r.p.b.B.b.M.M.N.N.B.v.H B N g f g G j z x d j a p f n | .._ | q.~ ! ! ",
"G j N c / c v c z ; z / / ) _ ) / u 9.B.N.N.e.& V M.C.C.A.S.B.N.M.a.q.q.W R R W H f N j g f f h z z x g s z x v ' } ( F ~ ~ R R ",
"Z g @ s v c c l i s z / e w ^ ^ [ u.M.M.M.b.r.G M.S.B.V.N.V.B.A.M.v.T G G G G N N N B g p = ; h 4 5 3 & , 8 e e e _ 9 E ! ! ! J ",
"g g # + z z k s s s z 8 ;.a.z.v.M.N.M.M.v.z.e.q.V.B.V.A.A.N.v.r.y.a.r.a.0.G J g g f f g B P j 3 m E y.u.a.y.;.-.%.e 9 J R R ! ! ",
"j g a g x v s i s h x 5 a.M.b.M.b.z.M.b.z.l.H w.V.B.b.l.9.T K T g.N.V.v.L # H a G w.l.l.c.l.e.T c.b.n.M.M.M.M.b.b.E 5 j H I I J ",
"j n j d / x s ; 4 x x 8 -.l.l.l.2.5.z.<.I Z . R z.w.q.w.l.m.M.B.c.K 9.H g g a A z.b.b.b.l.q.R P H ~ b.b.M.b.b.b.b.v.V g G H J H ",
"d | D ( ( ( p k k c v ( ` u.u.>.X.3.2.| > Z : r.b.B.V.C.V.V.V.V.A.e.+ G H j d I z.v.z.l.! H A H Z F i.b.b.b.b.v.a.W G g A j Z j ",
"x { { / ) z i k k v ( } r <.~ F ..$.@.} { 9 R M.V.V.V.V.V.V.N.A.Z.N.T g F M { D l.z.l.l.R H H Z Z | ,.l.a.l.l.q.G g g f d z A j ",
"v ) ) _ / c k 4 9 v } _ ( } F F ` @.o._ } 9 w.l.v.V.C.B.C.B.V.N.V.S.t.p | } ..D l.z.l.z.J G G g # F $.B f H H G G B d h z 4 x x ",
"/ ( ) / / c i k / v ( _ / ) / v ' _ ] ' r D w.l.z.z.M.C.V.B.N.V.N.9.f b } +.o.D w.l.l.l.H j g g g S $.j f G N N N j h z 9 c l 8 ",
"/ / ) / w 5 4 k / e / _ / / / ( _ ) ) ) r D ! l.z.l.l.b.N.N.N.v.K N B C o.+.O.D w.l.l.r.Z g # h x | #.D N g f # g f z 8 c 6 8 c ",
"q w 6 l C P B z k c 6 c / / / ( ) / / x 4 Y l.l.l.l.l.q.w.c.u.G G H G ..o.O.} D <.l.l.! g + g s _ ..@.P G G H Z g f s l 6 / w 1 ",
"i.v.b.m.n.n.8.H j s c l l l c / / / x d ; y.z.l.l.a.~ Z g H J H G H N | @.o.' ' &.w.q.j g h A d ( o.X.%.D H N g g j i k l 3 z t.",
"B.B.N.N.N.Z.p.j h - 3 , l l 6 / / / ( ; P c.l.l.a.q.D Z j f G H A Z j ` o.] _ / _ U B p @ h v v ( ] ' | Z A g g d p j j h h b.V.",
"N.N.B.B.M.p.B f j E y.a.c.g.[ ^ / c c ; q.l.l.l.a.I D F s + + j Z g g ` ] _ ) ( / / z i g # v r v _ _ ` D j d d i a.g.J g w.M.M.",
"l.l.a.e.K @ 8.b.M.C.B.C.B.Z.p.l ^ 6 c h 8.a.l.l.a.A S $.v j f g d g s z ' _ ) / / / z k d h x { / _ _ / m x = V b.A.b.H Z Y w.u.",
"j + @ g o 6.Z.V.B.B.M.l.q.H j N b h H N J l.l.l.u.Z | $...n g s s h k 4 6 ^ t 0 0 1 , , 4 c / / ) / / / v , W A.B.B.q.g | &.z % ",
"a # + # O f.N.V.B.y.H g g d s d B G G f P r.r.u.<.S | $.@.H g s s p & k m ` [ -.t.p.s.-.m 6 e ^ / / / e 2 a.A.N.B.v.g D X.o.7 8 ",
"d g g . 7.Z.N.V.b.G B g j h i s 4 p p p x w.a.l.W { X.$.#.j h x s n s.M.N.M.V.V.A.V.A.N.c.V l w 5 6 l m C 0.g.N.b.P j ` O.o.y { ",
"7 d g + p.S.N.A.a.j H W H h d h B P R b z F q.w.W _ #.@.@.v n x s p.V.B.B.B.V.V.N.N.b.e.H N h 6 C y.v.b.g.J J W H x j _ O.} } r "
};
