/* XPM */
static char *result[] = {
/* columns rows colors chars-per-pixel */
"64 64 158 2 ",
"   c #392F1F",
".  c #3D3317",
"X  c #3E351B",
"o  c #3A2E22",
"O  c #3D3025",
"+  c #3E332B",
"@  c #3E3431",
"#  c #42351E",
"$  c #473C1D",
"%  c #4A3E1C",
"&  c #423625",
"*  c #443924",
"=  c #4B3D24",
"-  c #43362C",
";  c #49372E",
":  c #463B2C",
">  c #4B3D2D",
",  c #503F27",
"<  c #513F2E",
"1  c #433533",
"2  c #473A34",
"3  c #4B3D34",
"4  c #4B3D39",
"5  c #513F36",
"6  c #513E38",
"7  c #4D4315",
"8  c #4D421B",
"9  c #52461B",
"0  c #554B1D",
"q  c #594F1A",
"w  c #5A501E",
"e  c #5D581F",
"r  c #4E4223",
"t  c #4D422B",
"y  c #524525",
"u  c #554923",
"i  c #594D24",
"p  c #53442B",
"a  c #58472C",
"s  c #554B2C",
"d  c #5A4C2B",
"f  c #5B5225",
"g  c #57502C",
"h  c #5D542C",
"j  c #5F5B2E",
"k  c #4E4233",
"l  c #4E413B",
"z  c #534334",
"x  c #594734",
"c  c #554A33",
"v  c #5C4B34",
"b  c #54443B",
"n  c #58473B",
"m  c #564A3C",
"M  c #5B4A3B",
"N  c #575133",
"B  c #5C5333",
"V  c #5F5933",
"C  c #575039",
"Z  c #5C533A",
"A  c #5E5938",
"S  c #615425",
"D  c #635B24",
"F  c #62542D",
"G  c #645C2C",
"H  c #695D2D",
"J  c #604F35",
"K  c #614E3A",
"L  c #625334",
"P  c #695736",
"I  c #645B33",
"U  c #6B5C35",
"Y  c #64543C",
"T  c #69563C",
"R  c #645B3A",
"E  c #6C5C3B",
"W  c #715E3D",
"Q  c #676225",
"!  c #696427",
"~  c #66612C",
"^  c #6B642C",
"/  c #6D692D",
"(  c #726D2C",
")  c #75722E",
"_  c #666134",
"`  c #6B6333",
"'  c #6E6A33",
"]  c #66613C",
"[  c #6C643B",
"{  c #716436",
"}  c #746D34",
"|  c #796F36",
" . c #73643C",
".. c #78663D",
"X. c #756C3B",
"o. c #7A6D3C",
"O. c #767233",
"+. c #797435",
"@. c #7A7837",
"#. c #767239",
"$. c #7B733B",
"%. c #7B7838",
"&. c #544541",
"*. c #574842",
"=. c #5B4B43",
"-. c #5E4E49",
";. c #5F5143",
":. c #5F5148",
">. c #604F43",
",. c #604F4A",
"<. c #645344",
"1. c #695743",
"2. c #665943",
"3. c #6C5A43",
"4. c #64544C",
"5. c #69574B",
"6. c #6C5A4C",
"7. c #725D43",
"8. c #725E4B",
"9. c #665651",
"0. c #685751",
"q. c #6C5C53",
"w. c #6F5E59",
"e. c #715F53",
"r. c #705E58",
"t. c #676141",
"y. c #6B6441",
"u. c #6D604F",
"i. c #756344",
"p. c #7A6544",
"a. c #766843",
"s. c #7C6C44",
"d. c #75624C",
"f. c #7A654C",
"g. c #77684D",
"h. c #7D6A4B",
"j. c #7E7242",
"k. c #6F6156",
"l. c #746153",
"z. c #7B6653",
"x. c #7E6A54",
"c. c #75635A",
"v. c #7A675B",
"b. c #7D695C",
"n. c #81733E",
"m. c #816E46",
"M. c #826D4C",
"N. c #817245",
"B. c #84714B",
"V. c #846E54",
"C. c #846E5B",
"Z. c #867054",
"A. c #887155",
"S. c #87705B",
"D. c #89715A",
"F. c #816D60",
"G. c #877060",
"H. c #897362",
/* pixels */
" .v v p 2 v.H.S.G.F.C.b.,.*.b c #.O.X.q.c.q.4.4.,.b z < > h h u r x F.C.C.C.C.F.G.G.b.k 0 i.h.m.p.M M n 3 V.S.S.A.S.V.Z.M.N.| o.",
" .v v p : *.b.S.F.C.e.*.b n 2 s $.+.O.} i.[ t.2.*.z J ` X.} O.^ i % q.F.b.F.F.b.b.b.k.% i.V.M.M.T b M z b f.f.S.A.C.Z.V.B.B.N.n.",
"Y x z z I N b 6.6.T v x l m A k ` +.+.O.O.O.O./ L p.M.N.$.+.O.' i 9 b b.b.b.c.q.<.2.t L Z.h.B.i.M M 5 < F ^ S 5.S.D.C.V.h.a.i.] ",
"k k m B ` V I  ...s.o.P > Z ] R z X.%.O.O.} ' f P M.m.n.%.+.O.` h a = 6.r.8.7.i...| I ; d.Z.M.<.5 z I | | +. .p M >.K =.&.&.b 4 ",
"M A Z R I U N.j.m.s. .W L > B [ c d ` ` ` I f p E M.N.n.%.$.#.E P a = K V.M.V.B.s.j.I z - 1.8.3 L O.%.+.| X. .M z + b b m z k v ",
"M.f.f.K L $.j.o.+.$.{ E P v > B P E p.s.s.o.U = E s.$.n.$.j...E P J - 8.D.Z.Z.M.M.$.M M b + k ` +.+.$.O.+.X.E n M 3 c T B 7.p.M.",
"M.M.M.>.I N.%.%.+.+.+.[ E J * E M.Z.B.M.m.o.X.y v N.$.N.N.j.s.T T x ; f.A.Z.Z.B.N.a.x n m 3 I %.+.+.$.+.X.#.E b z O x 7.M.Z.V.M.",
"M.V.8.1 I $.%.%.%.+.+.{ T v > M.M.Z.V.Z.M.m.o.t v N.N.N.B.B.g.T K n 5 V.A.Z.Z.m.B.E b b M 3 I $.%.+.+.o.$. .Y 4 > 8.C.A.A.Z.V.Z.",
"V.z.*.2 R $.+.$.+.%.@.X.Y 3 R Z.Z.Z.Z.V.M.j.o.k v N.h.x.x.b.l.>.n n b V.Z.Z.B.B.h.<.m m M 2 H X.` Y M M ;.b 2 - m C.C.A.A.A.V.C.",
"V.>.n 4 L %.%.%.%.@.@.@.Z 2 s.Z.S.S.S.Z.Z.B. .k c i.=.&.4.6.6.b 6 3 b C.S.Z.Z.h.g.m M b n 3 B Y n n 3 z c s h ! t 8.D.D.C.S.A.S.",
"5.z b 3 t Y R R R ] y.[ b M M.A.S.S.S.b.b.x.6.k 2 l &.*.b 4 4 M P ' H v 6.6.;.=.*.*.b M &.3 3 z x k F +.+.+.| } G b S.D.S.S.C.C.",
"b b m k : s S G h g k 3 - <.C.b.b.b.b.c.c.v.0.2 ,.5.b 3 b 2.p.M.s.s.+.f X 2 b b b 3 3 k k 3 <.<.&.G n.| $.+.+.} } - l.D.D.S.S.e.",
"b b b k D ) +.+.) ) ) ! 9 t v.b.b.b.b.b.v.b.q.4 r.C.6.1.M.A.B.M.M.s.o.{ i > M M v I ` U v > 6.q.I +.n.j.j.%.o.$.] + =.F.C.G.z.b ",
"b b k D } $.+.+.@.O.O.) ' 7 m b.b.c.c.k.q.9.*.b C.x.8.A.Z.Z.M.B.m.o.$.` x * c  .o.m.s.{ v z *.L } N.m.N.j.j.$.s.M - l q.r.C.,.6 ",
"b 3 f } s.$.$.%.+.+.+.O.) ~ 8 &.*.&.&.l 4 &.1 <.G.8.i.M.A.B.B.N.$.o.o.v 5 > a.h.m.M.M.i.n n t ^ $.j.N.N.j.j.j.1.2 c Z :.w.q.-.b ",
"k g { B.M.B.N.N.%.+.+.O.O.O.j # :.4.4.9.:.9.-.l.C.E s.V.B.B.B.N.N.%.I b p : a.B.B.B.B.d.n x s o.N.N.N.N.B.Z.h.b k R ] ;.q.c.,.b ",
"A R A.V.A.Z.B.B.j.$.$.%.O.O.} u *.c.l.l.r.q.5.C.8.[ M.V.Z.A.B.B.j.T b x > k 5.f.d.d.d.<.n M 3 z a.N.B.B.B.Z.6.l c t.[ ] :.k.;.m ",
"G s 3.D.D.A.Z.M.B.N.j.a.a.#.O.{ t 4.0.4.*.=.x.x.I h.C.l.4.6.l.l.;.n b - c c 4.9.,.-.=.=.n M M - - <.a.B.M.M.K 3 A t.y.] A C N I ",
"O.^ % M V.D.A.Z.f.E K M M Z R U p x 7.f.W i M 1.X.x.q.*.=.*.&.&.&.b 2 I ` > 4.c.c.c.q.0.<.=.M z - x M [  .[ c r 9 u g V P ` | O.",
"| } d p p d.z.Y 2 ; 5 5 b b 3 3 T M.V.M.M.f.F u T 4.=.-.=.=.-.&.l l [ o.} z -.v.c.c.c.c.c.>.n 3 7.B.m.o.| } } ! f w r U n.$.$.$.",
"| X.d a p * M 8.7.1.K x z > p W B.Z.Z.M.M.M.p.P * 2 -.-.=.*.&.=.;. .$.$.[ x z c.c.c.c.c.c.4.3 <.Z.V.M.j.j.$.$.$.} G p m.B.n.N.n.",
"s. .a a p < V.D.A.S.M.8.7.K k h.A.M.Z.Z.V.M.s.Y x > 1 2 4 k M M  .%.$.#.P n 5 6.v.v.v.c.l.*.k 8.S.V.Z.V.M.M.a. .} L J Z.Z.B.N.m.",
"N.{ , a a < V.C.V.V.V.x.M.1.c V.Z.Z.Z.M.M.o.o.v x > h ^ ' ^ H , V j.#.O.[ n z b 6.6.6.Y G f s k V.S.V.C.S.z.M b n 5 1.A.Z.Z.B.M.",
"M.W a a , K D.A.S.V.V.V.V.Y M A.Z.A.Z.B.N.$.X.M 5 h $.o.+.| T J t I #.| V > u u D / / ( ( ( f X =.C.x.C.b.Z n M b > d.D.Z.Z.Z.M.",
"m...s s y K V.C.V.z.z.l.d.3 Y A.B.A.m.n.#.%.[ b v o.$.$.$.E Y v M 3 I f 0 S H { | O.} } ( / d , o T T K z 5 b n M 3 f.D.S.V.V.V.",
"M...d y p > 6 6 4 3 4 2 3 c d.Z.M.m.n.n.@.+.U 3 ..N.m.M.p.1.Y n m x * e D ! ( +.O.O.) ) ^ d p s  ...p.W J y p <.6.x z.D.V.A.Z.V.",
"M.s.F p y & M E W W E B v z 1.B.B.$.%.%.+.+.V E B.M.B.Z.i.Y M x b x r D ^ ) +.+.| O.O.I z s = P n.$.o. .U F y y s j l.D.A.A.A.V.",
"V.p.F y d p.M.B.M.M.m.p. .P : K o.X.' ` I U R M.B.Z.V.Z.x.<.M n M 3 u ^ } +.O.O.O.} L b v v p a.N.o...{ W P d i y I 3.z.l.l.f.x.",
"1.p.d Y N.B.B.M.M.m.p.p. .K x - Y y.8.8.6 < g.B.Z.Z.S.S.Z.<.b n m : f } +.) +.O.E b n v v z k z.N.N.s. .W E d a y I k x d F G v ",
"z x a N.B.B.B.B.m.m.o.p.E M x K A.C.D.f.K 5 b z.S.D.S.S.C.<.b n k t ^ O.+.O.+.} n M v b x : ;.V.B.Z.M.f.7.E P a > c { o.$.+.+.^ ",
"Y 3 M B.N.N.N.N.n.o.| a.M x 5 1.D.C.D.e.n n 3 1 ,.l.S.D.S.6.b z k Y ' @.#.#.+.I : 3 b k z c f.D.S.V.V.V.d.E T v = W B.$.o.$.+.} ",
"Y b 7.Z.N.N.n.n.$.$.$.E n M 5 8.D.C.D.8.n n 5 x m l =.6.b.d.b 3 8.h.] ' / / ~ ~ D 0 $ k 2.c 4.D.S.V.C.C.C.d.T M > a.N.N.$.$.$.| ",
"4.M f.B.B.N.N.j.j.$.o.M n M 5 e.D.S.S.z.M b k 2.t.R m : 3 &.3 i.M.V.<.S } } +.+.| ( G 9 p t - 4.S.C.C.C.C.b.<.M z s.B.j.B.j.j.j.",
"<.=.1.B.B.B.B.B.B.N.a.n n n 3 z.C.x.v.k.=.k m t.A _ ^ ^ G o R M.h.T P | $.$.n.+.+.+./ d i % p 3 -.C.G.C.C.C.5.3 3 M.B.B.B.A.A.x.",
"l.4.*.u.B.B.Z.h.3.2.5.n n n 3 4.,.*.*.&.l c ] A ` +.+.+.} c > a.T P j.N.N.n.n.$.$.%.{ v d u = d s &.l.8.8.Y 4 c c 6.A.A.S.Z.Z.Z.",
"b.4.6.l d.h.<.*.&.b b z 3 > * 4 *.=.*.Z C ] ] _ +.+.O.O.O.L z * A N.M.V.Z.Z.Z.Z.M.B.i.J J a y = d L E  .U B s [ _ c c.D.S.Z.S.S.",
"C.q.4.4 & b 2 k k z p y u u y y t.y.[ y.y.[ ] ' +.+.O.O.[ z n z m.M.A.S.A.A.S.A.V.A.h.M v v p p a.M.m.s...U d R ` I M b.S.D.S.S.",
"C.5.b 2 ^ { U G h f f f S d d , R y.y.[ ] [ _ +.O.+.O.| M z ; [ M.A.D.D.D.D.S.C.A.S.C.K M z J m.M.m.m.s...W d A [ ` V :.b.D.S.G.",
"6.l 1 V +.$.+.$.+.` U H S d d r A ] ] y.y.] ' +.+.+.O.M 3 J E W 7.f.V.C.D.D.S.S.S.C.C.8.M x M.M.m.N.s.s...E P s ` ` ` s 4.G.G.G.",
"&.l m X.o.$.$.O.$.| | X.{ Y v t A Y c A y._ X.#.@.#.B v ..m.m.m.p.v 5 >.C.D.S.S.C.C.C.x.n K B.m.N.n.$.$...T Y x A ` ` _ t ;.v.0.",
"l *.Y $.j.$.$.%.@.#.X.X.X.Y x : d.d.x t Z _ $.@.' R a.m.N.m.m.s.1.n K 2 8.D.C.C.C.C.C.C.=.E B.N.j.$.$.E M n m l c ` ` I H t &.&.",
"_ ^ ! h A R ] a.a.#. .] T b 3 6.V.d.M z : x [ [ 1.M.B.B.N.m.M.i.n n n z *.C.C.v.v.C.F.F.5...N.%.$.%.[ b M b x c _ ` _ _ _ h m A ",
"+.) O.Q * 4 &.b &.l l k 4 2 8.A.C.z.k x 7.7.E : ;.0.q.d.f.M.x.;.M *.n n 3 I U U H c 5.r.2.o.n.$.%.%.E b M b k _ ` _ ` _ _ H | +.",
"+.+.) ( D 7 3 4 k N ~ / f $ v d.l.3 M V.V.M.f.3 l 0.4.9.4.4.=.b n n n b U $.+.+.+.! 9 5 M $.$.%.$.%.E n b z ] [ [ ' ` ' ~ ..N.$.",
"+.O.O.} ( S 7 u ( +.+.@.^ 9 7 % ; 3.A.A.V.V.6.6 - 4.0.:.Y E [ ` z z 2 L n.$.$.$.+.| H r t s.%.$.%.#.Y b k A _ h j g _ ' U B.N.n.",
"$.$.$.O.O.! 8 _ @.) +.) } u i % P S.V.C.D.V.V.>.: &.9.<.M.m.m.$.o.L z z a.B.N.N.$.| / x 2 R [ R Z *.b k B _ / ) ( w g ^ a.Z.m.N.",
"j.$.$.X.} / r #.+.+.+.+.} i u 9 x V.V.V.l.5.5.=.N A b f.M.M.M.j.j.T n n 6 M.V.M.M.s. .c k 1 2 2 3 3 k m A O.) O.) ! 8 R B.B.N.N.",
"N.N.j.$.#.~ V #.+.@.) O.O.f u 9 = ,.<.=.b b b 6 Z ] Z V.z.V.A.M.B.7.n M 3 6.x.e.6.<.*.l 3 > L U { I > <.' +.O.) ) ) 7 3.B.B.N.N.",
"i.7.1.Z s   B %.@.@.@.) @.~ 9 u y - b b b b b k ] ] k l.V.C.C.V.A.z.M M 3 =.9.9.4.&.3 z P ..o.$.+.{ 5 z ' %.O.O.O.) w z Z.j.h.g.",
"*.4 2 = 7 7 k #.%.+.+.+.) ~ y u u = M Y M Z A ] ] R 8.*.b.V.C.C.C.C.5.n 6 =.,.-.&.3 v  .o.o.$.#.+.E 6 > ' +.O.O.O.O.G # 9.9.-.*.",
"d.l.Y q w q $ T %.+.+.) O./ u i u y p ] y.[ [ [ I 8.C.>.8.b.C.D.D.D.8.b l 8.z.z.<.Y p.o.$.$.$.O.+.U 6 x #.O.+.O.O.) ~ . p J Y 6.",
"W Y d ^ / ! i p a.@.@.O.) ' y i u y $ B R [ y.[ R z.C.l.*.b.b.b.8.,.*.*.3 r.C.C.6. ...$.$.%.%.+.+.Y 6 B +.O.O.` G j u s m.M.m.p.",
"M. .x d ^ ) ( f R %.+.+.@.' g u % y w S F L V V 2.C.C.C.,.q.<.&.&.&.b b ; x 5.5.T ..$.%.%.$.+.O.R m 3 h } _ F h F u Y Z.V.M.M.V.",
"M.M.7.M z h ( ( ~ V @.@.@.( g 8 9 S U p.....E L x *.<.e.5.b &.&.4 2 : r 0 0 0 % d o.$.$.%.O.[ M b 5 3 P E d s h y 1.D.C.V.V.Z.M.",
"M.M.M.7.M 2 f ~ ^ Q j +.' ' y w H f.M.f.m.p.p.W E L ; 2 b @ 1 t y i f S S d F u s o.$.+.U M 6 3 z Y s.M.M.s.E y = V.A.V.A.Z.Z.V.",
"M.f.1.=.n z d S f j g B _ V i  .V.V.V.M.M.M.s.p.W T L =.b d ` | } X. .7.7.Y K K > X.} M b z z I X.m.M.m.s.s.p.f x C.D.A.A.Z.Z.M.",
"i.M b b m 3 s G D D h s _ V d.C.C.V.V.V.M.M.h.f.i.7.Y z ` $.$.$.| s.f.f.7.1.Y 1.> p b 3 k x U $.$.$.$.m.M.s.s.F Y D.S.A.Z.Z.Z.B.",
"b M M b b b t f f s f s g t 5.S.C.C.D.V.C.C.M.f.d.i.Y d $.$.$.$.s.M.h.d.5.K =.6 - ; v U B l ` $.$.%.%.$.s.M.s.U n S.D.D.Z.C.Z.f.",
"M b b M M 5 2 E 7.7.8.i.Y t k 4.C.x.l.z.e.z.z.x.l.f.<.t.s.g.g.g.l.e.<.*.&.4 3 K 7.M.M.m.Y 1 I %.+.+.$.%.%.o.o.` * 5 e.D.A.D.M.M ",
"*.M M b b - 9.S.Z.Z.Z.V.h.k N c 6 3.i.{ U U L M 4.q.-.4.c.l.w.w.w.4.&.&.4 J p.Z.Z.V.M.f.M 3 h $.$.%.%.$.%.$.$.f % y x =.z.V.<.b ",
"n n n 5 s m c.Z.S.V.Z.V.x.Y 3 R M f.B.j.$.+.} ! 0 z b *.c.k.c.k.q.4.*.4 W B.V.Z.Z.C.V.d.b 2 h N.n.N.$.$.$.$.I v 7.M.Z.W M *.b b ",
"p 3 x R B k.S.S.S.S.C.S.C.3.3 c A l.N.N.$.$.+.O.^ u 9 > q.c.k.k.r.=.4 T Z.V.C.A.C.S.D.6.z t y P p.s.B.N.$.U 7.A.A.Z.M.B.m. .v y ",
"F a z A ;.b.G.S.S.S.G.b.S.z.b > G u.x.B.m.$.#.O.} S d y b q.c.c.w.&.P V.C.D.A.S.C.C.V.5.> 0 S W W v R ..J x A.Z.A.A.V.M.M.N.s.{ ",
"{ J p & :.H.S.G.S.G.C.G.C.6.b : } } k.V.B.M.j.o...L a a t M <.4.=.c m.C.C.D.S.S.D.C.C.*.r f 7.M.p.M 3 - ; 8.A.Z.Z.A.Z.B.N.m.m.o."
};
