/* XPM */
static char *result[] = {
/* columns rows colors chars-per-pixel */
"64 64 246 2 ",
"   c #05030C",
".  c #15050E",
"X  c #040814",
"o  c #010D1A",
"O  c #150B16",
"+  c #1C0C13",
"@  c #00131C",
"#  c #03181D",
"$  c #14131B",
"%  c #1A161A",
"&  c #1C141B",
"*  c #2B050D",
"=  c #38070C",
"-  c #230D15",
";  c #280B16",
":  c #2C0C14",
">  c #330B13",
",  c #3C0B14",
"<  c #380C17",
"1  c #271117",
"2  c #24141B",
"3  c #2B141C",
"4  c #23191E",
"5  c #2B191F",
"6  c #34131C",
"7  c #37161C",
"8  c #3C131B",
"9  c #001521",
"0  c #001B23",
"q  c #091B24",
"w  c #161B23",
"e  c #1D1C23",
"r  c #291722",
"t  c #251C23",
"y  c #2B1C23",
"u  c #371822",
"i  c #331C23",
"p  c #3B1C23",
"a  c #00232B",
"s  c #082328",
"d  c #19242A",
"f  c #052A32",
"g  c #002C34",
"h  c #00353B",
"j  c #1B3037",
"k  c #252126",
"l  c #2C2126",
"z  c #25242A",
"x  c #2B242B",
"c  c #232A2E",
"v  c #2D292E",
"b  c #332126",
"n  c #3A2226",
"m  c #33252B",
"M  c #3A252A",
"N  c #33292E",
"B  c #3B292D",
"V  c #242B31",
"C  c #2E2B31",
"Z  c #332C32",
"A  c #3B2D32",
"S  c #2B3439",
"D  c #343136",
"F  c #3C3135",
"G  c #35343A",
"H  c #3B353B",
"J  c #36393D",
"K  c #3C393E",
"L  c #48050B",
"P  c #58080C",
"I  c #440B15",
"U  c #4B0B14",
"Y  c #540D13",
"T  c #5A0D13",
"R  c #540F1A",
"E  c #43141B",
"W  c #49151A",
"Q  c #551419",
"!  c #5B1519",
"~  c #66090C",
"^  c #770A0A",
"/  c #7B110E",
"(  c #660C12",
")  c #770D12",
"_  c #631114",
"`  c #691619",
"'  c #7C1414",
"]  c #791818",
"[  c #441C23",
"{  c #4A1A22",
"}  c #551C22",
"|  c #681D22",
" . c #751E22",
".. c #44242A",
"X. c #48262B",
"o. c #56262B",
"O. c #4A2730",
"+. c #442C33",
"@. c #4B2D33",
"#. c #542D32",
"$. c #5B2D31",
"%. c #433135",
"&. c #4B3236",
"*. c #42353B",
"=. c #4B363B",
"-. c #433A3E",
";. c #4C3A3E",
":. c #573135",
">. c #533539",
",. c #5C363A",
"<. c #523A3E",
"1. c #5D3A3D",
"2. c #6A2528",
"3. c #772729",
"4. c #652E32",
"5. c #762F31",
"6. c #663639",
"7. c #773537",
"8. c #0A3C43",
"9. c #2A3D43",
"0. c #343C41",
"q. c #3C3B42",
"w. c #433D42",
"e. c #433B44",
"r. c #4C3D42",
"t. c #543D42",
"y. c #5C3D41",
"u. c #643D41",
"i. c #6B3D41",
"p. c #7D3F44",
"a. c #0C434C",
"s. c #2B454A",
"d. c #394349",
"f. c #355057",
"g. c #454146",
"h. c #4C4145",
"j. c #45444A",
"k. c #4B454B",
"l. c #45494C",
"z. c #4B494D",
"x. c #544245",
"c. c #5C4245",
"v. c #54454A",
"b. c #5C464A",
"n. c #534A4D",
"m. c #5C4A4E",
"M. c #464B51",
"N. c #4D4B52",
"B. c #534D53",
"V. c #5B4D52",
"C. c #5A4F58",
"Z. c #495459",
"A. c #545155",
"S. c #5C5155",
"D. c #55545A",
"F. c #5B555B",
"G. c #545A5D",
"H. c #5D595E",
"J. c #644345",
"K. c #6A4344",
"L. c #63464A",
"P. c #644A4C",
"I. c #6B494C",
"U. c #76484A",
"Y. c #644E52",
"T. c #6A4E52",
"R. c #7A4950",
"E. c #635255",
"W. c #6B5254",
"Q. c #63555A",
"!. c #6B555A",
"~. c #63595D",
"^. c #6B595D",
"/. c #725659",
"(. c #545F64",
"). c #5D5C62",
"_. c #635D62",
"`. c #6B5E62",
"'. c #546368",
"]. c #646166",
"[. c #686368",
"{. c #706467",
"}. c #880C0A",
"|. c #970D08",
" X c #88130C",
".X c #99140B",
"XX c #8B0D11",
"oX c #841313",
"OX c #871817",
"+X c #961A17",
"@X c #A40C03",
"#X c #A71607",
"$X c #A4140B",
"%X c #AC150A",
"&X c #B81706",
"*X c #B2190B",
"=X c #BB1C0B",
"-X c #A51B14",
";X c #B41E12",
":X c #95221A",
">X c #A7221C",
",X c #BB2A11",
"<X c #B6251A",
"1X c #8C1F21",
"2X c #872627",
"3X c #972825",
"4X c #892D32",
"5X c #843838",
"6X c #973735",
"7X c #A82824",
"8X c #B62D25",
"9X c #A9322C",
"0X c #BA3429",
"qX c #AF3833",
"wX c #C51C07",
"eX c #D41D04",
"rX c #CB2409",
"tX c #D42103",
"yX c #DA2607",
"uX c #C62716",
"iX c #D82B16",
"pX c #CA321B",
"aX c #E22404",
"sX c #EC2A03",
"dX c #E52A08",
"fX c #F32C02",
"gX c #F92C00",
"hX c #E53308",
"jX c #FE3302",
"kX c #FF3B01",
"lX c #F63408",
"zX c #E22E15",
"xX c #E93718",
"cX c #F73914",
"vX c #C73728",
"bX c #CD392D",
"nX c #E43825",
"mX c #9D433A",
"MX c #B0483C",
"NX c #FF4100",
"BX c #FB4216",
"VX c #CF4435",
"CX c #EA4428",
"ZX c #854647",
"AX c #8E5051",
"SX c #AC4D48",
/* pixels */
"z.z.N.K.3X9X0X6XF.^.`./._.SXkXcXkXjXiXuXuX;X+XQ 8 b.^.Q.T.i.7.=X+X' oX' ` |  .8XcXdX+XE ..+.*.=.=.j.k.B.S.>.= E E W ....*.-.j.l.",
"z.B.B.0.s.N.AXCX0XI././.F.SXNXkXdXiXrXwXeXyXsXtX' , 6.K.u.t.2XT w u y l M A F s.AXkXlXuXOX7 ..X.-.q.e.z.A.B.p > W } o.o.o.&.-.g.",
"Z K H K z.Q.'.SXjX9X5X5XqXcXlX8X2.p [ p N @.7.qXeX/ m ;.6.3.Y r E 7 u p N H g.Q.^.CXkXjXfX*XQ w l b D F g.S.n. .8 n o.` _ 7 { n ",
"E 3 x F -.n.Q.bXNXkXcXlXjXdX3Xv F } O.-.K q.0.a.ZXyXuX<X<X( $ < 6 r y y N K g.^.G.CXdX-X=XyX&X}., & b D A.W.f.vXaX>X>XzXdXXX- 7 ",
"Y _ T P P P ^ uXcXkXjXyX>Xo.N +.O.O.q.q.w.k.k.V.s.qX;X5.e.c ; 6 6 r y t N K -.~.G.VX,X0 u Q ] XX|.Y $ b n.A.n.iXgXjXjXjXjXsX&X) ",
"P L L > ; - o g.nX&X' W s m B %.X.0.e.e.k.N.B.D.C.ZX2X8.k.F - ; 3 3 5 E M J w.~.~.AX0Xl [ l q 0 W / P 9 j 6.<X X} 3X+X+X' *X&X}.",
"* + $ - 2 3 v I.OXo d l m N D %.N e.j.k.N.A.F._.C.R.>X9.k.H + - ; 2 6 7 t Z K ~.^.W.0X` y b i b z c +X;X<XwX) # Z V a a 0       ",
"; ; 3 e y B J K.` w i l x Z H A G N.k.B.D.F._.W.Z.6X| q.n.q.r + ; & 7 5 4 l J Q.^.S.0XOX0 i y m A S <.cXlX_ # i *.r.=.F l ; * : ",
": 3 t 7 ..N 0.J.` s y x C C *.+.K B.z.A.G.).!.E.R.+X9.B.e.q.r O - - 1 8 5 l x S.W.v.0XOX9 i l N Z 9.K.BX*Xo p k q.t.e.0.C + ; ; ",
"3 4 7 7 k v G y.3.0 l v N +.+.m g.A.A.S.Q.W.T.n.7X:.q.r.e.F e O O + - - 3 5 5 v.P.h.8XOX0 b v Z F s.SXlX] y 7 b F N.N.q.C + ; > ",
"2 2 6 d t Z Z x.4X2 n b m Z D Z k.S.A.S.T.W.A.qX*Xh r.e.*.y r t % $ + + 1 5 5 ;.c.<.5.:X0 b m A -.f.MXhX, y l m F m.C.j.Z & : 2 ",
"3 4 3 t y x y V.4X2 x z C Z F Z k.F.G.E.T.S.U.cX*Xa %.A m C C r v k % + + 1 6 +.,.B 6.:X0 b b N x.F.VXrX@ 7 b m e.).Z.N.J - - 4 ",
"3 2 3 3 y y S K.] 0 i x v Z G A h.H.F.W.E.N.bXNXrXW [ u C Z 0.0.D C z w 2 + 1 7 p C V.<X/ q v N b.m.VX.X@ u b M M.SXAXf.q.y ; 3 ",
"> 2 i 6 6 i 0.3X_ 0 x v Z Z G O.h.H.F.T.E.I.xXyX! n [ m m A +.q.q.J G C l + . % % d.I./ 5.] d D c.m.vX X0 p i Z Y.CXyX6XM.0.l 3 ",
"] Y & 8 8 v 2.|.8 k x x C V +.M M.Q.T.E.m.6XlXoXt [ p C C Z A e.w.e.q.q.N & O % v S $.P h U.3X@.h.c.pXT % u 6 0.SX.Xl 3.5.k.0.G ",
"<X$Xo , E ..+X^ W w y x N O.+.S Y.T.Q.Y.x.vXyX6 p p i C C Z D e.h.k.M.e.w.v O + 4 a _ , z l.T.mX5.9X=X# 7 y t x.3.$ A S >.3.r.0.",
"+X&X~ 1 W 2.$X~ _ q 6 u n N S L.!.F.F.L.6.xX.X& p i z C v Z Z q.k.k.k.N.r.e.D t ` #X^ X 5 n.G.G.MXkX] # 7 t v <.E t N %.w.r.3.2X",
"V 2.|.I u +X&X~ ( < u i m F v.P.D.C.Y.c.6XdXY 7 i x x v C C x 0.N.N.N.N.B.N.r.q.%.*XL o 2 j.~.H.Z.VX/ @ 5 5 H #.> i B K g.l.k.4.",
"h.H 3.^ r -X&X^ XX< R { ..e.w.y.V.V.K.r.vX=XX u y x x x v C C G N.N.B.C.B.B.n.r.d.2.L + t g.).Q.G.U.oX# 5 v r.W - k N H l.N.z.l.",
"v.x.*. .( +XeX$X|.U R [ M %.-.y.b.J.u.6.hX XX 6 t y x v x Z Z Z M.B.B.C.C.C.V.v.d.5.P - b %.;.v.n.b.` $ 5 d.:.= t b m Z q.N.B.B.",
"B.b.y.r.OX%XeXeX&XT R { ..%.-.<.i.i.=.pXsXU > < y i l x C C Z Z r.C.D.(.F.G.C.B.l.6.|.% u b A =.-.<.Y $ Z ,.Y % i z x C Z q.N.B.",
"q.C.C.t.e. .%XeXaXXXT ! } X.&.=.7.$.<XkXaXU : 6 y y k l v C C K C.).).F.).Q.E.V.n.6.rX}.@ y m B C o.7 4 F } : 3 y i x C C Z G D ",
"F.Q.C.y.t.+.M +XsXdX.X! ! Q o.#.A 8XkXyX&X#X= 6 i t y z v Z V v.).).).)._.~.S.S.n.6.yXeX}.& y y l W 1 n *.> 3 6 i t x z v Z x q.",
"_.F.C.Y.t.t.e.M %XjXlXrX` W o.Z 8XgXdXU ( eXwX( 6 p z l x c =.Q.)._.`._.^.~.Q.S.l.6X=X_ ' _ @ t Q > 5 N B * 5 5 y z x x C y q.(.",
"_.Q.E.C.B.x.r.&...=XkXjXaX-X1XiXjXaX( $ 6 XXyXyX) E [ i N X.L.].[.[.{.`.`.H.E.Y.k.9X.X@ t } R R I 2 i Z 7 * 3 i y t l x k d.).[.",
"`.!.).C.B.B.v.r.*.m rXwXaXjXlXjXeX( o u i w oXsXsX) E W [ ..F F.[.{.`./.Q.Q.C.u.r.vX+X& p k | P - 3 q e < > 3 6 u t l c w.E.F.~.",
"E.).).D.D.A.n.r.r.%.+XX -XgXsX%X> O 8 r i i a  .aXdXXX8 E m n B _.{.`.!.Q.Y.C.u.6.uX` r i N S 3.XX#X=X*XP + < 6 E l x &.:.r.F._.",
"_.).).).F.D.V.v.r.>.1XX -XeX~ X : , u y l Z A f 2.yXfX-X6 W n B r.`.T.T.V.V.I.q.8X%Xq p i D H r.:.2.-XeXwX~ O 6 E u 5 E l N D.~.",
"C.).).).(.).C.B.n.r.OXX -X}.X , , u t l v Z G %.S G <XfX.X5 [ ..>.P.I.L.J.6.*.4XwX` i u N A e.F.;.D j | =XwX^ + E < < y y b n.B.",
")._.].].).).Y.C.n.k.1X^ wX~ O = ; r y v x l K e.g.g.a.6XaX_ 3 W #.u.1.=.@.#.3XrX' r i N Z G A.~.>.=.=.D { oX$X~ - 8 6 5 t y N N.",
").[.[._._.!.).F.V.d.7XgXeXL * = , < u u l l Z l.z.z.m.s.6X@XX X i #.#.:X,XuXyX] t M x Z A A._.!.*.e.r.w.+.V M ) U - 8 3 t y y l.",
")._.).Q.!._.F.C.V.e.7XeXwX) - I U [ E 8 p N k K A.H.Q.S.d.| |.' ` ] *XwX+X:XuXW i b Z Z B.[.[.T.A j.N.k.e.e.G A _ : < 8 4 5 y e.",
"S.S.E.T.H.H.Q.S.m.1.3X~ $X&XP , , 8 E 7 8 [ N l H._.Q.S.=.X.eXyX*X|.) 6 r a <X2Xa B N M._.`.{.1.G N.A.B.k.k.k.q.o.= 3 6 5 5 3 K ",
"m.V.L.Y.E.T.E.P.K.<.3.L I .X&XP 8 E E E 8 E { A ~.~.E.b.#.$X.X~ , 1 - u p f 9X<Xg *.e._.[._.W...J A.D.).S.A.V.x.O.* 2 3 6 5 5 *.",
"n.L.P.S.P.Y.m.L.c.r.3.L y w |.$X> < E E 8 E T X.y.c.c.F ] ~ o > 4 y 6 t b a 6X8Xh V.~.[.`.!.i.4 K )._.T.E.W.I.c.#.* 4 4 5 5 l ;.",
"c.c.L.u.L.b.L.c.c.<.1X= y A s .X%X( I 6 8 U R [ X.&.Z 2.~ 0 [ y t y y t b a mX8Xa.].[.[.!.I.o.$ 0.~.I.P.W.I.L.c.$.* 4 5 l 5 %.x.",
"c.c.6.y.b.c.J.c.y.,.oX- 1 *.K o.wX&X@XXXU > Y u n n } ~ w y u e k l k l m f mX,Xf.[.[.^.T.6.3 x t.u.L.L.K.J.J.K o., 5 5 l F ;.c.",
"1.1.6.c.y.y.1.6.>.4.^ @ - g.A.J .XY R |.wX#X}._ Q _ ~ % t y y t l k k k N f mX0Xf.{.{.R.6.7 t &.6.u.y.u.J.6.>.8XyXT 0 M *.;.<.1.",
",.6.1.1.,.,.,.1.,.OXY % 6 *.s.5.^ # w 9 #XaXtX}.P U % e t y t y l z v z N h mXVXN././.U...7 ..:.,.,.6.6.6.$.iXjXtXXXQ Z %.,.,.6.",
":.:.4.6.4.,.6.;.2X%X@ e s d  .$X1 2 y t [ wX#X  > % 4 4 y t z x x x v C B h MX,Xf.{.U.7.! 9 y #.$.$.$.4.O.uXjX$X  o.4XOX| X.@.:.",
"3.3.$.$.4.4.#.@.iXsX` ! `  X#X^ # 5 l A S %X.X  , ; 2 r r t b b z v C Z F h MX,Xf.W.K.K.vXwX<XOX} } o.X.uXjXrXX : c l.U.6X:X1X3.",
"uXtXrX>X1X2.4XiXjXsX&X}.) Q V $.E d x N p }.|.~ * < < < & u p x x C C D F a.VXpXs.m.K.x.VXjXgXgX*X8 } uXgXwX- 1 : l n.A.N.U.9X<X",
"6.7.vXgXlXlXjXkXaX/ = - X K n.;.` U 1 6 6 $ 2 ^ ^ > < U E p y l v v Z G 0.A.CX9X9.P.U.n.0X-X` .X=X%X=XlXwXX 3 3 5 y B.Q.W.S.A.J.",
"b.h.e.iXgXsXaX=XP O 6 3 y r.g.4.^ 2 3 t t l 5 - }.|.( > I r q z x B F *.s.SXhX<.S.U.K.c.3X, s s r | A 0X^ @ 6 6 5 % z.L.V._.!.E.",
"Y.L.g.6X@XY Y ; 3 < 3 2 Z h.g.3.6 t i l k b n n l .XeX*XXX) _ { i a f 0.5XxXmXZ.W.K.c.6.:X1 7 b m c j qX^ # 3 5 k z =.r.;.Q.].Q.",
"Q.V.n.K.OX$ 6 6 8 3 t 2 H z.c.` q i y t M X.+.,.*.O.wX&X$X|.|.@X%X*X-XuXfX8Xl.I.K.1.K 3X/ 0 b m N ..k.VX^ @ t k k +.@.%.D Q.{.~.",
"Q.Q.V.v.1XI 6 i 6 r t 2 -.A.J.Y 0 p b X.X.S V.1.*.| }.    * , Y ) .X&XwX3Xr.K.7.1.4.pX#X# b N N X.d.AXkX] # y z A +.C G Z Q.[.].",
"Q.Q.D.N.3XP 9 6 6 y t & l.D.5.8 i p M B c n.L.:.A / L X = , ; & o @ @ g 5X6X6.<.9XNXtX% l m N B M.AX0XCXrX9 i n ..z C G A F.].].",
"_.Q.Y.N.5X@XR & 3 y k v s.6.` 0 M n v z h.m.:.&.v  X~ X > ; 1 ; 3 6 3 B /.SX7X0XkXjX*XX 7 v K A._.9XD ZXfXQ 0 p x v D D F V.)._.",
"`.!.Y.m.r.;XwX$XY w M o.4XOX6 k b ..c *.t.,.>.&.d OX}.X , > ; 3 2 2 5 b m.I.zXfX-X` #X* 3 3 g.(.ZX}.V f.VX.X0 p l v v D g.N.B.H.",
"`.!.Q.m.x.o.}.=X&XoXoX2XiX#X# b x M &.,.<.:.@.X.a .X&X  I > : r 3 2 5 5 >.mXiX) @ 3 |.I 2 1 M N.qX X0 l.mX#X@ [ l x x v Z l.'.[.",
"/.Q.Y.V.x.M + U ! { X.8.6X%X@ 5 Z &.,.<.=.@.B M ! %XeX}.X 6 6 3 5 t y n &.2X X# 8 8 }.= 3 3 M 1.CX#Xo %.5X=X; 7 p x l N N N _.{.",
"!.Q.V.V.t.A ; t a d D S ZX#XX M =.r.-.=.A m M Q L Y wXyXXXo < 3 5 l l o.2.OX% E $ U |.> 6 3 M 5XhX&XO ..o.tX X@ W l l m Z v v.^.",
"E.E.V.V.v.A 4 y m B D j.P.-X= b =.&.=.D 2.) W u % @ ( eXsX*X$ 4 l l +.#.1X_ $ 7 > XX&XI + E C 9X3X>X^ k 4 .XyX' 5 [ n n M N n.^.",
"E.V.V.c.r.Z 2 y v C G S.k.2XP y &.&.N 3.}.E e t 5 i e } <XfXwX& d d ..2X*X- 2 , L |.wX%XU @ 5.iX| B 7XY + o >XhX#X{ [ M M M c.P.",
"P.B.b.t.e.m y x C x k.E.l.5.}.e @.B :X|.$ k z y i t l V g 5.nX*X} 3X=X*X*XXXY = ; = |.eXaXuXlXsX+ c h.5X= l s.p.zXXXQ X...B x.b.",
"t.t.<.=.+.t z v x q.H.S.n.<.+XE d 1X|.@ b k t v b z v A h.Z.AXlXlXtX3Xj 2X|.L 3 5 y 5  XtXgXkXhX. %.A.W.2.J ,.j.VXwXW | Q o.>.<.",
">.>.-.o.I w x v G ).F.C.m.w.3X$X+X%X$ y y t t B n z Z D j.^.U.xX<XG j %.M ; 2 6 y b m V @.2.<XfX~ d S.W.4XN :.r.bXfX.XR } { o.O.",
"Z g ..! $ l C C q.).F.D.m.<.$.aXtXY # i t t c A m v D K g.6.U.<XZ J %.w.Z : 6 y m N N A H S V dX.Xs n.W.2XN Z 4XlXkXlX$X6 t i M ",
"` +X+X% t l C Z G F._.C.I.j.2X&XrX6 y y t t x M l N A H c.E.U.:XD K H r.F ; y l Z N D D -.=.h 8X=X# z.U.3Xd 3XcXNXkXjXfX=X) R Q ",
"+X=X*X% y m Z G 0.F._.W.m.i.>Xi &X! $ 5 t t i v C N F n.~.H.R.2XS F -.h.N - 5 N Z N D G q.r.w.6.tX, d.P.iXxXNXkXiX>XOX-X*X%X$X.X",
"v g 2X_ q b Z w.q.B.].!.V.9X3.g rXoX# y t t x z v G Z.)._.~.AXOXg *.h.-.l 2 l l m Z H -.;.t.r.s.9X&X:.x.xXNXlX>X{ [ [ y t i ..[ ",
"H q.6.OX0 N G e.k.N.`.^./.bX:.h iX-X0 i t y i C S j.).`.[.~.U.7X2.A F M 4 l v S j v +.&.*.w.w.h.q.7.6XvXNXkX X# W { W ....X.+.B ",
"w.h.d.3X` M K k.N._.{.`.H.bX8Xe.xXrX9 p i u p n w.).[.[.`.W.K.zXsX=X] 8 4 m H i.9X| X.A H -.w.h.<.d.j.U.VX=XX W E E ..B %.H -.w."
};
