/* XPM */
static char *result[] = {
/* columns rows colors chars-per-pixel */
"64 64 213 2 ",
"   c #0E1717",
".  c #001B1E",
"X  c #1C1211",
"o  c #141C1C",
"O  c #1D1C1C",
"+  c #2C100E",
"@  c #34130F",
"#  c #3E150E",
"$  c #241615",
"%  c #2C1513",
"&  c #2B1817",
"*  c #29171B",
"=  c #241D1C",
"-  c #2A1D1C",
";  c #331613",
":  c #3B1612",
">  c #351916",
",  c #3B1915",
"<  c #341D1B",
"1  c #3B1D19",
"2  c #1D201F",
"3  c #25201F",
"4  c #2C211F",
"5  c #34211E",
"6  c #3C211E",
"7  c #000F22",
"8  c #001D23",
"9  c #001E28",
"0  c #1A1B21",
"q  c #241F20",
"w  c #002324",
"e  c #0D2323",
"r  c #092927",
"t  c #00242A",
"y  c #002A2C",
"u  c #0E2B2A",
"i  c #152222",
"p  c #1C2323",
"a  c #1E2827",
"s  c #172828",
"d  c #142A2A",
"f  c #1B2B2B",
"g  c #1F312F",
"h  c #002D35",
"j  c #002E39",
"k  c #003234",
"l  c #05363B",
"z  c #1C3234",
"x  c #242323",
"c  c #2C2423",
"v  c #252827",
"b  c #2C2827",
"n  c #222728",
"m  c #242B2A",
"M  c #2C2B2A",
"N  c #312524",
"B  c #3B2522",
"V  c #332927",
"C  c #3B2926",
"Z  c #352C2A",
"A  c #392E2C",
"S  c #2F312F",
"D  c #34302E",
"F  c #3B312E",
"G  c #212D30",
"H  c #263332",
"J  c #2C3331",
"K  c #353231",
"L  c #3D3331",
"P  c #383A38",
"I  c #393A3A",
"U  c #41150F",
"Y  c #4C160F",
"T  c #4C180E",
"R  c #59190D",
"E  c #431612",
"W  c #4B1712",
"Q  c #441B14",
"!  c #4C1C14",
"~  c #431E19",
"^  c #4B1E1A",
"/  c #561511",
"(  c #531D14",
")  c #5B1C12",
"_  c #521D19",
"`  c #5A1C1C",
"'  c #631D0F",
"]  c #691A0D",
"[  c #741E0F",
"{  c #631E13",
"}  c #6D1D14",
"|  c #651E1B",
" . c #7F1D12",
".. c #741C19",
"X. c #4D2017",
"o. c #44221D",
"O. c #4B221C",
"+. c #542016",
"@. c #5B2216",
"#. c #53231B",
"$. c #5B241B",
"%. c #55291F",
"&. c #5C281D",
"*. c #77220F",
"=. c #632315",
"-. c #6B2416",
";. c #672817",
":. c #632519",
">. c #6B261A",
",. c #65291B",
"<. c #6C2A1B",
"1. c #722515",
"2. c #7C2415",
"3. c #722916",
"4. c #7E2A17",
"5. c #73261A",
"6. c #7A2519",
"7. c #722C1B",
"8. c #7B2B1B",
"9. c #76311F",
"0. c #7D311E",
"q. c #442621",
"w. c #4A2521",
"e. c #432925",
"r. c #422D2A",
"t. c #4B2B28",
"y. c #532625",
"u. c #522923",
"i. c #5D2B21",
"p. c #41312E",
"a. c #513028",
"s. c #472E34",
"d. c #413633",
"f. c #423836",
"g. c #493936",
"h. c #573531",
"j. c #5B3532",
"k. c #6B2720",
"l. c #632B22",
"z. c #6C2D22",
"x. c #752A22",
"c. c #73362C",
"v. c #653C31",
"b. c #9F1C0F",
"n. c #821712",
"m. c #831C14",
"M. c #88230F",
"N. c #812413",
"B. c #892517",
"V. c #832A16",
"C. c #8B2B14",
"Z. c #852E1A",
"A. c #8C2C19",
"S. c #942C14",
"D. c #9C2B14",
"F. c #922D1B",
"G. c #9B2D1A",
"H. c #84311A",
"J. c #8B321B",
"K. c #9D3316",
"L. c #94321B",
"P. c #9C331C",
"I. c #B7370C",
"U. c #A22D12",
"Y. c #AC2D12",
"T. c #B02F15",
"R. c #AF3212",
"E. c #A73916",
"W. c #A4341A",
"Q. c #AB3919",
"!. c #B23213",
"~. c #B93917",
"^. c #B23419",
"/. c #B43D1A",
"(. c #9A2F20",
"). c #9B3C26",
"_. c #A83422",
"`. c #CA2C06",
"'. c #C2310D",
"]. c #C23B0F",
"[. c #CB390D",
"{. c #D5350F",
"}. c #D9390C",
"|. c #C53712",
" X c #CA3B15",
".X c #D73B12",
"XX c #E13E14",
"oX c #A44718",
"OX c #BA4416",
"+X c #B5411C",
"@X c #8A4026",
"#X c #A4532C",
"$X c #CD520C",
"%X c #C74417",
"&X c #DC4417",
"*X c #D54B16",
"=X c #D65417",
"-X c #E3430C",
";X c #EF4A0A",
":X c #FC4908",
">X c #F3560B",
",X c #F25B0A",
"<X c #FA5A0B",
"1X c #EA5311",
"2X c #ED5C12",
"3X c #FA5714",
"4X c #FF640A",
"5X c #FE690A",
"6X c #FF770A",
"7X c #EA6412",
"8X c #F86815",
"9X c #C24E20",
"0X c #C35622",
/* pixels */
"+.% > T T = x N N V F F A Z V N V Z F c & Z Z M o.1.7.=.C m o.X.v A Z Z Z Z - ! ! ! o.b V c c 1 T Q c L L L F F F F F C c c < @.",
";.$.@.O.x c N Z N V F F A Z N c N c V 3 ; > 5 Q ) e.m V 5 6 =.;.X.V Z A A V 6 ( 1 c c Z Z V b c = @ % D g.L F F F F F c N = X.<.",
"<.,.;.X.c V Z Z V V F F A Z V c V x 3 < 3 x a #.O.M d.L m O.<.O.#.#.e M v : ! ) 4 Z Z L D Z Z Z b 3 X & c Z L L F F V N c 4 :.<.",
";.+.X.X., - Z Z c N A Z F A c = & ! +.( ~ < 1 X.~ c A L c @.$.v V A.S.o.Q 6 b o.^ m A I F Z A Z Z V 3 $ # > V L L D c 4 O o.;.,.",
"X.c m c 4 & & 4 c c Z A L Z 4 ~ !.R.p o.+.q.C Z c $ $ 3 o.=.6 D M l. XG.V D F c ! V L L F L F A D Z c = ( ( : $ & & - - 5 @.$.$.",
"3 D F Z V M x % ~ c V F Z Z 2 6.-X8.h B B M L f.L b = : @.+.c D K r K.F.d F D 4 ( Z L L L L F F F F 4 - =.-.~ O = O & ! ( Q 6 6 ",
"b Z L L Z F L n ! +.c F A C b u.F.C D N V F d.g.d.F V 4 ! X.b D v ,.J.:.f Z c 5 O.K L f.L L L F F F 3 Q =.V.$.p 4 x 6 @.Q 2 4 x ",
"Z D d.d.L D K Z 5 -.B Z m 8 8 7 7.l.f N Z D d.F c Z F b , 6 v x @.3.:.X.o.b p ~ C F F f.L L F L d.Z 4 % x O.-.:.=.! X.@.6 c Z D ",
"Z A d.L A d.L A 3 1.| 7 i.J.OX$X/.:.%.c A Z A Z Z Z Z c : 1 = Q $.C M m 6 ! ! o.D F F d.d.F F L V c & = M p +.5.+.- - 1 1 M Z Z ",
"Z L d.L L d.d.A 2 ,. X2X7X*X0X#Xh.m =.q.M A Z Z A L Z > , Q Q 6 S K d.A v 4 ) 6 D F F d.d.F d.Z - c % = V b o.@.4 M b = > V F Z ",
"A L f.L d.d.f.A w 8.:X/.h.j j j P Z o.O.x A A c Z Z - : > Q c M L L F L V x ! +.3 V Z F Z A Z 4 x 1 1 b Z x X.o.m A Z x & 5 Z F ",
"F d.d.f.d.d.d.B w >.{.j P g.g.g.L Z M #.N x c O 2 0 > & : - b A L F F F V x > 1.=.$ = & - 4 3 - o.) 1 x b > X.b Z F d.c = : c Z ",
"F F F d.f.d.N N 4 = } A L L L f.Z C D o.+.1 1 ^ ^ ! ( Q > x Z A L A A Z Z c 4 ) +.: @ O = & ! ( ) ;.@.O.1 ! c D L f.L N 3 : - b ",
"C N N c Z N q q - , W ! J F F F Z F Z x @.>.-.-.=.! ~ ! = V Z A A Z Z Z Z N 4 : 3 n Q , 2 6 ( 5 x #.;.;.+.b L L L L f.Z x < < b ",
"5 Z Z N 4 c c = 4 : % R O.D F Z Z Z Z x +.:.N ( ( x p ; 4 V Z V Z Z Z Z Z c $ - b b 4 +.X.+.< i x B ,.,.o.Z f.d.f.f.f.Z c = ; - ",
"- V N N N N < 4 > : p - R Q b Z Z V M B { C f , 6 c c O & 4 4 = - Z V N - = % c c x > X.O.@.! 6 N x w.,.o.b d.f.f.L F F Z b = % ",
"@ & * 4 e . 8 - T 4 c b c Y E N N < < ) ^ m b > N V N c $ $ = 3 3 4 Z c = & : * = > N Z M O.:.,.<.o.N -.O.O V Z A Z Z Z Z N 4 % ",
"$ $ ; O @.Z.=. .{ x Z Z V x 1 ( W 6 b 6 ( B c ^ 5 v v p < W U ; & $ & = > E , & c Z Z d.Z 1 @.,.<.<.,.<.#.3 4 N c c c c N Z c % ",
"3 3 - o n.-X:X}.` v A Z Z Z 2 ! ( Z Z m q.=.$.+.R +.#.&.=.5 - & $ $ $ : ( ~ = b L A A Z b > > 1 ;.8.).P._ w N q Z N N V Z b 4 % ",
"c c b c 8 W S.2.N Z L Z F Z 3 o.=.M S b ! @.O.6 V o.<.8.3.N b V b b 2 ~ ! & x Z A Z L N c > q x N %.C.XX&X` p 5 N e.C V w O U - ",
"c c b c c =   O Z K A L V N x q.5.O.= 1 B V M J F J o.V.4.w.Z A Z c 2 X.( = c A Z Z Z c - ; c V V M d ..>X].8 B O . 8 c =.] ] O ",
"N v b 4 > , Z D L A L A Z Z b O.<.o.c Z Z Z F L F Z p -.!.2.d A c N v o.$.= N A Z V N c - + c V Z F p.8 OX*X* w _ S.I.[.U.O.#./ ",
"W ^ o.T 6 V Z F L L L L Z A x @.=.b D A A L L L D V b c L.[.<.u Z F D q.) = N A Z V c - : $ c A F L d.t E.&X6.A.].%X(.u.y m p q.",
"d 5.N.V Z F Z Z Z Z L L Z w O :.%.D L L L d.L L F Z b b o K.K.y p.F Z 6 >.~ x A V N c - E O c A Z Z F y 8.3X&XG.s.t y S L Z V b ",
"m l.D.y r.Z A Z F F d.a 6 { =.<.O.D d.F d.f.F F F V V Z x #.5.C D Z x o.3.N.6 n c c - ! W & c A Z V Z a 5.3XXXt D p.d.F Z Z Z Z ",
"m &.D.x A Z Z Z Z F d | '.N.$.:.@.x F F L d.L F A Z A Z b #.3.#.x c 4 ! 5 2.M.X.B O.W ~ > & V A A r.A B 1. X(.k g.d.f.Z L L L Z ",
"m :.V.B M Z C A r.Z B `.U.t b 3 1 > b F d.L L L Z Z A F b o.O.O.X.o.Q c m a :.8.3.;.N c V c 8 8 8 w w +.C.C.$.M F f.F F L L L f.",
"x $.6.&.e.q w 8 t y  .`.5 Z Z N 3 ; 4 D L d.F Z Z Z Z Z c Q c m 6 @.O.M F F m Z ,.1.5 t 8 0 | V.D.Y.'.!.4.w.$.c V F F L F d.F Z ",
"x #.:.G.1X,X{.+XL...b.2.t F Z Z b - & b L F D F Z Z Z c 5 ( N Z M %.O.S F F p.F b :.5.G.%X1X7X=X;X5X6X;Xy.f o.6 c V d.f.d.F V q ",
"c ! , &.P._._.*X<X5X2X} m F Z Z Z c X $ D F F F V Z c c o.=.x b m o.O.D Z Z F F V c <./.9X@Xv.z G j.c.k.q L c Q N V Z A Z V N N ",
"5 # x n y k l l s.OX3X6.v L F Z Z Z = $ & c V V C Z - p O.5.6 x > ! T b D D Z A Z c =.O.t l I g.d.P z r = N M > ^ c N c N c N 5 ",
"> % M Z A r.p.d.I h |.G.- F D Z Z c $ ; & $ c Z Z c = - :.7.:.+.X.C 5 6 6 5 c c a _ -.%.A g.f.L L g.F Z N q V = ( > O - & < q q ",
"; = Z Z L Z F Z A z x. .o - N Z Z c & ! x x % < 5 - > -.,.,.:.o.M D D F C =.@.@.:.<.5.%.M f.f.L I F V L D = N c > ) , = = O O & ",
"> b A A Z F F L p.u  .$.d c = b m 8 O.;.N a < Q - N q ^ @.#.B M F F d.P M 6 <.3.x.H.H.@.M f.f.L L F D Z D c = O 1 ( Q : % : W T ",
"- c Z A F A D A F p N.| s b - ^ $.V.6.<.$.B #.Q p n = , N M M L L L L L F x w.<.<.&.e.1 F f.F L f.L A V 4 4 & U o.D c c c x 5 ( ",
", 3 b Z F A A A Z o.} ] ~ 1 ' 1./.).r.r.$.:.:.@.~ 5 1 c Z Z L f.L f.L L D Z n #.#.m M q N d.g.d.L A c c 4 O ; , c L L F D Z x < ",
"W ! : 5 N Z M Z f @.=.^ C V w.>.Z k F L M ~ q.B q.! ~ m A L L f.f.L d.d.Z Z V 5 Q M Z c $ 4 A Z c - - - = * @ c D L L L Z F Z x ",
"+.2.=.& - : ^ B -.*.N M Z m w.O.M F Z F V O x M x q > c L L L L L d.g.F V V D c , 5 V c * & q - - c c q = ; & Z F L L F F p.Z c ",
"( M.O.M F A y.( 6.H.> M n B :.$.b Z Z Z c & > q c o % & V f.f.L L f.F Z Z Z F c > E c c = @ x - - q & & ; % V d.L L L L L L Z N ",
"^ , a D L D M J f o.` B :.5.7.5.6 Z Z Z c - Q O < , E : c d.L L L L Z Z Z F F N < ! > < < : , - & $ $ > ; 3 F L L d.L L L L V V ",
"~ ; = V L d.d.F F x &.L.F.p.D z.<.N b c c 4 =.M.) ~ , > % b V A L F Z F F F Z x 1 Q w 9 8 8 / E = 3 O & - V d.F F d.d.d.A A Z V ",
", + X - Z Z Z Z Z w Z..Xa.k C 8.H.3.o.3 x 5 +.,.c b x q % % O = c Z N Z F F N 4 = S.^.Q.W. .;.< 3 3 c 3 b A d.F F F d.A A A Z Z ",
"% O X $ - - q N 5 w 6.P.i.k.=.z.x.0.9.;.#.X.Z H K Z Z c O % ; $ = = 4 - 4 4 4 4 & -.F./.8X8XB.B c b c 4 Z Z d.F F F Z Z Z A Z N ",
"$ = = X - q 5 q c c #.9.8.z.K G z.0.9.9.,.o.L F L Z Z Z c O @ # % = - 5 4 4 c 4 % w t t w.P.2.o.s A 4 Z Z A p.A F F A A C V V q ",
"= c c = % > - N 5 o.;.&.V H F D Z z.9.3.:.o.L L L L A Z Z = < : @ + 3 3 5 4 3 $ = c A r.m 9 O.K.u.x b V Z A Z A A Z V Z N N c - ",
"$ x c c < / Q < X.;.$.V F F F F D o.<.<.:.O.K L A d.A N V c & % o - # < 3 2 < : q Z F D A e.8 !.E.8 C Z Z Z A A A Z N N c q = @ ",
"= * = x 1 ( b b x #.#.M F F F F F M o.$.@.+.N c A A V V V c ; X c c 5 ' +.#.@.5 b Z L F Z Z m w.m.N m A Z Z Z A A V N c - = ; $ ",
"c c c p O.) b Z c o.;.C D F F F A F b , 4 , 6 x c V V V M 5 + O V V p =.3.3.6.O.M F L L A Z V p @.=.x N V N N C V N N c x * % = ",
"V Z Z b o.) b V x O.<.=.V F d.F F F Z O 3 3 T - 2 3 V Z c ; $ c V c < #.:.8.T.w.m d.d.f.L Z V V c =.#.p N V 4 V 5 4 5 c 4 $ 3 N ",
"Z V b b 6 =.! b 5 $.<.<.#.M Z V M Z c < b b 6 ' ! 5 = 4 - ; = = $ = c p q Z...s A L f.L L A D N c N ;.o.b V V V V V V 4 3 % 4 V ",
"Z Z Z b 6 :.=.( +.$.:.<.@.; $ @ : o.+.O.b Z p @.*.=.! > , : % , , c B 0 _ $.t Z V L f.L L A F Z V x +.-.5 c 4 4 5 V 4 4 4 U 3 Z ",
"Z Z D v O.>.$.C Z V N @.O.v N N +.<.3.&.m M 5 -.1.X.1 1 < = p X.>.p . ~ ) b Z A Z F d.f.L A A Z V c c >.=.3 N 5 b 5 4 3 < +.> V ",
"% 5 5 < $.;.^ m F D S #.e.M F M N 3.9.<.t.O.N.C.6 S D D M V x 5 1._ G.2.C M A Z F L d.d.L F A A b V c Z =.) 8 w n c 3 3 +.@.U & ",
"= ; ! @.:.@.q c Z F F o.O.S Z i u.8.8.8.3.J.!.5.r F L d.F D Z 8 D.{.:XB.t F A V Z L F Z V F F Z Z V N p q.8.V.H.#.6 5 #.@.5 3 4 ",
"V p o.@.+.Q m c Z F F V O.V c O.7.3.&.u.9.W.R.N M p.d.L L D p.8 oX4X:Xk.f L A Z c N V 5 4 N A Z c 4 4 = +.F.E.J.$.:.;.<.O.g F D ",
"c 3 ! X.x 5 ~ x 5 F Z b #.;.,.9.9.&.M v &.8.4.C M F F d.F F F D Z 1X;X6 D L A Z c - - p N 4 4 N - 4 c < 2.:.y h m V C &.;.5 V Z ",
"O T ~ M L M o.@.! V D N :.9.9.9.<.M L S o.5 r 5 c A d.p.F F F r.. ~.}.. Z p.F Z M x 1 { 3 N N 4 4 4 o $.C.b F d.Z Z D Z ;.$.N b ",
"T 1 Z L L L x $.;.> c ~ ;.<.9.9.&.S L Z 6 F Z 3 N V Z A F Z Z N . Y.G.8 N Z Z Z V N 2 R / 2 c 3 - = 6 -.@.m F F F Z F M O.3.@.6 ",
"B D L L L f.L w ~.|.) Z Z e.&.,.<.O.H b &.A Z c 4 c V A A A N x < [ { p 4 Z Z Z Z V M 2 E : < ; , ( $.@.b Z F L L D F V 3 :.<.@.",
"F L L L L L r.w J..X#.J d.K D Z e.@.#.i.3.%.a 4 5 c N V Z V N 3 :   % < x N A A F D V N O = ( 1 c $.<.O.Z Z F f.L Z Z Z x 6 ;.O.",
"F d.F F A Z A b - S.C K F L d.F D 4 ;.9.9.<.&.:.@.c N V Z N x , % b = > > x N Z V c 4 4 p ~ +.m b 2.-.M F F L L F F Z F N 3 Q e.",
"c c 4 4 c N c x Q - M L d.d.F Z F M 5 @.#.w.i.&.-.X.0 i i c 1 E x b c 3 ( W q c 5 c c x ~ { %.O 2.2.b K L F F L d.F Z D V 4 = , ",
"& 4 N 4 N = - : > V A L f.L Z Z Z F b 6 c J D M w.2.<.:.-./ { 1 c V c b x , : * 3 c 3 E / X.2.%XE.3 M L L f.L L L F F F c 4 3 % ",
"T 3 4 c q : , - q Z Z L L Z Z A F F Z c & D F F M 8.J.K.k.c ~ 6 b Z V V V p & T : > : 1 3 e ` Q.4.0 Z L f.d.L d.d.F F F 4 4 3 Q "
};
