/* XPM */
static char *result[] = {
/* columns rows colors chars-per-pixel */
"64 64 255 2 ",
"   c #00001E",
".  c #0D141D",
"X  c #260A1B",
"o  c #3D0A19",
"O  c #2A141E",
"+  c #33141D",
"@  c #3B131C",
"#  c #2A201D",
"$  c #000023",
"%  c #020429",
"&  c #011928",
"*  c #16122B",
"=  c #181A28",
"-  c #000339",
";  c #021937",
":  c #280523",
">  c #340B2F",
",  c #271825",
"<  c #2B1A25",
"1  c #2C1D2B",
"2  c #341523",
"3  c #3C1522",
"4  c #3A1727",
"5  c #341A24",
"6  c #331D2B",
"7  c #3B1C2C",
"8  c #381E32",
"9  c #08232D",
"0  c #002234",
"q  c #00253B",
"w  c #012A3E",
"e  c #182639",
"r  c #2C212D",
"t  c #362229",
"y  c #2D2333",
"u  c #2D263A",
"i  c #24283A",
"p  c #2E2A3D",
"a  c #332434",
"s  c #3B2234",
"d  c #332639",
"f  c #3C2738",
"g  c #332A3C",
"h  c #3A2A3D",
"j  c #56080F",
"k  c #490817",
"l  c #440F1A",
"z  c #4C0D1A",
"x  c #580717",
"c  c #5B0B14",
"v  c #540D1A",
"b  c #47171B",
"n  c #44131C",
"m  c #4B121C",
"M  c #53121D",
"N  c #5C141A",
"B  c #6A080D",
"V  c #78080D",
"C  c #79180F",
"Z  c #630B14",
"A  c #6C0C13",
"S  c #670918",
"D  c #760817",
"F  c #7B0C13",
"G  c #671419",
"H  c #751219",
"J  c #7C121D",
"K  c #592317",
"L  c #793218",
"P  c #570127",
"I  c #441422",
"U  c #4C1423",
"Y  c #491927",
"T  c #431B2A",
"R  c #581726",
"E  c #530135",
"W  c #471B32",
"Q  c #5A1C32",
"!  c #7A0626",
"~  c #70012E",
"^  c #681724",
"/  c #631C2C",
"(  c #6C1B2B",
")  c #731523",
"_  c #7B1424",
"`  c #731827",
"'  c #7C1A26",
"]  c #731A2B",
"[  c #7A1B2B",
"{  c #671E32",
"}  c #751D31",
"|  c #4C272D",
" . c #452638",
".. c #5A2334",
"X. c #56273A",
"o. c #6B2B2C",
"O. c #762329",
"+. c #672639",
"@. c #772537",
"#. c #644A1C",
"$. c #6E4C2E",
"%. c #070F47",
"&. c #2E0D42",
"*. c #042947",
"=. c #012D44",
"-. c #1A2B44",
";. c #043449",
":. c #00334C",
">. c #18344C",
",. c #003651",
"<. c #033951",
"1. c #153252",
"2. c #242E46",
"3. c #2C2C43",
"4. c #332E42",
"5. c #3B2D42",
"6. c #35264A",
"7. c #263449",
"8. c #2C344C",
"9. c #333145",
"0. c #3B3245",
"q. c #34344B",
"w. c #3B354B",
"e. c #353A4B",
"r. c #283952",
"t. c #501349",
"y. c #710047",
"u. c #472D44",
"i. c #572D44",
"p. c #443449",
"a. c #573347",
"s. c #483551",
"d. c #672C43",
"f. c #762C42",
"g. c #653446",
"h. c #773446",
"j. c #1F4242",
"k. c #755E45",
"l. c #88070B",
"z. c #97090A",
"x. c #8C130D",
"c. c #98140D",
"v. c #880217",
"b. c #840C13",
"n. c #8B0B13",
"m. c #850D1A",
"M. c #8B0D1A",
"N. c #940113",
"B. c #940C14",
"V. c #9B0D14",
"C. c #990319",
"Z. c #930E19",
"A. c #881617",
"S. c #84131C",
"D. c #8C121C",
"F. c #981517",
"G. c #93131C",
"H. c #9C141C",
"J. c #A6090A",
"K. c #B6060A",
"L. c #A7130D",
"P. c #B4120D",
"I. c #BC130D",
"U. c #B71808",
"Y. c #A70417",
"T. c #A40D13",
"R. c #B60615",
"E. c #A31315",
"W. c #A91817",
"Q. c #A2131B",
"!. c #B21212",
"~. c #BA1312",
"^. c #B91A19",
"/. c #932816",
"(. c #B62409",
"). c #AC3A0E",
"_. c #A72518",
"`. c #B72817",
"'. c #880425",
"]. c #980323",
"[. c #841422",
"{. c #8A1523",
"}. c #8B1A23",
"|. c #851C28",
" X c #961A25",
".X c #8B0E37",
"XX c #B10A24",
"oX c #A71C25",
"OX c #87232A",
"+X c #842332",
"@X c #882737",
"#X c #962736",
"$X c #963233",
"%X c #A9252A",
"&X c #B62728",
"*X c #AB312B",
"=X c #A93A38",
"-X c #C7040A",
";X c #D60509",
":X c #C4140C",
">X c #C91808",
",X c #D61808",
"<X c #C70312",
"1X c #D60D13",
"2X c #C51814",
"3X c #E50D04",
"4X c #CB2707",
"5X c #DA2905",
"6X c #D73906",
"7X c #C82916",
"8X c #C93616",
"9X c #D03211",
"0X c #ED2D06",
"qX c #E63A07",
"wX c #C01A25",
"eX c #C92D27",
"rX c #934E16",
"tX c #B24B11",
"yX c #B0681A",
"uX c #914F33",
"iX c #AE4F2B",
"pX c #AF6A3A",
"aX c #D84808",
"sX c #D3500F",
"dX c #C74915",
"fX c #E94505",
"gX c #F84A01",
"hX c #EA5508",
"jX c #F75704",
"kX c #E75414",
"lX c #D36F11",
"zX c #F86705",
"xX c #EC710B",
"cX c #F87808",
"vX c #E87A16",
"bX c #D84E23",
"nX c #CA7029",
"mX c #881D43",
"MX c #8B3143",
"NX c #884B43",
"BX c #9C5742",
"VX c #A6892B",
"CX c #D38B12",
"ZX c #EC8D0F",
"AX c #FD8803",
"SX c #FA9606",
"DX c #DDA516",
"FX c #FDA805",
"GX c #F5AD0F",
"HX c #FDB605",
"JX c #DAAB25",
"KX c #FEC609",
"LX c #FFD906",
"PX c #FFC318",
"IX c #FFCB28",
/* pixels */
"x.N.J.aXSX;X^.I.Q.|.+X}.W.~.7 *.+Xz.M.m.A.Y.hXHXN.B V B B Z M U R S.V.N R Q ] Z.H.2X^ & g q.q.q.w.OXS.) H Y.gX_.& < r y 3.7.+XJ.",
"3XqXdXuXnXqX-XQ./ / Q / { [.` [ Q.H.n.n.F.Y.zXKX6XJ.c.B.l.b.b.B.V.G.Z.{.{.M.Z.{.Z.H & < y 3.q.q.8.w.|.F.<XAXyX$ 5 , = r p 9.7.`.",
"HXiX; *.%.pXAX<XQ. XM.` ( / ` M.X.u.g.D.V.W.2XxXgX3X>X:X!.R.T.V.M._ ) ^ ] _ Z.V.J.G O O < y g 9.w.8.+.-XzXCX$ 5 , = , r u 5.*.uX",
"DX% f 5.p.*.JXsX- 2.5.` ] ] M., 0 3.>.i.M.[._ C.C. XH.J.z.Z.n.b.m.` { ) m.S.} +.%XB + n @ 1 u g 0.w.3.2XdX$ 2 < , O , r y f q iX",
"L & a p 0.*.BXGX].[ |.n.7 8.@XV I W d -.[ V.V.S.y -.q.i. XN.b.B.^ i r.X.B.4 e *.$.).x c z m 4 d g 5.h H.x = O O O , , < 6 s > lX",
"  r r p 4.0.*.ZXhXv.H.J & 3.r.#Xz.n.b.G.H.:X%XY 2 6 d 2.4.oXP.x.& d 4.q.] z I 4 | lXv.A B Z M U W f ..G.n @ + O O O 2 5 3 o ).yX",
"+ O r p 3.5.:..X:X^ _ G = 4.q.q.a.g.d.@.oX4Xy 3.{ v 2 7 q $X>X  4 a g 3.o.V v N D SXtXV F A B A G ^ G !.Z j z l o n k z v D 4X@ ",
"O r r g g 0.9.a.7Xm.M.N = g 9.q.7.7.r.;.*XtX$ d 2.@.n.D x $XxXo b 4 7 r ] I.V.F.-XcXzXK.c.J.z.n.b.b.G.,XJ.b.B x x j j c Z :Xx.& ",
"@ 2 6 d g 0.w.X.9XT.V.M < a g 9.w.w.p.8 dXlX  | u 5. X} +X4XjXN.b.V F b.G.E.V.V. X'.7X0X^. X%X:XK.!.!.~.~.T.T.B.n.F b.n.~.P.. z ",
"k m 4 8 s f  .P zX8XoXF O T d g 0.5.5.W sXGXj I 4 a 4 -.,.#XC. .+.@.[ {.B.S.] { _ ' ].cXL ; >.OXL.H.Z.n.b.l.l.n.Z.B.T.I.1XP.V j ",
"b.F A S G _ v.sXCXW *.f.A.o 7 a d i / _.#XpX`.z.c.J.v , *.@.H.8 W W  .X.}.) e 7.w.#X3XSXrXP |  .N.v.Z.V.{.} ] J F J M.V.V.T.P.V.",
"T.T.T.L.!.I.0XsX9 & 5.*.iX(.N.b.b.T.4X^ ; %.s.h.MX$X XJ ` Q.,X%X X#X#XoXP.* 3 s 3.,.@X7X>X:X~.,XkX5X!.^ e 7.q.p.@.l.m.b.F F b.V.",
"l.F J S.[.H.W.  = t g -.d.8X@.@.g.$XoX. 4 t i =.,.,.f.P.L.S.e -.q.q.8.1.#Xz.z I T i _ C.+XQ.!.:XjXqXS O 2 a g 8.r.+.z.A.{. XB.l.",
"{.N.b.[.[.R.H & + r y 3. ./ 0 -.e :.| k 2 2 6 d 4.3.=.H.z.& < u 3.q.q.q.>.#XP.c.D ! L.+.,.d.F.] ! mXF c @ 1 y 9.w.<.@.Q -.u.i.} ",
"p.d.oX:X1XqXL X + O a i ..^.U I T 7 H.B.S N U z Y ( {.oX@XH l 2 u p 4.0.w.<.h.2XqXAXtX% 6.X.8 =.>.r.g.[.x 3 4 a h 3.i.J 1 d 3.7.",
"9.>.q..XxXKXT.O b + t u O.fXY.D.B.T.W.J.B.n.n.B.U.F.|.X.=.[ B v I T a 4.3. .{ XXkXSX4XN.B.^ e d 4.w.,.d.z.V S M Y W W ^.H 1 u p ",
"R | X...7XLXZXS K m Y I *XKXgX<XE.+.4.( F S ) Z.9X@ & e 0 o.V Z c N M M J  X@Xg.6.t.f.MX+.2.p 3.3.q.0.>.&X!.oXT.J.T.T.~.!.n.D R ",
"[ |.[ OXXXcXLX6XS N N S dXFX,XG.^ T  .W m.H H N.fXc.n.F H Q.P.T.T.x.v.L.|.u.:.>.q.r.:.:.>.9.q.3.4.q.9.u. Xd p.f.&X!..X{ X.@.@X|.",
"r.q.q.q.i.XXFXLXhXK.K.8XAXqXY.G.M.J S.M.M.m.v.8XAX,X}.+XoXT.V.H.L.:X0X_.& < d g q.w.w.w.e.8.9.9.q.9.8.+.W.< u ;.i.!.` ..w.1.>.r.",
"w.w.w.w.i.+XXXZXFXAXAXFXcXY.|.[._ _ {.M.G.Q.R.cXFXC.0 w X.b.M.[.{ ].zX).o n 5 r u 4.8.q.e.q.q.q.q.9.9.+.7Xk z Y ] 7XW 9.e.w.w.w.",
"e.w.q.w.p.u.} Y.XX`.bX`.].' _ _ _ [.] ( ( ( ].8X7X<X!.H.F.~.Q.= 3.*.BXqXl.c m + 1 y 3.4.q.q.q.e.9.0.9.O.jXU.G.! ).lX$ g q.q.q.e.",
"q.w.w.q.-.|.>X8X X! ~ ) }.G.D.[. X{._ ) ) ) / _ C.Z.] +.-.*X/.  3 7 ; eX>XV A v I 4 6 p 3.q.q.9.e.p.s *XAXM.p 5.w.nXx < g 9.q.q.",
"e.,.:.X.%X#XBXjX2XW.C.Q.[ d.@XE.R.<X{._ J U e 3.%Xx.& e % CXSXl.C V U #X,XP.c.V Z v I 6 g g q.q.0.p.P vXCX  T t ; uX).X W d 4.9.",
"> @X=X=Xh.r.,.=X;X1XhX}.=.r.r.@.aXAX;XW.E.O 7 e 3.%XK.F.R.ZXvXR.`.Z.u r.eX>XI.J.B.F G I 7 p 5.0.0.p.'.FXlX> X./ x uXlXl.Y 2 r ; ",
"sXiXh.r.,.w.s.,.=XHXCX$ p 9.0.<.MXkX~.^.,XF O 7 i 2.oX!.W.C.N.L.T.n 7 =.#X,X:X:XI.T.b.A M T d 5.p. .7XHXo.0 9.w.+.S vXgX-XL.J.`.",
"uX*.;.e.w.q.r.s.<.pXgX:X) W i 9.:.~ L.}.&X>Xj l T -.X.!.!.W.#XoXU.z M 6 @.>X2X>X:X>XU.V.F N U  . .'.ZXCX  t y i  .~ W.5X5X,XjXFX",
"$ t g 9.q.q.q.w.w.,.&X^.W.Q.].` X.OX[ >.7.f. XF z T q ^.<X6 =.=.*XK.v.c.Q.~.K.Z._.P.<X>XL.B.J ) }.1XAXrXz N R R G E.Q.+.i.'.zXVX",
"+ , r p q.q.q.q.w.e.+.) u.a.@. XP.B.& g q.:.s. XJ.D.v.sXaXx ^ Y OXjX5XOXd.f.&X>X;X1XqX1X:X~.Y.!.R.7XY.C.A.J ) _ 2X7X9 -.1.8 lXL ",
"@ + 5 r p 9.q.q.w.r.g.[.{  .3.:.@XH & d 3.0.8.w. XE.<XfXsX'.+...W.FXL & e w ;.eXKXKXzX<XH.D.{.{.D.{.{.G._ ` ( ! sXlX$ | u.%.lXL ",
"j l n 2 a p 4.0.w.s.+._ ] ( / +.^ l < 1 u 4.0.3.u.J ' N.v.Q X.E vXDX  t 6 g E CXLXvXXX|.[ [ _ [ [.[.' [ ( ( ] Y.AXGXo t t : CXrX",
"j c v v I 7 d h  .X.[ ] { Q Q / J c l 3 7 a h 5. .S.F.}.+X X].6XPXrX  5 6 & &XHXkXY.|.[.O.+.{ { [ [ [ ] ] ] [ Y.kXAX-XL.F.(.KXyX",
"V B B Z c R R ^ ] [.D._ ] ( ( ^ D.C c G N z U ^ G.Q.Y e -.q.6.pXxXx # + 5 > vXFX<XOX[ [ ] [ ] [ ' ( { { ( ( { ( '.Y.7X2X;XzXHX4X",
"U.J.V.z.z.n.m.m.m.[.[._ ' ' _ ) V.>XB Z G b.G.oX:XA , 3 8 8 -.-.-XN X + # S ZXSXC.O.] ( X.u.p.a.d.@.|.( { ( ] ] ' D.C.E.H.Y.<X:X",
"V.I.:X X XB.F J _ M.V.Q.C.Y.Y.^.7XeX`.U.K.E.W 8.@.z.l.B P U Y / 8XZ + @ # B.SXZXN.OXH s 2.8.e.8.r.w.#XQ.[ ] _ [ ].qX8XQ u.i.OXN.",
"B.V.R 0 :.@.B.n.] i.f.9XzXcXhX^.@.:.t.nXGXD & 1 8 oXoX#XH.J.V.!.qXB l l m R.FXkXC.L.z , a 9.9.e.w.e.r. X{.} O.{.<XHXrX$ y e 5.H.",
"R.T.S ^ R [ ~.V.& 2.<.y.HXKXS 0 ; a *.j.ZX,Xn.M.V.i.<.r.s.@X^.K.hX/.k K N.AXSXP 2.@.H z 6 p g q.q.0.r.d.Q.{ { ..+XiXL.C H R  .@.",
"i.s.f.V.Z.{.].G * a 0.%.nXFXK.A.S N R Y R.~.T.I.^ =.0.w.e.<.s.XXSXhXJ.K.hXFXL % r =.i.H z 8 d d 9.q.9.X.X.p.@X|./ E ` E.[.Q X.u ",
"i 2.r.{.m.{.E.B.A G / S 8XAX^.{.{.S.M.H.7XZ.n.H & a p 9.q.w.>.a.ZXgX3X0XzXtX$ 7 < r -.a.G l 4 y d i ../ >.r.w.@.} ' [.G.N m 2 1 ",
"I T u  XK. XQ } D.D.V.E.1XAXdXP | ../  XqXR.V.@ O r u g 4.q.w.<.y.-XW.+XwXj = O , , a >.d.b.v N R ) S.= g e.q.>.i.m.+.i.f.{ ) Z ",
"x.D D I.9X`.S._ _ _ }.Y.fXLXzX<XE.D.' Y.zX6XB @ b @ 7 y g 4.q.X.+.^.H q X.G O O O , r h :.&X4X%X&XbXG , f 9.0.e.u.V.4 %.Q  .i. X",
"%X0XqX_.=.h.2XV.[.}.N.qXGXVX$X$X#X%X2XjXKXdXk j c M n 5 s u Q R *.@.N r ..A.l + + O r a w uX/.*.r.s. Xj I  .* W O.%X>Xn.+...0.p.",
"oXHXlX% 5.;.+.2XY.Y.qXlX#.- w =.<.r.y.JXKXY.K B A F A.l.x P G = i p.}.* R ^.c l @ + + 4 q @./.&  .=.@.P.B.v.`.tXQ =.MX/ q 2.7.5.",
"GXJX% r u p.;.*XhXzXdX  : T t a 0.0.:.:.kX4XV F B.!.f @X8X6XN < s w *XL.H.6XV x z n b m 4 O._.k I Y 7 `.3XcXHX$.; h :. .M Q / W.",
"ZX$ = 1 3.e.e.E GXHXj N R k 2 r y 9.p.=.=X0XK.J.,XtX; :.NXZXV + Y e +.7X>X,XJ.S Z x c v A 9 @.L.Z.M.Z.E.<XkX#.$ 5 u w.p.S.c.x.<X",
"_.  t 1 p 9.w.&.lXHXl.C B Z m I 6 u g 9.5.fXeX0XAX#.%  .*.k.nXl.z M 8 Q ^ ..^.P.z.z.z.z.D & r D.m._ M.T.^.C.x b 2 1 a 2.@.N.R.vX",
"c O O 1 p 4.0.&.nXHXJ.C b.V A c m 7 s g ..`.%.NXDX* 1 p 5.%.k.nXK.D G R & *.i.:X>XoX&XeX4Xv.G.!.T.T.Q. X@.+. Xl.S Z G | _ aXAXZX",
"c @ + < u 5.0.-.iXHXK.x.x.z.b.F A N Y 8 ( `.% OX_.  5 y u u.%.VXHX0XoXQ.l.R ^ 5XA.0 :.>.MX>X2X!.oX{. .*.-.2.5.[.M.[.OXY.kXxX).R.",
"C j m 2 6 d 5.2.oXKXhXN.c.c.J.z.b.A H Y /.fXL.W.c + 2 5 y u  .- CXiX2.g.#XP.~.2X@ 5 a 4.<.+XJ.V.B.] ....X. ...^ ] ..Q 7XSXI.J.U.",
"L.B j z I 4 8 i ~.KXAX;X>X:XI.~.~.K.N.N.8XGX5XD Z c M b U R G ` Y.1 2.>.>.+.( [.Z + 4 6 u ] +Xi.f. X'.` ` / ( / Q / ].xXGXt.MX,X",
">XU.L.B.b.H S.Y.0XbX^._.OX{ +.u.f.bXhXzXIXIX3XP.z.l.A b.|.X.u.oXU.& s 4.e.0./ {.n.D Z G G n q >.,.s. X` Q / / / R O.].jXrX- ,.&X",
"K.J.~.:X:X>X2X2XZ.! R 0 & 0 0 i :.e.uX$.k.MX#X#X%X^.,XU.= i :.g.W.m Y W  . .[ Q Q ' J n.G = 4 a 0.;.@X!.{.[._ ` _ D.P.-X: 7 *.*X",
"SXY.A.B.V.T.V.'.'.G & + 1 < 1 y 5.7.6.> ; ;.,.,.1.s.=X_.X T s :.#Xl.G G R / H.Y.[._ ) H l k @ 5 a g u.Q.Y. XZ.V.' i.f.}.o 4 % iX",
"cXgXR.] u.u.i.XXL.X l O < < , y p 4.5.( T f 5.9.q.8.:.@.c.U U 1 +X!.m.m.{.{.[ ( { { ] J c v z z T T f  XJ.B.V.) ; 2.,.f.L.M.x.Y.",
"~ &XJ & y 3.*.uXtXj M + + O < 1 y d e OXS 6 a g 4.q.p.;.eX4X XoXT.Z.S.m.! ( Q / Q Q ^ B.J.l.V c S G H :XoX+.Q.@ 5 t h -.W.L.@.@.",
"<.q.+Xj 2 6 ; $.xXz.N o o @ + 3 4 7 e OXB.@ Y t u 4.u.:.$X).; f.H._ Z.{.} } [._ ` ` M.[ +.@.oXK.Q.E.W.P.1 :.@.c n U R y ^ b 0 ;.",
"u.8.s.oXl.F l.).KX6XD G j z z z U M z G.L.v v U 7 a f e $X).$ = ].!.` 3.q.q.@.'.] [.G ; e ;.q.eX-XN.R.`.& i g.U.D H x m.A.& 4 s ",
"g 5.;.f.,XoX@X].HXKXK.A C A B B A A S I.,Xb.D S x R Y Q ] 6X!.`.cXR.& + r i 7.}.D.A.+ < a h ;.g.hXfXxXlX   .-.*X4X-X>X9Xm O O 1 ",
"7 s f f !. .<.,.@XFXcXR.l.V D V V F T.,X>XL.z.B.v.m.m.D.|.+X XR.SXhXN.H G R ^ ^.<XN.O + 1 p 5.;.$XSXLXdXk M 7 0 ! xXSXx O @ + 2 ",
"V N Y [ G.& h w.:.y.kXgXgXaX4XI.>X>X,XI.)  .i.[ M.[.( p.r.>.u.'.8XzX3X!.B.[.` Y.cXtXX b 2 r u g > %XsX<X>X:X:X5X;XAXxXv.A.F l.l.",
"#XE.J.!.A.& t 3.5.,.u.R.9XgXjX0X0X3X>Xz.= i >.3.[.R q 3.q.w.r.a.C.C.H.G.[.) o.'.ZXCXj K M m R ) |.{.Y.E.V.~.2XeX=X.XY.E.I.~.}.OX",
"-.i.#X,Xx.o U 7 p h 7. XY.].N.H.Q.|.f.#Xl.z I s J O r u 3.9.w.1.@XT._ ` ` ( ( '.vXFXY./.F n.S.| 5.8.h.T.V.n.r =.:.:.OXN.D.5 0 w ",
"a 2.;.MXU.B G M T W d H.{ u.{.Z.2 *.*.>.OXJ.B.L.b.. 5 1 u g 9.w.r.oXR.{.! ^ ] Y.ZXAXY.x.J.!.v * a h ;.@X-XI , 7 a h O.R.A O 3 6 ",
"3 7 g w.dXl.A S G R R M.6 ; |.z.& I 7 g p oXP.-XV l m @ 4 y 9.9.2.+. X+.@.}.G.R.cXHX5XI.OXi.f.F v I 7 $X6XS G z H ^ i +.{.B v n ",
"Z G Y o.lXP.n.n.F V b.!.m.b.oX Xl.S G ^ Y |.I.9XC c c c m Y s  . .X.Y w 8.p.@. X1XSXcX~ ;.>.r.d.D.B.V.U._.T.P.!.) = 1 w p.} V A "
};
