/* XPM */
static char *result[] = {
/* columns rows colors chars-per-pixel */
"64 64 242 2 ",
"   c #5F0008",
".  c #610407",
"X  c #6D0005",
"o  c #6C0D07",
"O  c #650209",
"+  c #6C0109",
"@  c #660B08",
"#  c #6C0C08",
"$  c #740107",
"%  c #7A0007",
"&  c #740E07",
"*  c #7C0F07",
"=  c #730108",
"-  c #7C0109",
";  c #740D08",
":  c #7C0E08",
">  c #6B1308",
",  c #741207",
"<  c #7D1007",
"1  c #741209",
"2  c #7D1108",
"3  c #771808",
"4  c #7D1B09",
"5  c #7A270A",
"6  c #850007",
"7  c #8A0007",
"8  c #810F07",
"9  c #820209",
"0  c #8A0209",
"q  c #830E09",
"w  c #8C0D09",
"e  c #930007",
"r  c #9C0007",
"t  c #920109",
"y  c #9B0109",
"u  c #920B09",
"i  c #9C0B09",
"p  c #831107",
"a  c #8C1207",
"s  c #831806",
"d  c #831208",
"f  c #8B1208",
"g  c #841A09",
"h  c #8C1B09",
"j  c #931407",
"k  c #9C1507",
"l  c #951B07",
"z  c #9D1A07",
"x  c #931308",
"c  c #9C1409",
"v  c #931B09",
"b  c #9C1A09",
"n  c #A40007",
"m  c #A80D07",
"M  c #A30109",
"N  c #AC0109",
"B  c #A30C08",
"V  c #B40007",
"C  c #BB0106",
"Z  c #BA0C06",
"A  c #B2000A",
"S  c #BB0008",
"D  c #B60B08",
"F  c #BC0E08",
"G  c #A41507",
"H  c #AC1507",
"J  c #A41A07",
"K  c #AC1A07",
"L  c #A31509",
"P  c #AC1608",
"I  c #A31A08",
"U  c #AC1A08",
"Y  c #B31707",
"T  c #BB1407",
"R  c #B41A07",
"E  c #BC1B07",
"W  c #B21609",
"Q  c #BA1509",
"!  c #B41A08",
"~  c #BB1A08",
"^  c #872408",
"/  c #892309",
"(  c #9B2807",
")  c #962209",
"_  c #9A2209",
"`  c #983D08",
"'  c #A62307",
"]  c #AA2807",
"[  c #A32309",
"{  c #AB2209",
"}  c #B42307",
"|  c #BB2206",
" . c #B32E07",
".. c #B32408",
"X. c #BC2108",
"o. c #B92B08",
"O. c #AB3609",
"+. c #BD3206",
"@. c #BA3608",
"#. c #C30106",
"$. c #CB0105",
"%. c #C90906",
"&. c #C20008",
"*. c #C20C08",
"=. c #D30105",
"-. c #DA0104",
";. c #D50D06",
":. c #DB0A04",
">. c #D00008",
",. c #C41406",
"<. c #CC1606",
"1. c #C41C06",
"2. c #CB1D06",
"3. c #C41408",
"4. c #CB1708",
"5. c #C21B08",
"6. c #CB1C08",
"7. c #D41406",
"8. c #DB1405",
"9. c #D31D06",
"0. c #DA1E05",
"q. c #D11608",
"w. c #D31D08",
"e. c #E20003",
"r. c #E90002",
"t. c #E60D04",
"y. c #F20001",
"u. c red",
"i. c #E41303",
"p. c #E21E03",
"a. c #EB1D03",
"s. c #E81905",
"d. c #F31502",
"f. c #F21C02",
"g. c #C42206",
"h. c #CC2206",
"j. c #C52C06",
"k. c #CA2A05",
"l. c #C22108",
"z. c #CA2709",
"x. c #D32205",
"c. c #DB2205",
"v. c #D42A05",
"b. c #DC2B04",
"n. c #D42308",
"m. c #DA2708",
"M. c #C73707",
"N. c #CC3305",
"B. c #D43305",
"V. c #DB3304",
"C. c #D53906",
"Z. c #DA3C06",
"A. c #E32404",
"S. c #EA2503",
"D. c #E42B03",
"F. c #EC2B03",
"G. c #F22403",
"H. c #F22B02",
"J. c #F92801",
"K. c #E33403",
"L. c #EC3303",
"P. c #E43A03",
"I. c #EB3B03",
"U. c #F43401",
"Y. c #FA3401",
"T. c #F23B02",
"R. c #FA3C02",
"E. c #974409",
"W. c #924D0C",
"Q. c #A64608",
"!. c #BA4607",
"~. c #AC5C0B",
"^. c #936A09",
"/. c #AB6C08",
"(. c #C94806",
"). c #D44305",
"_. c #DC4405",
"`. c #D44A04",
"'. c #DB4A04",
"]. c #CA5605",
"[. c #D85706",
"{. c #E34303",
"}. c #EB4404",
"|. c #E44A04",
" X c #ED4A03",
".X c #F44302",
"XX c #FD4401",
"oX c #F54C02",
"OX c #FC4B01",
"+X c #F54908",
"@X c #E55304",
"#X c #EC5303",
"$X c #E55B06",
"%X c #F45303",
"&X c #FE5301",
"*X c #F45B02",
"=X c #FE5C01",
"-X c #F25912",
";X c #C66709",
":X c #DA6706",
">X c #CA7509",
",X c #DA7605",
"<X c #E76604",
"1X c #EA6A04",
"2X c #F56303",
"3X c #FC6403",
"4X c #F46B03",
"5X c #FD6D02",
"6X c #FB6708",
"7X c #E87805",
"8X c #F37304",
"9X c #FD7402",
"0X c #F87707",
"qX c #FD7C02",
"wX c #BD8806",
"eX c #D88606",
"rX c #E28604",
"tX c #ED8504",
"yX c #EA8D06",
"uX c #F58504",
"iX c #FD8301",
"pX c #FD8B03",
"aX c #F88708",
"sX c #EB9402",
"dX c #F69204",
"fX c #FF9404",
"gX c #FE9B03",
"hX c #EA8E11",
"jX c #DBA907",
"kX c #E3A60B",
"lX c #FFA303",
"zX c #F8AA05",
"xX c #FFAB05",
"cX c #FFAA0A",
"vX c #FFB304",
"bX c #FFBB05",
"nX c #F7B60A",
"mX c #FEB20A",
"MX c #F5B01B",
"NX c #FFC505",
"BX c #FED803",
"VX c #F7C325",
/* pixels */
"J D.F.S.k & < & < R 5.Y c.3X=XiX9XR.0.k.h.g.g.2.d.OXP.T R R Y H G G G k k k m }.5X%X| l U I.H.f.H.T.I.}.}..Xb.U j d j j q R z & ",
"o p I.K.q p * p & j x.<. X2XP.|.pXlX&Xr.e.-.r.G.iXqXg.H h.1.1.E E E E E E | #.2XbX>XX 4 + W.fXqX7X,X:X,X<X4X%XC z a p a a ; * * ",
"a * E v.a d < < & < 0.d.Y.Z 6 6 _ >XzXxXiX9XaXcXkX( X > p 1.x.2.2.h.2.2.1.z.-.gXnX% g d p O (.@.; $ $ e &._.9X$.J k a p p 8 d 8 ",
"k H D.v.B c j a j w b.5X8X0 p p ; X E.eX7XhXhX;X9 % s < , j 2.9.x.2.h.2.z.>..XNXeX- h 2 2 ; i E c z J J v - 1X.XF K k c j j a j ",
"E :.R.B.T R Y H ! M 1XiX$Xn l a x _ e C =.$.#.n l j f x x k 2.w.w.0.c.x.D.R.cXNX| 0 f 2 : : d h.<.2.5.P c t B.&XA.1.R R H H H K ",
"9.OXfX_.%.2.2.h.h.~ Z.OXS.1.E 5.E Y E z.] k.b.~ ~ Y P P W Q A.R.U.b.m.L._.$XmXvXC l f 2 2 d : h.A.9.0.6.~ 2.0.S.b.A.c.2.2.2.6.2.",
"T.`.;XP.9.x.x.2.h.F }.1Xh.c.6.E h.c.x.1.a G U & x h.w.x.z.c.*X[. .p p ) 4 S 0XbX%.c a d d f q j.T.H x.S.p.A.1.2 ; c D.S.S.A.S.S.",
"o.N 7 u R 2.c.c.0.0.L.0.0.K ; ; o R F.9.5.~ ; d @ ' S.s.f.I.[ 0 u c c c U 7.*XgXC.m I x x x y M.P.,.P W ! c x x x : [ L.J l U } ",
"# U ! k f G x.R a I 0.! x ; : : ; : I.H.S.! : d p + $X3X9XZ.V X.E 3.5.1.6.S.&XfX@XS ~ ~ ! ! P 1.5.h.D.w.q.q.5.~ W P W b ; ; ; o ",
"; x n.5.E R L f f P x @ 1 2 : ; d i C.}.XXU q d ^ + /.mX1X8.A.c.c.A.A.S.F.U.<XeXP.6.l.1.1.5.5.6.P ~ C.{.}.P.1.5.h.2.6.k f d p p ",
"f d n.0.0.0.6.5.6.~ 1 d d ; ; : x L 5.R B.{ u f d : 1 v.y.G.c.P U ! g.h.U g $ = h 5.c.n.2.h.E Y 1.6.3.P ' E 5.q.t.s.c.K L x x f ",
"H I h.A.0.E 1.0.A.P q d 2 : 2 d I L h.A.c.W k x q d $ O.9X&X .+ , ; # ; ; : d g ; ; I 1.A.c.G x 2 W 5.d ; d n.%X5X5X%X*.X.~ W H ",
"1.1.h.U x x I 2.l.k x j x a x L ! I 6.T.}.~ P k f f d u nXNX+.6 d d d q d : q < d q & # h c.7.1.1.6.Y H L c x / Q.|.K.c.h.6.x.x.",
"x.a.:.4.w.w.i.f.V.L W Y W W ! ~ W W b.F.A.6.E ! L L [ A aXvXk.0 f d 2 : : : : * : : < p   +.XXH.U.F.w.L P 5.L u % Z G.s.i.D.R P ",
"q #X=XR.J.Y.3XxX2XS l.1.6.1.h.5.~ Q d.6X*Xp.h.1.5.5.E z.6XXXB.t x f : : 2 & * < < < < < $ O.|.C.v.H p & ; U 5.! R 1.U.=X3X| # , ",
"9 ;XlXpXiXuXaXaX5X0.z.h.h.x.n.l.Q m.fX7X;.K.c.h.h.z.4.S.XXpX'.y v c w d d d d d p d p d d H $.*.6.j ; * 2 2 w.i.2.L ] [.1XM x a ",
"M @.5XL.C.g.#.+XlX3Xe.x.x.w.h.z.>.3XfX%XoXG.F.p.8.t.F.6XgXnX<XM b c L k c L c L L L P ! ~ ! I x.h.d d d d = M.&XH x u M %.! W P ",
"Q n.|.P.F.9.m.H.fXgX&XU.L.F.i.r.Y.oXM.[ tXpX3X X*X4X7X<XZ.+X8XA b L P Q Q E 1.2.2.2.2.R j x H D.x.c c c c u  .).w.w.5.h.1.5.5.5.",
"6.P = 1 @.z.c.=XfXvXqX1X'.P.9XxXuXn a r '.;X` / ` O.! S C L.5Xg.P U Q E 2.1.R H G k j & , & & ' v.5.E ~ E ~ q.8.2.2.A.x.x.2.h.2.",
"v ; d d w q h j.uXpX .& $ $ E.,XC.V U X.B 6 e B M C 5.g 1 : { x.Q ~ E 2.5.j & & * & q f x c x k 0.x.n.6.6.c.6.J ; # v x.0.0.c.x.",
"a L P W P Q S |.uX!.n J G z n #.C E 2.w.R E E 2.J d X.W L k k 2.5.2.2.0.R j c L L G H H W W P ~ S.t.-.0.9.j & ; : 2 @ _ R.U.b.j ",
"Q R z U ~ c.}.4X .A z.w.2.0.1.) 1 , a 2.c.c.A.x.; ; 2 } c.9.#.0.c.1.R I R 2.1.6.w.5.E h.2.6.2.R I.%X=X}.w < 8 d d f u l {. XX.R ",
"9.a ; o L B./ y ,.I d U x.5.d f x k c 5.D.R g.h.; d ; > _ |.&XI.c < ; & & 1.S.F.g.& 2 x X.c.0.~  .[.7X`.r J L L L P R 5.S.-.-.>.",
"j.w f q 2 x u v P c c j P R P W ~ 5.1.6.6.L ~ E w d d 2 X 3 7X[.0 x f x j d { R.z ; 2 2 # ! D.h.7.#.#.8.w.2.w.w.2.w.5.R Z.3X=X%X",
"} c j j a G 6.6.Q H H H H x.c.7.;.:.c.R ~ c.S.h.L k j x x 0 C 9.R W W R R Y E K.a d 2 q d # v.J.x.5.v.G H K G R A.R ; 2 ; E.:X[.",
"Q R Y Y U 5.w.j & , * & 1 a x.XXOX&XD.P G m.3X_.C R R Q ~ P z.D.x.2.2.h.2.v.S.b.q d d : 2 = ] T.a 2 x q 8 d d < U f q q : + - #.",
"2.2.2.2.h.2.d & : 8 d a f d $ :X[.[. .f I v.'.v.0.2.x.2.2.E z.F.c.c.c.c.A.f.=X$X0 d d 2 2 2 L x.c k L L L L G P c f w q : d > { ",
"x.c.x.x.c.R ; d d a x G L L P N M M u x x Q :.4.R 2.2.w.2.5.b.XXH.A.F.U.R.5XrX!.N c d d d q W D.,.5.5.E 5.5.5.1.c w x d 2 2 ; 2 ",
"k.A.A.A.S.U w a c L U E 6.2.2.6.6.n.6.5.5.w.2.j d f L W 2.w.5.B.%XOXP.).*X].O $ h L k f a L 2.T.L.c.9.9.n.w.A.x.c f x x d q < d ",
"K j E XXoXQ Y R ~ 5.6.2.K ~ x.S.D.W x f d d L E 3.E I P c.h.x = / @.u i E - 2 2 ; ; x W ! 1.c.=XOXOXF.S.H.F.b.z.! x c k x x x x ",
"1.5.Y } M.2.6.2.2.x.R 1 ; ; u L.' O ; : d < ; x P f , o V.A.E ~ H D 5.6.~ 2 p 2 q d ; b m.-.%X*X-.K.Y.b.~ f ; @ L ~ L W W W U W ",
"h.S.F.p.w.c.0.9.x.x.f f x c H V.l q d d : q p & o ; d 9 B.XXS.8.w.n.2.A.R d d < 2 : 2 p 8.3XfXT.r.f.o.X ; ; : : # l.6.5.g.1.2.2.",
"* s z.g.A.E E I.H.b.U H P ! 3.D.X.- d : 8 * * * < q / V 0XgX XOXK.a < h.5.a a p p 2 d f L.$X}.Y.=X2Xw q q 2 : q ; x c.w.h.w.~ j ",
"8 8 j P j * ; ] 5XoX$.l.6.1.n.D.b.w d : < < < * * g N I.vX].M @.| L H R x.K I c c x z U m.t.OXiXbXhXM h d : : ; 2 @ g.S.c.h.p < ",
"c c P 5.R Y K r [.fXL.r.~ p q I.%Xm x d < < < < g n }.bXuX$.z.5.w.7.q.c.c.w.1.E E E l.*.U.'.( ` (.@XN c w q : * 2 ; h L.F.l.c L ",
"E 5.6.c.0.6.1.6.P.fXfX=X#.J u B.3X1.! G j j x G m V.vXwXy ( { e.Y.XXU.H.A.n.c.x.n.n.q.}.8X9 - - $ ,.U L c x d p & d % '.F.4.5.5.",
"2.0.E k 1.c.S.A.C.N.C.8X5Xc.8.}.fXP.1.2.E E 5.g.&.4X,X7 h ) C 5XnX].+.P.Y.p.w.n.w.n.8.=X[.y I G j g.R H W L L x x _ 7 >XgXD.w.x.",
"c.c.L x x 2.h.d $ ; $ 9 '.I.T P.mX6X>.x.c.c.x.h.~ o.V ' { C -XVX^.. @ # @XXXp.p.c.A.U.%Xk.W ~ E Y | 2.H ! Q W ~ ! ! N [.gX9XH.A.",
"a J 6.6.2.h.q ; d d p > m h.I -.qXxX.X,.K l.h.5.w : U ~ C }.MXW.X 5 2 $ 5  XR.T.D.D.C.[ U 2.2.2.1.Y h.2.W 2.2.1.1.5.l.w.>.(. .j ",
"< @ U F.F.~ q f d : d , U A.S.R.5XlX8X7 1 ; < I E W ~ h.r.xX^.X ^ $ 1 2 = $ J z.6.W i D E c.2.5.1.2.5.A.w.5.w.2.w.6.U p 3 + = , ",
"d a a b.I.I x x j a j x U H.} +.,.r.N.w f q * & 6.A.n.;.&XyX6 ^ * < < & < 1 ; ; K c.c.n.E z 6.2.9.5.G R A.x.0.A.E s ; d f f f f ",
"c G L b.V.Q P P H K H P R z.q W 0.F.6.L c x f & [ m.l y 4XyXy l f d d p p : < < o p z.c.x q J F.<.a f : ' H.J.X.; f f x x k k L ",
"R 1.#.%X*X&.5.5.5.1.1.R U 2.%.8.z.J K E W H c c x 6.3.>.0XpXC b k k c j x x a x f a < E 6.k 1 x k d a k 7 #X#X0 k L L P W W R E ",
"2.1.$.[.4X>.l.h.h.w.g.! R S.OX2Xa # o d K Y Y Y B P.XXT.pXvX*XA ! ! ! W ! ! ! W W Q ~ h.A.R L L a p d v M ).B.Z ! E E 5.w.x.0.c.",
"x d d - X.n.2.w.2.2.1.1.6.A.&X2XL : q ; & * 8 a q [ yXcXOXdXlX-.X.l.1.2.1.6.6.4.w.R c z z.S.0.E H J k G ~ 7.Q 5.x.0.c.c.x.2.D.v.",
"D ! Q ! 6.w.R R n.x.x.w.m.a.R.fX!.9 d : 8 q 8 * 4 $ 5 kX&Xr.xX2X$.m.c.x.c.c.c.A.R ; ; & o z D.0.2.1.1.1.2.K 2 & I F.D.U.D.L U 6.",
"I.S.A.A.c.f ; o h c.w.h A OXbXkXX.w d : 8 8 8 q q p $ e OXy.7X0Xr.b.~ z I ~ R L f w q d < @ ) L.p.0.0.c.c.Q W R P 0.D.n.U : # ! ",
").J U g.f ; : d . ..c.X.>.cXeXt X.L q q 8 < 8 * q : p 3 2._ O B.F.a & < ; ; f x c x x q & d . !.OXU.R.F.x.S.S.s.F.&Xv.: ; d ; 1 ",
"m j L * * 8 * * ; s v.S *XcX$.{ | H j : 8 * 8 8 8 < 8 & c L U 4.U a c c L G c j j c L a * * < X yX9X1.) & J  X&XpX;X$ 2 2 & & a ",
"2.1.R 8 d < * < * 2 U M $XfXV.j v.H L w 8 8 8 8 * 8 p & z n.w.c.Y Q Q 5.E G u j a a c c 8 * 4 X ~.@Xy G L x H (.E.$ p 2 2 < 2 G ",
"c.t.1.j x w p p f f 2.a.%X9XN.; ~ 5.c c q d 8 8 8 * * * 2 F.F.b.0.E P ! W c k i u 8 a G x q 8 * u I.h.E ~ 1.! $ - p 2 ; 2 2 d E ",
"OX&Xx.W P G G J W ! b.{.}.&XD.$.w.1.L G u 8 8 8 8 * * 8 O @.j.L P : & o f P c G k j p a H c a j k I.a.;.0.n.k d g 2 2 2 2 d c x.",
"uX).V.2.6.6.2.E ! ! } A 6XmXpXxX*X#.R G H u a 8 p < < < ; l n.5.d d d < 8 a * L H B j a c Y R R D %X5XOXH.b.L x f d 2 d d x Z C.",
"%X-.5.2.2.9.R < 1 o 2 e ~.jXBXzXZ.6.~ U R T H k a a d d a c A.x.x d d d a j c L Y H G H j j G K >.0XgX%X XK.H H L c c z L 5.w.}.",
"R } a a a a L i f d ; 3 O = <Xr.s.R R P H 1.E E H H H H P K A.c.k x a j j G Y H k k H u * * , , M 0XgXJ.t.x.g.| X.~ X.X.6.h.U J ",
"o o f H G G H W W L c a v x #X=XR ; a Y H R 2.2.2.h.g.1.5.~ F.F.~ G k k G Q G & * j c 8 p < p s = ].vXlX.Xe.-.=.>.-.>.e.A.f o ; ",
"8 8 ; j E 5.3.1.1.1.E ~ ! Q 2X).r J G E E Y 1.9.9.x.h.x.1.5.R g.6.E R E 5.R < p a j c a f * < 8 p N %XfXlXpX9XqXiX6X9X9X|.t f g ",
"j a f 8 Y ,.1.2.2.h.x.6.6.n.OXA.h.1.5.1.<.2.1.h.h.x.h.h.1.5.,.w.6.n.x.2.x.K c L G G c j a 8 8 p d J A.u..X,XsXsX/.E.>X=Xv.W L x ",
"Y Q Y Y Y H j R 0.x.n.x.;.oX5XY.p.S.c.x.b.S.c.x.9.2.w.2.x.S.%XOXc.x.x.x.x.R R R R E H k u d p p a G h.| 0 % t r % $ O }.U.5.5.~ ",
"0.E j f 8 ; & & L x.A.A.L.).].%XOXh.a a j J x.A.c.c.w.A.2.} M.{.U.0.x.x.0.1.5.2.1.1.5.H j a p a j R G , j [ U _ p p o O.R.n.w.n.",
"h.* p q f w 8 p ; a g.x.l 9 6 ..#Xl ; & ; @ 4 F.f.H.R.k.# # O q k.S.A.x.x.0.x.2.9.9.2.R H G G G H 1.R W W W 5.x : : : ; D.A.A.A.",
"H j c c j j u w d * o 8 H P R 3.c.L f d 2 p = ].5X*X4X( % d 2 & @ J b.F.A.c.h.A.D.I.2.E 1.1.1.1.E 2.0.0.c.A.2.d q q 2 ; I f I F.",
"5.R Y H R H H G c a a 8 Y 6.w.c.T.g.L L c l 7 @.=Xd.V.j q : * & * o 1 a p p o | | B.b.h.x.x.h.h.1.b.F.b.X.~ 1.f f q q ; f W x W ",
"9.w.2.w.E a 8 u G G k j 1.S.H.Y.R.K.Q E ~ ~ H j.pXpX'.n z x f a d 8 p < < d 8 k.b.<.A.A.c.x.c.x.0.b.K k x L 5.L f f d q 2 1.w.w."
};
