/* XPM */
static char *d77b682bb18443b2c1b4fde96f7a6e96hukO6Kt7poeHX8KM[] = {
/* columns rows colors chars-per-pixel */
"64 64 245 2 ",
"   c None",
".  c #310E09",
"X  c #3C1302",
"o  c #331009",
"O  c #3B1509",
"+  c #3F190A",
"@  c #2D0F0A",
"#  c #441402",
"$  c #4C1602",
"%  c #4B1808",
"&  c #531402",
"*  c #541C02",
"=  c #5B1B02",
"-  c #541B09",
";  c #5C1D0C",
":  c #571609",
">  c #5F1A10",
",  c #661C07",
"<  c #751D00",
"1  c #552301",
"2  c #5C2402",
"3  c #572C02",
"4  c #5B2C01",
"5  c #5C2A0A",
"6  c #5D3300",
"7  c #573103",
"8  c #5D2110",
"9  c #482008",
"0  c #632300",
"q  c #6C2900",
"w  c #63240C",
"e  c #672807",
"r  c #7C2400",
"t  c #7C2A01",
"y  c #752B0C",
"u  c #762807",
"i  c #643300",
"p  c #6A3501",
"a  c #6B3900",
"s  c #6B3B0B",
"d  c #65350B",
"f  c #7D3302",
"g  c #733C00",
"h  c #793E00",
"j  c #75330C",
"k  c #7C350A",
"l  c #763704",
"z  c #642412",
"x  c #6D2A12",
"c  c #6B2611",
"v  c #712D12",
"b  c #752A11",
"n  c #7B3414",
"m  c #6C3112",
"M  c #7A4202",
"N  c #76440C",
"B  c #7C430B",
"V  c #764103",
"C  c #764511",
"Z  c #7B4912",
"A  c #831E00",
"S  c #832600",
"D  c #8A2500",
"F  c #842B00",
"G  c #8A2B00",
"H  c #822D0C",
"J  c #932400",
"K  c #942C00",
"L  c #9C2D00",
"P  c #912C0A",
"I  c #853302",
"U  c #8C3401",
"Y  c #853B01",
"T  c #8D3A01",
"R  c #83340B",
"E  c #8B330C",
"W  c #843A0B",
"Q  c #8B3D0B",
"!  c #943400",
"~  c #9B3400",
"^  c #933C00",
"/  c #9C3B00",
"(  c #943C0E",
")  c #9B3B0B",
"_  c #95350C",
"`  c #823313",
"'  c #8B3513",
"]  c #843C13",
"[  c #893F1C",
"{  c #9C3C12",
"}  c #933B13",
"|  c #A42C00",
" . c #AA2D00",
".. c #B52A02",
"X. c #A33300",
"o. c #AB3500",
"O. c #A43C00",
"+. c #AB3B00",
"@. c #A03D08",
"#. c #BA3501",
"$. c #B23C00",
"%. c #BB3A00",
"&. c #BD3509",
"*. c #B93807",
"=. c #C33E02",
"-. c #C33C0C",
";. c #CA3D00",
":. c #82440A",
">. c #8D410C",
",. c #844508",
"<. c #954100",
"1. c #9C4400",
"2. c #94430D",
"3. c #9C410C",
"4. c #9C4B06",
"5. c #8C4312",
"6. c #824B13",
"7. c #884613",
"8. c #9D4313",
"9. c #974A17",
"0. c #8C5414",
"q. c #965717",
"w. c #A44301",
"e. c #AB4400",
"r. c #A44A00",
"t. c #AC4B00",
"y. c #A2450C",
"u. c #A9430B",
"i. c #AA4D0D",
"p. c #B44401",
"a. c #BC4300",
"s. c #B44C00",
"d. c #BB4C00",
"f. c #B44B0A",
"g. c #BA4B0B",
"h. c #B44108",
"j. c #AA5107",
"k. c #B55200",
"l. c #BC5201",
"z. c #BC520D",
"x. c #B6510E",
"c. c #A24213",
"v. c #A54B12",
"b. c #AB4C13",
"n. c #A54B19",
"m. c #AA4D1B",
"M. c #A74518",
"N. c #B74B16",
"B. c #AC531B",
"V. c #AA5516",
"C. c #B25314",
"Z. c #B95513",
"A. c #BC5B15",
"S. c #B25419",
"D. c #B15B1E",
"F. c #BA5B18",
"G. c #9E6319",
"H. c #A8661C",
"J. c #BF661B",
"K. c #944C24",
"L. c #9C5326",
"P. c #824222",
"I. c #AD5424",
"U. c #A65628",
"Y. c #B45A27",
"T. c #B65C31",
"R. c #AC6D22",
"E. c #A36720",
"W. c #B26A23",
"Q. c #B17327",
"!. c #AF6C2D",
"~. c #C44300",
"^. c #CD4500",
"/. c #C44B00",
"(. c #CB4B00",
"). c #CC4C0C",
"_. c #C5450A",
"`. c #D34400",
"'. c #D24D01",
"]. c #D74A06",
"[. c #C45401",
"{. c #CB5400",
"}. c #C25C00",
"|. c #CC5A00",
" X c #C6550C",
".X c #D55301",
"XX c #DC5201",
"oX c #DD540C",
"OX c #D55907",
"+X c #C44412",
"@X c #C54A14",
"#X c #C84B19",
"$X c #C45D14",
"%X c #C75917",
"&X c #D75D12",
"*X c #D14C1A",
"=X c #E35300",
"-X c #E55902",
";X c #E65509",
":X c #E8580B",
">X c #E1570A",
",X c #DA6402",
"<X c #CC6215",
"1X c #C8671B",
"2X c #D86717",
"3X c #D97418",
"4X c #CD741E",
"5X c #E26508",
"6X c #E46C1A",
"7X c #E86814",
"8X c #E8741B",
"9X c #D95D28",
"0X c #C55422",
"qX c #CB6A24",
"wX c #CD6D2C",
"eX c #C76623",
"rX c #D46C29",
"tX c #CE7528",
"yX c #D6762A",
"uX c #CF7732",
"iX c #D37B37",
"pX c #DC6431",
"aX c #E77A21",
"sX c #ED6C3B",
"dX c #EC753B",
"fX c #AD6240",
"gX c #D27443",
"hX c #F27642",
"jX c #E97441",
"kX c #DB821E",
"lX c #DB8529",
"zX c #DF8832",
"xX c #E88827",
"cX c #E8922D",
"vX c #E78737",
"bX c #E69936",
"nX c #F29E35",
"mX c #EEAA3B",
"MX c #D4874A",
"NX c #D58D52",
"BX c #D89358",
"VX c #F39D49",
"CX c #E9A648",
"ZX c #DA9B63",
"AX c #DBA26D",
/* pixels */
"                                                                                                                                ",
"                                                                                                                                ",
"                                                                                                                                ",
"                          o @ o X # O o . . o                                                                                   ",
"                      o o o o # = 0 0 $ # # . o o #                                                                             ",
"                    # $ = = = , < F I t 0 * $ # O O 1 1                                                                         ",
"                  q 2 q q , < r S G t U I q q , $ O - 2 1 -                                                                     ",
"                I q q U G F G G G / ! F ~ 2.W t q q % ; e 5 * *                                                                 ",
"              U f q I / e.t.t.O./ G O.! G ! 4.Q U I 0 w e i 7 3 =                                                               ",
"              f I ^ 1.w.s.s.s.s.w.D K u.~ G w.v.( U U t j q i 6 3 2                                                             ",
"            I T / e.k.k.e.l.s.e.~ ! J +.u.~ ! / 4.( / F q y j a 7 3 2                                                           ",
"          U Y ^ O.p.}.}.e.p.l.s.K L K L h.O.U G / 9.) K S R W k g 6 4 2                                                         ",
"          U T ! e.[././.e.K +.e.K K ~ K o.h./ U ! 4.E ! ~ I k R 0.V 4 4                                                         ",
"          T ^ X.+.[.,X(.K D ~ ~ A D X.~ L p.e.G G u.U r S K k R 9.0.i 6 4                                                       ",
"        T ^ w.X.X./.,X(.J A D ~ D J X.X.~ +.l./ t w.i.Q U D r k 5.7.l 6 6 4                                                     ",
"        T 1.p.X.X.{.OX{.o.K K K D J ~ O.X.X.d.k.U U i.2.I ! S u f 2.7.i 6 6                                                     ",
"        ^ t.Z.L K a..X,X$.X.+.X.L K X.O.o.X.+.[.e.r S w.Q ^ F U R ] Q 6.s 6 6                                                   ",
"      ^ 1.f.Z.$.L $..X5Xa.o.#. .L L K X.+.X.~ d.l.! G ~ 3.E r U I I >.>.p i 6                                                   ",
"      ^ 1.f.A.d.J X..XOX(.`.;.| o.+.L J L X.~ O. Xw.) i.w.< U ^ r R Q Y B a i i                                                 ",
"      ^ t.x.Z.g.%.+.a.(..X;X7X_.o./.a.X.J | ~ K g.f.! ) i.r t 1.t R Q >.:.a i i                                                 ",
"      ^ s.Z.Z.eX%X| +.~.XX-X`.oX~.~.].(.o.X.X.X.$.z.O.! ^ 3.! 1.T y Q >.W g i i i                                               ",
"      <.s.F.1XwX@X .o.d.{.'.`.;X].~.^.`.%.o.o.O.+.f.C.y.( 3.v.1.<.t W 2.>.h i i i                                               ",
"      <.f.F.tXeX#X-.$.a.d.[.'.=X;XoX&X&X&X~.a.$.X.$.A.y.8.3.y.^ 1.I R Q 2.,.i 5 i                                               ",
"      <.i.A.qXqXgX9X-.a./.$.$.'.:X7XaX6X3X2X). Xo.%.$X@.v.V.3.! 1.1.I Q >.Q i 3 i                                               ",
"      <.C.Z.qXwXpX9X@X%.p.+.a.a.`.:X8X8X2X3X2X<Xa.%X2Xu.C.V.8.b.1.r.T W >.W p 3 i                                               ",
"      / S.Z.A.wXsXjX+X*.%.[./.$.~.=X;X7X6X8X3X<X_.).aXZ.A.J.8.V.s.t.4.5.>.>.j 3 i                                               ",
"      8.C.Z.$XwXjXsX*X&.@X~.$.a.p.(.=X:X7X7X2X&X^._.8X$XC.tXD.b.d.r.1.2.5.Q k 3 4                                               ",
"      c.B.Z.1XtXdXhX9X&.#.&.~.|.p.p.'.;X=X=X&X&X).).7X2XC.1XqXF.e.w.r.<.5.] k 4 7 i                                             ",
"      { m.Z.eXiXvXhXsX+X .&.+X~./.$.$..X=X=X=X2X&X%.).8XC.A.tXz.e.w.r.1.5.j y d 7 i                                             ",
"        8.A.qXiXzXvXdX*X#._.+X..=.a.o.$.`.;X=X=X.X~.=.6X$XJ.4X[.e.O.r.1.Q n v e 5 6                                             ",
"        } b.eXwXcXnXVX9X .%.+X&...=.a.$.$.^.=X=X].OX~.`.2XZ.tX$Xw.w.r.1.T ] v w 5 7                                             ",
"          } v.A.tXbXmXcX#XN.#.-.&.&.~.a.d.| ..=X=XoX(.].6Xh.1X1Xr.t.w./ U j v w 5 i                                             ",
"          ` E u.Z.1XbXmXCXNXgX@X ...#Xa.p.o.#..X=X=X`.oX7X2Xg. Xt.r.w.1.U y x w 5 d                                             ",
"          H H ) u.g.$XlXmXCXBXMXeX#.-.+Xo.a.~.).oX].^.XX7XxX3X Xw.r.r.1.^ F x w 5 5                                             ",
"            E E ! O.f.$XyXbXBXAXBXgX%X0X#X(.$.=.2XrX2X(.=X8XxXxXd.! r.r.<.I x w 5 5                                             ",
"              ! E U O.e.z.yXlXMXZXBXBXMXNXwX^.~.&XuXMX&X'.-X;X8XcXl.1.t.1.U y w 2 1 9                                           ",
"                ! E F K O.z.1X$XwXBXZXBXZXiX).).).2XNXNXrXXXXX8XnXkXr.r.1.<.t > 8 1 +                                           ",
"                  ) E H D K g.s.O.$XuXNXBXMX%X<X(. XyXNXBXyXXX-XxXbX}./ r.4.t : - 2 %                                           ",
"                      ( H u S ~ / / e.$XwXuXuX1X<X|.|.<XiXMXyX.X7XcX3X/ r.4.u & - w - O                                         ",
"                        ) y c r G ! ! / O.e.d.[.[.s.t.e.d.|.<X&Xd.|.lXl./ <.: ; & - ; % O                                       ",
"                            R y r r F U ! ! ~ / O.e.e.w.O.O.w.s.t.e.|.,Xt.1., c : : z ; % X                                     ",
"                                  S r r S F G G G ~ O.O.O.O.O.O.w.w.e.l.+.e.v.[ v , c z 8 % X                                   ",
"                                        r r r r r r S P _ ~ ~ O.O.O.e.k.e.t.k.9.K.n c c w ; - #                                 ",
"                                                            E _ / / O.e.k.k.r.^ [ L.n v y x z ; % #                             ",
"                                                                  _ / O.e.e./ <.W L.U.P.b ` x 8 8 z ;                           ",
"                                                                        O.e.e.^ Y 9.T.U.] ` ] x z ` ` b x                       ",
"                                                                          +.e.^ l Y U.fXL.5.5.9.' ' ' ` ` n m                   ",
"                                                                              O.Y h v.U.K.L.9.8.{ } 9.q.q.q.6.d 3               ",
"                                                                              e./ f ^ b.K.9.U.c.M.n.R.Q.R.q.6.Z s 4             ",
"                                                                                e.^ T z.9.L.I.c.m.B.H.Q.E.6.N C C s 2           ",
"                                                                                  e.T w.C.B.I.n.m.D.W.Q.q.B B N N C s 2         ",
"                                                                                  p.w.y.C.S.n.m.S.Y.Q.R.0.:.:.B B N N p         ",
"                                                                                    C.C.S.C.m.I.D.W.W.R.q.:.:.B B M M g         ",
"                                                                                      I.I.m.B.S.D.H.H.R.q.,.h h M M M g         ",
"                                                                                      Y.Y.I.b.N.Y.D.V.R.H.,.g g g V g a         ",
"                                                                                        T.Y.M.b.S.B.n.H.H.0.h g g g p p         ",
"                                                                                        I.M.c.c.c.m.n.9.G.q.6.g g a i a         ",
"                                                                                          ) { { ( } 8.( 9.q.0.Z a i a           ",
"                                                                                              ) _ H R ' W 6.6.6.C s s           ",
"                                                                                                  u , c y y j j C C             ",
"                                                                                                      & : , , = e               ",
"                                                                                                          $ &                   ",
"                                                                                                                                ",
"                                                                                                                                "
};
