/* XPM */
static char *result[] = {
/* columns rows colors chars-per-pixel */
"64 64 253 2 ",
"   c #010001",
".  c #0B0403",
"X  c #04040A",
"o  c #0A060B",
"O  c #0C0A0C",
"+  c #170706",
"@  c #130D0C",
"#  c #15110E",
"$  c #1A140F",
"%  c #020312",
"&  c #0C0C14",
"*  c #090B18",
"=  c #130D15",
"-  c #0D1317",
";  c #191613",
":  c #1C1412",
">  c #14131A",
",  c #1A161B",
"<  c #1C1A1C",
"1  c #260A05",
"2  c #2B1409",
"3  c #3A1808",
"4  c #221513",
"5  c #261617",
"6  c #241A16",
"7  c #2A1B15",
"8  c #241C1B",
"9  c #2B1D1A",
"0  c #331E17",
"q  c #27241B",
"w  c #2B221D",
"e  c #34221D",
"r  c #3A261B",
"t  c #091424",
"y  c #171924",
"u  c #1B1A24",
"i  c #221E22",
"p  c #251E25",
"a  c #1D212D",
"s  c #2D2422",
"d  c #272529",
"f  c #322522",
"g  c #342A24",
"h  c #372826",
"j  c #3C2B23",
"k  c #3B2D2A",
"l  c #38332A",
"z  c #272931",
"x  c #2E3234",
"c  c #393637",
"v  c #441C1A",
"b  c #452B1B",
"n  c #4E3216",
"m  c #58341C",
"M  c #653B13",
"N  c #422E25",
"B  c #432E28",
"V  c #43332C",
"C  c #4A362B",
"Z  c #583727",
"A  c #432E32",
"S  c #453936",
"D  c #4C3B33",
"F  c #533C34",
"G  c #643C2F",
"H  c #3D4035",
"J  c #714617",
"K  c #58442E",
"L  c #49453A",
"P  c #58443A",
"I  c #6B4828",
"U  c #674739",
"Y  c #6F5033",
"T  c #775738",
"R  c #1B3754",
"E  c #313943",
"W  c #4F3D43",
"Q  c #354656",
"!  c #114D76",
"~  c #284866",
"^  c #3A566A",
"/  c #2C4F73",
"(  c #375B7A",
")  c #3E607B",
"_  c #484647",
"`  c #574847",
"'  c #5C4B44",
"]  c #59544C",
"[  c #4D5158",
"{  c #5A5756",
"}  c #654D46",
"|  c #6C4D4B",
" . c #68554A",
".. c #775847",
"X. c #655352",
"o. c #6A5553",
"O. c #655B54",
"+. c #6D5B55",
"@. c #655C5A",
"#. c #6D5A59",
"$. c #725D53",
"%. c #7A5A51",
"&. c #725D5C",
"*. c #76614E",
"=. c #6A6557",
"-. c #6C625C",
";. c #726255",
":. c #7B6554",
">. c #74635C",
",. c #7A665B",
"<. c #78695B",
"1. c #7B6A5D",
"2. c #575A65",
"3. c #556573",
"4. c #6A6766",
"5. c #766262",
"6. c #7A6464",
"7. c #756A63",
"8. c #7B6D63",
"9. c #756C6B",
"0. c #7E7166",
"q. c #79716B",
"w. c #6C6F72",
"e. c #797776",
"r. c #8A5925",
"t. c #88673B",
"y. c #835D4A",
"u. c #855F51",
"i. c #886A4B",
"p. c #927149",
"a. c #876756",
"s. c #836D5B",
"d. c #88725B",
"f. c #927357",
"g. c #816E62",
"h. c #8A6E64",
"j. c #837264",
"k. c #8A7563",
"l. c #83756B",
"z. c #86796D",
"x. c #8B7868",
"c. c #8C7B6D",
"v. c #947865",
"b. c #927C6C",
"n. c #847777",
"m. c #867A72",
"M. c #8B7D73",
"N. c #837C7C",
"B. c #947B71",
"V. c #7E827A",
"C. c #98836B",
"Z. c #8D8175",
"A. c #84837C",
"S. c #8D837B",
"D. c #89887E",
"F. c #928376",
"G. c #9B8776",
"H. c #92857B",
"J. c #96897D",
"K. c #9C8B7C",
"L. c #A68F77",
"P. c #C09155",
"I. c #C89B62",
"U. c #D6AB71",
"Y. c #2D5B86",
"T. c #39648A",
"R. c #3A6995",
"E. c #3A72A1",
"W. c #506E8B",
"Q. c #717884",
"!. c #4A7CA8",
"~. c #847D82",
"^. c #76838D",
"/. c #5088B4",
"(. c #658AAA",
"). c #78A0BF",
"_. c #5C9BC8",
"`. c #6399C3",
"'. c #72A3C8",
"]. c #868483",
"[. c #888685",
"{. c #8C8B84",
"}. c #8D8B8B",
"|. c #948C83",
" X c #978B87",
".X c #9A8D84",
"XX c #938D8B",
"oX c #95928B",
"OX c #989388",
"+X c #9B948C",
"@X c #938E92",
"#X c #8C9190",
"$X c #959492",
"%X c #9B9592",
"&X c #9C9993",
"*X c #999A9A",
"=X c #9C9B9A",
"-X c #A28D86",
";X c #A79789",
":X c #A2968D",
">X c #B39E8E",
",X c #A49B94",
"<X c #A99D93",
"1X c #A39E9A",
"2X c #A99A99",
"3X c #BBA389",
"4X c #A5A19C",
"5X c #ABA398",
"6X c #ABA39B",
"7X c #B5A59B",
"8X c #B3AA9D",
"9X c #939EA9",
"0X c #A79DA4",
"qX c #92A6B7",
"wX c #A4A2A2",
"eX c #ABA5A2",
"rX c #ADA9A4",
"tX c #ACA9AA",
"yX c #B5ABA3",
"uX c #B5A8A5",
"iX c #BAACA5",
"pX c #B3ACAB",
"aX c #BAB1A5",
"sX c #B5B2AC",
"dX c #BCB4AC",
"fX c #AEADB2",
"gX c #BAB6B6",
"hX c #D9B38C",
"jX c #CAAE91",
"kX c #D6B393",
"lX c #DBB897",
"zX c #DCB994",
"xX c #C0ADA7",
"cX c #C3B4AC",
"vX c #C3BAB3",
"bX c #C8BBB7",
"nX c #C2BDBC",
"mX c #C8C3BC",
"MX c #D0C6BE",
"NX c #84A5C2",
"BX c #ADB7C8",
"VX c #C8BEC1",
"CX c #BFC0C0",
"ZX c #CBC6C4",
"AX c #CAC7C6",
"SX c #D4CBC3",
"DX c #D3CCC9",
"FX c #D4D1CC",
"GX c #DCD3CC",
"HX c #D9D5D3",
"JX c #E3DBD7",
"KX c #E5DFDD",
"LX c #E7E4E3",
/* pixels */
"o o X = e 5 o j o.g.#.` 0 B . 9 :X9.  S @ z !.!.`.!.A i t = u 8 u y - x { _ > y u u u y a a a z a z a a u x [ W a y y y u u u y ",
"o o o # j h @ 7 } h.&.F f 7 f   {.XXc A + Q !.! Y.!.) . y y i < s q d u x c y y u y p u > %               t E y                 ",
"o o O h F N   9 F | F 1 0 j k + @.1X@.B 1 E T.Y./ !.W.. t , y * C U D > d z u y y i y   t W 3.e.].XX$X$X*X4X4X4X1X4X=X=XoX].w.E ",
"X o X r F C V } | B N 0 0 0 f N 3 ,Xn.0 i % 2.w.T.!.Q . u u y % P ..P , y i , u i y t Q.tXVXAXFXFXFXFXFXFXFXFXFXHXFXHXHXHXJXHXnX",
"o X X 7 C U U  .F r B C 0 9 0 D . M.,XS 5   9.-X@XQ.  @ =   d z ' ..U y = u u p d   [.FXHXHXFXFXFXAXAXZXZXAXAXmXgXAXmXgXZXAXFXHX",
"& O X 4 C K Z e 4 0 r B f 9 0 A 1 ` 6X#.+ . ~.:X2XBXe.X         3 ..U u u p z z u   wXHXnXgXgXnXnXZXAXmXAXFXCXfXeXAXgXtXfXgXAXHX",
"O O X O e r 5 : r N B f f e 7 h V   %XS.4 t M.-X-XVXDXfXfXBXtXQ.` M U c p d p u >   q.uXpXtXpXpXsXgXgXnXZXAXgXgXgXgXmXCXgXmXVXgX",
"O O - ; 4 $ 7 9 B B C C e e 0 N D   e.2X+ . N.uXVXGXHXKXLXKXLXHXBXtXs.V E z u d * x m.+X1X6X6X6XeX6XeXrXrX6XrX4XeXtXtXtXsXgXsXpX",
"# : 7 g j w 4 w N j k C h p r B A . ` 1X{ ].nXDXAXFXAXCXmXFXaXMXFXFXZXM.h z u y   4.H.:X2X6XeXeX6X4X6X4X6X4X4X4X4XrXrXpXsXpXpX6X",
"4 ; 7 g l e 7 6 9 k k f h s f V k k    XfXgXZXnXgXgXgXgXsXmXaXyXgXbXAXmXx.1 y ,   @..X%X6X,XS.e.q.w.9.4.4.9.4.4.9.w.e.A.1XpXrX4X",
"6 : 4 r C g w 9 9 s f h f p k F V + S wXvX8XpXtX$Xw.oXoX#XwXfX=XfXgXgXCXpX}   i   O.J.:X2X{         .                   c 1XrX,X",
"6 : q r N D g 6 s k f k f f k D V + ].wXeXwX=X@X[.[.#X4.V.#XtXwX*XwXgXfXZX X. y   5..X<X{.  % > % * * * > - > * - & & >   {.rX,X",
"h w 4 2 r C L e s V B V 9 h D P b ] oX}.@X@X X~.$X$X@X}.}.[.=XwX$XwXtX#XtXgXL   y 0..X<Xl.  d , < u > > * * & & - = > i   {.6X+X",
"j h 7 4 e r N l 5 h V j 5 C P D 3 -.oX}.~.}.@X@X}.A.].}.{.w.e.[.[.#X$XwXtXCXe.  l Z..X,X#.  d k k k h 8 % o & = , , 8 s   A.6X+X",
"j j e 4 e r j j r f k e f K C C 3 X.[.].M.~.}.}.~.x.A.[.].w.].9.e.4.w.$X$XwX*X  S .X-X;X]   d , , , < , o & & & = & & <   n.6X:X",
"j r w q 4 e N e j B V N e r N D b #.[.[.S.~.[.~.e.4.4.e.~.@X}.2.2.8 _ {.{.4.oXc { ;X-X5X{   < o & & & & = & & & o o o <   q.6X+X",
"N C g 7 7 7 e w j P F P j 0 V P b o.N.].N.~.].e.c     k w.~.e.  k p c M.OX[ 6.X.j.<X;XOXc % , > , , , = = = = > d d & d   9.5XOX",
"e j C g q 7 9 7 j K C D P r N F r ` N.N.N.N.e.{   8 d   { ~.~.c       Q.eXN.6.8.J.7X<X0.  s i i i d h z z z x s     8 d   -.,X:X",
"q w e e w q 7 7 e 9 N V V V j C N C 9.N.~.N.~.W   i i . k [.[.p i A ` ~.9Xe.S 6.>XvX<XS   * X * y y     .       [ 2.  u   ] 8XyX",
"7 7 4 q 9 g s 7 4 4 j N j j B C V 0 k e.4.4.}._       = . 4.w.W X.{ S _ 4.k   e.BXBX=XJ ..T ..T I I >.n.n.Q.@X0XnX~.0 W c ` .X+X",
"7 q 2 4 4 7 w s 4 4 4 w f r 0 2 1 ` ` 4._ d e.W = W W W W ` ` k + . . [ 3.(.3.W._._.'.d.i.u.y.y.G.7XiX7XuXuX2X X9.X.X.X.X.X.X.' ",
"r 3 e 3 r 3 r r r b b b b 3 b &. XsX0X4._ 4 ` ` X.W A f +     Q T.(.'.`.'.`.)./././.'.4.B W B.2X>X;XG.h.a.u.a.o.` X.X.X.X.X.X.X.",
"n m m m m m m Z G m M M I h.uXpX2X2X2X9.4.` W k o       E W./././._.(./.E.R.T.E.`.`.(.6..X7X7X>XG.B.a.u.u.h.#.X.#.o.o.o.X.` } ` ",
"b m K m M M M J J J Y b.2XpXpXuX{.9.9.e.@.    X . p R ( !./././.E.R.Y.Y.3.^ ^ 3.( /.NXfXxX7X>X-XB.h.u.u.h.6.` X.X.o.&.&.#.#.#.#.",
"B I M J T y.i.v.b.G.eXgXpX%Xn.[.[.q.-.-.W   + y ~ T.W.R.Y./ ! / Y./ ( ^ H t ~ ^ ) / qXmX8X>X-XG.h.y.u.u.B.6.| X.X.#.#.&.5.5.5.5.",
"n r.p.-X;X.X2XdXtX0XtXpX0X@X9.#.6.8.w.W.2.R / Y.R.T.Y./ / / ^ ^ ^ ( Q z t E Q Q 3.9XgXgXaX<XK.G.h.u.u.u. X6.X.#.&.#.#.#.#.&.5.5.",
"3 B.xXsX0X@X}.eXtX2X2XdXbXfX0X XN.e.W.T.Y.Y.T.( ! ~ ~ ~ ^ x t E E a x Q 2.V.D.OX*XAXdX2X7XL.B.b.f.u.u.f. XX.| 5.6.6.5.5.&.&.#.&.",
"  ,XfX,X@X$X XH.B.B.B.-X7XiXcXVXVXVXW.( ( Y./ ! ~ ^ ~ [ { { 2.4.4.[ [ 3.V.&XrXaXdXAXAX:XK.K.b.k.u.u.h.B. X| #.&.&.5.6.g.6.5.5.6.",
"  e.tX=X}.5.:.| G } | a.~.;X2XxXVXVXQ.~ ^ ~ ~ 3.2.[ O.9.S.{.{.oXoX].e.A.D.8XdXvXvXMXKXAXb.s.h.u.u.v.v.K.~.&.&.#.&.| &.&.6.6.6.6.",
"2 @.0X1XXX-.N U | U | y.h.B..X-X-XF.N.{ E c _ O.o.6.z.H.+X,X4X8X6X5XOXOX,XaXyX5X4X8XAXJXVXB.| | a.h.B.-X5.6.6.&.6.&.#.#.&.&.5.6.",
"K c $X$X@X}.&.3 G U G G ..g.h.l.8.z.M.0.O.@. .$.h.j.M.:X2XyXdXdXdX8X+XOX:X<XOXD.l.l.:XeXVXDXl.G %.s.G.-X| X.6.6.6.6.&.&.&.6.6.6.",
" .X e.[.XX[.0X2XG G | U y.%.6.6.&.l.|.n.7.>.,.j.x.H.,X<X<X<X5XaXdXaX5X<X&XOXOXOX9. .` V ` 0XuXG %.%.B.:X~.6.X.o.&.&.&.&.#.&.&.&.",
"a.. e.[.n.S.MXLXbXG G | | $.1.6.&.m.|.M.1.,.s.s.J.;X.XJ.c.6.j.J.5X8X8X8X,XOXJ.|.q.L   &   ` 7XF.a.a.{.0X2XuX2X6.X.&.&.5.&.&.&.#.",
"f.1 4.XXq.yXGXKXLXbXU %...U F } ,.m.H.F.,.a.s.s.z.+._ g w f X.6.J.8XaXaX5X:XOX|.0.e , d , l ;X7Xx.F.0X9.C X.n.n.| #.&.$.$.#.o.| ",
"C.C _ 1XmXJXKXJXLXGXj.$.| U v V g.m.F.M.:.s.k.c.P       d d f W 0.5XaXmXdX5X7X,Xz.` q < .   +XaXB..X XW } } P } X.o.o.o.o.$.$.o.",
"G.Y c pXSXSXGXGXKXcX,.l.,.} | z.J.F.M.g.;.:.c.g.j < d   W ] = 0 >.:XyXmXMXdXdXdX+Xc.D < . k 4XxXJ.8.} F P ' P P F ` P P } } ' P ",
"L.*.X oXgXgXbXMXGXxXj.H.m.g.B.:XH.j.j.<. .s.F.j.D X i . S ` 9 e  .:XaXvXMXMXmXmXaX<X1.P S =.8XaX-.  X %   X         . +         ",
"C.f.  4.=X%X1X0XcXbXz.7.m.F.Z.J.B.,.8.1.:.Z.F.J.;.  , 8 s 5 f B ;.-X8XmXMXGXMXMXMXaX;Xz.0.Z.aXaXY n I I I Y T T t.t.t.t.p.t.p.p.",
"C.f.r c 7.4.n.N. X0X+XN.{.M.z.z.b.j.j.<.,.Z.H.H.m.O.f 9 f A ' Z ,.J.5XaXMXMXMXGXGXMXaXK.J.J.8XaXL.P.I.I.I.I.I.U.U.U.U.U.U.U.U.U.",
"C.f.K X S ] @.7.N.+X[.n.S.z.1.x.8.1.6.<.l.H.J.Z.m.n.#. .o.&.o.} s.J.:X5XcXMXMXGXGXJXMX5XD.K.,X<XhXU.hXhXhXhXhXhXhXhXzXzXzXzXzXzX",
"f.f.Y   q l S { -.@.] ] -.-.;.1.;.;.8.1.m.J.J.H.m.q.0.7.8.9.&...M..X,X6XiXvXSXSXGXGXGXvXOX-XJ.K.jXkXkXkXkXkXkXkXkXzXlXlXlXlXlXzX",
"f.f.*.. # s s l S q k S S L _ +.+.$.0.l.j.J.J.|.S.z.0.8.5.j.,.g. X:X:X:X2XiXvXMXSXGXGXGXcX<XH.K.jXjXkXkXkXkXkXkXkXzXlXlXlXlXzXzX",
"i.f.i.r   q 8 s s s s s e s q ` ;.>.l.z.1.H..XJ.J.m.z.8.7.j.j.M. X|..X:X2XyXdXbXSXSXGXGXHXxXn.B.3X3X>X3XjXjXjXjXjXkXkXkXzXzXzXzX",
"p.f.d.C   4 < w s g w w w s q ` <.<.<.l.8.z.H.H.Z.S.Z.Z.M.M.S. XOX X X:X:X6XiXcXbXcXcXbXGXJX2X9.Q.4.3.w.#X*X#X#X{.[.{.oXOXOX<X8X",
"p.f.f.K   : 7 8 w s s w w w , X.1.;.<.l.0.>.m.Z.Z.S.H.J.H.Z.|..X:X+X+X:X2XeX7X2XxXxXcXxXMXJXKX0XQ.~.Q.Q.Q.#X#X$X#X#X^.#X#X^.[.*X",
"C.d.i.Y   O < 6 w w w w q w c >.8.;.8.0.0.>.0.z.Z.S.S.H.Z.H..X X|.:X<XyXiXaXsX2X7X7XxXxX>XxXVXVX0X}.XX$X[.&X&X$X=X=X%X&X=XoXoX$X",
"p.i.i.T 6   $ $ 6 8 w q w 9 S q.j.*.;.0.l.1.>.0.q.l.m.Z.H..X|.H.H.|.2X8XyXyXyX:Xh.o.B.;XB.B.h.>XgX*XXX$X=XXX=X$X=XpX4X4X4XoX&XoX",
"d.i.i.T r   $ . O # $ 6 : s @.n.j.*.=.<.l.0.=.-.>.8.0.m.m.Z.Z.S.m.M.+X4X2X,XJ.} 3 G U Y | U y.G ,XsX*X$X}.[.oX{.oX&XeX6X$X{.[.&X",
"p.i.i.T q   $ # # # $ ; . d q.H.x.:.8.=.0.x.8.=.>.l.z.<.q.q.z.m.m.N.:X,X:X.X>.  v G F Z N 3 Z 1 $.eX1X1X4XwX6X&X#XoX&X,X&X%XXX+X",
"i.p.*.L   O # # # ; ; ; < . ` F.C.:.z.8.>.0.l.<.=.z.H.8.<.8.m.m.m.M.+X+X XH.' + h 0 5 9 0 0 j   c eX&X*X4X*X4X&X{.oX{.A.oX%X|.{.",
"p.p.Y ; O . O # # ; ; ; : i 8.J.d.8.x.Z.<.<.q.0.>.<.Z.q.8.q.n.q.l..X.X.X XM.&.e 5 4 + + 5 2 s   7.nX4X#X4X8X6X4X8X6XoXoX}.|.XX+X",
"i.*.q # .     O O # # ; # 8 z.C.T 1.c.F.0.<.0.0.<.;.-.<.0.l.0.l.n..X.XM.m.n.j.F + = o @ = 1 s . m.vXdXiXaXOXoX4XpX4XoX6XrX,XoX5X",
":.C O O #   O ; # # O ; O + F.3Xk. .x.Z.Z.<.0.0.0.0.>.=.8.m.z.l.m. XH.l.j.9.6. .0 5 @ 4 @ 4 @ + Z.aXyX6X,X].V.4X5X,X&X6X5X:X+X+X",
"K - O ; q O   O # ; q ;   V ;XcXL...0.Z.J.Z.0.l.0.0.<.;.>.m.q.8.j.S.Z.n.q.>.o.} D + . @ : : + ` S.6X+X,X4XOXD.=X5XoX{.oXoX&X5X6X",
"q O # l q     O O q l q ; 7.3X;XC.u.*.Z.Z.Z.0.l.0.0.0.<.8.z.O.S O.M.M.q.0.#.X.' D k 5 5 : w D O.S.oXD.,XOXoX{.&X&X+XV.q.e.V.e.oX",
"; O q q q         ; g g ] L.3XL.v.d.*.1.Z.Z.Z.j.l.0.0.0.0.8.>.L . O.n.0.7.;.} X.F F A f g S L 0.OXoXoX<X6XOX{.{.&X&X|.D.D.w.w.A.",
"O $ q q ; O O O   # l l V.L.L.L.j.C.d.=.0.Z.Z.l.0.8.0.1.8.>.<.8.} L >.>.-.=.' P K l w q ;   ] J.5XD.J.&XD.#XV.V.oXV.V.D.V.4.5XOX",
"# $ # q ; # O O     q L C.L.C.C.C.C.C.Y =.d.Z.z.l.0.0.8.8.<.-.<.j.6.;.X.` V f 6 # O .   + L K.<XD.D.D.D.D.V.#XD.OXV.V.5X&X{.&X{.",
"q q $ q q q q - # q H  .C.C.C.V.:.d.v.y.U d.l.c.z.j.0.8.,.;.:.;.;.,.g.<.] D k g g g l l O.F.5XaX5XD.&X&X5X8X4XV.e.D.oX4X6X4X&XoX",
"q q l l l l q H l L L =.V.C.C.:.:.a.v.f...8.0.z.c.l.6.<.<.<.;.O.o.,.g.:.:.;.o. .P P  .*.F.7X7X;X&XD.D.&XJ.8X5XD.e.oXaX4XoX&X5XOX",
"# - l H L L l H H H H q Y C.V.*.d.1.f.v...*.g.g.j.x.j.1.>.;.;.+.;.j.d.=.$.;.j.d.T C.C.C.L.aXvXK.V.D.V.D.D.OXoXoX&XD.oX5X8X&X4XOX",
"q l H =.=.H l q H L =.V.V.i.C.t.1.:.:.a.f.,.g.g.0.0.8.<.<.:.:.;.;.1.Z.1.:.:.x.j.V.C.V.C.V.L.K.V.D.V.OXL.D.D.V.V.&XoX#X4X8X{.oXD.",
"l H =.V.] ] =.L V.C.3XaXC.:.*.*.*.*.U k.L.b.g.k.j.j.g.1.1.1.1.,.<.s.j.C.0.d.C.1.*.*.V.P.P.D.&XV.V.D.D.aX8X&XV.V.&XoXV.V.V.V.V.D.",
"L L V.L H H V.] V.L.3XU.:.:.=.Y  .=.Y d.G.C.s.s.j.j.s.j.s.0.s.s.8.k.0.C.C.Z.C.d.C.*.T C.L.8XvXK.V.V.D.aX5X8XD.#X&X4XV.V.&XV.w.D."
};
