/* XPM */
static char *result[] = {
/* columns rows colors chars-per-pixel */
"64 64 246 2 ",
"   c #010001",
".  c #0A0404",
"X  c #02090C",
"o  c #0D0A0A",
"O  c #150805",
"+  c #120E0C",
"@  c #121105",
"#  c #14100E",
"$  c #1C120E",
"%  c #080A11",
"&  c #130E12",
"*  c #161312",
"=  c #191514",
"-  c #1D1916",
";  c #181718",
":  c #1D1A19",
">  c #290B07",
",  c #23140E",
"<  c #2A150E",
"1  c #231612",
"2  c #241915",
"3  c #2C1B14",
"4  c #2C1B17",
"5  c #221D1A",
"6  c #321D15",
"7  c #381F16",
"8  c #26211D",
"9  c #2A221E",
"0  c #34241C",
"q  c #3A241B",
"w  c #201E20",
"e  c #242323",
"r  c #2B2521",
"t  c #2E2925",
"y  c #2F2E28",
"u  c #332B25",
"i  c #3C2C24",
"p  c #342E29",
"a  c #3B3226",
"s  c #3B322B",
"d  c #29343B",
"f  c #3A3632",
"g  c #511E08",
"h  c #47291B",
"j  c #592A19",
"k  c #54331E",
"l  c #6A2E0D",
"z  c #672C18",
"x  c #68361D",
"c  c #763619",
"v  c #48352A",
"b  c #563727",
"n  c #52382D",
"m  c #473D36",
"M  c #672F20",
"N  c #683825",
"B  c #6D3A24",
"V  c #753A25",
"C  c #733C24",
"Z  c #754619",
"A  c #4B433A",
"S  c #584437",
"D  c #5D513F",
"F  c #6A442B",
"G  c #794426",
"H  c #76432A",
"J  c #7B432B",
"K  c #7D4B2C",
"L  c #644A38",
"P  c #774C35",
"I  c #7C4B33",
"U  c #6E533E",
"Y  c #7B5437",
"T  c #524C49",
"R  c #564C48",
"E  c #5B5149",
"W  c #675245",
"Q  c #655648",
"!  c #765A46",
"~  c #675D57",
"^  c #7C634E",
"/  c #6B6259",
"(  c #766756",
")  c #746C56",
"_  c #7B6C5A",
"`  c #685F60",
"'  c #6A6263",
"]  c #7A7067",
"[  c #7D7475",
"{  c #853915",
"}  c #823D28",
"|  c #86452B",
" . c #834A2D",
".. c #8B4B2D",
"X. c #8F4E2E",
"o. c #844D32",
"O. c #8C4C32",
"+. c #834D38",
"@. c #934D32",
"#. c #845334",
"$. c #8B5334",
"%. c #875837",
"&. c #84533B",
"*. c #8B553B",
"=. c #835D3C",
"-. c #8B5C3C",
";. c #935233",
":. c #935C3C",
">. c #985938",
",. c #A25D3A",
"<. c #86633E",
"1. c #96613D",
"2. c #A2653D",
"3. c #845D43",
"4. c #8B5D42",
"5. c #885F4A",
"6. c #995A42",
"7. c #A45F43",
"8. c #856344",
"9. c #8C6243",
"0. c #8C654A",
"q. c #8B6949",
"w. c #946344",
"e. c #9A6444",
"r. c #9B6946",
"t. c #93644B",
"y. c #946B4D",
"u. c #9C6A4B",
"i. c #92724F",
"p. c #866A57",
"a. c #8D6B54",
"s. c #966B55",
"d. c #887257",
"f. c #8D725C",
"g. c #927354",
"h. c #977759",
"j. c #94745B",
"k. c #9B7D5D",
"l. c #A26443",
"z. c #A76A48",
"x. c #B16F4D",
"c. c #A7724C",
"v. c #A76F56",
"b. c #A97855",
"n. c #B37957",
"m. c #847A64",
"M. c #867967",
"N. c #8C7965",
"B. c #947B63",
"V. c #9A7E63",
"C. c #987C68",
"Z. c #847A78",
"A. c #847B7C",
"S. c #A37D62",
"D. c #B67B61",
"F. c #9E805D",
"G. c #B0815B",
"H. c #8C826D",
"J. c #9C8265",
"K. c #95826C",
"L. c #9C846B",
"P. c #8D8273",
"I. c #928472",
"U. c #978877",
"Y. c #9D8A72",
"T. c #9B8D7B",
"R. c #9D917D",
"E. c #A38465",
"W. c #A3846A",
"Q. c #A48A6C",
"!. c #AA8D6B",
"~. c #B88766",
"^. c #B1926F",
"/. c #A68B72",
"(. c #A48C73",
"). c #A28E7A",
"_. c #A69074",
"`. c #AB9374",
"'. c #A5937C",
"]. c #AB957B",
"[. c #AF997E",
"{. c #B79879",
"}. c #B19A7D",
"|. c #BDA17C",
" X c #C39471",
".X c #8B8182",
"XX c #948987",
"oX c #9C9283",
"OX c #A29483",
"+X c #A89784",
"@X c #AD9B84",
"#X c #A59A8C",
"$X c #AA9D8C",
"%X c #B39C83",
"&X c #B39B86",
"*X c #A99F91",
"=X c #AEA18D",
"-X c #B5A186",
";X c #B5A38B",
":X c #BDA689",
">X c #BAA58C",
",X c #ADA293",
"<X c #B2A594",
"1X c #B8A694",
"2X c #B5A996",
"3X c #BCAA93",
"4X c #B5AA9B",
"5X c #BAAE9C",
"6X c #BFB097",
"7X c #BDB19D",
"8X c #BAAFA0",
"9X c #BDB2A2",
"0X c #C4AA89",
"qX c #C2AD93",
"wX c #C0AF98",
"eX c #C4B39B",
"rX c #C7B49A",
"tX c #C0AFA1",
"yX c #C2B6A3",
"uX c #C9B7A1",
"iX c #C4B9A6",
"pX c #CBBBA4",
"aX c #C1B7A9",
"sX c #C5BBAB",
"dX c #C9BEAC",
"fX c #D0BDA6",
"gX c #C7BEB0",
"hX c #C8BFB0",
"jX c #CFC0A6",
"kX c #CEC1AD",
"lX c #D3C3AD",
"zX c #D8C7AF",
"xX c #CCC3B4",
"cX c #CFC6B8",
"vX c #D3C5B3",
"bX c #D8C7B4",
"nX c #D5C9B6",
"mX c #D9CAB5",
"MX c #D0C7B8",
"NX c #D4C9BA",
"BX c #DBCDBA",
"VX c #DDD1BD",
"CX c #E1D1BC",
"ZX c #D9CFC0",
"AX c #DED1C1",
"SX c #E1D4C2",
/* pixels */
"7X7X6X7X7XiX7X7XiXiX9X9XkX9XsXsX9XgX9XgX9XgXaXgXaXgXgXgXsXgXgXgXgXxXxXxXxXcXcXxXMXMXxXMXMXcXMXMXMXNXNXNXNXNXNXNXNXNXNXNXnXnXNXNX",
"5X7X5X7X7X9X7XiXyXiXjXjXsXsXsXsXgX9XgX9X9XgXsXaXgXaXsXsXgXgXgXgXgXgXxXgXxXxXxXxXxXxXMXxXxXMXMXMXMXMXMXMXNXNXNXNXNXMXNXNXNXMXNXNX",
"7X5X7X7X7X7X9X9X7XiX7XL.L.7XsXsX9XgX9X9XgXaXsXsXsXsXsXsXgXsXgXgXgXgXxXxXgXxXgXcXxXMXMXMXMXMXMXMXMXMXNXMXMXNXMXNXNXNXNXNXMXMXnXnX",
"7X6X7X7X7X7XiXeXiXjXH.g Z d.9XxXxX9XxXxX9XgXsXsXsXaXgXgXgXgXgXgXgXgXgXxXxXgXxXcXMXxXxXxXMXxXxXMXMXMXMXMXNXMXNXMXMXNXNXMXnXNXNXVX",
"6X5X7X7X7X9X7XiXjX6XZ P Y Y }.xXxX9XsX9XsXsX9XsXgXaXsXgXsXgXgXgXgXgXgXgXxXxXxXxXcXxXMXMXxXcXcXcXcXcXMXMXMXMXMXNXNXNXNXnXNXNXNXnX",
"7X7X7X7X7X7XiX9X9X_.F Y ! <.i.2XxX9XsXsX9XaXgXsXsXsXgXsXgXsXsXgXgXxXgXxXgXxXxXxXxXxXxXMXxXcXcXcXcXcXMXMXMXMXNXNXxXMXNXNXNXNXNXNX",
"7X6X5X7X7X9XiX9XjXH.Y <.<.^ <.i.6XxXsXsXxX9XsXsXsXsXsXsXgXgXgXgXgXxXgXgXxXgXxXxXxXxXxXcXcXxXxXcXcXxXcXxXMXMXZXgX$XxXZXMXNXNXZXVX",
"7X7X7X7XeXiXeXjX7XF.<.<.%.<.<.^ L.9XxXsXsXxXsXsXsXsXsXgXaXgXsXgXgXgXgXgXgXcXgXxXxXxXcXxXcXxXxXxXcXcXxXcXMXMXNX2XH.xXZXZXZXZXNXxX",
"7X7X7XeX9XeX9XsX6Xi.=.<.<.<.=.8.8.Q.dXxXsXsXdXsXsXsXsXsXsXxXsXxXgXgXgXgXgXxXxXxXxXxXxXxXxXxXxXxXxXxXxXxXcXcXBX,XH.xXcX9X,X#XI.f.",
"7X7X7X7X7XyX9XkX;X8.=.<.w.w.9.4.3.q.[.sXxXdXsXsXsXsXsXsXsX9XxX9XgXgXsXxXsXjXsXxXxXxXxXxXxXxXxXxXxXxXxXcXcXcXsXoXT.#XoXm.) U F L ",
"6X7X7XyXyXeX9XjX[.<.Y %.<.w.4.=.3.q.i.;XxXsXsXsXsXsXsXsXsXsXsXxXsXgXsXxXsXxXxXkXxXxXxXxXxXxXxXxXxXxXcXcXMXZXMX,X' E A T D f s y ",
"7X7X7X7XyXyX9XjX].! %.%.:.4.-.4.-.y.g.b.yXxXsXdXsXsXsXsXsXkXsXxXxXsXsXkXxXsXxXxXxXkXxXxXxXxXxXcXcXcXcXxX9X4X#X' @ e ; * * ; * * ",
"7X7X9X7XiXeXiXiX(.Y =.#.-.1.-.-.-.9.h.h.=XxXsXsXgXsXsXsXsXsXsXsXsXkXgXgXxXsXxXsXjXsXxXxXkXgXgX8X,XoX[ / m @     : 8 2 - - : : : ",
"7X9XeX9X7XiXiXjX_.<.=.#.*.:.-.-.-.q.y.h.F.7XxXsXgXsXsXsXsXsXsXsXsXsXsXkXsXjXsXkXsXsXkXsXsXsXR.8 X       o 5 e r 8 : 5 8 5 5 5 8 ",
"7X7X9X9XiX7X9XjX].8.9.Y  .%.*.-.*.w.r.h.g.[.xXkXsXgXsXsXkXsXsXsXsXkXsXsXsXsXsXsXsXiXiXiX7X7XH.  8 s A f r t s f 9 r y s f y 9 y ",
"7X9X7X7X9XiX9XkX;X8.q.%.K $.$.$.-.9.i.h.F.E.4XxXkXsXsXkXsXsXsXxXsXsXsXsXsXiXsXsXsXiX7X4X,X,XH.: * s E A u y * :   r 9 r y t 9 8 ",
"7X7X9X7XyXyXyXdX5Xq.q.-.#.#.$.o.o.-.h.b.W.E.}.iXxX9XxX9XxXsXkX9XiXsXiXsXiXiXiXiX9X7X=XR.P.Z.Q ; - 9 9 s -   E '.P.  5 5 2 : : 2 ",
"7X9XeX9X9XiXyXdXyXg.9.-.#. .$.o.o.<.V.E.W.E.E.-XsXkX9XkXsX9X9XsXaXiXiXiXiXaXaXiX7XoXd.] ) Q A = ; : y   o d.-XzXoX  9 8 2 5 : - ",
"7X9X9X9XyX9XiXiXdXL.<.9.#.G  . .$.4.W.!.b.F.E.!.7XkX9XsXsXsX9XjX9XiXiXyXyXyX9X9X=Xm.m.m.) ~ A * 8 9   A '.qXqXOX9 O e - 8 8 2 2 ",
"9X9X7XyX9XyXiX9XkX%X%.y.%.G G K o.0.W.W.J.Q.`.{.2X9XkX9X9X9X9X9XiX9XyX9X9X9X7X,XH.H.m.] _ Q A 9 .   / -X3X'.K.u   t 8 9 9 9 9 8 ",
"8X9X9XyXyXyXaXiXdXwX9.%.%.I C V I s.E.V.J.`.:XuXkX9X9XjXiX9X7X7X9X9X9X9X7X7X,XR.H.m.m.] ) Q T   8 I.>X>X)._ i * p 9 9 9 9 9 9 9 ",
"7X9X9X9X9XyXyXyXdXaXg.K Y o.J V J g.J.F.k.].>XlXnXkXiX9X7X7X7X6X5X5X5X5X7X2XR.H.H.H.m.m.) E A Q ].:X%X].N.a - t 9 9 9 9 9 9 9 9 ",
"9X9X9X9X9XaXaXaXsXsXJ.-.Y K H B z a.W.V.i.Y.>XwXrXjXeXeXjX7XiXiX7X2X2X2X=XR.H.H.H.H.m.) Q ( 3XqX-X{.-X).S + 9 8 9 9 9 9 9 9 9 9 ",
"8X9X9XyX9X9XiXaXsXaXJ.q.q.H H C z 3.J.j.q._.-X[.[.-X:X6XjXjXzXVXVXvXsXiX6X=XY.H.m.) ] ) ) >XlX3X%X%X3XN.. 5 4 8 9 9 9 9 9 9 9 9 ",
"yXyXyX8X9XaXaXaXsXdXL.x 3.Y V C M B s.B.B.[.[.`.`.:XrXpXjXjXmXmXVXVXnXVXVXVXzXzX7XR._ H.3XrXeX>X&X&XqXM.+ 8 8 8 9 9 9 9 9 9 9 8 ",
"8X8X8XyX9XaXaXaXaXdX'.#.Y Y B V V M 3.B.].[.Q.Q.}.wXpXzXnXBXVXmXVXjXjXjXzXnXVXVXSXVXpXkXrX1X;X@X&X&XqXI.+ 8 8 9 9 r r 9 r 9 8 9 ",
"aX8XaX8X9X9XaXaXaXdX_.J.V.=.H B M N f.].%X}.}.-X:X6X3XeXkXVXVXVXnXjXiXjXsXjXjXNXVXmXCXCXvX=X(._.}.%X0XN.  5 : 2 5 : 5 2 : : : 2 ",
"8X8X9XtX9X9X9XaXaXsX@XJ.(.a.Y F N 3._.&X}.:X-X}._.L.Y.].2XjXnXVXzXrX6XrXiXjXjXvXBXmXbXmXBX<Xd.L.%X&XqX(   - * = = = ; = = ; = = ",
"9X8XyX8XaX8X9XaXaXaXyX'.j.q.=.3.a.W.}.}.`.Y.^ U ! D _ Y.-X2XkXBXjX2X2X7X6XiXjXiXdXvXbXlXbXyXj./.;X&XqX_   5 ; ; ; - ; ; : : : - ",
"8XyX8X9X9XaX9XaXaXaXsXaXY.f.k.Q.!.].`.!.! 0 9 & 2 q D F.[.2XeXnXjX:X2X|.;X=X;X6X7XiXlXbXbXdX)._.[.Q.qX).  : ; * ; - ; ; = ; = = ",
"8X8X8X8X8X9XaXaXaXaXaXxX5XJ._.`.`.^.!.F.W m r e e 8 v ^ '.;X7XlXjX|.:X[.[.R.R.[.#X+X1XfXmXzXtXC.s.k.&X]   - * ; = - : w : : 8 e ",
"8X8X8XyX9X9X9X9X9XaXaXsXaX_.k.`.`.!.!.h.E W t ; p 0 3 U '.2XeXvX6X=X2X=XR.R.H.H.p.( f.).uXbXfX&Xj.h.&XT   ; * * ; = ; : : e e e ",
"8X8X8X9X8X8XtXtX9XaXaXaXsX5XL.Q.E.h.[.(.0 9 a = 1 q h ^ @X5XpXlXiX|.2X2XR.H.) Q v 2 , m ).pXfXqXW.E.;XE   - ; ; - 5 5 ; = ; ; ; ",
"8X8X8X8XyXaXaXaXaXaXaXaXsXxX;XJ.F.F.%X%X! > 2 2 u v b d.@XqXlXvXiX7XiXyX}.m.S 8 a 4 f d v 3XfXpX%X`.3XE   5 : * - 4 5 - ; ; ; ; ",
"8X8X8XyX9XaXaXaXaXsXgXaXaXhX;Xg.k.`.-X%X(.! L W ! P f.'.[.6XlXbXjX7XxXiX=Xf.S a W q e w S qXfXpXqX;X3XT   ; * * * = = * * * ; * ",
"8X8X8X8X8XaX&XD.D.&XtXsXaXhXyXV.k.{.-X%X'.L.B.B.a.f._.-X;XrXfXvXjXjXnXjX'.Y.^ q i 0 =   ) rXrXuXeX1X_   * = * = = = = = = ; ; ; ",
"8X4X8X8XaXtXs.{ >.6.v.3XsXaXwX`.Q.}.-X@X].K.K.K.C.].@X-X3XpXvXbXBXVXVXNXiX=XL./ S i u m =XlXrXrXuXI.    ; * * = = = * ; ; = = = ",
"4X8X8X8XtXaXC.} 4.6.x.D.qX:X^.^.`.}.-X[.+XY.J.Y.].%X-X;XwXpXzXbXBXVXAXVXnXjX-XY.T.N.N.OXaXnXrXuX#Xp # : * = ; * * = * = * * * = ",
"4X8X8X8X8XaX).} } 6.v.D.n.^.^.!.`.].-X].`._.(.+X@X;X;X1XuXfXlXmXBXSXAXVXMXvXeX=X$X$X<XeXdXvXpX3X/   5 # # * * = = = = = * = = = ",
"4X4X4X8XtXaXtXs.c } 6.D. X^.^.Q./.}.}.].].@X@X].&X;X3XeXuXrXuXrXfXmXSXAXnXvXkX6X$XT.$XyXxXnXpXK.o # ; # * * * = * * * * = = # * ",
"4X4X4X8X8X9XsXC.c +.6.v.D.D.!.E._.}.].].%X;X].@X;X7XrXrXwXrXrXrXfXfXAXSXAXbXMXdX=XOX,XtXkXvX7XA   w o # * * * * * * * * * * * = ",
"4X4X4X8X5X9XaXC.{ O.@.7.v.n.~.L.Q.`.`.`.;X-X@X;X3XeX1Xf.p.].3X-X&X>XfXAXAXZXMXvX5X<XtXaXiXxX=X$   : + * # * * * * * * * * * $ # ",
"1X2X4X4X4X8XaXW.{ O.@.l.x.x.n.b.J._.Y.`.&X&X].>XeX-XU x F K 8.Y 3.4.C.dXZXBXbXhXvXdXtXtXsXkXH.  : # * * * * # * * * * * # * * * ",
"2X2X4X4X4X8XaX+X..O.;.l.x.7.x.S.J.Q.J.L.]._.[.rX;X^ x F F x x F I s.t.C.sXSXfXuXnXnX2X<X9X6XQ   : + % # * # * # # # # * # # * * ",
",X4X4X<X8X8XaX<X$.;.;.;.2.z.2.G.k.Q.W.J.Q.C.:XrX(.b S b k k k k F Y a.0.+XZXbXsXdXvX5X$X5XT.a 0 + + # # # # * # * # # # # # # # ",
",X,X,X4X4X4X8XwXh...O.;.>.2.x.b.g.k.Q.L.W.(.3X>XL.h 3 < h k h k k h L J C.MXBXdXhXfX$XOX#X( a 9 X + o + # # + + o * # * * # + # ",
",X<X4X4X4X4X8XaXS.X.1.r.1.,.x.c.q.q.B.k.Q.;X>X&XC.g 6 o 0 h h h 0 $ 0 > C.hXBXfXuX8XI.T.T.D A 8 X + # = - $ # # # + o # + + # $ ",
",X,X,X4X4X4X8X9XV.$.1.r.u.l.2.c.q.<.i.V.].-X%X&XJ.j 6 $ , h q q . 3 6 O OXvXvXhXwX).N.#Xm.S A 8 X @ $ , , 1 2 2 - = $ # # + + + ",
"*X,X,X<X8X8X8X9XC.:.6.<.r.c.c.-.<.q.<.h.`.-X[.'.W.L O 6 0 6 q q 4 7 b ! &XdXsXbX6XK.R.Y.) D v 8 . o $ , $ , 1 1 2 2 4 2 1 1 - - ",
"$X*X,X,X,X,X,X9X/.>.w.w.1.c.1.G <.q.<.i.].-X+XK.C.^ , q q 3 < 3 h v n C.1XwXdXBX7XH.H.) ) D A 8 o # , 6 6 6 6 < > $ O < 6 6 < 7 ",
"#X*X,X,X4X4X4X9XOX;.e.w.-.:.#.G Y q.8.J.].%X'.C.f.! h . 6 < < 0 4 X S T.<X4XdXBXiXH.) ) ) D A 9 . .           .   X X .   . 7 6 ",
"#X#X*X,X,X,X,X8X+X>.e.6.1.1.<.K Y i.h.J.Q.].`.C.p.! L 4 $ $ $ 1 . 0 _ ).@X5XdXMXjXL.m._ ) A e X   5 v S U Y 4.e.u.v.s.s.a.n . > ",
"M.#X#X*X*X,X,X4X&X1.e.r.1.1.=.K x g.E.J.J.`./.B.a.a.p.U h 2 6 q n L _ U.$XuXvXvXrXqXY.d.d.p.9.r.u.c.z.x.x.x.z.7.7.x.7.x.n.0Xp.. ",
"(.#X$X*X*X*X*X4X@X1.r.u.r.<.%. .c I E.F.B.C.J.B.a.p.! L n v v S S W ^ U.<XyXdXuX|.{.~.G.n.x.z.l.2.,.,.,.,.>.@.@.} } } @.@.D.{.4 ",
"OXOXm.OX*X#X$X<X].:.l.z.t.9.Y  .J x ! k.J.C.s.! n v h v s u i n n W ^ N.@XuXrX!.>.,.1.2.2.:.O.O...X.X.@.;.;...O.} } } } @.6.v.u ",
"5 5 $ E OX*X#X*XW.2.e.l.r.=.%. .C G z F j.W.B.a.! v 6 1 .     $ u n W ^ C.+XV.Z %.-.$.;.;.o.| | ..| ..X.X.X...o.@.} V } } +.N   ",
"u p p O Q OX$X#Xb.l.e.l.w.4.*.I J V C z z U 0.0.s.s.^ n n v v n W ( p.f.a.P l C  .o.....|  .J J  . .O.*.O.+.V V } } M M z h X . ",
"r 9 r 5 = M.*XOXc.c.u.r.4.w.*.K +.V V H x z g g N 5.f.f.a.s.p.f.C.C.j.4.*.V V J  .o...X...X.+.J  .| | J V N k h h h 3 $ X   + + ",
"5 w 5 e   / #XOXu.u.t.:.4.4.4.&.+.} V V J J V M j j N ! 0.5.a.s.a.5. .$.;. .J | #.-.1.1.-.#.G V N N n n 6 .   X X X X   O $ o o ",
"- 2 - 8   R oX(.r.e.r.t.t.u.s.4.+.4.3.P J J H C B b M M F B B V V c | 6.:.4.-.*.%.#.Z c Z x b S R R T T T m p o   . & - & . . . ",
"r r 8 t   m U.W.u.u.u.u.t.s.s.t.5.4.4.V J J P I +.+.I Y P B V V c J ;.r.u.q.Y x l U q.k.p.E ~ ` ` ` ` ` ' ` ~ E A e   X   = = o ",
"          p Z.b.z.z.t.t.t.y.s.t.t.6.4.V &.+.+.+.+.*.&.&.H B V z z V ..1.v.b.t.f.{.|.3XrXOX' ] ] [ ] [ [ [ [ [ [ [ [ ' T 5     . ",
"( _ ~ A .   ~ b.r.y.w.5.5.s.s.t.6.5.4.+.3.+.&.Y &.I J C z j x c o.:.2.c.x.G. X X|.0XqX:X@X).XXZ.[ [ A.A.A.A.A..X.X.X.X.X[ ' m   ",
"%X].).(.N.y F c.u.e.w.0.6.t.t.t.5.4.3.3.3.I P J H B M M x  .1.z.n.G.G.G.n.n.n. X X{.:X-X X XqXtXXX[ Z.A.A.A..XA.A..XA..XXXXX.X[ "
};
