/* XPM */
static char *result[] = {
/* columns rows colors chars-per-pixel */
"64 64 211 2 ",
"   c #010202",
".  c #070A05",
"X  c #050609",
"o  c #06090B",
"O  c #0A0B0D",
"+  c #0F1306",
"@  c #0D110E",
"#  c #15160C",
"$  c #070C11",
"%  c #0D0F11",
"&  c #100F11",
"*  c #0F1213",
"=  c #131315",
"-  c #151914",
";  c #191B16",
":  c #141619",
">  c #161A1B",
",  c #1A1C1C",
"<  c #231E1F",
"1  c #1E2117",
"2  c #1D201D",
"3  c #21231C",
"4  c #1C1F21",
"5  c #1E2222",
"6  c #232424",
"7  c #2A2725",
"8  c #252925",
"9  c #242629",
"0  c #26292A",
"q  c #2A2C2C",
"w  c #312D28",
"e  c #2D312E",
"r  c #32312E",
"t  c #3A332E",
"y  c #2B2E31",
"u  c #2E3233",
"i  c #323534",
"p  c #363836",
"a  c #3B3B36",
"s  c #36393A",
"d  c #3B3C3B",
"f  c #423D38",
"g  c #3D413D",
"h  c #43423D",
"j  c #48433B",
"k  c #3A3E42",
"l  c #383D46",
"z  c #3D4142",
"x  c #3F4648",
"c  c #434544",
"v  c #464847",
"b  c #4C4A45",
"n  c #444748",
"m  c #45494B",
"M  c #4A4C4C",
"N  c #544E47",
"B  c #4D514F",
"V  c #53524D",
"C  c #5A554C",
"Z  c #5B544D",
"A  c #464C57",
"S  c #494E52",
"D  c #4E5252",
"F  c #4E545A",
"G  c #535555",
"H  c #595753",
"J  c #5D5953",
"K  c #525659",
"L  c #555A5B",
"P  c #5B5D5C",
"I  c #625B53",
"U  c #645F5A",
"Y  c #5D605F",
"T  c #67635D",
"R  c #6A645C",
"E  c #535A64",
"W  c #5A5E62",
"Q  c #5D6263",
"!  c #5D646C",
"~  c #5F6771",
"^  c #636564",
"/  c #686764",
"(  c #6B6A65",
")  c #636769",
"_  c #65696B",
"`  c #6B6D6C",
"'  c #706F6B",
"]  c #6F706D",
"[  c #76746B",
"{  c #696E72",
"}  c #6D7273",
"|  c #67717D",
" . c #6B737C",
".. c #727574",
"X. c #7B7A75",
"o. c #757778",
"O. c #75797B",
"+. c #7B7D7C",
"@. c #807E74",
"#. c #7F817E",
"$. c #83837C",
"%. c #8C887B",
"&. c #6D7681",
"*. c #6F7883",
"=. c #737B84",
"-. c #7A7F82",
";. c #757E89",
":. c #7D8283",
">. c #79838B",
",. c #7B848C",
"<. c #7D8792",
"1. c #838583",
"2. c #848786",
"3. c #8C8B85",
"4. c #858A8B",
"5. c #8B8D8C",
"6. c #918F84",
"7. c #8E918E",
"8. c #93938C",
"9. c #9A978B",
"0. c #848C93",
"q. c #858E97",
"w. c #8D9293",
"e. c #8B949B",
"r. c #88939F",
"t. c #949693",
"y. c #959896",
"u. c #9B9B93",
"i. c #959A9B",
"p. c #9B9D9C",
"a. c #A39D8D",
"s. c #A29F94",
"d. c #9EA09E",
"f. c #A4A295",
"g. c #ABA696",
"h. c #A4A39B",
"j. c #A9A69B",
"k. c #ACAA9C",
"l. c #B2AD9C",
"z. c #B8B19F",
"x. c #8B96A2",
"c. c #939CA4",
"v. c #969FA8",
"b. c #9DA2A4",
"n. c #97A0A9",
"m. c #9BA4AC",
"M. c #9DA7B2",
"N. c #A3A5A3",
"B. c #ACACA3",
"V. c #A4A8A8",
"C. c #A4AAAC",
"Z. c #AAADAB",
"A. c #B1AEA1",
"S. c #ADB1AE",
"D. c #B5B2A5",
"F. c #B9B5A5",
"G. c #B4B4AB",
"H. c #B9B6A9",
"J. c #B7B9AF",
"K. c #BCB9AC",
"L. c #A5ADB5",
"P. c #AAAFB5",
"I. c #A5AEB9",
"U. c #ADB2B3",
"Y. c #A9B3BA",
"T. c #ABB3BB",
"R. c #B3B5B3",
"E. c #B5B9B6",
"W. c #BCBCB3",
"Q. c #B1B7BB",
"!. c #B4BABD",
"~. c #BABDBA",
"^. c #C1BCAE",
"/. c #C1BEB2",
"(. c #BDC1BD",
"). c #C7C6B8",
"_. c #C4C4BC",
"`. c #AEB7C1",
"'. c #AFB8C1",
"]. c #B3BCC4",
"[. c #B9BFC4",
"{. c #B5BEC9",
"}. c #BCC2C3",
"|. c #B6C1CB",
" X c #BBC4CD",
".X c #BEC8CF",
"XX c #BCC6D1",
"oX c #BEC9D3",
"OX c #C3C6C6",
"+X c #CCCDC3",
"@X c #C3CACD",
"#X c #CBCECA",
"$X c #CDD0CB",
"%X c #D4D5CA",
"&X c #C3CCD4",
"*X c #C7CDD5",
"=X c #C5CFD9",
"-X c #C9D2D7",
";X c #C6D1DA",
":X c #CAD4DC",
">X c #D5D9D9",
",X c #CCD7E0",
"<X c #CED9E2",
"1X c #D3DCE4",
"2X c #D4DFE8",
"3X c #D9E3E9",
"4X c #DBE4EB",
"5X c #E0E8EE",
"6X c #E3ECF3",
"7X c #ECF3F9",
"8X c #EDF4F8",
/* pixels */
"K z i 0 i m Q Y g t b I Z I I J P L S k q 7 1 2 , @ B D 2 1 1 3 1 1 u s 5 5 s y z g 4 0 u u 8 e L #.>.} B g 8 g 1 1 1 + # 1 - # ",
"F c L L Q } ` Q a w j Z Z I I J H ! E d 4 r 7 @ , # p m 8 + 1 1 1 - u x z 5 > 5 5 > > y u * x #.<.#.#.Y B B g g 8 3 g 8 - # e Y ",
"x s D ` }  .` K p r j C I Z Z I ^  .! z n K a : 8 > + x S 8 + - . > 5 0 u 5 o o 5 u u 0 > z | <.:.Y Q L g x g x g 3 g g 8 1 Y #.",
"s z L O.o.W Q { G w f N I Z Z I U } _ K ! L a > 5 2 + M } Y @ . - 1 > . @ - $ 2 g x u - g #.>.} _ Y G g g B Y L B g g g 8 g _ ..",
"z z L o.-.` _ +.U < f N I I I I J W K L L c e 1 5 0 2 e Q O.B . s 0 o . $ @ 2 x x s 0 0 D } _ B B g g g x L ) L V a e p c Y ` ^ ",
"0.F m Q  .O.} } I w f N U I I I N p y i s z g q 0 0 2 . i ` ` i 2 5 * . @ . e S g 5 0 u m G g e g e B _ Y ^ _ L B a r v Y _ ] ..",
".XC.e.4.-.:.:._ j t f N R I I R J c l u s l s a 2 2 2 u s m Q M 2 2 2 1 @ . 5 i 1 . @ 2 g B x e x L _ _ ) #.Q D H g b Y G _ ..` ",
"oX&X*X&X].]..Xc.) c f N N Z Z R J k l x x 5 6 a 2   u B g 2 i g x z 0 0 5 5 5 0 0 g x 2 0 B B s F } Q D Q #.! L T h H / D _ ..Y ",
" X.X&X:X3X:X3X-X{.0.4.i.1.o./ I f   = z s o @ t 6   q i q 0 : = v Y S D D m g 8 0 } :.x . i v g B } } Q _ } _ ) _ j b M z _ / P ",
"&X.X.X|.XXoXoX&X-X X.X&X|.[.U.1.  H ) e 0 * O i r 6   P 5.M @ 4 v Y Q ! L D B 0 > ` :.G i 2 c G _ ,.4.O.:.:.} } X.M H D s _ Q P ",
"oX-X;X;X;X=X;X=X*X*X;X-X*X;X1XP.. 1.p.M       t f $ * c.U.) u y S ! { Y g x S s 1 g v G ! L Y { ..:.:.#.#.#.} } #.V V B m #.O.} ",
"|.|.|.oX;X:X:X<X<X1X1X1X<X,X1Xw.h 5.t.1.} P   + c   P R.Z...z 0 g Y _ G g F m u - p c x Q } { ~ Q } :.:.#.,.4.y.7.P P Q  .y.e.y.",
"|.|.|.|.|.|.|.XX&X;X:X1X1X4X@Xl X.5.1.5.@X}.w.O.Y   1.B.p...k q F Q m m Q ~ Q x E | ;.&.&.| *.>.<.r.n.d.b.Y.Y.L.c.,.0.x.n.m.m.m.",
" XoXoXoXoXXXXX|.|. XXXXX*X:XO.f 5.( +.3.!.4X:X!.K q V.N.i.P k u S Q E ! | *.&.*.,.<.x.x.x.x.<.<.x.c.x.r.c.m.n.c.e.i.v.c.c.c.n.m.",
"oX,X,X,X;X,X<X<X;X;X:XoX=Xm.  O.' N X.9.2.T.].}   b h.R.i.s >   > z x E ! ~ &.&.>.<.<.<.x.x.<.<.>.>.>.>.,.<.<.0.q.e.e.q.0.q.w.n.",
",X:X<X<X<X2X<X<X<X<X<X2X;XW N 1.f C 1.u.V   i   =   ^ p.U.C.i.:.{ ! ! A F E ! ! |  .&.;.*.&.&.&.| &.*.*.=.=.=.;.;.,.>.>.>.>.:.<.",
":XoX<X<X<X<X2X2X2X2X2X4XM.1 $.3.t T 8.X..   o 0 >   X P T.-X;X*X X{.P.v.m.q.<.0.&.<.c.<.&.&.=.&.&. . .*.&.=.*.=.=.=.=.=.;.;.;.=.",
",X,XoX<X<X<X2X2X2X2X2XXX^ J ] 3.f U 3.P   > 9 5 > > 4   4..X=X:X*X=X*X*X*XXX{.{.M.XX1X=Xv.0.q.0.<.<.0.x.c.c.i.x.e.c.v.c.v.c.x.x.",
"2X:XoXoX;X;X<X<X<X3X2X0.  $.X.R f U ( r     X 4 5 : 9   ) .X,X,X=X=X:X,X1X:X=X=X,X5X5X6X*Xb.b.v.b.m.L.Y.T.T.T.P.P.`.`.I.L.I.T.P.",
"2X2X2X2X<X;X;X<X:X3XY.6   ( %.$.U b f     X   X * > > > 4 P.<X,X,X1X,X1X1X1X<X,X1X5X6X6X>X`.P.P.Y.Y.U.L.T.P.P.T.T.P.P.P.L.I.Q.I.",
",X<X<X<X2X2X<X<X3XXXF   *   T $./ a * X     X X X * : 9   { :X1X,X,X,X:X,X>X,X,X,X3X7X7X>X{.{.{.!.!.T.T.Q.P.I.T.T.L.P.I.I.P.I.I.",
"<X<X2X2X<X<X<X<X=XO.  *   X s I H ,   o   X X   X $ X $ 6   L.5X2X2X,X=X*X:X=X<X1X4X7X7X5X1X>X:X&XoX.X{.].'.].].T.T.T.T.T.I.P.'.",
"<X<X<X<X<X<X<XoX>.  X   X     q 3   X X o X X X o   y 0   d V.1X4X5X4X2X4X1X1X4X4X4X7X7X6X1X:X:X:X=X;X&X X@X{.@XXX{.].].'.I.T.].",
"<X<X<X<X<X<X<Xm.5   O X o   X       o * * $ $ * =   ..d.i K ~.!.>X2X4X5X5X5X4X4X3X5X7X7X5X1X*X*XoX X.XXXXX X{.{.*XXX{.{.{.].'.].",
"<X<X<X,X:X<X|._   O X O % $       = > > : * * :   9 5.~.c.z ~.u.P.5X1X4X5X4X4X1X2X6X8X7X6X2X:X:X=X&XoXoX;X=X{.{.{.{.].{.{.{.].`.",
"<X<X<X<X<X;Xi.0   * o O o $ $ : > > 4 > > :   : * q +.8./.] o.t.{.6X4X4X5X3X1X1X3X4X5X5X4X2X1X,X=X=X{.;X=XoXXX=X*XXXXXXX{.{.{. X",
";X<X,X,X:X'.L   : o X o X X       = > 5 5 : s 5   7 i B b.o.  S 2X7X6X6X6X3X>X4X4X5X6X4X1X>X:X*X&X{.{.{.{.{.{.oX=X=XXX{.{.`.{. X",
";X;X;X;XoX<.> > * o O X X $ $ 4           X m M i 7 <   M n *   C.XX:X4X5X5X5X4X5X4X3X2X1X1X1X1X=X=X{.{.{.{.{.XXXX*X&XXX{.{.{.].",
";XoX;X;XI.F   > $ X : * O   p +.w.4.t.5.Q 6 6 G U q < q   : 6 9   4 L -.5.5.w.0.4.O.{ o.,.w.m.P.`.{.{.{.{.{.{.{.XX=X=X=XXX{.XXXX",
";XoXoX|.M.x $ > O   O : O > s :.Z.R.~.+Xb.g   = p c r q 9 O 6   9 :         y G q             , A { e.{.oXXX{.XXXXoX=X=X=XXXXX{.",
"oX|.|.`.<.x $ - . X   & > 5 L :.V.G.R._.G.:...a   < p n d q 5.U   i s : S 1.w.-.n i s u q 6 =       X K v.{.oXXX{.XXoX=X=X,X,X=X",
"oX|.`.M.<.s $ - X   X X , c _ +.i.R.~.~.(.(.(.N.o.B M ( < P Z.Z.(   < = ` y.@.M O X O = > < 6 , > &     X ;.{.oXoX=XXX,X=X{.oX=X",
"{.`.M.x.!   = O     . X % ) y.N.N.S.E.(.(.(.(.~.~.U.B.R.2.u.R.E.R.+.X   ` @.G : O o o O = = - , ; = = =     } .X:X=X,XoXoX{.{.|.",
"].Y.m.,.l   , X     X X   M 2.V.R.E.R.E.W.R.Z.S.E.E.(.#XOX~.~.~.}.E.y.K L -.G   O X X O & = , & = < = ; > ,   W `.=XoX=X,X,XoX|.",
"`.Y.n. .9 = = O         O   M 5.B.G.G.G.G.S.S.N.Z.U.E.OX_.~.R.R.OX}.~.Z.O.Q W <   . X O O & & & & & & > & , 6   m L.oX=X<X<X,XoX",
"T.I.e.E = = & X       X   = ( y.S.G.J.).J.N.S.Z.V.Z.R.E.R.E.R.Z.R.~.Z.Z.5.k 6 u =   X X O O & O . X O X O = * w     C.=X=X<X2X,X",
"'.L.4.x o $ $ X X X     X % 6 O.B.G.(.(.+XJ.V.Z.Z.Z.S.U.U.Z.Z.N.U.R.R.N.Y = d u < % O X O O O . . X . . X O O   9   y I.,X<X<X,X",
"{.L.4.s $ = $ X           .   d 5.B.l.F.)._.B.d.Z.U.d.y.N.U.N.v.U.Z.N.y.^   9 q , : : % O X O . X .   X X   X .   9   m `.;XXX{.",
"}.m.>.u   = X X           . @   ] B.(.D./._.j.9.t.s.N.4.5.Z.Z.N.V.N.c.t.1.G p 9 9 6 > %   O     X   X     .     X   9   E `.XX{.",
"T.i.} > X $ X X             @   c 6.(.)._._.j.3.1.+.o.1.1.1.p.Z.V.N.N.4.{ ( ' M r p q = O     X . . X       .       o 9   &.{.{.",
"U.b._ > * O o                 O @ ..D.).).).F.6.#.`     q 6 s ) } o.' L 9 a X.] b b f 6 2 2 X     X O X         = : : q u   c.{.",
"U.b.O.i   @ o               O   - %.J._.).).K.D.X.9 O           X q 9 7 , 7 ( 3.` G V u r g q 8 :     % = X X % q c m c D M =.{.",
"C.y.{ 0   O o X   .         @   5 3.G.K.^.K.D.9.V   = % O   O 6 6 q s 7 < < p X.3.` P b g N h b b v p p q p s < q G W Y ` ` Y C.",
"C.b.O.s   : O               O   u #.j.J.G.D.f.^   , = .   < z s 4 6 i q 6 > X r $.8./ G h C N N ^ ^ K G n a G a d W ] o.5.2.L q.",
"m.b.,.B 0 * O .             .   i ( u.J.D.B.9.( d c 9 < $ G X.P 9 4 q u < 4 7 X a 8.7./ b Z R R ( ' T L B G b G ^ / ..2.7.y.2.,.",
"b.d.#.) K 6   % X             -   Y f.D.D.g.9.@.b i q d b X.5.+.k 4 0 6 0 0 6 9   P s.$.V h C [ [ X.] / B ` ^ ) o.-.-.1.2.7.c.t.",
"C.b.4.` z O = : .           =   : @.k.l.g.g.f.[ h > P X.] 9.u.3.U 4 < 0 0 < c M v f 6.9.( h j R [ X...` P P P M Z / ^ / ..1.5.y.",
"U.b.4._ 6   4 6 = X       O     / f.z.g.l.l.l.%.( X.6.u.8.h.j.t...q 9 0 < k K ' ` ( 3.f.%.N N R [ [ ( P b i         < d f K @.7.",
"U.b.w...x @ : 4 6 >     X   a ] 8.g.k.l.z.l.g.a.a.g.l.j.k.H.G.j.3.G 6 , q c P +.3.5.3.a.9./ J Z C a 3 , O . X & & X   O   O f o.",
"U.b.i.#.F 1 @ . 9 6 > 6 p T 6.f.f.D.D.k.l.F.l.g.l.l.F.D.W././.G.j.o.0 d b b ) $.h.j.6.@.$.H b r           X .     O . . ;     M ",
"U.C.b.:.Q 0 @ . , = 6 r m #.d.f.f.G.H.l.g.l.z.z.z.F.^.^././.K.F.h.] d ( P c ` 3.N.G.8.b f , = * . @ O O X X   X .   X &   6 ` w.",
"(.(.b.0.} x * @ O O O 9 a m #.j.j.A.A.F.H.D.F.F.F.^.^.^.^.^.K.A.u.( b o.U H +.9.B.G.@.7 > X   O O X   X X   X X   O &   G 5.m.I.",
"(.Y.C.i.:._ 8 @ * X   %     ] h.k.B.A.D.F.F.F.^.^.F.^.^.D.D.^.s.3.N a +.( ` 2.u.B.N./ , > O O X X . O O . o X X % O   ^ i.C.I.T.",
"(.(.U.C.b.:.L 1   .       6 ) 8.j.A.A.D.F.F.F./.^.F.^.^.F.B.s.6.@.J N X.+.$.8.9.u.u.P 6 > % O O O O O O O % % . .   K b.Q.].].].",
"|.(.(.(.(.b.<.Y 7 , i ; 7 q V 2.B.G.H.D.k.A.H.H.K.K.B.G.B.%.a.A.6.R R %.3.u.f.8.h.h.T ; =     o % O & O O       q ..m.L.].`.{.{.",
"|.-X<X.X(.Y.S.i.2.} t.5.` ( X.u.s.k.k.l.s.s.j.s.W.+XOX_.R.s.B.R.h.] N 6.a.j.h.9.j.j.] Z n O 6 =           O n ` 2.C.P.I.I.L.`.{.",
"-X-X-X@X X'.Q.L.U.L. X}.b.d.N.V.G.W.G.S.s.s.S.~.OX@X#X@X*X:X*X*X Xt./ 8.g.k.k.j.j.h.9.3.4.] ..^ M M K _ &.;.M.`.L.Q.].T.L.m.M.XX",
">X-X.X X|.|.(.|.{.|.*X}.Q.Q.@X}.@X@XOXOX(.OX/.[.*X:X>X>X*X@XOXOX!.d.X.u.g.k.J.W.W.K.B.N.Z.V.N.f.4.2.m.T.`.`.{.oX&X@X*XT.M.M.M.`.",
"&X.X&X-X.X.X X}.[. X}.].]. X-X@X@X}.*X:X:X*XOX[.@X>X1X*X@X X*X-X:X(.3.9.A.H.K._.).%X).)./._._.%X#Xi.w.{.`.].|.|.=X2X1X.XM.n.m.M.",
"&X&X-X&X&X@XoX.X X X{.[.@X.X X.X X@X*X*X*X*X*X*X=X:X*X1X-X*X1X2X1X:XE.p.B.H.K.W.).+X%X+X+X%X>X>X>Xw.c.`.M.`.XXXXXX4X5X-XM.v.n.M.",
":X=X&X&X;XoXoXoX X].|. X X X.X X@X XXX X*X*X*X*X:X:X>X,X:X,X,X,X1X<X@X_.W.W.W.).).%X%X%X%X>X%X+X_.Q. X{.{.XXoXXX{.{.;X=XI.x.n.n.",
"-X;X=X.XXXoXoX X{. X@XoX.X*XoX X X X@X@X*X*XXXXXXX*X=X*X*X*X=X,X1X<X1X1X>X#XOX).+X%X%X+X%X#X@X.X.XoXoXXXoXXX|.{.{.{.{.{.I.x.x.x.",
"=XoXXX|. XoX X|.oX-X;X&X&X;X*X X XXXXXXXXXXXXXXXXX=X*X&X*X,X:X:X;X1X2X2X3X4X>X>X$X$X+X@X-X@X.XXXoX|. X|.|.|.|.|.{.XXXX{.{.M.<.<.",
"XX X|.|.;XoX X XoX XoX;XoX X.X|.[.XXXX X*XXXXX&X*X=X=X*X2X2X,X;X&X*X-X-X:X1X1X>X-X@X&X&XoX@XXX.XXX X|.|.XXXX|.|.|.XX|.{.XXXXI.x."
};
