/* XPM */
static char *result[] = {
/* columns rows colors chars-per-pixel */
"64 64 246 2 ",
"   c #010102",
".  c #0A0302",
"X  c #03040A",
"o  c #08080A",
"O  c #0B0B0C",
"+  c #170503",
"@  c #1A120C",
"#  c #020A13",
"$  c #0B0D12",
"%  c #100F11",
"&  c #0E1114",
"*  c #0C191E",
"=  c #131315",
"-  c #1A1617",
";  c #141519",
":  c #15191C",
">  c #1B1B1B",
",  c #270401",
"<  c #350200",
"1  c #28160A",
"2  c #361B0C",
"3  c #281C13",
"4  c #331E16",
"5  c #2F2107",
"6  c #2A221B",
"7  c #33251B",
"8  c #382618",
"9  c #1A1D22",
"0  c #0C2326",
"q  c #1D2124",
"w  c #182329",
"e  c #222425",
"r  c #282725",
"t  c #26292C",
"y  c #2B2C2D",
"u  c #332B24",
"i  c #3A2C25",
"p  c #393228",
"a  c #3D332B",
"s  c #2A2E32",
"d  c #2E3235",
"f  c #363839",
"g  c #460400",
"h  c #441905",
"j  c #6E1B00",
"k  c #4F2C0C",
"l  c #472815",
"z  c #552E18",
"x  c #59351B",
"c  c #5C341B",
"v  c #723D00",
"b  c #683813",
"n  c #63361C",
"m  c #663A1D",
"M  c #6A3D1D",
"N  c #452F22",
"B  c #43362B",
"V  c #443628",
"C  c #4C3B2C",
"Z  c #593A25",
"A  c #523C2C",
"S  c #443B33",
"D  c #4D3E31",
"F  c #453C3A",
"G  c #543E31",
"H  c #643B22",
"J  c #6A3E21",
"K  c #58421C",
"L  c #6C411E",
"P  c #784110",
"I  c #56432C",
"U  c #4B4237",
"Y  c #544335",
"T  c #5A4533",
"R  c #5C4936",
"E  c #55463A",
"W  c #564839",
"Q  c #5C4B3C",
"!  c #5C503E",
"~  c #6D4223",
"^  c #684529",
"/  c #734523",
"(  c #774926",
")  c #79502E",
"_  c #644B34",
"`  c #614E3D",
"'  c #63513D",
"]  c #6B543C",
"[  c #795535",
"{  c #2F3840",
"}  c #3B3F41",
"|  c #3D4144",
" . c #464848",
".. c #564C42",
"X. c #5A5448",
"o. c #4B5153",
"O. c #575957",
"+. c #614F40",
"@. c #645343",
"#. c #695645",
"$. c #6B5945",
"%. c #6A5748",
"&. c #63594B",
"*. c #6C5A4A",
"=. c #715B45",
"-. c #725D4D",
";. c #655D54",
":. c #735E50",
">. c #5E615F",
",. c #75614D",
"<. c #79654D",
"1. c #6A6357",
"2. c #756253",
"3. c #7A6554",
"4. c #7D6A55",
"5. c #7B6659",
"6. c #75695A",
"7. c #7D6A5B",
"8. c #7E745B",
"9. c #575D61",
"0. c #5C6264",
"q. c #676968",
"w. c #796E62",
"e. c #6E716E",
"r. c #787369",
"t. c #696E71",
"y. c #6C7374",
"u. c #777976",
"i. c #873E00",
"p. c #955200",
"a. c #86562D",
"s. c #8C572B",
"d. c #885A34",
"f. c #89653B",
"g. c #946639",
"h. c #A4703C",
"j. c #8A5D41",
"k. c #996D44",
"l. c #956F49",
"z. c #816D55",
"x. c #816D5C",
"c. c #877657",
"v. c #83725D",
"b. c #A77A49",
"n. c #AA7C4C",
"m. c #847462",
"M. c #857967",
"N. c #8A7A64",
"B. c #8C7967",
"V. c #8C7C6B",
"C. c #877E73",
"Z. c #7D807D",
"A. c #95805A",
"S. c #AC814D",
"D. c #B4854D",
"F. c #AC8657",
"G. c #B58854",
"H. c #BA965B",
"J. c #8D816C",
"K. c #938468",
"L. c #8A8479",
"P. c #928473",
"I. c #968979",
"U. c #958A7C",
"Y. c #9D9379",
"T. c #A9936D",
"R. c #BA9963",
"E. c #A7987A",
"W. c #B4A37D",
"Q. c #C28D4F",
"!. c #C4995A",
"~. c #CFA45C",
"^. c #C59C61",
"/. c #C9A666",
"(. c #D0AC68",
"). c #D7B46B",
"_. c #C9AC75",
"`. c #D8BA76",
"'. c #777C80",
"]. c #7E8384",
"[. c #878986",
"{. c #948D85",
"}. c #9A8E81",
"|. c #8E918D",
" X c #9C9285",
".X c #99968B",
"XX c #8D9392",
"oX c #979A96",
"OX c #A39986",
"+X c #A39A8C",
"@X c #A59D92",
"#X c #A89F91",
"$X c #9EA19C",
"%X c #AAA38B",
"&X c #B7A988",
"*X c #A6A397",
"=X c #AAA195",
"-X c #ABA59A",
";X c #AEA99D",
":X c #B5AB95",
">X c #B1AB9D",
",X c #BAB299",
"<X c #9EA4A4",
"1X c #A9AAA5",
"2X c #B3ADA2",
"3X c #AEB1AD",
"4X c #B6B3A6",
"5X c #BAB5AA",
"6X c #BCB9AD",
"7X c #ACB2B1",
"8X c #BDBCB2",
"9X c #B6BAB8",
"0X c #C3B288",
"qX c #C4B899",
"wX c #C6BDA7",
"eX c #C2BEB4",
"rX c #BDC2BB",
"tX c #E3C480",
"yX c #CAC3AA",
"uX c #C5C4BB",
"iX c #C9C6B9",
"pX c #D2CCB5",
"aX c #D6D0B6",
"sX c #BDC5C4",
"dX c #C5C9C7",
"fX c #CDCCC3",
"gX c #D1CEC6",
"hX c #D8D6C7",
"jX c #D5D4CB",
"kX c #CCD2D0",
"lX c #D7DAD6",
"zX c #DBDCD4",
"xX c #E1DFD7",
"cX c #DFE1D6",
"vX c #DEE1DC",
"bX c #E2E2D5",
"nX c #E3E4DC",
"mX c #DEE4E3",
"MX c #E5E9E5",
"NX c #E6E9E5",
"BX c #EAEEEB",
"VX c #EDF1EE",
"CX c #F0F1EA",
"ZX c #EEF3F2",
"AX c #F1F6F3",
"SX c #F5FAF8",
/* pixels */
"M.M.m.m.x.w.:.2.;.m.8.x.7.2.7.7.5.5.7.5.5.5.5.5.x.5.:.5.x.x.x.x.x.w.x.x.x.x.x.x.x.x.x.x.x.w.x.x.5.x.5.x.x.x.x.5.x.m.x.x.V.B.x.xX",
"m.m.w.7.6.5.*.&.;.5.7.w.6.2.6.2.2.:.6.2.5.5.5.5.5.:.:.:.:.x.:.x.x.x.x.x.x.x.5.5.5.x.5.5.x.:.:.x.5.x.5.5.x.3.2.5.5.5.5.x.N.B.w.eX",
"7.7.5.5.2.6.#.@.*.5.5.2.:.2.2.:.:.:.:.:.2.5.2.:.:.*.-.:.:.:.:.:.:.5.:.:.:.5.:.:.:.2.2.:.:.:.:.:.:.:.:.:.:.:.:.:.:.:.:.:.x.m.5.C.",
"2.2.:.:.*.*.Q ..;.7.2.2.2.:.:.%.-.-.%.-.:.:.*.*.%.+.+.%.%.-.:.-.:.:.:.:.*.:.:.;.:.:.:.-.-.-.-.:.%.:.:.%.%.*.=.*.*.-.-.-.3.5.%...",
":.*.*.*.*.%.Y E *.5.*.%.-.*.%.%.#.@.+.%.*.*.@.` ..` ` +.+.*.#.%.-.%.%.#.%.:.*.%.*.-.%.%.*.*.*.*.%.%.%.%.%.%.#.@.#.%.#.-.<.3.@.a ",
"*.*.%.&.#.X.G Y %.1.%.%.%.%.@.....+.+.@.%.@.Q W R Q ..+.+.#.#.@.%.%.@.@.%.*.%.%.#.*.%.%.%.*.-.%.%.%.%.%.%.@.%.#.%.#.#.#.:.3...u ",
"*.*.*.*.@.Q Y S X.2.%.@.@.@.@.Q Q Q ` ` ..Q Y Y E R R +.+.@.+.@.#.+.+.@.+.%.%.%.#.%.%.%.*.-.*.%.@.#.%.%.#.@.%.%.#.#.@.@.-.:.Q u ",
"*.&.%.%.@.Q Y V @.2.@.@.+.` Q Q Q Q +.` R W G W ..` R +.@.+.@.+.+.%.+.+.%.%.%.@.%.%.%.%.%.%.%.%.%.@.@.@.@.%.#.@.@.@.@.@.=.=.E u ",
"%.%.%.#.@.Q I a ..:.@.X.` Q Q Q Q ` ` Q W Q R Q ! R R Q ] ! ' ' +.@.+.` ' #.#.' @.@.@.#.@.&.%.@.@.@.! @.@.#.@.#.@.@.@.+.*.$.Y u ",
"*.%.&.#.X.Q C V ..*.@.@.Q ` Q Q Q Q ' W G Q Q Q Q ! R Q ' ! ' ! @.#.` Q Q @.@.X.@.' ' @.@.@.@.@.#.@.@.@.@.@.#.@.#.@.+.+.*.*.D u ",
"%.@.#.$.' R I p Q *.@.' Q Q ' ` Q Q ' Q Y W Q W ' ` R R ' ! ' R ' @.+.Q ` ' @.' @.Q ..@.@.%.@.@.@.@.' @.@.@.@.@.@.@.+.Q @.$.F a ",
"$.*.$.$.' @.U 8 C R I R ' @.@.` ! Q Q @.Q R _ ` ' Q R W ! ! ' R Q ' ' R Q @.! ' ` ` @.+.+.+.@.@.X.@.@.@.' @.@.@.' +.Q Q @.#.U a ",
"$.&.$.$.' W >.Z.[.oXL.&.Z x I .._ _ ] ^ T ^ ^ H ~ ~ ^ R W W R ! Q Q ' R ! ' Q ! Q Q +.@.Q @.@.+.` +.@.+.+.+.@.@.@.@.@...@.@.S a ",
"@.] #.' ' 1 L.3X*X*X9X6X$XL.r.v Z x z h Z [ d.d.d.f.g.g.d._ Y R R R ! R R ' R Q Q +.@.+.+.+.+.` ` ` +.+.+.+.+.+.+.+.` Q @.Q S S ",
"' ' ' ' ] I O.4X2X1.&.L.rXkX3XX.< 7 , ] f.^ H Z _ ) f.g.h.h.[ I Y W ! R Y Q Q R ` +.@.' Q +...Q +.` +.Q +.+.+.+.Q ` ` ' @.Q S B ",
"' ' ' _ R R 2 u.iXrX$X|.L.L..X.X .1 a ' l   X # X X 3 N ^ g.h.g.) Y Q R Y Y ! ' Q Q W Q Q Q ` Q Q ` ..Q Q Q +.Q ` Q Q ` ' W S B ",
"Q _ Q R Y Y i + X.1XiXiX2XL.X.u.| > r #   y r - 6 @ : 6 u C ) f.g.^ Y R G E R ` W E E Q E Q Q Q Q ..` Q Q Q Q Q Q Q R Q +.E B B ",
"R R T I I 8 ` H.H.8.I.J.L.U.! 6 o     | 9.  o >   > O $ : # * r ` #.Y Y D G W Q Q E E E W E Q ..Q Q Q Q Q Q Q Q R W W R Q G V S ",
"R T I Y 7 <./././.f.    o r r     O   s 0.t.9 q w   = O   O % # 0 f U ..D G E W W Y Y E E E E E W W W R Q W W E W W W W W Y i B ",
"I T Y i [ R./.R.g.#.F   O o   O o   q   <XmX9XoX3XX.o & & $ . @ O # s f F S E G Y G U G D G E G Y E Y E Y E W E T E Y E T Y u B ",
"A I C [ H._./.(.H.6.d   = & o     O ;   kXZXBXMXcX4Xe.$ o = o   o . X 9 t f  . .S S a S D G G E Y Y E Y Y Y Y Y Y Y D Y Y C u V ",
"N 8 _ k.l._.(.~./.6.  %           =   X dXVXBXVXcXyX;XO.  $ O o o X X o 9 9 d  . .} s t u d s i u u u u B S D Y Y D C Y C B 7 V ",
"i 3 l.) [ R.(.(.T.d   O o       &   } >.} oXzXvXnXaX:X.X>.  o o   o o   X & X 9 | o.} d s t t w ; # # $ # $ 3 i B D V C V N 6 a ",
"/.F.l.z V T./._.M.  @           o o   e.q.  uXnXBXaX&X,X.XU           e 9 9 f 9 9 d } d s q q s t : ; : : - # # - r a V V i 7 p ",
"^.0XX.F  .w.I.6.w . . 3 3 o           - ..  3XVXVXNXwX0XE.r.O.y.[.t.q.O.u.9.XX9X<X| w { { s t 9 9 9 & ; ; ; ; - $ X = 6 u u 4 i ",
"b.F.l.[ I U f             @ @ p X.6...  O   |.VXZXZXnXqXW.W.P.,XeX8XrX7XdX7XsXBXZXkX'.0 f { 9 9 9 9 ; & ; ; & & & & # X O = - 6 ",
"b.!./.S.[ b h W 8.Y.T.A.y     C K.Y.r.o $   O.iXMXMXZXbX,XT.T.&XyXcXcXcXjXkXlXmXmXSXkXo.o. .s 9 w e 9 ; = & & & $ $ $ = o X     ",
"`.tX/.H./.H.T.0X`.).).)./.A.u   U A.J.$ o     4XnXBXMXZXiXA.T.,XgXcXcXnXzXlXcXlXlXmXkXy.0.t.t.} # e 9 9 ; & & $ $ > $   o o   X ",
"D.S.R._.`._._.R.D.b.D.!.!.~.!.f.6 0 U 5   p *XvXBXZXZXVXvXY.E.,XyXhXaXbXhXbXnXnXzXvXsX'.O.'.].9.s # y t 9 ; # ; 3     9 ; o o X ",
"S.W._.R.F.l.s.s.f.h.n.F.h.D.!.Q.D.d.. o   ! ,XnXmXMXVXMXZXuXE.&XyXpXpXaXaXhXcXnXnXkX9Xy.t.0.t.9.s q  .} q & e 9   s  .e $ o $ & ",
"`._.H.g.g.d.s.d.g.f.h.S.D.D.D.!.~.~.!.[     W .XjXvXmXnXmXmX5X,XqX0XqXqX,XpXhXhXcXlX9X9.t.t.O.O.f d O. .e q     y.u.y   : & ; 9 ",
"G.) / [ d.d.g.g.S.S.H.!.~.(.(.).).).`.).F.6     C.uXkXdXkXlX1XP.W.&X0XqXW.&XyXpXfXkX7X9.0.].t.f 0.O.9.o.>   o.<XXXt   ; & y s f ",
"a.J J a.a.d.g.k.F.R./.).(.^.(.(.!./.).).).).c.  B q.u.t.1X9X|.%.Y.W.W.&X&XW.,X,XrX*Xe.| f q.].y.].].9.: w XXrXoX    : ; ; 9 t y ",
"J a.J J J a.g.n.n.F.R.H.!.^./.R.^.^./././.^.Q.^ d 4   d  .|.u.x.E.W.W.&X&XW.W.&XY.r.U f r | t.].].<X>.o.oXoX0.  : : : : t : e e ",
"( J J J a.a.g.k.F.b.l.S.H.F.R.^.G.R.^.R.n.h.a.c S a ;   f V.n ` K.K.T.E.E.E.W.E.J.;.| s | | 9.Z.].].|.rX'.o d f 9 t f t q e q : ",
"J c n J J a.a.s.g.l.l.g.g.b.l.b.n.n.n.D.h.n 4 l i B 3 ; -.a.b b I 4.K.c.4.N.Y.K.8.r.;.U o.u.].rXkXrXkXrXXX$X].O.y } | : o   $   ",
"J M J b b J ( J / n d.f.) ( a.J ) n.n.n.k.h H Z < < h c ) j.j.)   r *.! 6 u ..X.&.&.X.O.XXXXoXrXlXmXsX<X7X<X|.y.o.} d | 0.O. .| ",
"J J M a.M M J a.J n J a.( ~ c J J [ k.G.G.H z g T 3.M v i.p.j < G A = - r r q W O...U S oXsX<XsXlXMXkX7X<X$X[.u.0.O.q.'.u.].].'.",
"M M n J ( a.J n J ( J / J H m J J a.d.b.Q.H :. XiXhX X2XpX:XU.j.i.i.L f } f U >.L.7XrXrX9XdXsXsXlXBXmX7XXX[.Z.q.1.Z.XXL.Z.].[.oX",
"M M M M M J a.J J J c J n n n J J J J d.G.OX@X1.gXaX=X+XzXvXMXnXwXT.P <       O.7XmXZXSXAXMXlXkXlXBXZX7Xe.u.u.Z.].;X1XXX.X|.[.|.",
"m M ~ ~ M m H L n / m M M n n J J J n a.b.G..XOXK.N.c.] &.u.uXcXzXNXlX8X1X.Xe.[.oXkXVXAXSXSXZXmXmXBXAX7Xe.oX*X.X;X1X;XoXZ.Z..XZ.",
"M M / J ~ ~ m m n M m c c n n n J J J J g.b.N V.K.z.R ;.f   E.&X&XaXxXNXNXVXVXMX|.|.MXAXAXAXSXSXVXVXAXdX1X8X,X;X@Xu.u.L.|.*X;XrX",
"k J ~ / / / / n / ~ m m n n n c n J J z / g.M I z.K.v.Y & ..Y.W.W.E.E. X X>XyXgX4XX.9XVXAXZXZXAXSXAXZXvXfXfXU.1.q.e.q.e.u.q.o.Z.",
"+ @ 8 x L ~ m J ( J J / m m m H J H J J J ( M z . o ,.z.! K.W.E.Y.4.C 1   5 K I Y 5 8 5XMXMXZXVXSXSXSXBXcX{.f f  .1.p           ",
"l l l 2 2 2 8 l c c H / J H J H J H n H n m M n 2 h G H ^ =.K , g k ..Z Z k g g k O.q.1.*XlXcXcXBXAXSXSXBX<Xe.t.q r f > - - O O ",
"2 2 2 2 2 2 2 1   + 2 2 l l l z H J n c / M c z Z l l < + D |.1XdXvXBXnXxXjXjXkXcXMXcXL.U .X4XrXfXmXBXMXVXAXcXcX;X  > @ o O o   ",
"3 3 3 @ @ 1 4 l z l k l l l h l l Z J H c l l l l 1 1 .XlXxXhXvXAXSXCXCXnXCXVXVXvXiX.XX.u u M.*X4XiXMXMXBXVXgX,XcX$X  q % o     ",
"8 8 8 8 8 7 3 1 l l c z n l l z z l l l 1 l c n H h #. XdXhX&X  O.6X2X.X:XE.OXU.q.O.p y r @ o 8.%X2XhXVXCXNXAXjXyX6Xd   >     % ",
"C V N N N N N l u 7 4 4 6 4 4 8 i N 4 4 i 8 l Z ^ g 2.M.  ) A.8.k 6.p B c.v.@.8 2 u u 4 3 7   ..J.OX4XaXhXrXrXnXhXJ.: & =   $ o ",
"Y A C I A A C A A C A A C A A C G G G G G G B B N 8 2 X.*.,.] <.,.a > 2.2.W S i a i u 4 1 3   U M.J.+X;X,X,X&XE.rX4Xp   > = + U ",
"T R T T R T T G A G T G I T T T G J _ G ` ` %.*.%.W i   u $.4.=.' 7 3 X.Y + + + + + + + + @ @   r.L.J.%X,XkXcXrXiXNXcXe.  . 1.*X",
"' ' Q _ ` _ Q _ _ R ` _ R R _ ' #.#.-.:.:.5.m.m.w.@.Y B 1 3 i 7 p 7 3 8 i U +.&.&.;.&...F i u   O.Y.J.J.*XiXzXvXCXCXSXrX  r.3XaX",
"] ] ] ] #.' ] _ ` ] ] ' ' ] #.-.x.x.x.C.V.U.}.}.P.5.` A B i u N V I W 1.C.}.-X2X@X@X@X[.r.X.F 1 S Y.Y.8.J.Y.%X,XqXhXvXC.1.6XgXhX",
"$.$.] #.#.] #.#.#.$.=.$.-.3.5.v.B.C.U. X#X#X#X=X#XU.5.` G G Q +.$.6.L.%X2XeXfXfXeX2X@X XC.w...S o C.:XP.8.8.J.A.B.,XeX:.3XgXhXhX",
"=.=.$.$.=.=.=.=.=.=.-.<.5.7.m.V.V. X+X#X=X-X2X2X;X#XI.w.w.m.w.B.P. X*X6XeXfXjXgXeXeX2X{.C.M.;.S   U.,XOXK.8.8.,.B.E.r.[.fXgXjXzX",
"=.=.=.,.,.,.,.,.,.3.3.4.v.m.V.I.}.+X@X=X-X;X2X5X2X=X@XOXOXOX+X@X;X5X6XuXiXgXgXgXgXfXeX#X}.L.;.:.*X%X,X:XE.Y.A.W.iXeXC.u.eXjXjXhX",
":.:.-.-.-.z.x.x.z.x.x.m.V.V.I.}. X+X@X@X-X>X2X2X2X;X-X-X-X2X2XeXeXiXuXfXgXjXjXfXfXfXeX6X#X XC.u.iX%X%XqX&X&XE.W.xXzX@X1XgXzXjXgX",
"<.3.j.z.z.z.x.v.m.c.c.N.P.P.I. X X+X=X@X@X-X2X2X2X2X-X-XeX2XwXeXeXuXeXfXfXiXfXeXeXeXeX5X#X{.L.M.rX%X,XrXyX&X&XR.yXNX8XfXlXxXjXjX",
":.z.z.x.z.z.l.x.v.m.N.B.V.I.U.OX+X+X#X#X=X-X>X2X-X@X;XeX2X2XeXeX8X5X6X9X5XeXeXeXeXeXeX5X2X@X{.C.1..XrXrXhXyX&X,XqXNXBXfXgXgXzXjX",
"z.<.:.z.z.z.x.x.m.m.N.V.I.I.U.U. XOX+X+X=X=X=X@X X-X2X-X2X2X2X2X2X-X-X@X#X2XeXeXeXeXeX6X2X#X X{.! 1.+X.XpXqX&XyXwX[.9XzXjXgXjXjX",
"z.z.z.:.z.z.z.x.v.v.B.B.V.I.I.Y.}.}. X}. X=X XC.-X-XU.+X@X+X@X@X+XU.C.I.#X-X5XeX8XeXeX2X=X;X+X{.L.r.X.1.4XaX&XyXaXm.{.xXxXjXgXjX",
"z.<.2.j.z.z.x.x.v.v.N.m.V.V.V.I.V.I.I.I.}.V.m.}.@XV.B.}.}.C.C. XC.m.B.+X2X2X5X5X2X2X@X@X;X>X=X.XL.r.W + ,XbXyXqXaXwXiXlXlXjXfXfX",
"B.B.m.m.z.z.z.:.<.z.z.x.c.B.V.V.V.B.B.B.x.x.V.U.B.x.m.C.C.B.B.C.B.x. X2X@X+X X X@X@XU.;X2X#X XM.w.w.&.5 {.iXwXE.c.V.1XgXjXjXjXfX",
"=.-.3.N.V.I.V.I.V.V.B.x.v.x.N.B.x.x.B.z.z.m.B.x.z.x.B.B.x.m.x.5.j.B. XC.C.V.V.C.OXV.}.#XOXm.5.L.U.C.6.! 6.r.6.K.@.L.2X9XfXgXjXgX"
};
