/* XPM */
static char *result[] = {
/* columns rows colors chars-per-pixel */
"64 64 78 1 ",
"  c #8FA6BE",
". c #82A5C3",
"X c #8CA9C5",
"o c #84ACCC",
"O c #8CACCB",
"+ c #92ABC3",
"@ c #91ADCA",
"# c #8FB1CF",
"$ c #9CB2C7",
"% c #95B3CD",
"& c #9CB3CC",
"* c #84AED0",
"= c #8DB3D3",
"- c #8DB7D9",
"; c #92B4D3",
": c #92B8D7",
"> c #9EB9D0",
", c #92B7D9",
"< c #93B8D9",
"1 c #9ABCDC",
"2 c #A2BCD3",
"3 c #A9BDD3",
"4 c #93BDE1",
"5 c #9CBEE3",
"6 c #ABC1D7",
"7 c #ABC3D9",
"8 c #B7C5D7",
"9 c #B4C7DC",
"0 c #B7CCDE",
"q c #94C1E6",
"w c #95C4EB",
"e c #9AC5EC",
"r c #9BC8EF",
"t c #96C7F0",
"y c #97CBF3",
"u c #9CCBF3",
"i c #9ACFF9",
"p c #9DD5FD",
"a c #9FD9FF",
"s c #A5C9EF",
"d c #B5CEE3",
"f c #BACFE1",
"g c #A3CEF4",
"h c #A6D0F4",
"j c #A9D2F5",
"k c #A2D6FE",
"l c #ADD7F9",
"z c #A4DAFF",
"x c #ACDCFE",
"c c #B1D6F6",
"v c #B1DDFE",
"b c #B9DFFE",
"n c #A7E0FF",
"m c #ACE0FE",
"M c #B3E1FF",
"N c #BAE2FF",
"B c #C3D4E5",
"V c #CAD7E4",
"C c #CBD9E6",
"Z c #C1D5E8",
"A c #C8D7E8",
"S c #CDDFEE",
"D c #D1DFED",
"F c #D4E1ED",
"G c #DBE5EE",
"H c #CBE3F8",
"J c #D1E2F3",
"K c #DBE6F1",
"L c #DEE9F4",
"P c #DFEEFA",
"I c #E4EFFA",
"U c #E7F0F6",
"Y c #EBF1F7",
"T c #E5F2FD",
"R c #ECF4FB",
"E c #F2F6FB",
"W c #F5FAFE",
"Q c #FCFDFE",
/* pixels */
"QQQQQQQQQQQQQQQQQQQQWWQWWWQWQQQQQQQQQQQQQQQQQQQQQQQQQQQQQQQQQQQQ",
"QQQQQQQQQQQQQQQQWQWWWWWWWQWQWQWQQQQQQQQQQQQQQQQQQQQQQQQQQQQQQQQQ",
"QQQQQQQQQQQQQQQWWWWWWWWWWWWQWQQQWWWQQQQQQQQQQQQQQQQQQQQQQQQQQQQQ",
"EQQQQWQWWQWQQQQQQQWWWQQWWWWQQQQQQQQQQQQQQQQQQQQQWQWQWWQQQQQQQWQQ",
"TITEWWERTEWQQQQQQQWQWQQQQQWWQQQQQQQQQEQQWEQQQEEEEWWRPTREQQEETJLR",
"SBFLIRRPHUEEWWEEKFLEEQQWWKFLYWQQQERYFBFREEEEC8ZABBf936dSKKDA7@6B",
"7>20Bf6&%2VFGGC6.O6fGGUUFf6>0VFFGKD7%+X2BDK8 X+@XOO@O+++&&$+++XO",
"::==#ooXX .o#=X O#o*#:::=-#*#=:111,==%;OOOOX##@;;::::;;#@@;;;1,1",
"yyyww44--;<wqw25wruurryuuuuurgreuruuugggs5#,wwwwrrrrurghjgtrgjcc",
"iiiiipiwqqwggiiiiiiiklhiuuguuuuuukiuhkhgggeruucvllxxllvvvkkxkvvv",
"iippiiiiiyillppplbvvllaixlkgkjhkgiikkhkkkiiipNHMvvvxvxvxvvzpzMxv",
"zakaappppikxxlxbbvvvkpklvzxzlzzkkkkjkllljiiizNmxMMMvxMxvNzkpzvMM",
"zzzzzkkpppxMNvxvxxxxzkzzzzxxkppkkxvxxnnakkppvxMMMMMmxMMMxpppzvNM",
"NNvkkkzkppxvvxMMNxxxvxxzxxxzkkzzkkzzaaaazzzmMMMMMMMMMmxxzpzpzvmN",
"MNMxzxkzzkzvxMNMMMMMMvxxxxxzzvxzzzzazaaaaaaxMMMMMMMvxzzzppzpzmmN",
"mxmxzzzzzpzxvvMxxvMvvxxzxxzvbvzzzzzaazzazaamMMMMMMxmzazapazpanmN",
"mzznzzzxzzpzzzmmxmmxmmxxxzxvbvxznaazazznzzzmNMMMmxMxpaaapkzpzaaz",
"zzzazzzzzkazpannnzzzmmmxzkzbvxxmmnaaaaaazzzmMMmMmMxzzazapkkpzzza",
"anaappkkpaaazaznzaznxmzzzkxbxxxmmzazzazzzanzzmvxvzappzkaakzkzzaa",
"naaaaapkaaazazzzzznazzzzzklxkzvxmzaanzaazzxxzvvxxzapzpapakzzaazz",
"zpzppapzpazzzaazzzzzazzazzxkaazxmzzzznanzanmzvvvxzakkazkazanznaa",
"zzpazpzpzaazzzazzzaazazakxkkzzzzzzzzzzzanazxzxvxxzkpkkpzaazzzzzz",
"aazpkppaapazaapzazzkpzzzzzazzzzzzzznzzzzzzxzvMvxzzkzzzppzpzzzzna",
"zzpazzakazzzzzzkazkzzkzzxzkzazzzzzmmMxmxxxxxvNvxzkzkakzzzzanznzz",
"apzakzaazzznkzkkzzzpzzzxzzzzzzzzamvxxxxxxxxxvMxkzkkkzkkkpzkzzzzz",
"kzakkzznznzazkzzzzzzzzzxzzzzzzzkzzxxvxxvvxxzMvzzkzzzzzzkzkzkpzzz",
"zzzkzzznnznzzzkzzzzzzzzxzzzzzzzzzzzvxvxMxkzzvvxzzzzzkzzzzzzkaznz",
"zzzzznzzzznzzzzzkzkzzzxzzzxzzzzzzzzzxxxxvzkzvMzzzzzkzzzzzkzzzznz",
"zzzznnnzznzznzzzzzzzxzzzxznzzzzzzzzzzzxvxxzvvvzzkzzzzzlkzzzzzzzz",
"nznzzznnnnnnzzzzkzzzxzzzxzzxzxvxxxzzzzzzxvNMvvzzzzzzzzkzzzzzzzzn",
"znzznnznznnzzzzzzzzzzzzxzzzzzvvvvvxxzzzzxvNvvxlkzzlzzxzzzzzzznnz",
"zzznzzxzznzzzzzzzzxzzxzxmzxzxvMvvvvvvxxxzxMvvxzzlzxzzzxzlzxzzznm",
"kzzzzzzzzzzzzzlzkxmzzxmzxmxzxMvMvvxxzzzzzzlbvlxzzzxzlzzzlzxxznnn",
"zzzlkzzkzzxzzzkzzzmzzznmzzzxlzxvvxxxzzzzzxzzzzxzlzzlzxxzzxzxxnnn",
"zlzklzzzzlzzzzzzzmzxzxmzzxzmxzzxvvvvvzzxzzxzzzxzxzxzxzxzxzlxnnmm",
"zzzzzzzzxzxzzlzzxzlxzxzxzxxxzxxzzxxvvvxzzlzzxlzlzlzxzlzlzvxxmmmn",
"zzzllzzxzznzzzzlzzxxlzmzxzxzxxzxxzzxlvxxxzzzzxzzxxxzlzzzzxxmmmmm",
"lzzzzzzxzxxzzxlzxxlxzxmxmmxxzzxzzxlzzxxxxvxlvxzxxzzxxxxxzlzxmmmx",
"xlxzzzzzzxzzzzzzlxvvxxzxnmmxxmmzxxzxzxzxxxxvxlzxxxxxxlxzxxxzlxxm",
"lxvlzxllzzzllzvlvvxvxmmmxxxmmxmxxzxxlzxxxzxvxzxxxzlzzxzxxxzxxxxx",
"zzxvlxxlxlzlzvvvxvmvvxxxxxmmmxxmxzxxxzxzxzxxxxxxxxxzxxzxvxxzxxxx",
"zxzxzvxvxxxxxvxxlxxxvxxlxxxxxmmxxxxxxzxxxxxxxxxxxxxxxxxxvxxxxllv",
"xxzzlzzxxxxxxxxxxxmxvxxxzxxxzxxxxxzxzvxxvxvxzxxxxxvxxxxlxlxzzxzx",
"xzxlzxxzzlzxzxzxxmxxvvxxxxxxxxxxxxxvvxvlxxxxxxxxxxzxxxxxvvxxxxxx",
"xxxxxlzxzxxzxxxmmmxmxvvvvlxlxxxxxxvlvxvxxlxxxxxxxxxxxxxvvvvlxxxx",
"xxzxxxxxxxlxxxmmxmxxxvvbvvvvxxvcxvlvxxxlxxxxxxxxxxxxxxxxlvxvvxxx",
"zxxzxxxlzxlxxmmxmxxxxvxvvvvvvvvbbvvvbbvbbvvlblxxxxxxlxxxxvvvvvxx",
"xxxxxxxzxxxxmxmxxxxxxxxxvvvvvvvvvbbvvvvvbbbbvbxxMxvxvxxxxxlvvvvv",
"xxxxxlxxzxxxmmxxvxxxxxxxxvxxvvcvvvvvvvvvvvbvxbvxmMxxvxxxvxxvvvvv",
"xxxxxxxxxxxxMxxxxxxlxvxxxmxmxxvvlxvvvvxxlxzxxxvxxmxxxxxxvxxxxxxv",
"xxxxxxxxvxxxvxxxxxvxxxxxxxmxxxxvvxxxxxvxxxxxxxxMvxxvxxxvxxxxvxxx",
"lvxxvxxxxxxvxxxxxxxxxxxvxmvmxvxvvvlxxxxxxxxxxxxvvvxxxxMxxvvxxxxv",
"xxlxxxlxxxmxxxvxvxxxxxxxxxxxcMxvvvlxxvxxxxxxmvxxxmvxxvxvvxmxxxvx",
"xxvxxxvxxmvvxxxxxxlxxxxvxvxxxxvvxxxxxxxxxvxxxxxvxvmxxxvxxxvxvxvx",
"xxxxxxxxxxxxxxxxxxvxcmxmxxmxxmvvvvvxxxxxxxxvxvxvxxvvvvxxxvxvxvxx",
"vxxxvxxxvxxxxvlxxxxxxxxxxxxvmxxmvvvxxvxvxxvxxvmxvxxxxxmvmxxvxxxv",
"xxxxxvxxxxxvxxmxxxvxxxmxmxxvcvvmxvvvxxvxxvxvxxvxxvvxvxmxvxxvxmvx",
"xvxmxxmxxxxxxxvxxxxxvxmmmvmvmxmxxxvvvvvxxvxmxvxxxxxxxxvvxvxvvxxv",
"xxxxxcxxxmvxmcxxxxxxxxmmmvvmmmvxvvxxvvvvxxxxxmvvvxxvxvvxvxMxMxvx",
"vxxxxmvxxxxxmxxxxvxxxxMcxmmmmmmxxxxvxxvvvMxvvxxxvxxvxxxvxvxvxvxv",
"xvxxxxxxxxxxxxxvvxxvvmmmmmMmmmmvxvvxxxvvvvvxxMvxxxxxvxmxxvvxvxvx",
"xmxvvmxmxvmxxmxxmmxmvmMmmmmvvxvxmxxxvxxxxvvxxxxxxvxvxxxvxxxxxvxv",
"mmxvvxxxvcvxvxmvmcxvmmmMmmmmvxmxxvMxxxxvxMvvxvmvxvxMxvxxMxxMxvxM",
"vcmxxxvmmmmxxxvxxvxvmmmmmcMmxxvvxxxxvvxlxvvvvxxvxxxxxxMvxxxvxxxx"
};
