/* XPM */
static char *result[] = {
/* columns rows colors chars-per-pixel */
"64 64 144 2 ",
"   c #BEE4FF",
".  c #C2E6FF",
"X  c #C3E7FF",
"o  c #C5E7FF",
"O  c #C6E7FF",
"+  c #C7E8FF",
"@  c #C8E8FF",
"#  c #C9E8FF",
"$  c #C9E9FF",
"%  c #CAE8FF",
"&  c #CAE9FF",
"*  c #CBEAFF",
"=  c #CCEAFF",
"-  c #CDEAFF",
";  c #CCEBFF",
":  c #CDEBFF",
">  c #CEEAFF",
",  c #CEEBFF",
"<  c #CFEBFF",
"1  c #CFECFF",
"2  c #D0EBFF",
"3  c #D1EBFF",
"4  c #D0ECFF",
"5  c #D1ECFF",
"6  c #D1EDFF",
"7  c #D2ECFF",
"8  c #D2EDFF",
"9  c #D3EDFF",
"0  c #D3EEFF",
"q  c #D4EDFF",
"w  c #D5EDFF",
"e  c #D4EEFF",
"r  c #D5EEFF",
"t  c #D4EFFF",
"y  c #D5EFFF",
"u  c #D6EEFF",
"i  c #D7EEFF",
"p  c #D6EFFF",
"a  c #D7EFFF",
"s  c #D8EFFF",
"d  c #D9EFFF",
"f  c #DAEFFF",
"g  c #D7F0FF",
"h  c #D8F0FF",
"j  c #D9F0FF",
"k  c #DAF0FF",
"l  c #DBF0FF",
"z  c #DAF1FF",
"x  c #DBF1FF",
"c  c #DBF2FF",
"v  c #DCF0FF",
"b  c #DDF0FF",
"n  c #DCF1FF",
"m  c #DDF1FF",
"M  c #DEF1FF",
"N  c #DFF1FF",
"B  c #DCF2FF",
"V  c #DDF2FF",
"C  c #DDF3FF",
"Z  c #DEF2FF",
"A  c #DFF2FF",
"S  c #DEF3FF",
"D  c #DFF3FF",
"F  c #E0F2FF",
"G  c #E1F2FF",
"H  c #E0F3FF",
"J  c #E1F3FF",
"K  c #E2F3FF",
"L  c #E3F3FF",
"P  c #E4F3FF",
"I  c #E0F4FF",
"U  c #E1F4FF",
"Y  c #E2F4FF",
"T  c #E3F4FF",
"R  c #E3F5FF",
"E  c #E4F4FF",
"W  c #E5F4FF",
"Q  c #E4F5FF",
"!  c #E5F5FF",
"~  c #E6F4FF",
"^  c #E6F5FF",
"/  c #E7F5FF",
"(  c #E4F6FF",
")  c #E6F6FF",
"_  c #E7F6FF",
"`  c #E7F7FF",
"'  c #E8F5FF",
"]  c #E9F5FF",
"[  c #E8F6FF",
"{  c #E9F6FF",
"}  c #E8F7FF",
"|  c #E9F7FF",
" . c #EAF6FF",
".. c #EBF6FF",
"X. c #EAF7FF",
"o. c #EBF7FF",
"O. c #ECF7FF",
"+. c #EDF7FF",
"@. c #EEF7FF",
"#. c #EAF8FF",
"$. c #EBF8FF",
"%. c #ECF8FF",
"&. c #EDF8FF",
"*. c #EEF8FF",
"=. c #EFF8FF",
"-. c #EEF9FF",
";. c #EFF9FF",
":. c AliceBlue",
">. c #F0F9FF",
",. c #F1F9FF",
"<. c #F2F9FF",
"1. c #F0FAFF",
"2. c #F1FAFF",
"3. c #F2FAFF",
"4. c #F3FAFF",
"5. c #F2FBFF",
"6. c #F3FBFF",
"7. c #F4FAFF",
"8. c #F5FAFF",
"9. c #F4FBFF",
"0. c #F5FBFF",
"q. c #F6FBFF",
"w. c #F7FBFF",
"e. c #F4FCFF",
"r. c #F5FCFF",
"t. c #F6FCFF",
"y. c #F7FCFF",
"u. c #F8FCFF",
"i. c #F9FCFF",
"p. c #F8FDFF",
"a. c #F9FDFF",
"s. c #FAFCFF",
"d. c #FAFDFF",
"f. c #FBFDFF",
"g. c #FAFEFF",
"h. c #FBFEFF",
"j. c #FCFDFF",
"k. c #FDFDFF",
"l. c #FCFEFF",
"z. c #FDFEFF",
"x. c #FEFEFF",
"c. c #FFFEFF",
"v. c #FEFFFF",
"b. c white",
/* pixels */
">.4.d.l.b.b.b.b.b.b.l.>.,.q.i.b.b.f.u.d.d.q.3.,.0.d.f.f.h.z.v.b.b.b.b.b.b.b.b.b.b.b.b.b.b.f.3.*.o.u.d.a.d.a.d.d.d.g.d.a.2.$.X.&.",
"X.3.u.u.j.b.b.b.b.b.d.-.[ *.;.q.f.q.q.y.,.;.-.2.t.t.y.y.w.q.7.y.u.a.z.j.i.i.l.b.b.b.b.b.b.y.[ A X.u.u.y.a.a.u.p.a.p.u.>.X.n l o.",
"x  .q.u.u.d.l.x.f.y.y.9.[ D [ *.q.y.>.{ ! E ,.t.t.0.0.q.3.&.*.O.T ) 3.0.w.q.s.v.b.b.b.b.b.3.k s ^ 9.0.4.4.9.9.q.a.u.3.&.! 9 8 x ",
"s K  .,.d.d.f.u.9.0.0.y.;.n n ! =.%.Z H W W 3.w.q.q.q.7.*.&.o.n e ^ ;.>.0.a.z.x.z.l.d.i.9.H 5 r Y *.3.,.,.>.>.2.3.>.*.&.K u ; : ",
"V D T { ,.w.i.y.4.6.4.4./ K L M N x Z A J ! ^ %.,.3.;. .[ { X.m < i K T >.x.b.l.d.a.u.w.&.x < M | %.u.9.| ^ E ^ | E Q T E Z s r ",
"{ L { &.=.,.0.0.<.>.,.o.! o.*.o.' W | O.X.T A H J T Y Y X.;.3.{ < u E J [ l.z.a.u.y.0.*.[ x s [ X.&.t.>.[ W n r m H S Y _ | -.X.",
">./ %.3.O.o.7.q.0.,.>.%.2.3.4.u.d.q.2.3.*.X.H V H Y T &.3.2.9.u.l 8 W G A =.3.=.,.7.&.[ [ ^ *.&.*.,.3.,.>.{ j 9 j Q ^ X.o.4.d.f.",
"7.0.>.9.[ Z  .9.3.o.%.3.4.7.i.f.d.a.9.3.>.O.! J E T o.2.2.9.y.i.7.' G l 8 u L L W { T E X.3.q.0.y.u.i.i.u.9./ j m O.;.;.9.f.f.f.",
"i.i.q.u.7.L M / j x { 3.4.y.d.d.d.d.a.w.q.4.>.&.*.=.q.u.i.f.d.u.i.y.o.u & < v v l d n ^ ;.y.p.d.h.l.f.f.f.a.*.A A O.&.&.u.f.d.f.",
"f.f.f.i.u.,.M 9 - m >.q.u.d.l.l.l.z.z.l.f.d.y.t.y.a.j.j.f.f.f.f.i.w.4.A - > i v m M / q.d.z.z.l.l.l.l.f.f.a.2.d s ;.;.3.d.d.d.f.",
"f.l.l.h.u.<.W 3 5 ^ i.a.l.z.x.x.x.x.x.l.f.a.y.u.y.u.d.d.d.d.d.d.d.d.2.E u q i f m F o.d.l.z.z.z.z.z.z.z.z.l.O.s k o.t.f.z.z.z.z.",
"l.l.l.l.i.O.H = 8 ;.u.u.j.z.x.x.x.x.z.0.;.*.*.*.*.7.y.y.y.y.y.y.q.7. .K n Z w q d M K >.z.z.z.z.z.z.z.l.f.4.L s m K *.l.z.x.x.x.",
"l.l.h.f.7.{ K 9 A 0.y.y.a.f.z.z.l.f.4.[ ^ K H Z Z [ 4.0.q.q.q.7.>.*.{ Q Q ! L F / [ Z L t.d.d.d.d.a.a.u.3.J l K M v P <.i.d.d.d.",
"l.j.f.u.>.>. .J O.3.y.y.y.a.d.a.q.3. .{ T d s a i v O.=.,.4.,.*.&.*.{ _ X.X.[ / / / / F / 0.u.y.y.u.q.3./ k L <.=.F  .3.q.d.d.a.",
"u.d.a.4.>.2.;.O.o.{ ,.0.9.0.q.4.>.X.Q ! n u i s M ' *.*.[ E ^ { { [ ;.9.0.0.3.%.o.*.*.X.K { w.i.u.0.,.*.F ~ ,.<.3.W o.0.+.,.u.y.",
">.0.4.*.*.&.*.>.;.*.-.2.4.3.2.o.! J H V e 8 n W *.=.*.*.{ H D H E O.w.w.w.q.0.0.>.*.*.,.X.m o.9.,.*. ./ L <.y.i.i.=.7.7.G l { +.",
"&.X.O.*.&.,.w.d.d.d.a.y.0.*._ ^ T Y Y T x n J X.;.*.*.&.*.^ K T Y *.u.y.w.q.q.w.0.=.*.*.=.m u V Y A A ~ 0.f.f.j.f.j.f.q. .m n k ",
"J V ! { *.u.j.z.z.z.d.d.u.0.o._ [ [ ;.u.a.t.0.9.,.-.*.*.*.O.E E R &.q.q.q.q.q.w.w.4.>.>.>.' s u n Z { u.z.l.l.z.z.l.l.f.a.=.n d ",
"x n E o.0.d.f.l.l.l.d.a.a.a.3.o.X.*.a.h.l.l.d.d.a.t.3.;.*.*.{ K Y | 0.0.q.q.q.w.w.q.3.4.4.4.{ m J *.y.z.z.z.z.z.l.l.l.a.u.3.m d ",
"g z S *.q.d.d.f.f.f.i.y.y.t.>.J Z >.a.a.a.d.a.y.u.i.y.4.3.;.X.j x Q *.q.q.q.q.y.y.u.9.9.9.9.4.H / 7.a.z.z.x.x.x.z.z.z.f.u.=.m l ",
"r , Z ;.q.d.d.f.f.f.i.y.q.0.o.l a ,.a.i.i.a.a.0.6.9.0.2.;.;.| n d A E *.0.w.p.p.y.0.,.<.,.,.3.L F =.d.l.z.x.x.x.x.x.x.z.u.{ E ^ ",
"9 ; Q 4.y.d.d.f.f.f.u.t.0.;.! n s ;.a.a.i.i.a.t.6.6.9.3.;.&.T s r 8 j x Q ,.t.y.u.q.3.>.*.&.&.d s ^ 0.f.x.x.x.x.x.x.z.f.| n V T ",
"- : B X.6.u.d.d.f.a.0.4.*.H j p 8 X.t.u.u.u.u.0.3.3.3.>.! Z h < < 1 x Z Z E { O.O.>.4.>.;.;. .e a K ;.y.j.j.j.j.j.l.d.0.E Z Z ! ",
"- # < h &.0.y.a.y.>.o.! H r 6 e y { 4.u.i.u.u.7.3.2.;.Y h x k < 4 x T Q ^ o./ ^ _ [ [ | &.o.T r u F [ >.y.a.a.u.p.y.7.>.E K K _ ",
", o % 6 H &.-.&.^ I Z B B a 0 p g H *.0.d.f.u.0.9.&.D g g k m l Y ( Q ^ X.>.>.o._ { _ T Y H J a q k m { ;.r.0.q.r.4.7.[ A K H Y ",
"< o O @ u D H H D S V B B B V x p a Y X.*.4.9.9.*.m a h g j J [ | | o.&.,.7.0.7.O.{ | M u a k l a 5 < k X.;.3.6.6.4.O.m H T L K ",
"u & 2 < s m k J ^ ^ ^ X.&.&.O.[ K x V m z n F x s z x x x D %.>.2.3.3.9.y.y.y.i.0.-.o.K M a j _ ! u - r J ^ X.&.X.E n z H X.{ T ",
"_ J F Z ^ X.T E *.O.>.0.7.7.4.4.7.>.{ ^ ! Q Y V r k Y H D { 4.9.9.9.t.d.f.d.f.h.a.t.,.&. .k r Y O.*.J Z T Z j h h j x H -.3.-.) ",
"O.%.%.%.&.;.&.o.3.,.t.t.q.t.q.q.0.q.&.o.O.O.O.O.n j Z H ! >.0.0.0.u.d.h.l.l.l.f.d.y.4.&.[ x 7 r J [ >.*.&.%._ H A T { 9.u.q.w.,.",
"q.0.0.q.7.&.{ [ ;.3.q.q.q.q.q.q.q.y.*. .O.O.O.O.G l l m ^ ;.7.0.0.u.u.d.f.f.f.d.f.l.a.y.9.{ r q V T &.9.7.0.q.q.0.u.f.z.l.j.f.d.",
"f.f.f.d.d.9.o.^ -.0.w.q.q.q.q.q.q.q.7.o. .o...O./ A m l ~ =.=.3.7.u.u.a.h.l.l.l.z.z.l.d.a.t.H a F ^ [ ,.w.q.w.w.u.d.l.l.l.l.j.j.",
"a.a.i.u.u.y.>.m J 0.i.w.0.q.0.0.0.q.y.4.;.;.;.=.o.K m q H [ / o.0.u.u.u.i.f.f.z.z.z.f.p.y.t.*.T / ^ E [ =.q.u.u.d.f.l.l.z.l.l.f.",
"u.t.r.r.r.r.;.K r W ,.8.>.3.0.7.4.9.9.9.0.9.0.3.X.X.Y , A ) [ >.3.w.w.u.w.u.j.z.z.z.d.a.u.t.3.{ { ^ m J ^ &.q.0.a.d.f.f.d.d.a.a.",
"j.f.a.y.y.t.&.| s e J X.;.>.q.y.0.9.9.6.6.6.9.4.o.X.[ 7 q A _ -.2.q.q.q.q.q.i.z.z.l.d.d.y.t.t.&._ ! g y U Y ;.5.0.y.a.a.a.a.a.a.",
"=.:.4.0.7.,.o.O.L j H D [ *.0.u.u.y.t.t.t.0.9.4.o.T K 5 , p Q [ &.9.w.w.w.y.a.z.z.h.d.a.t.t.q.9.{ Q Z n k m T X.;.q.i.i.i.i.i.i.",
"W W ! E Q ^ E E ! n m H J { >.t.d.d.f.f.q.3.;.-._ M d 7 $ , s ^ { $.-.4.t.y.p.y.i.a.u.q.q.0.0.q.3.T Y D e a k m X.q.i.i.i.u.i.s.",
"! ^ Z h d r 8 8 a h e n Z Y [ &.4.w.q.4.>.X.^ T T H s r o & p Y _ X.%.o.&.2.;.%.&.,.3.3.3.3.2.*.X._ H S 5 6 V x S -.d.a.a.s.j.j.",
"R E n r a r 8 9 a p p a 8 p H _ *.=.>.2.2.*._ ! [ { / A * 5 x 9 p x n M n k b { ' '  .&.*.*.*.+.X.^ ! a $ , V C C E 4.f.f.f.f.3.",
"^ E T K Y E T H H n 8 h q < 7 d m E &.3.7.q.q.7.3.*. . .x 9 k < = 8 6 , r 8 Z | o.>.4.0.q.y.y.y.0.2.E e , 8 n V Z ! { ,.0.q.;.! ",
"d.u.q.0.7.4.3.&.K a r J K f s l A / ,.u.i.a.u.q.0.3.2.3.*.r 0 9 1 q e 8 j J { ;.0.u.a.d.d.d.a.p.a.>.x a 9 l Z A R #.%.-.3.;.! Z ",
"z.x.x.x.z.z.l.f.o.y j ^ _ X._ X.&.=.y.i.q.t.q.9.9.9.9.9.0.[ e 9 u H Z m | &.3.y.p.a.i.u.u.u.u.t.u.X.k s ! ^ T Q | -.9.0.q.=.o.E ",
"j.j.z.l.l.l.l.l.y.J A | $.&.O.>.,.q.l.h.d.u.y.y.0.0.0.q.q.y.X.s e H / { ,.9.u.u.u.u.u.u.u.u.u.u.a.4.E X.1.1.;.>.1.6.0.9.9.&. .o.",
"j.f.l.l.d.d.d.a.y.O.o.[ X.%.0.d.a.l.l.l.l.f.f.d.i.u.u.y.t.q.t.o.T T [ =.4.8.q.y.u.i.a.d.d.d.d.d.a.u.r.5.6.0.u.a.a.a.d.a.a.3.*.;.",
"z.k.j.d.d.d.a.a.t.o.{ W o.0.h.l.l.f.f.f.f.i.u.s.d.u.t.9.4.4.3.O.+./ W <.7.u.d.d.f.f.h.h.f.f.h.f.d.a.y.r.u.h.l.z.x.x.b.c.c.j.p.y.",
"8.7.7.q.u.a.d.d.w.&.^ J  .0.i.a.i.s.d.d.i.q.0.9.6.3.2.,.,.,.<. ./ K l [ &.4.i.i.a.i.i.i.i.d.a.i.a.*.&.a.z.b.b.b.b.x.x.x.x.x.j.a.",
"l k Z E [ o.*.7.4.{ A F K W ;.9.q.w.y.q.4.>.>.;.;.;.;.;.;.2.O.E J M a F E Q o.9.q.w.u.u.u.0.4.;.{ k W a.z.z.z.z.x.x.x.x.x.x.x.j.",
"4 2 7 x H W ! E x s 7 9 u 1 a E ,.4.;.o.{ o.O.%.%.%.%.&.O.^ J J A l d A J Q E ' ,.7.4.;.E k n A H x [ y.l.l.h.l.z.x.x.z.z.z.x.f.",
"9 7 4 j Z Y _ Z 2 5 - k T k m H / { [ [ { [ { O.%.%.%.E u 1 D K m s s m k Z Q ! [ X.^ A 5 , 1 8 r : s *.d.h.l.l.z.z.z.z.l.z.x.f.",
"D A V V m Z L A k j E *.3.4.,.,._ m A A ! [ [  .O.o.A 5 9 p ! _ J j x Z k x V n J T k u q k k : . X = n >.u.d.f.l.z.z.l.l.l.h.f.",
"%.) Y V l Z F Z Z ^ 4.q.i.a.d.f.>.J n p e z x x _ X.l m F ' 4.%.| ! H D Z n h k T n s j H W L 1 .   o a T { =.3.7.q.q.q.0.8.y.i.",
"d.y.3.X.T Z m Z H ;.q.u.d.d.f.j.0.{ T p p h r A 0.u.=.*.q.d.f.y.&.X.) n E ' J ^ O.G L  .o. ._ j = $ + a J K ^ { X.o.O.+.&.*.=.=.",
"d.d.f.u.,.o.K J Q 4.q.u.d.d.d.d.d.,.^ 6 0 1 ; o.a.y.d.h.f.d.d.d.u.>.| r l W L X.%. . .o.O.;.4.*.K r , 8 S S H H Y ! E Y H V r 1 ",
"d.d.d.u.3.>.| Q ` 0.t.u.d.d.d.d.d.d.>.x r 4 a 9.y.t.u.u.u.i.a.i.u.0.&.Z F K ~ 0.9.2.2.9.u.a.d.9.>.X.p u Y T T [ >.3.3.3.,.O.n 4 ",
"f.d.d.q.3.4.&._ ) 4.t.u.d.d.d.d.d.u.t.E a 8 H 0.0.t.y.y.y.y.y.y.y.0.*.A m G ] a.d.d.d.d.a.a.a.9.*.&.| T Y _ $.3.0.0.0.0.8.8.3.o.",
"a.u.y.3.2.>.| | | ;.y.p.d.d.a.a.u.0.9.{ u , k ,.q.y.y.y.y.y.y.y.t.0.*.F a r O.u.u.u.u.a.p.p.a.3.&.X.X._ Z ^ %.;.4.7.0.0.0.4.,.>.",
"t.y.r.3.*._ _ _ _ { =.0.a.a.p.y.0.0.>.^ r ; 0 X.y.y.y.y.y.y.y.y.y.7.*.K u u *.0.w.u.u.p.p.p.y.*.o.} [ ^ n J o.&.4.7.7.4.3.2.2.;.",
"9.3.o.[ m j T ) R m F ^ ,.7.7.4.4.;.m q 1 : p o.y.y.y.y.y.y.y.u.q.3.;.F u Z ;.0.0.q.p.p.p.u.,.X.{ } { Y V A [  .*.4.3.2.2.2.2.&.",
"o.Z h y e a Z R Q n A r F ,.3.,.,.J 4 7 < q Z { y.u.u.u.a.a.a.9.-.X.-.m r Q ;.t.r.e.r.y.y.9.&.! E ! Y B n n A J n J o.%.&.&.X.[ ",
"n a r x K [ &.&.&.o.E e 2 n o.O.{ K u u j n x H 4.d.d.d.u.0.,.X._ E E e 1 a T 7.u.u.u.t.7.>.{ A k u w n H A l 9 , 8 A H m m Z m ",
"A m ! 2.9.0.0.q.w.3.o.Q Z a J ^ [ X.{ ' / x c B W =.0.q.>.O.) Y R T H Z j r t U O.*.&.+.o.! a - & $ : F *.*.,.3.>.3.<.&.{ { K s ",
"8 m ,.y.t.y.d.l.h.f.y.9.3.,.3.;.*.*.=.@.+.W A K T T ^ ! / / _ o.%.&.[ ! Q T h p m M G [ T m r - 8 j H O.7.q.f.l.l.h.h.a.a.a.4.[ ",
"s q O.y.t.a.f.h.h.d.u.t.y.t.0.7.4.4.3.3.3.4.+.[ [ / / ^  .,.,.2.2.4.0.4.*.o.[ { ;.;.>.,.*.^ K A E [ O.4.q.u.d.d.d.g.h.d.a.a.y.%.",
"%.Q ! &.0.q.q.y.y.0.6.4.4.4.7.4.3.w.a.u.y.y.u.9.;.*.&.;.r.t.0.0.q.w.q.0.q.9.6.9.2.-.&.-.2.2.;.-.;.3.9.7.w.y.a.d.d.a.a.u.u.y.u.q.",
"y.t.3.X.X.X.%.&.*.&.,.9.0.q.q.9.6.9.a.i.u.y.9.,.>.2.9.t.4.;.;.,.,.3.7.0.0.9.9.-.X.%.$.$.#.$.$.X.X.%.2.,.<.7.7.0.0.9.9.0.0.0.4.O."
};
