/* XPM */
static char *result[] = {
/* columns rows colors chars-per-pixel */
"64 64 37 1 ",
"  c #4F5A5B",
". c #535D5E",
"X c #555F60",
"o c #576062",
"O c #5A6365",
"+ c #5E6669",
"@ c #5F686A",
"# c #60676B",
"$ c #626A6D",
"% c #666E71",
"& c #686F73",
"* c #677073",
"= c #6A7175",
"- c #6E7579",
"; c #71767B",
": c #73797E",
"> c #767B81",
", c #797E84",
"< c #7C8086",
"1 c #7E8289",
"2 c #82858C",
"3 c #85888F",
"4 c #868991",
"5 c #8A8D94",
"6 c #8E8F98",
"7 c #8D9097",
"8 c #8F9099",
"9 c #92939C",
"0 c #9697A0",
"q c #9798A1",
"w c #9B9CA5",
"e c #9E9FA9",
"r c #A09FAA",
"t c #9FA0A9",
"y c #A3A3AD",
"u c #A6A5B0",
"i c #A8A7B2",
/* pixels */
".............................X....oo....X XXX ..................",
".......................X.ooXXoooOoooooooXXX  X..X....XXXXXXX....",
".............oo..X.Xooo..oooooOooooXooooXXXX...oo...XXXXXXXX....",
"......oX.oo...oooXoOoOo.ooOoOOooooooo...XXXXXoooooOoXXXXXXXXXX..",
"........ooooOoooOXXooo.oOooOOoOOo++OOoooooXXooooOOXoOOooX XXX...",
".....XooOoOOooooooOOo...OooOo+OO+oOOOOOOooXXXoOOOO@OO+Oo> >+@...",
".X.XOoooOOOOOOOOOOO+Ooooo@@+++OOO+++O+@+OO@OO@O@@@@O@o>  >.o>o..",
"X..+OoO@@@@++@@@++O++Ooo+$@@++@@+++@@@@@@@@@@@@O@@@@>+O>>X>+.X..",
"XXOOOO%***%%@@++@+@++@OoO$%$+$$$@$@$@%$$$$@$@@>o@@+OO>O>>X>XX   ",
" X%O@%%***@%%@@+@@@@@*=+oO$$$%$$$$**%%%%%$%%@OO>>O>>>O>X>>o>>   ",
"XO%%%***%%@@@%%@@@%$**=;*@O#$%$%******%*%@**$>>@@>>O+>X>XX>>>  X",
" O*%>*=**%%%%@%%*$$%**=->>*oo+$&%@**%*%%>>@>@>@>>@+>O>>>>>>X X..",
"X >%%**%@%%%%*%%%%%%*=-==;:%X.+=>*@*>>>=@>>$>$>$>@>>>o>>>>>X  ..",
"XXX>-**%%%***====*==----;;;*#. O>>=>=>,>>>%>%%$>>>>>>>> X  X  ..",
"XX O->->>>>->-==-::::-;;:;$o..X  $%o.o+$@@O. ..ooO o>>o  X.XXX..",
" .X..oO@@+@@OOOO+++++o.o+o .....  ...  .   .....       ...... ..",
"XXXXXXXXX............... .. .. X                  X    ..X XX  X",
"XX$$%@@@+++++++XXXXOO+OOoooOOOO#. >  >. X >.>X >> X>>OXX >. > >X",
"O+$$$+#$###$%%#%#X+$$###OOo#%$$$>> >>>X>>>>.> > >@>X> O  >  >   ",
"OO%$@$$$#+#%%&&-%XO&=$$##OX#&%%=>>>>>>>>> X> >X>oX>O >+ oo >  > ",
"OX@>=@@$#&-;---==Oo*;=%$##OO$&** >>X>>>>>.> > X >oo+>+>>> XX> XX",
"OO%=>>>&=;-====-=Oo%--*%*%$#o$**>X>> >> >>>>>>>>>>o>>>>>> >>X> >",
"O+@>>*>&;=---->=$Oo%;-=*&**$#O%* > >>>>>>X>>>>>>>>>>>>>> >> > > ",
"X@O+>>*>-;==;;-$Ooo$--=*&*&*$$O$>> >X> >>>>>>>>>>>>>>>>X >>>>>> ",
"O@$$>>===*>>>#XXo+o@;;=**=***%@o >>> .>>>>>>>>>>>>>>>>> >>>>X > ",
"O@$$%>>>>>>%#%$+++OO-;--==**-=@oX. >>>>>>,>>>>>>>>>>>> >>>>>>>> ",
"X+$$$=>>>>O%%&%$OOOO*;:;-=-;>=@o.>>> >.>>,,,>,,,>>>>>  >>>>>X>> ",
"X@&&$@>>*$%%&%%%$++o$::<<3<>;=$o.>> >>>.,,,,>,,,>>>>>X>>>>>>>>> ",
"X&&&$&===>====%%-%+o+-::>3:;;=*+. > >>.>,,,99,9,>,,, >>>>>>>>>o ",
"X&&&$&=>>===&>>--;%oO*:,>4,:;=$+> >>.>>>0,,,,,,,,,,> >>>>>>X>>> ",
"X&>&$%>>===&>->=;;-+.$;:>42:;=$@> >> > >,,,,,,,,>>>>>>>,>>>>>>> ",
"X&&>&>>&>=->--=>;-;*.#:,>43:;=$@>>..>>>>w1,,,9,,>>>>>>,>>>>>>>> ",
".-;;=:::;--;>;-:>=>=+O>,,66>>>+$> X >>>>4,,,,904,,>>>>,,,>,,,>> ",
".=;=;,::>::;::;-=>=>%X>,,16,>>+$>>>>   >>>6669,,,, >>>,,>>,,,>> ",
"O-;=;::,>>>:-:-;-->,*X>,,46,>$XX  > > >   >>,444>>O>>>4,,,>,>>> ",
"O-;:;::,>:>>:->---,1&X>1116,>@+,>>>>>>>>>>  >,4,O>>>>,5,,,>,>>> ",
"#&-;::::::::>>-;>>11=o=1,451,%189666>,,4,,>>X>>>>>>>>,644,,,>>O ",
"O--;2444322,>>-;-,1,=X&11461,1966996446965>>>.>>>X>,>4966666>>> ",
"#;-:487899541<,,111,*o*<<56<,9886966666666>>> >>X>>,>6969666,>> ",
"$;::37875589844144,>@+=,<56,18886666666646>>>>. >>>>>96666644>>.",
"$;;:58668886788875>>OO>>151,86866666666969,,>> >,,4,,64455446,>O",
"#;;:39696686758591>>OO>*181181156,6,6,,,,6,,.>>>,24,266644446,>O",
"#-;:35666646155581>>X@>*15,51,,,,6,696,,,,,>>>,,24,,,,,6696665>X",
"o=;:25333311411117>=X%>*,1551,11,,,,,6,,,>>>>,,,2,,,,,,,,,644,>O",
".=:,32<<1,11141141>O+=>>>15111116,>>>>,,>,> >>>>>,,,>>,,,,,,,2,>",
".&>232221111111,11>X+=>*%,1518116,>>,>,,>>> >>>>,,,,>>,,,,>>,,> ",
".O->::::>>>>>>>>>$OXX%@%>>1151,<,>>>,>>>>>>  >>>,>,2>>>>,,>>>>X ",
"o..OO.ooOOO++OOO@XXOX XX@@>%@O++>>.>>>>  .   >>>>#>>+>#X>##OXOXO",
"-;;--=&$-;:22333111111<>>>OO@@@@@OXXXOO@@@O>@>>>#>O>>O#>>>>>>>>+",
"44569999999999wwqqtwerqq11119118111111,11111111144,>,,,,,>6,,6,,",
"w99w9wwr9w9wwywweewwwqwqeqtwq9990999811w0999911q6666009999000qrq",
"q9wqww99wwrrw9ywwwewwewwqqeewwqqww00we00qwqqweqqqqqqwwq00000qqqq",
"wwwwwwwwt9ttw9ywwwwqwwweeeqqwqqwqwwwwqeeeewwqweerwwrrwrrrwwwrqqr",
"wrwwrwwwttw9ww9wwwwwwwwwweeeeewewwwwwwweeewwewwwwwwrrrrrrrrrrrrr",
"yyyyyyyyyyyyyyuyyreeeeewweeweewqwwwwwwweweeweetrrrrrrrrrryryyyrr",
"yyyuyyyyyyyuyyuyyyuuyuyytteeeteeewwwwwwweeeretttrrrrrwrrrryyyruu",
"uuuyyyyuyyuuuuuuuuyyyuyuuuuyyyuyryereeeererrrrrttterrrrrrryyyyuu",
"yuyuuuyuuuiiuuuuuuuuruuryyyyyyyyyyyyyyryyreerrrrryrrryrrwrrryyyy",
"uuuuuyuuuuuiiuuuuuuuuuyuuyyyyyyyyyyyuuyyyyyyryryyyyyrrrreeeryyuu",
"uuuuuuuuuuuiiiiiiuuuuuuuuyuuyuyuuuuuuuuiyyyyyyyyyyyyryrrerruyyuu",
"uiiiiiiiiuuuuiiuuiuuuiiiuuuyyyyyyuuiiiiuuuuyuyuuuuuuuuuuyuyuuuuy",
"uiiiiiuiiuiuiiiiuuuuuiiiuiuuiiuuuiuiuuuuuuuuyuuuuuuuuuuuyyyuuuuu",
"iiuuuuuuuuuuuuuuuuuuiiiiiiiiiiiiiiiiiiiiiiiiuuuuuyyuuuuuuyuuiiii",
"iiiiiuuuiuiiuiiuiiiiiiiiiiiiiiiiiiiiiiiiiiiiuiiiiiiiiiiuuuuiiiii"
};
