/* XPM */
static char *result[] = {
/* columns rows colors chars-per-pixel */
"64 64 123 2 ",
"   c #4C5757",
".  c #4D5858",
"X  c #525D5E",
"o  c #565F61",
"O  c #576162",
"+  c #5A6365",
"@  c #5D6669",
"#  c #5F686A",
"$  c #626B6E",
"%  c #656D71",
"&  c #686F73",
"*  c #677073",
"=  c #6A7276",
"-  c #6D7579",
";  c #6F787C",
":  c #70777C",
">  c #72797E",
",  c #787E7F",
"<  c #6F7A81",
"1  c #757D82",
"2  c #797F85",
"3  c #778086",
"4  c #7B8186",
"5  c #77828B",
"6  c #7D848A",
"7  c #7F888C",
"8  c #7E8891",
"9  c #808587",
"0  c #81868D",
"q  c #83898E",
"w  c #838790",
"e  c #858B92",
"r  c #898E95",
"t  c #868F99",
"y  c #8B9196",
"u  c #879199",
"i  c #8D939B",
"p  c #909497",
"a  c #91959D",
"s  c #93989E",
"d  c #8692A1",
"f  c #8C96A1",
"g  c #8E98A4",
"h  c #9297A0",
"j  c #949AA3",
"k  c #999DA6",
"l  c #949EAA",
"z  c #9A9FA9",
"x  c #9BA1A7",
"c  c #97A0AC",
"v  c #9DA2AC",
"b  c #9DA6B2",
"n  c #9FA8B5",
"m  c #9FABBC",
"M  c #A1A5AE",
"N  c #A4A8AE",
"B  c #A1A6B1",
"V  c #A4AAB5",
"C  c #A9AEB5",
"Z  c #A6ACBA",
"A  c #A9ADBA",
"S  c #ADB1B7",
"D  c #A6B0BF",
"F  c #ACB2BC",
"G  c #B1B5BD",
"H  c #B5B9BE",
"J  c #A3ADC0",
"K  c #A6B1C4",
"L  c #ADB5C3",
"P  c #AFB8C5",
"I  c #ADB7CA",
"U  c #AEB9CC",
"Y  c #B1B7C2",
"T  c #B4BAC4",
"R  c #B9BEC6",
"E  c #B4BCCB",
"W  c #B8BECA",
"Q  c #B3BDD0",
"!  c #B6C0CF",
"~  c #BCC2CC",
"^  c #B7C0D0",
"/  c #BBC4D3",
"(  c #BBC6D9",
")  c #BFC8DA",
"_  c #C1C6CB",
"`  c #C0C7D2",
"'  c #C4CAD5",
"]  c #C8CDD7",
"[  c #C3CCDC",
"{  c #C9CFD8",
"}  c #CDD0D3",
"|  c #C7D0DF",
" . c #CBD2DD",
".. c #D1D5DE",
"X. c #D5D9DE",
"o. c #C5CFE1",
"O. c #C7D0E2",
"+. c #CBD4E3",
"@. c #CDD6E8",
"#. c #CFD8E9",
"$. c #D1D7E2",
"%. c #D4DAE5",
"&. c #D9DDE4",
"*. c #D4DCEC",
"=. c #D9DFEA",
"-. c #DDE1E7",
";. c #DCE2EC",
":. c #D6E0F0",
">. c #DDE3F1",
",. c #E1E4E7",
"<. c #E2E6EC",
"1. c #E6E9ED",
"2. c #E9EBEE",
"3. c #E1E6F2",
"4. c #E4E9F3",
"5. c #EAEDF3",
"6. c #EAEFF8",
"7. c #EEF1F5",
"8. c #EEF2F9",
"9. c #F3F4F6",
"0. c #F4F6F9",
"q. c #F7F8FA",
"w. c #FDFDFE",
/* pixels */
"w.w.w.w.w.w.w.w.w.w.w.w.w.w.w.w.w.w.w.w.w.w.w.w.w.w.w.w.w.w.w.w.w.w.w.w.w.w.w.w.w.w.w.w.w.w.w.w.w.w.w.w.w.w.w.w.w.w.w.w.w.w.w.w.",
"w.w.w.w.w.w.w.w.w.w.w.w.w.w.w.w.w.w.w.w.w.w.w.w.w.w.w.w.w.w.w.w.w.w.w.w.w.w.w.w.w.w.w.w.w.w.w.w.w.w.w.w.w.w.w.w.w.w.w.w.w.w.w.w.",
"q.q.w.w.q.w.w.w.w.w.w.w.w.w.w.w.w.w.w.w.w.w.w.w.w.w.w.w.q.w.w.w.w.w.w.w.w.w.w.w.w.w.w.w.w.w.w.w.w.w.w.w.w.w.w.w.w.w.w.w.w.w.w.w.",
"9.q.w.w.w.w.w.w.w.w.w.w.w.w.w.w.w.w.w.w.w.w.w.w.w.q.w.w.w.w.q.w.w.w.w.w.w.w.w.w.w.w.w.w.w.w.w.w.w.w.w.w.w.w.w.w.w.w.w.w.w.w.w.w.",
"4.9.0.0.0.w.w.w.w.w.w.w.w.w.w.w.w.w.w.w.w.w.q.w.w.w.w.w.w.w.w.w.w.w.w.w.w.w.w.w.w.w.w.w.w.w.w.w.w.w.w.w.w.w.w.w.w.w.w.w.w.w.w.w.",
"$.5.0.0.0.8.0.q.w.w.w.w.w.w.w.w.9.q.w.w.w.w.w.w.w.q.w.w.w.w.w.w.w.w.w.w.w.w.w.w.w.w.w.w.w.w.w.w.w.w.w.w.w.w.w.w.w.w.w.w.w.w.w.w.",
"/ :.4.>.4.3.4.6.9.0.q.w.w.w.w.q.5.9.q.w.q.q.w.w.w.w.w.w.w.w.w.w.w.w.w.w.w.w.w.w.w.w.w.w.w.w.w.w.w.w.w.w.w.w.w.w.w.w.w.w.w.w.w.w.",
"L / *.:.:.*.*.:.>.>.4.4.8.7.7.7.<.4.6.9.w.w.q.q.q.q.w.w.w.q.w.w.w.w.w.w.w.w.w.w.w.w.w.w.w.w.w.w.w.w.w.w.q.w.w.w.w.w.w.w.w.w.w.w.",
"G Z Q O.O.+.#.*.*.*.*.*.*.*.;.*.@.$.>.;.4.8.q.q.q.0.w.q.q.q.w.q.q.w.w.w.w.w.w.w.w.w.w.w.w.w.w.w.w.w.q.w.w.w.w.q.w.w.w.w.w.w.w.w.",
"k h Y W [ [ O.+.@.*.@.@.O./ ! ) | @.*.:.;.>.<.6.9.9.0.0.q.q.q.q.q.w.w.q.q.w.w.w.w.w.w.w.w.w.w.w.w.w.w.w.w.q.w.w.w.w.w.w.w.w.w.w.",
"p q C L E E Q ( ( / / / ^ P P E / [ O.@.#.*.:.*.3.5.5.7.0.q.q.q.q.q.q.w.w.w.w.w.w.w.w.w.w.w.w.w.w.w.w.w.w.w.w.w.w.w.w.w.w.w.w.w.",
"p r Z Z L L L Y L Z Z D b j c b L ^ ( o.O.#.*.*.*.=.<.5.6.6.8.9.0.q.9.9.q.w.q.w.w.w.w.w.w.w.w.w.w.w.w.w.w.w.w.w.w.w.w.w.w.w.w.w.",
"p r Z M V A A A L A Z Z V v B Z V Z L Q / [ #.#.@.@.*.*.;.>.>.>.4.5.9.0.9.q.q.w.w.w.w.w.w.w.w.w.w.w.w.w.w.w.w.w.w.w.w.w.w.w.w.w.",
"q 0 V v v Z Z Z A L A F A Z A A A Z Z V E ! [ O.+.+.@.*.*.;.;.;.=.4.4.9.9.9.q.q.w.w.w.w.w.w.w.w.w.w.w.w.w.w.w.w.w.w.w.w.w.w.w.w.",
"6 2 V M B V A Z Z A A A A C Z A A A Z Z V L E ) O.+.+.+.%.:.:.:.=.=.3.5.7.7.q.q.0.q.w.w.w.w.w.w.w.w.w.w.w.w.w.w.w.w.w.w.w.w.w.w.",
"9 2 V B B B V Z A A A A A A Z A F A A Z V n B b L ^ ^ ^ / [ | +.@.%.$.-.2.1.7.9.8.w.w.w.w.w.w.w.w.w.w.w.w.w.w.w.w.w.w.w.w.w.w.w.",
"q 2 V V B B V A A A A A A A A A A A A A J m z a u l Z D P P L n I Q [ O.=.;.4.4.8.w.q.w.w.w.w.w.w.w.w.w.w.w.w.w.w.q.q.w.w.w.w.w.",
"q 1 v C B B B A V A A A A A A A A A A A A B l l i w i g c c g i l Z Q ) { *.4.3.0.q.q.w.w.w.w.w.w.w.w.w.w.w.w.w.w.w.w.w.w.w.w.w.",
"q = j A V B V A A A A A A A A A A A A A A V v z f e 6 7 e 8 7 8 e n E / ( +.>.3.8.q.q.w.w.w.w.w.w.w.w.w.w.w.w.w.w.q.w.w.w.w.w.w.",
"r = s V A V V V V A A A A A A A A A A A A V B k i 8 3 6 3 3 3 1 8 l I ( ) *.>.>.0.q.w.w.w.w.w.w.w.w.w.w.w.w.w.w.w.w.w.w.w.q.w.w.",
"p 1 j M B B A A V A A A A A A A A A A A A A v j 6 - ; ; ; - * > w u m ! O.:.>.>.8.q.q.w.w.w.w.w.w.w.w.w.w.w.w.w.w.q.w.w.w.w.w.w.",
"p > v M B A B V A A A A A A A A A A A A A B v h 2 - < - * - - > t a D U @.:.:.>.8.w.q.q.w.w.w.w.w.w.w.w.w.w.w.w.w.w.w.q.q.w.w.q.",
"a 2 M B V A V A A A A A A A A A A A A A A B h 0 3 1 > 1 1 ; 1 0 w j P U +.>.>.>.8.w.w.q.w.w.w.w.w.w.w.w.w.w.w.w.w.w.w.w.w.w.w.w.",
"p 2 z V B A V A V A A A A A A A A A A A A z 6 < 1 2 2 e e e r 0 e k L U O.>.>.>.6.q.q.w.w.w.w.w.w.w.w.w.w.w.w.w.w.q.w.w.q.w.w.q.",
"r w h S B A A A A V A A A A A A A A A A A i 1 w Z W E ' [ ! W W F b b F ) :.:.>.6.8.q.q.q.w.w.w.w.w.w.w.w.w.w.w.w.q.w.w.w.w.w.w.",
": a a C A A A Z A A A A A A A A A A A A B i B $.3.3.4.4.4.>.;.%...' F b ! #.>.>.6.8.q.w.q.q.w.w.w.w.w.w.w.w.w.w.w.w.q.w.w.w.w.q.",
": h a M S S A A A A A A A A A A A A F A h B =.3.3.4.4.3.4.4.3.3.;...' T L [ *.:.6.8.8.q.w.w.q.w.w.w.w.w.w.w.w.w.w.w.w.w.w.w.w.w.",
": h h z A Y A A A A A A A A A A A A Y M k ..;.3.3.3.4.4.4.4.4.3.>.;.%./ E ( O.*.>.8.8.8.0.q.q.w.w.w.w.w.w.w.w.w.w.q.w.w.w.w.w.w.",
": a z z V R F A A A A A A A A A V A A B Q <.4.4.4.4.3.4.4.3.3.4.4.>.-. .W L Q +.*.>.8.8.0.q.q.q.w.w.w.w.w.w.w.w.w.w.w.w.w.w.w.w.",
"= h M z z Y T A A A A A A A A A A Y v J Q %.5.4.4.4.5.4.4.4.4.4.4.;.%.| E V J U @.:.>.6.0.q.w.q.w.w.w.w.w.w.w.w.w.w.w.w.w.w.w.w.",
"& a M z k A W Y A A A A A A A A Y Y z J Q O.3.4.4.4.6.4.4.4.4.3.4.;.*.[ W i k J U @.>.>.4.0.w.q.w.w.w.w.w.w.w.w.w.w.w.w.w.w.w.w.",
"= r M z z z W W F A A A A A A A R V a b ( o.=.4.4.6.4.6.6.6.4.4.4.;.;.O.W 5 > u l / @.>.>.4.9.q.0.w.w.w.w.w.w.w.w.w.w.w.w.w.w.w.",
"r 2 M z k k S _ E A A A A A Z T ~ v 5 i U o.@.:.>.4.4.6.4.4.4.4.3.>.;.@.v = % ; t J o.*.3.>.3.8.0.0.q.w.w.w.w.w.w.w.w.w.w.w.w.w.",
"p : z M l v B ~ R Y A A V A W ` R i 1 t J U ( @.:.>.3.4.>.>.;.3.;.*.| n 3 1 > $ : g U o.;.3.<.4.6.9.q.0.0.w.w.w.w.w.w.w.w.w.w.w.",
"r = s v v z V F ~ W Y L A W  ...Z 4 2 8 l m K ) @.:.>.:.>.:.3.*.*.*.+.G 3 , 1 > & 6 f K o.3.3.3.3.4.8.q.0.q.w.w.w.w.w.w.w.w.w.w.",
"p = a z z B A G G _ W T W [ %.` r 1 5 2 w e g m Q o.+.:.*.*. .| ;.3.4.;.T 5 3 1 2 = < d J [ ;.4.4.3.4.4.8.9.q.w.w.w.w.w.w.w.w.w.",
"r & r k z C F H B Z ~ ` / ....v 1 1 6 3 : - 2 5 d l m Q ) Q L *.3.3.3.<. .h y i j i 0 r l Z / %.3.4.4.;.;.4.5.q.w.w.w.w.w.w.w.w.",
"q $ r s M C F C h h C ` ] { G 6 > 3 0 4 < - - - < 2 < 8 n b P $.:.3.=.=.| h j V Z Z B h t b E Q [ +.$.+.+.+.&.7.w.w.w.w.w.w.w.w.",
", @ 9 a z M S V i i w k A B r 1 > q 6 3 7 1 = % = 2 2 t c n E [ +.%.%.#./ Z Z A A A Z B i t b A E ^ [  .|  .,.7.w.w.w.w.w.w.w.w.",
"9 + 9 k v N F x r a a r r i 6 : 1 q 3 4 e e 5 1 = 1 8 8 l n Z W ( [ O.' A A A A A A A A B l h i h A ~ / ~ X.2.9.q.w.w.w.w.w.w.w.",
", @ w k M S C p i j p r p w 1 - 6 0 0 0 q e i q 1 w h a S F b v Z Y A A A A A A A A A A B M M j 0 i T ! } ,.7.9.w.w.w.w.w.w.w.w.",
"9 & , k N C k w p q e r i 6 - 1 0 0 6 0 e r e 3 1 r v l M R R F B V A A A A L A S A A A Z B M v e y F ` -.,.9.q.w.w.w.w.w.w.w.w.",
"w $ : k k z a w w w 0 w p w < 6 r w 0 0 q e 3 - 2 a k k k S T R T F A A A A A A A A A A V M b v j e Z | -.1.q.w.w.w.w.w.w.w.w.w.",
"w $ 9 w p a p w w 0 0 r r 2 < r j i w t 0 0 ; - 9 j j x N M V C G Y Y A C A Z Z A A V B B v V v x e j { -.5.9.q.w.w.w.w.w.w.w.w.",
"9 & w r p a w 0 w 0 6 0 3 - 2 a v x e e e 6 - - q j j S C i a v N A G A A S Z C C A S C Z Z C v x 0 3 F %.5.7.0.w.w.w.w.w.w.w.w.",
"2 & r p a a w w 0 9 6 : & 1 e k T T k e y 6 - - y k N H k r r r i j B A G F C C C G S v x x s s j 6 - c ' -.5.9.9.w.w.w.w.w.w.w.",
"9 : w p a w 2 w 9 9 > $ = 0 a v R R T v w 1 - ; r k G C r r r r e p h z M B G F C N z s t 3 > , 4 - - a / X.-.5.2.9.w.w.w.w.w.w.",
"9 & w a h w 2 9 9 1 = * 5 r l v v N S G i , > 3 9 M S s q q q r e 9 0 r r a i y r w r e 0 3 > = = - 4 c Y ~ ' -.<.,.q.q.9.w.w.w.",
", & 9 a a 2 2 6 4 1 & > w k B z i 0 e j 0 6 1 > 2 k k 0 w q q w 7 y p 4 3 1 ; 3 7 e j b n u t e 7 e x S G T  .&.-.X.2.q.9.w.w.w.",
"o & w a w 2 4 2 2 = = 1 p z v h 6 3 6 1 > 3 2 = w j q q e r w q 7 y 8 ; , 1 1 3 i g b } -.] H V c V L F H _ &.<.1.<.2.q.w.w.w.w.",
"o & 2 a w 2 2 2 : = : w h h a 2 < * * * > 1 1 = i i r r y w 6 6 7 7 , ; > 7 u s g H &.2.7.9.7.1.X.X.{ ! H } ,.9.q.q.w.w.w.w.w.w.",
"o $ 1 r 6 2 6 1 = : 1 w h i = % $ * # % = - = * 2 r p r e 0 0 0 7 , ; - 3 u c F ~ 2.7.9.q.q.q.9.2.-.-.-.,.7.q.w.w.w.w.w.w.w.w.w.",
"X @ 2 w 2 2 2 < & : < 2 r - @ $ # @ ; u g g u 3 : 2 0 6 6 6 0 0 7 > > , 8 b } -.7.7.9.q.q.q.9.9.7.2.1.7.q.w.w.w.w.w.w.w.w.w.w.w.",
"  o $ 1 < 2 1 = $ % < 1 = $ $ o # u / -.%. .| ! h = - > 3 6 0 e 6 ; ; 3 S &.1.-.7.9.q.q.q.w.w.w.w.q.q.q.w.w.w.w.w.w.w.w.w.w.w.w.",
". X o + @ @ o X o & < < = % @ < n ) ;.-.;.-.%.%./ 8 % - : 3 0 w 3 - - H 1.1.1.1.2.9.q.q.w.q.w.w.w.q.w.q.w.w.w.q.w.w.q.q.q.w.w.w.",
"@ o + + o o o o X o & $ $ o 2 I ( %.1.5.2.>.;.%.%.Z X % % % = - , 3 v 1.2.1.2.2.1.7.q.q.q.q.w.w.w.w.q.q.w.w.w.w.w.w.w.w.q.w.w.w.",
"s & = @ X % 1 0 6 & X X - c { ;.7.q.w.w.w.w.9.6.1.' % X O o $ 3 N _ -.7.1.1.,.1.5.9.9.q.q.w.w.w.w.w.w.w.w.w.w.w.w.w.w.w.w.w.w.w.",
"G j j w 2 0 h x Z A M v ] 4.9.w.w.w.w.w.w.w.w.q.9.,._ s 0 q 9 F ,.2.2.1.1.1.1.9.w.w.w.w.w.w.w.w.w.w.w.w.w.w.w.w.w.w.q.w.w.w.w.w.",
"..{ [ ` W F A ~ ' ] ..5.9.q.w.w.w.w.w.w.w.w.w.w.9.7.1. .T V N X.2.1.2.9.9.9.9.q.w.w.w.w.w.w.w.w.w.w.w.w.w.w.w.w.w.w.w.w.w.w.w.w.",
"<.<.<.<.<.;.;.<.,.&.9.q.q.q.w.w.w.w.w.w.w.q.q.q.q.9.7.<.X.' %.5.2.7.q.q.9.9.9.w.w.w.w.w.w.w.w.w.w.w.w.w.w.w.w.w.w.w.q.w.w.w.w.w.",
"q.q.q.q.0.9.9.9.7.0.w.w.q.q.w.w.w.w.w.w.q.q.q.0.9.9.5.<.,.=.-.7.9.q.q.q.q.q.q.q.w.w.w.w.w.w.w.w.w.w.w.w.w.w.w.w.w.q.w.w.w.w.w.w.",
"w.w.w.w.w.w.q.q.q.w.w.w.w.w.w.w.w.w.w.w.w.w.w.w.q.q.q.q.q.w.q.9.q.q.w.w.w.w.w.w.w.w.w.w.w.w.w.w.w.w.w.w.w.w.w.w.w.w.w.w.w.w.w.w.",
"w.w.w.w.w.w.w.w.w.w.w.w.w.w.w.w.w.w.w.w.w.w.w.w.w.w.w.w.w.w.w.w.w.w.w.w.w.w.w.w.w.w.w.w.w.w.w.w.w.w.w.w.w.w.w.w.w.w.w.w.w.w.w.w.",
"w.w.w.w.w.w.w.w.w.w.w.w.w.w.w.w.w.w.w.w.w.w.w.w.w.w.w.w.w.w.w.w.w.w.w.w.w.w.w.w.w.w.w.w.w.w.w.w.w.w.w.w.w.w.w.w.w.w.w.w.w.w.w.w."
};
