/* XPM */
static char *result[] = {
/* columns rows colors chars-per-pixel */
"64 64 51 1 ",
"  c #3F504C",
". c #41524E",
"X c #595342",
"o c #455651",
"O c #475852",
"+ c #495954",
"@ c #4D5F59",
"# c #4E615B",
"$ c #54655E",
"% c #5C685F",
"& c #636152",
"* c #6C6553",
"= c #6E6856",
"- c #626659",
"; c #6D6C5C",
": c #706E5D",
"> c #74705F",
", c #546760",
"< c #566962",
"1 c #5B6D65",
"2 c #5D6F68",
"3 c #5E7067",
"4 c #5E7169",
"5 c #6C6F61",
"6 c #617067",
"7 c #6D7365",
"8 c #62756C",
"9 c #6C766A",
"0 c #66786F",
"q c #6A796E",
"w c #737363",
"e c #787667",
"r c #727769",
"t c #727A6C",
"y c #677A70",
"u c #6A7D73",
"i c #707E73",
"p c #6E8176",
"a c #6E8278",
"s c #708277",
"d c #788275",
"f c #728479",
"g c #77887C",
"h c #798B7E",
"j c #828A7D",
"k c #8C8B7A",
"l c #7C8D80",
"z c #808E82",
"x c #8C9282",
"c c #8C9588",
"v c #9F9480",
/* pixels */
"hhgffffglllzllllzllgzlllllllllllllllllllzllzgljlzlzglllllllllzll",
"hp0y000yuuuuuuuuuuyyqqquuiuqquqq88yqquuuiiyuuuuuuuuuiuuuiuuuuuil",
"ufgffgggggllhhhhffgfffggllflffgflilaglllggffffgggglglzlzllifllli",
"u26811112666626662222212621<12221111116122222222226266226222400i",
"f888+$,,%,$$$$$$$$$,$$$$$$#,,,,#@$,,$$$$%,,%,%%$$$$$$$%,,,,+0y8l",
"fufa4fgfgfhhlgggfggggfgglilllfauiuggggfgfgfffffggfggllfglal8uaul",
"fyau4fffffggffffdfaffafaifaiufiuuufaififafaaffaaaiaffaaauua2uayl",
"fyap2ffaffhhhfffaafaffffaaffafauuugafaffffafaffffffaafaflal8iiyi",
"fuai2laffghhhffffifffafaafffauiuauffffffffafaffafaafafafaua8iauf",
"lyai;afffhhhgffifaaffffaffaaalauuuffaffaaffffffffffffffffai5iiyl",
"iyai*iafhhhhgffffffaafffffffalayuuffafaffffffffgfdffffafaff59ayl",
"lyiu;ffahhhhhgffafffffgfffaaaaayuugaffffaafafggdggdafaffffl59aql",
"a0ui=ffiglhghhhgiliaffiglfffaaiuuafffafaafifaffffgfffafafii5raul",
"l0li*filhgllhhhgllaflglliffaulauuufagafffafffffffffaffffafa59iul",
"lyuu&fffhlhlhhhhffaiillggffaaaayuaffafaaffffffffagzffffaluf50ail",
"lylu2fffhhlhllhglalfilgglfffaluuuufaafffafaffffafdgfaffffaf2ugil",
"luii8ailllghlhhggififlfgliailuauiufffffffffafffffggfffffaff8afaz",
"lufa8laagllllhhggggifffifaffuluuuufaafaafaffafafafffffgfaff6afiz",
"luia4fafgllghhhhlhhhfflifaffauuuuuffffffilffffiffffffffffff6ugil",
"lyau4fallgllhhhlhhhgflilliffalauuafffaaaauiffaffffffffffaff8agul",
"luaa8faflllllflllfllfilfffffafauuufauaailaliffffffaffgffaaf8ufil",
"luau2gffflgllllilllifflififffaauuaaglaaluaalffffffgaffgfaal4iaul",
"l0ai2lafllglglllfllfulilgfffafayauauuaullialfdfffffddffaaff4iaul",
"l0iu2fffiliglgllgfallulilfafffiuuuzclaaauliffffffggfgaffffg8uuul",
"fyiu2affffflllffgfgfhhffffffffauuyxviaffgffggfdglgffluaaafg2iiul",
"fyli2lafafigllggglhgfhhhfffsffayau-Xrfifggfffgggglllflfifff2aayg",
"lyuu2afffffllfifggffhhhhffffafayuaaufffagffffgghlgllllilfff8iaug",
"u8lu2lfaaauiffflfflifhfgfifffaayuuafffffdffffghhglllilligff8aauf",
"l8au4laaluuuafaffggfghgfffifafayuugjaiuafffffhghlglggllldfg2ufyg",
"lyau4aulfauaffulfggfghgfffffafayyikxczzzjffffgggflhllgfllaf8iaul",
"uyau5luafuuailufffggghgffffafaiyuuw*eeeerffffdghgghhlllgfag7ufil",
"l8au=iaaaiuuaaaaagffhhhfifffffi0uuiqgaiiiffffghghlggglglggg:rgil",
"gqpp*asfpppppfffshfhfggffffffsp4yulailiaffffsffhhhhghhhhhfh7thph",
"hppp;affppppasffhhhfgggfffafsap4yyffaaulfgffffdghghghhhhhhh>tfph",
"hppp=sfappppffsgfhfhfgffsffaffp4yyiafaalffffffgggghhhhhhhhh5tgph",
"hpsp&sffpppffsgffhhhfhgfgfffsappyyauaaaufsffffgggghhhhhhhgl;tgph",
"h0pp<gsfssaasfgffhhhghhghfsfafp40uaufualpfffffghggghhhhhhhh6pgph",
"hppp4fsssspaafaffhhhgghhhhfsfsp0yyauiliafffffgghfdfhghghhhh0fgph",
"gppq3sassapafsssfffhgghhhhgfffppyylylialgpsfffffgdfhhhghhhs6sgph",
"s4p03faffppsssfasfggghhhhhhhgpp4yuiuuaausspfffggffhhgfgggfg6sgsh",
"f0p8<fpffppsasssfgghghhhhhhhhfp00uauffpsspupfaggfghhggfffsg4pfpl",
"fppp3spsfppassassffghhhhhhhhfsp40yaupppfpupppfgffgghghfffff8pgsh",
"g0pp1fpfsppssssssfghghghhhhhhfp40yuafspffpappfafsgffhgfasff4pgsl",
"fppp<spppppsfaaassgfghghhhhhhsp40yaufaffssppspsfsfffhffffpf4phsl",
"gppp3pppfppsfsssssgfghhhhhhhfsp480aulafffppppfpfffffhffffff2pgph",
"f4pp3fppssssfssssgsgfhgghhhhfpp0y8uafasaspppppsssfdffspsfff3ussh",
"g4p0$ppp$<3<33<3133338334443gfp4u8ua<2123311<<<<<244311<fap1ussh",
"gp0p1ppp<88808088pppppppsps4ffp0yylu2yyyy00808000yyyy001ffp1usph",
"gpp0<ppf$344440444p34p34p8p<hfs84pff<404044433488800888<aap<ppph",
"f4pp$ppp18yyp08p4pppppppppp3ffppppfa10pp00p000p0yyyyyyy1fpp1ypph",
"g44p5pps$3444444333348ppp08<fsppppff<444404433888888884,ssa7qapg",
"f3p0*ppp<4000yyyp4pppp8pp8p3spp8p4ff1p0p4pp4p0000yyuyyy<fsf;taph",
"f4p0&ppp,4114434<34<4344338<ffppppaa<4p4444p84884888844$fpf;raph",
"f4pq=qpp<440000ypppppppp8p03gfs8p4ff1p4pp0p400p00yyyyyy1fff5rpph",
"f4p0=0pp$1444141<44434<4888<gfp8ppff,444413444888888848<fff59fph",
"f400&qps<4400p043pp4ppppp0p3ssp84pfs1pp4ppp40p00yyyyyyy1fpf;rsph",
"f8y8#pps#41<1114334344p4p4p<fappppff<444004484484388444$ffg%0pph",
"f4p0%p0s<11<4114334p4444343<fa44p4ff3p4p003640384384p441fff3ppph",
"f0p8$p0pappppsaapsspgfggsssffap14pppsgfggssggsfsgffgfffffpf3pp0h",
"f0p0$pppappppapapsspsfgghsapppp44ppppsghgfssfffgffffffffspf3pp0h",
"a4p0%ppfpppppssfppspppsagppppp44p4ppppshhggssgghhsffhgfffpg4pp8h",
"f0p0#p40443pp84pppppppppppppp44<<<3p0ppppppqpppspp0pspp000p<ppph",
"g4p4o#######$###$#$<##<,,,##########$<#,<1<<$$<<<<$<$<$$$$$+pp0h",
"f4p0 . .  ..  o   oO  ooooo          OoOOo#OOO+OOOOOo#oo.#. ppph"
};
