/* XPM */
static char *result[] = {
/* columns rows colors chars-per-pixel */
"64 64 256 2 ",
"   c #000000",
".  c #0C0001",
"X  c #04010B",
"o  c #130001",
"O  c #180209",
"+  c #0D1A05",
"@  c #00011D",
"#  c #0A0319",
"$  c #010C1E",
"%  c #150114",
"&  c #1A0315",
"*  c #14021B",
"=  c #1B031B",
"-  c #150D1D",
";  c #1B0D1D",
":  c #03161B",
">  c #15111F",
",  c #1B131E",
"<  c #1C1B1E",
"1  c #2D0402",
"2  c #230D1D",
"3  c #28081A",
"4  c #36091C",
"5  c #23131D",
"6  c #2B141C",
"7  c #241B1F",
"8  c #2B1B1D",
"9  c #36181B",
"0  c #102D13",
"q  c #26251E",
"w  c #37261C",
"e  c #2B3414",
"r  c #000123",
"t  c #010A23",
"y  c #170C23",
"u  c #091826",
"i  c #161421",
"p  c #1A1421",
"a  c #141B24",
"s  c #1B1B23",
"d  c #171C2A",
"f  c #0A1434",
"g  c #231B22",
"h  c #281A24",
"j  c #331525",
"k  c #032626",
"l  c #0D2523",
"z  c #0D2B25",
"x  c #0D252B",
"c  c #0D2B2C",
"v  c #132225",
"b  c #1C2323",
"n  c #192B27",
"m  c #12232A",
"M  c #1C222B",
"N  c #132B2B",
"B  c #0D332B",
"V  c #0A382A",
"C  c #18362A",
"Z  c #0B2635",
"A  c #0C2B32",
"S  c #192A35",
"D  c #0D3333",
"F  c #0D3B34",
"G  c #09353A",
"H  c #0C3C3B",
"J  c #123433",
"K  c #153A36",
"L  c #252727",
"P  c #273727",
"I  c #353927",
"U  c #2C2C32",
"Y  c #283837",
"T  c #580001",
"R  c #4D0911",
"E  c #580418",
"W  c #471619",
"Q  c #421C1C",
"!  c #6A0B16",
"~  c #51330D",
"^  c #48261A",
"/  c #572818",
"(  c #6B3116",
")  c #450E27",
"_  c #4C2E25",
"`  c #722D22",
"'  c #024804",
"]  c #344A19",
"[  c #15462A",
"{  c #165428",
"}  c #0B4537",
"|  c #0C4F30",
" . c #154736",
".. c #165936",
"X. c #2E4D2C",
"o. c #284738",
"O. c #364637",
"+. c #265638",
"@. c #326731",
"#. c #544B17",
"$. c #6E4D1A",
"%. c #586900",
"&. c #71710E",
"*. c #4B522D",
"=. c #484B3A",
"-. c #705429",
";. c #4E6834",
":. c #746F32",
">. c #083942",
",. c #183744",
"<. c #063350",
"1. c #273C43",
"2. c #003C61",
"3. c #0B4847",
"4. c #154A44",
"5. c #175647",
"6. c #0D4F50",
"7. c #284449",
"8. c #2C4F4F",
"9. c #355748",
"0. c #335956",
"q. c #0D6A51",
"w. c #376748",
"e. c #386659",
"r. c #2E7055",
"t. c #105468",
"y. c #2E5A66",
"u. c #106A7A",
"i. c #366765",
"p. c #31726F",
"a. c #4D544B",
"s. c #695B49",
"d. c #4E6E4F",
"f. c #55765A",
"g. c #6D6E4D",
"h. c #5C5D63",
"j. c #50736C",
"k. c #667568",
"l. c #8F0710",
"z. c #AD110F",
"x. c #932F14",
"c. c #AD3414",
"v. c #D03510",
"b. c #914D18",
"n. c #B04E13",
"m. c #8E6E18",
"M. c #AE6B13",
"N. c #8B5626",
"B. c #AD5227",
"V. c #8C712F",
"C. c #AE6823",
"Z. c #CF5918",
"A. c #F34C08",
"S. c #D47010",
"D. c #F4780B",
"F. c #8B7646",
"G. c #977E56",
"H. c #76820C",
"J. c #6E852F",
"K. c #2F895C",
"L. c #3B8374",
"P. c #528454",
"I. c #6F8A55",
"U. c #588569",
"Y. c #488676",
"T. c #4E8E72",
"R. c #668A66",
"E. c #728F70",
"W. c #6A9879",
"Q. c #51A67B",
"!. c #76A171",
"~. c #938215",
"^. c #B28E13",
"/. c #94AF1A",
"(. c #B39039",
"). c #D79D1E",
"_. c #F98808",
"`. c #F8900E",
"'. c #D5AF12",
"]. c #EDB10E",
"[. c #F3D108",
"{. c #EED11C",
"}. c #938D50",
"|. c #AE934E",
" X c #9AB352",
".X c #918C6B",
"XX c #9B9866",
"oX c #A99569",
"OX c #8BA86C",
"+X c #AFAC7A",
"@X c #DDA961",
"#X c #D4B167",
"$X c #ABC965",
"%X c #FBD561",
"&X c #10738D",
"*X c #2A748C",
"=X c #0277AB",
"-X c #4B7D86",
";X c #32868F",
":X c #1390B3",
">X c #268FA5",
",X c #2D8FAA",
"<X c #508D8C",
"1X c #599987",
"2X c #6F9389",
"3X c #689999",
"4X c #56A88D",
"5X c #6BA98C",
"6X c #77A898",
"7X c #66B698",
"8X c #4D97A8",
"9X c #51ABB1",
"0X c #70B3AC",
"qX c #6CC59A",
"wX c #77C9B2",
"eX c #1D9DCA",
"rX c #37A9CD",
"tX c #48B4CF",
"yX c #69B6C7",
"uX c #3AC3E5",
"iX c #75CCC4",
"pX c #53C8E8",
"aX c #6CD8EC",
"sX c #72D2ED",
"dX c #909893",
"fX c #8BAE8F",
"gX c #96BA97",
"hX c #B4B28F",
"jX c #87B8A6",
"kX c #94B5AF",
"lX c #ACBDA9",
"zX c #CAB492",
"xX c #DBBC96",
"cX c #94C19A",
"vX c #A9C695",
"bX c #93C9B4",
"nX c #AACAAF",
"mX c #CEC499",
"MX c #EFCE99",
"NX c #CECCB1",
"BX c #E9D4B1",
"VX c #95BDC9",
"CX c #8ED6C5",
"ZX c #B7C8C5",
"AX c #ACD1CA",
"SX c #AFE7CE",
"DX c #8CD4EC",
"FX c #A1DFE3",
"GX c #B1E9F5",
"HX c #D0D6CE",
"JX c #E4DDCB",
"KX c #CDE4D3",
"LX c #ECE4D7",
"PX c #C4DBE5",
"IX c #D0EEF3",
"UX c #EEF1F0",
/* pixels */
"> i - > > > i a a a a u l z z B z l z B B B z k 0 z z V [ { ..[ m O 7.8XX . . k h.a.X X d A x m a d a i - i - i p , , p , , 7 , ",
"> > i i i i i a a u a v l z z z z v l z c z l l C Y z [ d.@.@.|   : 2.AXVXkXZXPXPXIXFX3X  u N v a a i > i - i i s 8 8 g p 8 8 5 ",
"- > - > i i i i > a l l z 0 z z l 0 l 0 l k z n     + + ' ' w.j.j.PXPXIXUXIXIXIXGXDXFXVX3Xo.c K N m a i i > a s 8 ^ j 6 6 8 6 , ",
"i i > i i a i i a a l l z C z l z z V [ ] _ ]   dXAXPXKXZXnXIXIXIXUXIXIXGXDXpXDXDXyX-X*Xj.j.J V B x v v v < 7 7 7 9 8 h 5 p 5 p ",
"> i > > a a a v l v l l [ ] e V V [ ] ] *.~ *.HXUXIXIXUXUXIXIXGXGXIXDXDXaXpXrX:X:X:Xp.p.0.P P z x l l z c m L Q w b g p p i s a ",
"> u a i a > a l z z z C #.;.X.| } { [ [ ^ =.AXGXGXDXGXGXGXDXsXsXaXsXrXtXrXeX:X*X*X*Xp.5.8.Y L n c x c B c c n _ I n v s p i < a ",
"a a < < a a a x z z [ ] ] ] { { [  .V B + 0XsXpXpXpXsXsXpXeXpXrXtXpX&X&X>X7X0XCX3X  6.8.C b L s n c B V V c B I _ P a < i i i i ",
"i > a u > a u z c c C { { { { { { | ..X -XtXeXeXeXrXuXuXrX&X,X,X&XtX>X7XwXCXCXCXwX0Xj.  S M b g < c B X.X.B V I _ 9 5 p i i p p ",
"i i a a a a x B V V B F } | { { { ..{ | p.>XiXiXwX9X7X,X*Xt.*Xt.K y.;XCXwXY.Q R _ 1XwX3X8.  b s < b C I X.C P I / w 5 , , , > a ",
"y i a a a a c [ { [ F F } { { { [ [ | +.<.<XSXCXiXGXFXiXj.f >.>.S r 4XiXy.T ! E E T d.bX7Xp.o s , < z 0 z n L ^ Q 8 8 5 7 5 i , ",
"> > a u x x D [ [ F F D B B k x c l K 0 L.CX0X1 R fX7X0X9X7Xi.u u 0.wXL.T B.S.S.x.) R a.iX1X  b , , l V C n 9 9 h s h 8 s < < i ",
"> u a a a c V F B B D D c k z k x x [   <X4X1 ! ! z.c.X j.wXY..   p.Q.R n.`.`.`.`.b._ / 4X4X. < , , < C e 9 ^ W w b L 8 b v i i ",
"> i a x A A H ,.D D G } F F V V [ | 0 Y.CXh.T h n.D.D.Z.  d.1X4.S 1X5.T S.`.`._.`._.N.s.i.7X0.o < , - L _ _ 9 9 w q w q n l , > ",
", a a x D H 3.6.H F 3.5...| F { X.X.  wXSXT _ E D.D.D.D._   wX3Xj.0X} R D.D._.`._.).oXg.4X1X: i > , # I *.*.L d < 9 9 7 b v a > ",
", > a m D H 5.3.3.3.3..... .C o.X.o.  7XbX( ) B.D.D._.`.( r 0X<X1XCXA X S.`._.`.`.D.hXh.Q.Y.  b - , * L O.o.S a s 8 7 , p a p i ",
"< L n C B F | 4.5.4.3...C S n n m U   bXCXC.N.l.D.`._.D.X f iXj.9.wXj.@ x.D.`.`._.xXdXd.L. .% > - , - s M x a m n g , < , i i , ",
"P ] C C C C J 4.5.4.3.>.m m m p i L   jXSXhXJX@XD._.`.n.@ d.0.L   j.qXU.  T M.S.@XdX1XL.r.. p - - > - p S N m v J b , < s , > , ",
"I P C n b n n D  .J A A m m m a m  .  6XSXKXNXLXBX@XM.. e.0XU X u O 5X7XT.Y.3.V <X7XqXP.  a y h 2 - ; a H J n L n q g s q C n a ",
"< q < < b b s b N c c Z d m m m c [ o i.SXSXgX.X.Xd.3.r.0X5X  _ ! $ q 4X5X4X7XQ.W.5X9.  p y 3 E 2 > ; a A n q L b b w e e n C M ",
"< s a a v n a s M c F F Z c B } F V N   7XFXAXSX6XK.qX7X4X9.  c.A./ $ L   r.<Xo.[ Y % g 5 $ t ! 2 > ; > n a a m c A L w I q s a ",
"v d s v v m m m x Z } 4.} F } ..}  .I = K 4XbXSXjXo.T.0.  O t A.A.A.3 # g O   O % = 6 r t ! l.! - > * s M i m Z A m p g , < p i ",
"a a i a l Z >.G c A H 4.3.H } } } } *.p %     o.P X     g u E v.v.c.W t ; , s i p p r x.E ) ! j - , y L n a x x a a i i i i i p ",
"a a i i d Z 3.3.,.G J G 3.5. .V B | @.j $ M s % % i s a - y ; @ r @ r ; - 2 , y y ) x.A.c.r t $ - > - M M s i a m M s p s d s i ",
"a a a a m A G H >.G m Z 5.8.9.p.p.q.q._ 9 $ ; p , - - - - - - 3 6 3 ; 6 > @ @ 3 t ! v.c.! $ 2 ; i = s 6.,.h L s b M s s s d s i ",
"a a a a m a x >.3.A d m S N 4.p.L.r.G M ` 9 - - - , 6 5 , - - 2 6 - ; r * ` ` # t z.l.r 2 - ; - p & ,.t.,.M L g d a i i i i p > ",
"a u i d m a a x J d d a a m A 3.6.D a f > ! l.t 5 @ @ @ @ ; ; @ @ ; 4 n.n.Z.c.r t ! ) p 2 - - , 3 C 6.3.Z Z Z d i < a p p > i i ",
"a d i m a i i a u a a a a x c x Z G A a u ) E p r b.Z.$.^ ; # ^ n.3 @ b.Z.r ) 4 ; $ $ ; i y y = s 3.H Z a u A Z a u m m a a a x ",
"m m a i u i a v N A x x c A x x J H } } } F u 2 t ^ Z.`.).@ @ C.).@ 9 @ = 2 t 2 - 2 ; - i L h s  .C x a a u m m a x D m m N A Z ",
"a a i p a a x A F }  .F F G A x D F } q.q.} z j R h @ z.Z.r ; ^ j 4 2 4 5 y 3 y ; y = , =     ....[ N a S 4.H A v z c N N A A d ",
"c c v J D D G } A D } G J H G c c c k }  .V K u D   & @ ! E 4 @ r 2 6 E j L L j 2 ; p % U ZX5Xq.r.{  .Z o.r.q.K K n n C N N J m ",
"F G D F H F 3.4.c G 3.,.A K ,.c B c z ] [ N V 6.IXZX. h h E ) - 5 ; y d         h y ; M V kXUXAX' |  .H o.f.q.| @.Y P I n M S m ",
"A J J J J J  .H N H 3.4. .+.5.3.r.r.w.I.R.q.q.SXIXjXk 2 p t $ 2 y ; g . h.dXdX2X  p ; d M X AXUXZX{ @.f.R.!.U.d.U.;.=.d.I P N A ",
"| 3.3.V u k } q.3.6.q.r.f.R.5X1XW.OXP.}.gXfXSXIX;X  p > ; ; , y ; h   dXIXAXLXdX  s ; - d 2 3.AXPXnXP.OX!.fX!.!.!.P.T.P.d.d...5.",
"r.T.L.U.T.P.U.5XQ.R.W.6XfXjXbXnXcXgXOXI.vXNXnX8XY 2 s , > > ; y a . y.FX2XZX2XX L - - p i p h p.<X9XfX!.5X4XfX!.d.q.p.r.r.K.r.5.",
"f.I.R.6XgX!.!.vXOX:.gXnXgXbXSXnXbXgX+XOXvXnX;Xf O s , > , 8 g g ; M <X3.  0.  U ; 7 h 8 g p i K m <.0XkXQ.u.U.f.@.6.5.4.| 5... .",
"P.J.#.+.R.;.I.vX!.U.fX6XR.fX0XcXfXcXnXvXlX0X2.U p p h < r r r r   i.L.X a     % r r # t r d g ; d = t.CXbXQ.q.e a.P.d.;...;.#.n ",
"w.K.@.o.} 5.J.!.I.P.T.Q.L.!.!.bXSXKXKXvXnX*X<., d s r @ ~ m.m.m.~ u -X0X3X0X6Xr ~ &.m.V.( y r t s S   -XbXE.P ~ E.E.i.e.w.d.7.3.",
"} 5.w.d.q.q.q.5XbXcX0X7Xq.OXNXvXOXfX+XE.3Xu.6.3 r X V.).@X%X%XMXmXzXdXLXAXKXlXmXNXMX#X#X@X(.m.^ r h S f p.6 =.:.k.h.G >.3.k r.;X",
"6.H 9.d.Y.P.d.2XkXAXnXjXH P.vXhXdXa.j.bX3Xu.M # j oXxXMXBXLXLXUXUXUXUXUXLXUXLXLXBXNXmX#X#X|.(.C.$.r S S 8.2XR.f.*.~ =.;.#.P 7X4X",
";XT.w.;.O.s.g.k.a.a.j.f.%.H./.$XvXk.1 7X,Xt.. 2 zXxXNXNXHXJXHXLXJXLXLXUXJXLXLXLXBXmXmX#X|.|.|.V.m._ @ 7.<.p.d.&.J.J.H.&.;.o.y.2.",
"9.j.1Xk.O.Y I a.j.Y < fXlX}. X X X XI.8X&X1.  .XxXhXNXNXHXzXJXNXBXmXNXJXmXNXNXNXmX+XhX X}.|.V.V.m.-.h f y.2.R.H.~.&.:.;.+.0 X.o.",
". f h.a.Y 8.M o h.k.-.lXKXnXnXE.;.&.U.8X*XX a.zX|.+X+XlXhXzXNXNXhXhXNXhXhXhX+XhXhX|.}.V.-.-.:.:.-.#._ O 6.;X<X}.XXd.6.d.d.f.I.O.",
"i.y.H 1 N } p.p.j.<X1.#.I.dXhXE.*.#.<X,Xy.o .XoX.XXXXX.X.XhXhXoX+XoXg.X G.XXoXXX}.}.:.-.#.1 2 _ #.^ w g o y.9XkXW.j.6X6XfXU.=.#.",
"9.P O.U o. .K.7X9X<Xf y.p.2Xg.~.~.OX9X8X  s.G.G..X:.V.-.F.F.V.dX.X1 ~ m.y V.V.F.F.N.$.$.^ b.( X w w w h d . *XyXh.f.bXbX2X  D o.",
"w.8.7.I _ _ w kXkXY.2Xa.y.-XE.g.+XbX9XtX*Xs.m.V.:.-.:.-.N.N.N.}._ 1 '.[.&.^ m.$.( ( / ^ 3 b.'.% 4 2 j 8 i d . ,.-XgXnXI.P % n n ",
"w.a.y g w _ 1 k.HXkXg.&.s..X$.#.*.<Xp.t.h.N.$.$.#.$.( ( $.( $.    '.[.[.'.= / / ( ^ W W 9 @ ].S.E / 6 5 , - M . 4.kXI.+ 3 3 , b ",
"7 P , , 6 3 1.7.3X2X  a.g..XV.(..X;X<Xt.a.x.` / / / ^ / / ( ! E ^.[.[.[.[.^.y ^ Q 9 9 6 Q @ ).].v.( 6 2 , i a a ,.a.!.:.s.7.s b ",
"i ; , > % e.R.I.f.3X3X-Xa.jXZXE.1XrX9X,Xh.T ^ W Q / 1 W R / l.l.B.C.M.C.C.B.E 6 6 3 4 6 9 X b.c.^ @ 5 ; > y a y.&X&Xj.a.d.j.0., ",
"O - > & ,.5XI.*.@.j.bXCX<X3X6X2XW.&XtXtX/ / 9 W W 9 6 9 9 w : : @ @ @ @ @ @ ; 3 2 3 2 2 5 w < r @ 5 ; p * 4.*X,X:X*X,.3 U 1.L 1 ",
"y.7.y.Z 2X2XE.5X7XjX5Xj.j.i.d.gXgXrXpXpXT 9 9 6 6 3 3 9 @ $ 3 4 6 6 6 8 9 j 2 g 5 5 2 5 @ @ @ 8 , ; ; d . *XrXtXrX&XU j y Y 3X<X",
"e.r.p.7.8.q X.{ { ' .   4.o.I.I.fX:XuXrX1 h 5 5 6 ; 6 X m.M.; = 6 W w r y 2 # # = @ s @ _ ~.~.3 ; y - M X 8XpXpX,X&X= y.8.y.-X*X",
"a.1XT.a.o.J.H.!.jX5X6X5X1X9.X.&.R.=XrX9X1 h 5 ; 2 8 @ $.[.[.#.X M.].].'.^ @ ^.{.{.'.( : ^.[.[.m.@ W 4 u & y.*X,X,Xt.y 1.d y # y ",
"7 n + j.3X3X=.f.5X5X5X5.w.+.o.] 0 &X,X*X1 g ; 5 2 : T '.[.).$.@ _.`.].[.w # '.{.[.{.4 @ ^.].'.].E 9 4 u o ;X*Xr ,.,.= & y M 1.y ",
"g Y I -X-Xy.  Y ;.z e.f.d.+.+.L d.<Xt.t.d 2 ; ; , 9 l.].M.E M.).].[.].].^.m.'.'.'.[.M.^.b.X I ].D.n.( t O *X,X2.. , y p h 8.1.y ",
"- g 9.7.1.o , P f.U.E.W.W.r.8.y.j.O.<.>XS 3 y ; - R x.Z.Q $ R ].[.[.N.X ^.[.'.@ / [.{.{.x./ @ n.Z.x.$ p o *X*XX i i i - % = 3 f ",
"M d O o 3 q p X _ 2XU.a.f.e.f.f.P b y.,.; ; i ; ; $ 8 / - q T @X%X@XX @ (.@XC.4   %XMXxXz./ $ R W @ - i & 1.S % i y y L 1.L h Z ",
"S d ; g e P P n t 7.e.O f.W.dXR.O.X.1X8.o p - , - ; - @ ; - 4 ! C.-.@ W @X@XB.! $ ` l.T $ $ ; $ @ 5 - - i % % i - y % 1.1.; M a ",
"y p * q L P e q 0 O . g y 2XgXk.b O.w % s = > ; - - ; , ; > # : @ # , -     @ : ; @ @ : - ; - ; , * - - ; i d d p p p = = a d i ",
"p y , , s o U 1.8.o.0.K X j.lXdX> q y = S S & > y - - - - - - ; h 5 - - < L 5 ; - 5 3 ; - - - - - - - - - - - p i p p S - - i i ",
", ; > > - 7.i.-X3X9.8.i ; r j.h.  s p y p d - - - - - - - ; - - * - - - - - - - - - - - - - - = - - - - - - - - y & S ,.% i - - ",
"- - - , o y.y.u 7.9.9.& . 1.H   p y p d ; i > - - - - - - - - - - - - - - - - - ; - - - - - - - - - - - a i - p s p , # i p > - ",
"- - M m ; * 4.p.8.b Y 1.1.Y M d Y d i i - - - - - - > - - - - - - - - - - - - - - > - - - - - > - - * - > > - - - - > y i i i i ",
"- i i - ; p y ,.7.t * 7.1.M Y 8.y.S - - i - - - > - - - - - - - - - # , - - - - - # - > - - - # - - - - - - - - - > > i - i - - ",
"- - i i y d f y O d a . % - * ,.M - a i > i > > - > - > - - - - % - - - - - * - - - - # - - - - - - - - > - - - - - - - - - > - "
};
