/* XPM */
static char *result[] = {
/* columns rows colors chars-per-pixel */
"64 64 256 2 ",
"   c #000000",
".  c #02010C",
"X  c #08090A",
"o  c #170309",
"O  c #081409",
"+  c #13170F",
"@  c #040412",
"#  c #070913",
"$  c #070816",
"%  c #090A14",
"&  c #120D12",
"*  c #150B18",
"=  c #091514",
"-  c #0B121B",
";  c #171717",
":  c #2F0B10",
">  c #241A16",
",  c #0D2B16",
"<  c #182619",
"1  c #28251A",
"2  c #35261A",
"3  c #263618",
"4  c #37351C",
"5  c #020727",
"6  c #081725",
"7  c #0B1D2B",
"8  c #171B22",
"9  c #261F2B",
"0  c #0C2926",
"q  c #0D212D",
"w  c #152628",
"e  c #17352A",
"r  c #0D2433",
"t  c #0C2A38",
"y  c #172734",
"u  c #122E3C",
"i  c #0B313C",
"p  c #1A3B36",
"a  c #252728",
"s  c #372A23",
"d  c #283827",
"f  c #3A3626",
"g  c #252D34",
"h  c #253737",
"j  c #373B32",
"k  c #4C070D",
"l  c #4A3419",
"z  c #463826",
"x  c #423F32",
"c  c #2C481C",
"v  c #384517",
"b  c #195122",
"n  c #1D4237",
"m  c #1F503D",
"M  c #294525",
"N  c #374B2A",
"B  c #244335",
"V  c #23453C",
"C  c #274838",
"Z  c #2A4B3C",
"A  c #394937",
"S  c #2C513B",
"D  c #36543C",
"F  c #4B472A",
"G  c #514B2C",
"H  c #47573B",
"J  c #5A5737",
"K  c #66572A",
"L  c #6F522D",
"P  c #67593A",
"I  c #4D6538",
"U  c #6F6D33",
"Y  c #78653A",
"T  c #102E40",
"R  c #173746",
"E  c #273941",
"W  c #19484B",
"Q  c #274845",
"!  c #2B4D43",
"~  c #2C4A4F",
"^  c #2C5648",
"/  c #335443",
"(  c #3B5A43",
")  c #365A48",
"_  c #355B54",
"`  c #38634D",
"'  c #396757",
"]  c #35766C",
"[  c #475B43",
"{  c #5B5A43",
"}  c #4B5151",
"|  c #655A49",
" . c #496649",
".. c #4C654B",
"X. c #566748",
"o. c #536A4B",
"O. c #4A7A4B",
"+. c #5B744B",
"@. c #476955",
"#. c #576C54",
"$. c #497358",
"%. c #577559",
"&. c #656749",
"*. c #786B47",
"=. c #66724C",
"-. c #78784C",
";. c #686E52",
":. c #677756",
">. c #6B7C5B",
",. c #737A54",
"<. c #777B57",
"1. c #615E60",
"2. c #487866",
"3. c #547D65",
"4. c #4A7070",
"5. c #667B63",
"6. c #70796F",
"7. c #965D34",
"8. c #8B733A",
"9. c #887749",
"0. c #867A55",
"q. c #9B7157",
"w. c #957659",
"e. c #5B835A",
"r. c #71834D",
"t. c #6A845C",
"y. c #7A8357",
"u. c #74825B",
"i. c #7B845D",
"p. c #5B8766",
"a. c #528874",
"s. c #688566",
"d. c #7D8562",
"f. c #788A66",
"g. c #79966A",
"h. c #6A9173",
"j. c #779A75",
"k. c #77A67A",
"l. c #D79436",
"z. c #85855A",
"x. c #948459",
"c. c #93955E",
"v. c #A49259",
"b. c #94A15D",
"n. c #848B65",
"m. c #878967",
"M. c #8B8C64",
"N. c #978C65",
"B. c #89966B",
"V. c #8D936C",
"C. c #92946D",
"Z. c #96966D",
"A. c #8A8A72",
"S. c #8A9875",
"D. c #979975",
"F. c #9B9B74",
"G. c #A59767",
"H. c #A99066",
"J. c #A59D78",
"K. c #86A47B",
"L. c #99A47B",
"P. c #89B17B",
"I. c #B1AA6F",
"U. c #A4A37E",
"Y. c #ABA578",
"T. c #B7AA79",
"R. c #D8A560",
"E. c #CAB170",
"W. c #52938C",
"Q. c #659984",
"!. c #75968E",
"~. c #71A88C",
"^. c #77AB98",
"/. c #77B29D",
"(. c #78B4A2",
"). c #8D9591",
"_. c #87AA87",
"`. c #9AA986",
"'. c #86B788",
"]. c #96B58A",
"[. c #84A399",
"{. c #8BB996",
"}. c #94B996",
"|. c #A7A983",
" X c #B5AE87",
".X c #A7B288",
"XX c #BCB788",
"oX c #A6BA95",
"OX c #B4B298",
"+X c #8DACA5",
"@X c #8BB9A6",
"#X c #94BBAC",
"$X c #A4AFAF",
"%X c #C6BA86",
"&X c #C2B797",
"*X c #8EC190",
"=X c #94C59A",
"-X c #9BC29C",
";X c #ABC69A",
":X c #89C2AE",
">X c #9AC6A8",
",X c #9BC8B5",
"<X c #A7CBA8",
"1X c #A9D3AB",
"2X c #B5D5AC",
"3X c #A6C9BB",
"4X c #A4CDBB",
"5X c #B6CBB4",
"6X c #A9D4B8",
"7X c #B6D6B6",
"8X c #B2E0B5",
"9X c #CDC694",
"0X c #D4CB99",
"qX c #D1CFAE",
"wX c #DAD5A8",
"eX c #E3DCAB",
"rX c #E6E3B5",
"tX c #9DC8C4",
"yX c #AACCC2",
"uX c #B7CCC7",
"iX c #ACD3C3",
"pX c #ABD6C8",
"aX c #B3D5C5",
"sX c #B7D7C9",
"dX c #B5DACA",
"fX c #BCDBCC",
"gX c #BDDED1",
"hX c #BCE2C1",
"jX c #BEE2D6",
"kX c #C5CFCC",
"lX c #C3D4CF",
"zX c #C1DCCE",
"xX c #C3DED2",
"cX c #C8DDD6",
"vX c #C2E5C3",
"bX c #C5E2D5",
"nX c #CAE2D6",
"mX c #C5E5D9",
"MX c #CDE5DA",
"NX c #CCEADE",
"BX c #D1E6DC",
"VX c #D3E9DE",
"CX c #EAE8C4",
"ZX c #CBEEE4",
"AX c #D6ECE2",
"SX c #D9EEE4",
"DX c #DBEBE8",
"FX c #DBF0E6",
"GX c #D7F3E9",
"HX c #DCF2E9",
"JX c #D7F7F0",
"KX c #E4EDE8",
"LX c #E3F6EE",
"PX c #E4FBF2",
"IX c #EBFDF7",
"UX c #F3FFFC",
/* pixels */
"BXBXBXVXVXVXVXVXVXVXSXVXKXVXKXFXKXFXHXFXHXHXHXFXAXPX3X  g y   [.IXDXFXFXHXLXHXHXHXFXFXFXFXHXFXFXFXFXFXFXSXSXSXSXSXSXSXVXVXnXvX7X",
"BXnXBXBXBXBXBXBXVXSXVXSXSXKXFXFXFXHXHXFXHXFXKXFXSXPXuX  g r @ T GXJXGXFXSXHXHXHXHXFXFXFXHXFXFXAXSXFXSXSXFXSXSXSXSXSXSXVXVXVXVXMX",
"nXcXMXBXBXBXMXBXVXVXVXSXSXKXFXFXFXHXSXKXKXHXFXFXSXPX3X  g 6 g   +XIXDXGXSXSXFXHXFXDXFXFXHXSXSXSXFXGXFXSXSXSXSXSXSXSXSXSXVXBXMXMX",
"cXcXMXcXMXnXMXBXVXBXVXSXVXSXSXFXSXFXHXHXFXHXFXFXSXPX#X  E y T y . cXPXAXSXFXFXFXSXAXAXGXFXDXSXVXFXHXGXSXSXSXSXSXSXSXSXSXVXMXMXnX",
"bXxXnXMXMXnXnXMXBXBXVXVXFXSXFXSXSXFXHXHXHXHXKXFXSXPX!.  u y i g   !.IXDXHXFXHXFXAXAXAXAXAXAXAXNXBXFXGXFXAXFXFXFXSXVXVXVXVXBXBXnX",
"xXzXxXnXnXcXnXMXBXBXDXDXVXFXSXSXSXFXHXHXHXHXHXFXHXHX@.  R u r 7 * r DXKXSXFXHXHXFXFXGXHXAXAXAXNXNXAXGXSXAXFXFXFXSXKXVXVXVXVXnXzX",
"fXlXxXcXMXbXnXnXnXBXBXVXSXSXVXSXSXSXFXFXHXHXFXFXLXGX! @ R R 7 6 g . 3XUXLXUXIXJXAXAXGXFXGXFXFXAXVXSXFXSXAXFXFXFXSXVXMXMXBXnXsX7X",
"fXfXxXcXcXcXnXnXcXnXBXDXVXVXSXVXDXFXFXFXFXFXFXFXFXHX4.@ Q t r 6 w   4.LXKXVX#XLXUXPXPXUXUXJXGXAXAXFXSXSXAXGXFXFXSXVXMXnXBXfX,X3X",
"sXlXzXcXnXzXnXbXcXMXBXVXVXVXVXVXAXDXDXAXDXSXFXFXJXJX' 5 R 6 7 r r T   _ Q O   6.kXVXKX5X).DXPXZXNXAXAXVXVXFXFXFXSXVXMXbXbX4X,XaX",
"sXsXsXzXzXzXzXbXzXnXMXBXVXVXVXSXAXAXVXDXSXSXSXSXLXjX$ y 6 - 6 5 6 6 y   . * g             !.IXIXGXZXNXMXnXVXFXGXSXVXMXnXhX4X6XnX",
"yXsXaXsXfXzXbXzXzXbXMXBXBXBXVXVXAXAXZXAXAXSXSXAXPXyX  g . $ $ @ @ - 6 y y y 7 y h 8 8 a g . } kXLXIXGXMXnXnXNXVXSXVXnXbXzX6XaXnX",
"3XuXaXaXsXzXxXzXzXbXMXBXBXBXVXVXAXBXAXGXSXSXLXIXUX#X  Q q q t T T T q q r q r r t u i u 5 _ W.] 4.[.GXSXMXmXgXgXvXbXgXbXxXsX3XsX",
"3X6XyXaXsXxXxXzXzXbXMXMXBXBXBXBXAXBXAXyXgXUXIX+XgX#X  E T T r r t T q 7 r 7 q y r t T R   !.ZXJXZX3X+XSXVXNXmXhX6XdXfXzXbXaX>XyX",
",X3X3X3XdXgXfXfXxXnXMXMXBXMXBXBXAXAXFXgX] !.6.    y R R T 5 5 7 6 r r 7 r y q t t t y @ (.mXZXgXmXGXpXdXjXbXmXgXiX6XgXxXxXaX,XaX",
"#X,X3X4XsXzXfXfXxXMXMXMXMXMXBXVXAXSXFXPX!.  . g 8 7 W ~ ~ W W W R u 7 r r t r r R Q   !.ZXgXgXgXjXbXZXbXjXhXdXjX6X4XdXgXgXiX,XfX",
"@X#X#X6XfXzXzXzXbXMXMXMXMXBXVXVXAXFXPXUX[.  E 7 6 T R R T R ~ R R r 7 7 t y t T @   5 3XmXcXmXcXfXfXjXfXgXgXdXdXpX,X4XdXbXdX,X,X",
"[.@X#XaXxXxXzXxXnXNXMXBXBXBXAXAXSXHXSX5X! @ r t 7 R R r r r $ 6 q y 7 7 r r E @ (.!._ mXMXmXgXgXpXaXpXiXpXaXpXpXiX,X,X4XdXdX:X/.",
"@X@X#XsXxXxXzXbXMXNXBXMXMXNXAXSXFXLX~.  8 @ @ 7 u W T T t r y r q r r r r y   . pXZXtXjXMXmXgXpXpXpXpXpX,X4XaXaX4X:X(.>XpXiX/./.",
"#X^.#XsXxXxXfXbXBXBXMXMXMXVXAXSXAXPX+X  h Q u 6 E R u u T r y q q q r q r 6 W.yXJXPXJXJXZXjXgXgXjXgXjXpXpXiXdXaX4X:X^.:XpXpX/./.",
"@X^.>XsXzXzXfXbXMXMXnXnXMXVXVXAXHXAXW ] ^.W.] W y w 7 6 5 - % @ @ % % % % @ _ 6.).$XuXBXDXJXJXDXmXbXmXmXbXbXbXjXdX,X^.(.pX4X~./.",
"@X^.#XfXxXzXsXxXnXxXxXnXVXBXVXVXLXgXpXZXW.i e 8   X @ @ @ % % % @ @ @ % @ %     @     o 1.).5XBXFXJXNXmXmXmXbXnXjXpX:X(.,X,X~.(.",
"#X^.#XsXzXzXzXzXxXsXfXbXcXnXBXAXIXLXuX1.  o . . % % % % X % . . % % % @ X % ; 8 g 9 w .         6.uXKXPXZXmXNXmXjXjX:X~.~./.a.~.",
"@X^.>X6X3XsX7XsXdXsXxXbXbXnXAXIXuX}     8 % % % # . . & & ; > 1 > o & % # @ . X . % * * 8 a g *     } $XLXJXNXmXjXjX:X] ' a.^ ] ",
"^.Q.@X<X4X6X3X3XaXxXbXxXgXAXKX).    j 8 . % % @ X 1 2 l G K Y K K G 2 > > & & # % % % % % % . % 9 w     } kXPXNXjXjX,Xa., m m ^ ",
"[.a.a.#X3X>X@X,XsXbXfXfXAXcX}   a 8 . % # % . ; 2 F Y 8.x.G.G.b.v.x.U G 2 1 > & # # # % % % % % % % ; g     ).AXZXjXiXQ.W C ( ` ",
"/.a.a.:X,X@X@XaXxXfXsXZXkX    j . % % % % @ ; l K 9.v.I.T.E.T.T.9XT.G.-.J z 2 > % # X % % % % % $ % & . 8 a   } jXjXpX(.] C ( O.",
"Q.' Q.@X>X:X4XzXbXdXmXzX    a . % % % @ @ % 2 L 8.G.%X%X9X9X0X0X0XJ  XT.0.*.F : > . % % X % @ % % & & % % % g   + uXpX(.' S  .#.",
"] ^ Q.{.,X4XfXnXzXjXbX}   a @ % % % X % @ > L 8.1 %XwX0X0X0XwXrXB.  J 9XI.0.*.w * @ . @ % % % % $ & & % % % . a   a #XQ.S n  .#.",
"a.` a.Q.,XiXxXnXfXmX).  g . % % % % % X @ z 8.P   |.eX0XwXwXrX&X  a   | XX;.z.*.$ - > @ X % % # % * o % % % $ @ w   } h.m B ( O.",
"] ` ^ a.:XiXxXfXsXsX@.  8 % % % % @ % . ; Y P : . } eXwXwXeXeXP   ; 1   <.XXY.x.@ % 2 * % % % % * ; & % & - $ * % - $ @.C C [ ..",
") m b m Q.:X4X4X4X3X/   - % % % % @ * . F 8.l : >   qXrXwXrXA.  a . @ >   G.0XY.*.- > & @ % % % % & & % $ % % - $ - @ h Z Z (  .",
"` n 0 e ^ a.~./.^.,X@.  ; % % % % X % . Y L k > a   ).CXrXOX  d > ; ; 1 a   J.;XM.x   & % % % % % * # % $ % % $ $ $ @ p Z C S D ",
"` n , B / @.a.h.a./.!.  a % % % % % . 4 Y k     8   . qXeX XP       .     0.OXOXZ.j . & # % % % % * - % % % $ % % - . V C B Z C ",
"' C 0 e Z ' 3.p.s.h.{.h   8 @ % % *   G L L 9.G   5 ).qXwXeX0X&XN.7.7.w.OXqX%X XG.&.  % & % % % % % % % $ $ - $ - . r ^ B C Z V ",
"` B 0 n B ^ @.$.p.2.!.!.    ; - # +   G v.8.9XwX&XOXwX0X&X&XwX0XqXqXwXqXqX X%X XJ.N.J . & % # # % $ % - # % % - %   ' ^ B S D C ",
"/ B 0 e d Z ( @.@.$.2.a.h.V     - ;   I R.8.I.%X9X9X9X%X2 | 9X%XE.%X%X%X%XXXE. XN.N.N.; . = % % - % $ $ # - - .   ' ' p Z ! / Z ",
"n e 0 e p B D ( ) ` @.@.2.3.' y       F G.G.v.I.I.E.T.z     F  X%X%X XE.%XXX X%XA.w.G.j X - $ % $ $ % % - @   w ' @.h A / / / C ",
"e 0 , e e B C D / / ) ' ) ^ ' W.2.! ! A x.x.G.G.H.v.2       .   *.T.T.Y.H.T.T.0XN.0.G.j   - $ $ - - - .   0 ~ ' ' ! ) / / [ ) A ",
"e 0 0 e e e p B h C / ! ! / ) 2.a.] 2.@.-.z.x.x.v.*.s z z | 0.m.w.|.J.G.1 N.T.{ F x.H.j   - % % @     e ^ ' ' ) ^ ) / / / / ) / ",
"n p e n n B d B Z Z Z ! / / ) ' @.@.' @.Y 0.Y *.9.x.N.G.J.H.J.H.H.H.x.H.a 2 |   s x.x.@   . @ @ w ! ' ' _ ! ! ) _ ^ ! ! Q Z ! Z ",
"S S D ) ( D H ( ( ( D D ) / ( / ) ) ` $.F P *.G P *.9.9.9.9.8.Y Y 9.G.N..   2 { > w.z.W _ @.2.3.3.2.@._ ) ^ ^ ! ! Q Q V V Q V n ",
"( ( I  .O...o.o.o.o.....o.o.X... . . .$.[   F 2 f 9.*.P P *.*.*.P . &.-.  . z N.&.w.s.$.4.$.$.3.5.s.s.3.%.) W p p h p p p p p W ",
"I  . .o.o.o.+.+.=.+.:.:.u.u.u.:.>.t.>.s.5.: @ o   P *.P o G *.*.G     . % . 2 w.0.,.s.%.$.#.3.s.h.f.s.5.3.@.^ n p p p n V n p p ",
" . .X.=.+.=.=.=.=.:.u.i.d.d.f.f.f.f.f.n.D.{ . > . 2 Y K     f P z . ; % @ . 2 9.P >.f.s.s.5.5.s.g.A.d.5.5.%.o.@.@...@.) / ! Z Q ",
"[ o.:.t.r.u.f.i.<.f.n.m.m.n.n.n.B.B.D.Y..X`.. % %   1 s . &   2 > . @ 1 z . l P &.V.D.S.g.f.g.g.S.A.n.f.d.i.u.y.d.f.u.:.%.o.o.X.",
"o.+.r.u.u.u.f.n.n.n.V.S.S.n.V.n.n.Z.L.U.|.OXS.  f l . @ @ s ; . > * @ z z s z l +.|.|.L.U.U.Z.L.S.D.D.V.Z.V.B.Z.V.V.m.n.i.u.,.:.",
"+.;.,.u.:.>.i.n.i.d.m.D.C.D.OX.X`.`.|.S.`..X2Xf.  z 1 . > l 2 > 2 2 2 s 2 z : 5.oX;X;XXXU..XT. X|.|.J.F.J.F.D.D.F.D.A.m.m.m.m.i.",
":.>.r.y.z.z.y.B.M.M.C.S.S.D..X.X<X7X5X;X$X].<X7XS.o 2 > 2 2 2 2 2 2 2 2 1 1   :..XB.F.c., r..X.XU.J.L.|.F.L.F.|.|.F.C.V.V.C.M.n.",
"+.,.y.z.z.c.z.n.Z.M.M.n.n.L.].>X}.}.<X1X1X7X5X<XvX-XN 2 1 > > > 1 ; > & + # , c         , P.oXD.|.Y.|.F.F.Z.J.|.|.|.J.D.A.Z.C.A.",
"X.=.y.z.y.y.u.d.B.M.N.N.C.{.-X1X}.'.{.h.j.}.1X<X<X_.e   . . O O X X   X ; < M M < < d ( e.'.].`.OX|. XF.L.|.F.|.|.|.J.F.C.Z.C.C.",
"=.=.y.z.=.u.>.6.f.N.F.N.`.{.<X<X}.*Xj. .p.e.k.-X].k.o.M 3 <     X O X + = 3 3 = < O , =X8X1X}.h..X|..X5X7X7X<X|.F.D.D.D.D.Z.C.C.",
"-.=.-.r.y.i.i.u.V.F.U.D.{.>X1X6X1X]._.g.e.~.}.-X1X=Xt.d 3 4 < v % . X . O + = % , N   ( 7X%.!.,X>X}.>X<X5X7X2X].`.OX`.N.J.F.Z.C.",
"=.=.,.M.M.n.V.V.Z.V.D.}.<X>X<X2XoX'.*X>X>X=X=X=X1Xj.3   v v v G F 3 O , < , O 3 v I N c #.!.O._.qX4X}.}.<X;X].B.K.*XL.F.Z.Z.V.M.",
"I X.=.M.V.n.C.N.z.z.-X'.P.].'.].<X1X7XvX7X1X{.e.[ X.f.X.U U U K v v v v d 3 w < N , 3 < #...a M t.L..X.X`.`.L.K.g.t.t.*X|.H.N.M.",
"X.X.:.z.y.>.d.M.S.<X'.X.>.f.f.'.-X<X<X2X7X'.0 F j.~.j.t.<.S..XZ.t.:.+.M   4 K 4 @ = = ,   b b e.%.S.D.Z.C.n.S.L.B.e.I g.;XF.M.d.",
" .=.<.<.=.o.&.].8Xk.y.B.C.g.>X2X7X7X2X2Xj.O F K.1X1X{ +.+.%.5.H I +.h.s.p.$.I K < w e p S e.~.'.=X1X=X].n.D.|.U.F.B.+.I P.2XA.,.",
"[ X.&.-.m.<.z.<XB.-.n.Y.n._.oX}.K.S.%.t.+.f.Z.>X{.>.  r.b.O           M @.p.p.#.@.( ) / ( e.~.1X1X1X2X8X<XD.|.A.B.D.S.A.f.1X2XB.",
"X.H D ;.M.<.B.B.-.:.5.0.>.L.u.G O H :.>.B.K._.{.s.  0 H g.H e M < d d ,     B  .e.$.e.O.( e.*X>X6X1X1X>X5X`.<.m.i.B.V.m.n.g.;XL.",
"J X...X.<.<.n.d.#.@.%.@.#.f.f.n.:.u.>.6.f.A.K._.@. .o.$.r.b.H M I N D D S + X O O.p.t.e.p.k.g.=X1X1X>X*X{.].m.m.m.m.n.n.C.i.:.u.",
"[ J X.o.:.#.5.5.;.@.%.#.#.;.:.>.6.m.M.0.m.>.:.j...p.h.s.O r.b.c  .+.e. .D O < < C @.$. . ./.k.*X1X6X1X=Xk.k.<.M.M.z.,.<.B.n.u.y.",
"[ [ X.+.:.( f.f.%.>.5.#.<.:.;.5.>.m.0.-.0.&.  :.#.%.~.s.    U r..  .t.j.k.o.    - C ( B   p.'.*X>X1X1X<X}.j.>.z.-.,.,.d.U.D.z.c.",
"{ H =.,.X.#.#.V.A.A.<.<.<.;.6.<.m.<.[ [ 0.&.2 o.t.%.S.u.O ;   f J   M [ +.K.g.A . , S C <    .}.1X<X>X1X<X#Xp.;.y.y.,.i.L.L.<.U ",
"F [ &.&.} ;.[ ;.n.<.,.0.<.-.;.;.d.A.H.R.v.2 l J f.f.s.N 1 # >   F G         [ ..; O < < O <   a o.g.K.A.|.&XH.9.Z.n.i.n.z.y.z.-.",
"g / [ ..<.<.>.>.<.;.#.,.N.d.#.#.I.R.R.l.7.l K 8.+.>.<   X X O X < J ; ; ; ;     # X # O X ; < o   l Z.A.q.R.7.q.w.:.n.Z.z.<.z.z."
};
