/* XPM */
static char *result[] = {
/* columns rows colors chars-per-pixel */
"64 64 255 2 ",
"   c #010001",
".  c #030009",
"X  c #150003",
"o  c #000015",
"O  c #02031B",
"+  c #0C041C",
"@  c #060A1E",
"#  c #0A0B1E",
"$  c #14041C",
"%  c #1B031B",
"&  c #18091B",
"*  c #0D111E",
"=  c #16121E",
"-  c #250003",
";  c #390001",
":  c #270618",
">  c #2C031A",
",  c #350415",
"<  c #3C0415",
"1  c #360718",
"2  c #28161C",
"3  c #37161B",
"4  c #302C1B",
"5  c #010223",
"6  c #050C22",
"7  c #0A0D21",
"8  c #0E0E24",
"9  c #020529",
"0  c #061223",
"q  c #0A1424",
"w  c #051B24",
"e  c #0B1B25",
"r  c #061429",
"t  c #0A1529",
"y  c #061B2A",
"u  c #0B1C2A",
"i  c #121524",
"p  c #191625",
"a  c #121B25",
"s  c #1B1B24",
"d  c #141C29",
"f  c #1A1D2A",
"g  c #231B24",
"h  c #281A25",
"j  c #311725",
"k  c #062226",
"l  c #092729",
"z  c #0C222C",
"x  c #152325",
"c  c #1C2524",
"v  c #14232C",
"b  c #1A232B",
"n  c #172B29",
"m  c #1C2C2C",
"M  c #083427",
"N  c #1A352B",
"B  c #0D2631",
"V  c #0C2B33",
"C  c #172532",
"Z  c #132B34",
"A  c #1C2C33",
"S  c #093534",
"D  c #1A3639",
"F  c #282626",
"G  c #23232C",
"H  c #232C2C",
"J  c #2B2B2C",
"K  c #362829",
"L  c #29352B",
"P  c #36362A",
"I  c #272B33",
"U  c #362A33",
"Y  c #283737",
"T  c #363836",
"R  c #560309",
"E  c #51140C",
"W  c #430414",
"Q  c #480617",
"!  c #570713",
"~  c #461817",
"^  c #69060D",
"/  c #77090C",
"(  c #74160C",
")  c #660813",
"_  c #6B1912",
"`  c #771B12",
"'  c #4A2418",
"]  c #592716",
"[  c #573115",
"{  c #6E2D08",
"}  c #7B3808",
"|  c #642A16",
" . c #653419",
".. c #783714",
"X. c #452B28",
"o. c #483828",
"O. c #563926",
"+. c #4F3433",
"@. c #483A37",
"#. c #663824",
"$. c #19442D",
"%. c #094739",
"&. c #1A4835",
"*. c #1C5134",
"=. c #27462C",
"-. c #294736",
";. c #394537",
":. c #334F32",
">. c #754616",
",. c #454529",
"<. c #57462A",
"1. c #464639",
"2. c #544E38",
"3. c #6D502E",
"4. c #5C6229",
"5. c #75682F",
"6. c #1E3B41",
"7. c #2F3E43",
"8. c #174E42",
"9. c #2A4647",
"0. c #364946",
"q. c #36524B",
"w. c #2B5553",
"e. c #3A5756",
"r. c #38655A",
"t. c #514E4B",
"y. c #485646",
"u. c #575845",
"i. c #455A56",
"p. c #6A5848",
"a. c #5D6347",
"s. c #45625B",
"d. c #576659",
"f. c #6D6A50",
"g. c #76795A",
"h. c #486764",
"j. c #556965",
"k. c #57726C",
"l. c #5B6F70",
"z. c #577874",
"x. c #6C766E",
"c. c #860A09",
"v. c #950606",
"b. c #871609",
"n. c #94150B",
"m. c #A20000",
"M. c #862708",
"N. c #883609",
"B. c #993807",
"V. c #962C11",
"C. c #823A14",
"Z. c #A52809",
"A. c #B1330A",
"S. c #CF3907",
"D. c #89450A",
"F. c #964409",
"G. c #9A5506",
"H. c #874718",
"J. c #974917",
"K. c #915417",
"L. c #AD470E",
"P. c #A85406",
"I. c #B65407",
"U. c #A75918",
"Y. c #B95A12",
"T. c #99650F",
"R. c #B76717",
"E. c #B46E12",
"W. c #8E5327",
"Q. c #855825",
"!. c #A95923",
"~. c #93662C",
"^. c #B06D2C",
"/. c #D14C0C",
"(. c #C65A08",
"). c #E85D05",
"_. c #C76708",
"`. c #C87609",
"'. c #D87804",
"]. c #C86A14",
"[. c #C97815",
"{. c #D27111",
"}. c #E66804",
"|. c #E97706",
" X c #F57405",
".X c #C77A28",
"XX c #EA732D",
"oX c #805E46",
"OX c #8C6F4D",
"+X c #AD784A",
"@X c #CD7A46",
"#X c #66837C",
"$X c #798676",
"%X c #BA8412",
"&X c #B78733",
"*X c #D18812",
"=X c #E98A07",
"-X c #F68A06",
";X c #F99706",
":X c #E98F13",
">X c #F48E12",
",X c #F99815",
"<X c #FBA70A",
"1X c #F4AB18",
"2X c #C98824",
"3X c #D68C26",
"4X c #ED952A",
"5X c #DCA733",
"6X c #F9A828",
"7X c #F6B030",
"8X c #FECE38",
"9X c #AF8A4B",
"0X c #9D8F6D",
"qX c #8E8B70",
"wX c #989777",
"eX c #CE934C",
"rX c #EB9A4D",
"tX c #F5AC4A",
"yX c #F8B956",
"uX c #D79E69",
"iX c #F7B269",
"pX c #F8B774",
"aX c #FBC755",
"sX c #FAC870",
"dX c #688985",
"fX c #76918D",
"gX c #78948C",
"hX c #8E968F",
"jX c #AB9682",
"kX c #88A59C",
"lX c #9FA295",
"zX c #A7A687",
"xX c #B1B197",
"cX c #93AEA5",
"vX c #9AB5AB",
"bX c #A4B6AC",
"nX c #B6BAA9",
"mX c #A7BEB4",
"MX c #F3B685",
"NX c #C4BCAB",
"BX c #ACC1B7",
"VX c #B5C6BB",
"CX c #BBCBBE",
"ZX c #FAC98E",
"AX c #FBC996",
"SX c #C4C8B6",
"DX c #F9D2AA",
"FX c #F9E9B9",
"GX c #BCCCC1",
"HX c #C2CDC3",
"JX c #C9D4C8",
"KX c #D2D9CC",
"LX c #D4DCD3",
"PX c #DCE1D5",
"IX c #F4EECA",
/* pixels */
"6 # 5 8 3 '  .....| C.P.I.Y.E.`.*X[.[.].U.J.U.~.Q.O.@.o.5.9X^.<.<.<.3.K.3.1.Z b H C v b f d f f p i t q 0 @ @ @ @ * @ @ @ @ 0 i ",
"6 # 5 g '  . .......J.I.I.L.Y.`.[.2X[.].I.J.U.U.H.O.o.J p.^.^.5.Q.~.~.E.^.~.+.P J C m n b d f f i u t r w @ @ 0 @ 0 0 0 @ * # i ",
"6 7 6 j | ....C.F.....F.L.I._.`.[.[.[.].I.U.U.U.H.O.X.K U O.3.3.U.E.2X*X3XE.>.R : . 6 u A C f d d e t e * 0 @ # 0 0 * @ @ @ 0 q ",
"7 7 6 3 M.N.N.N.B.C.} D.F.I.(._.].R.R.[.E.E.R.R.W.>.N.{ ] t.p.p.~.E.*X*X`.+XOXd.d.i.i.6.  O d C f p e e 0 0 0 6 0 0 0 0 @ @ 7 7 ",
"7 7 0 ] B.B.N.N.M.N.H.D.F.F.I._.`.].E.*X*X*X[..XP.F.+XjXcXBXBXmXvXzX9XuXNXCXCXCXGXmXmXvXfXi.z o g h s q q 0 @ 0 q 0 0 @ 0 7 0 6 ",
"0 7 0 _ A.B.M.M.{ N.F.L.F.J.U._.[.2X3X:X:X:X3X_.^.zXnXGXVXBXmXmXcXgXcXLXSXGXCXCXGXGXvXvXvXcXgXz.X.E K p q 0 6 0 r q 0 7 0 0 0 0 ",
"7 7 q | B.B.B.M.B.L.L.(.].^.R.R.E.3X4X,X3X[._.jXGXHXHXSXVXVXBXcXkXCXKXGXGXCXVXBXmXvXvXcXkXkXfXdXdXp.E h q 0 6 0 q y r 0 q i q s ",
"0 q q | L.I.I.I.I.Y.].}.{.{.[.].E.2X*X3X'.!.nXJXHXHXCXVXBXBXcXbXHXKXGXVXVXVXBXvXmXvXvXcXgXgXdXdXdXdXd.: r q 0 7 r t q q i f d s ",
"7 t 8 M./.].Y./.I.Y..X{.].{.{.].R.^.3X'.+XSXKXSXHXHXVXmXBXVXHXLXKXJXSXCXBXBXBXvXvXmXvXgXgXgXdX#Xz.z.z.e.t 6 q r t y t 0 q d v f ",
"r t p ..Y.].J.J.J.!.^.R./.!.].].!.^._.eXHXJXJXJXHXVXmXCXKXLXKXJXJXCXJXGXCXCXBXBXvXvXvXcXdX#X#X#Xz.z.e.h.e.u 6 t y 0 0 7 8 g h p ",
"r 7 p #.U.U.` +.3.H.J.L.J.J.!.!.!.G.+XSXKXJXJXHXVXSXLXPXPXKXJXJXGXVXCXCXCXCXmXmXvXvXcXgX#X#X#X#Xz.z.r.w.w.w.t 6 q 0 6 7 g ~ 3 f ",
"r t t ~ W.~.p.U #.C.C.C.>.K.U.!.!.!.NXKXJXJXJXJXPXPXPXKXHXHXJXJXLXLXKXCXVXBXVXmXmXvXgXgX#X#Xs.k.h.h.h.6.7.e.9.9 @ 0 0 0 j ' j i ",
"r t q ~ W.+Xp.U X.#.#.C.H.U..X^.F.xXKXLXLXJXJXCXbXhXx.p.t.t.t.d.#XhXmXSXCXCXGXmXBXcXkXgX$X#Xh.h.h.h.e.6.Z 7.w.6.O r r i 3 3 g r ",
"t q i 3 C.!.#.U X.X.7.+.W.OXOX#.hXLXJXnXhXx.p.X.- - X . . . X X X   G j.dXcXbXvXvXcXgX#X#X#X#Xh.h.e.6.w.6.6.9.w.C 6 d d j h 8 r ",
"t t i j ) #.X.U X.X.U 7.p.oXp.lXGXbXx.- - - . . 5 5 5 W ) Q > O * u $ X X 0.l.hXkXcXgX$X#X#Xk.s.e.e.w.7.6.6.6.9.6.t i d f p t r ",
"t 0 7 j X.X.U X.#.#.7.7.i.7.lXbXd.; ; 6 5 o } ].(.(.I.3X>X{.(.Z.b.< > 7 7 % 2 7.d.gXkXgX#X#Xd.h.e.w.w.6.6.Z Z 6.9.D 5 t p p t r ",
"y t 8 h X.X.U U @.+.7.7.V fXhXX R 2 5 ^ ].@XMXAXZXiXiXpX4XtX4X'.|.Z.V.n.) j $ 2 F 0.z.fXgXx.j.x.j.e.7.7.D Z Z Z 6.6.6 8 d p t r ",
"t r t g j 7.I f A I 7.B i.x.  Q = : (.4XpXMXDXDXDXMXiXMXiXtX4X-XXX/./.}.A.c.Q Q 1 F T j.dXfXx.d.i.i.e.e.D Z B B D 6.C 6 d p t t ",
"r r t d G C B t V 6.6.k j.T R 2 < ].;XpXMXAXDXDXDXpXMXZXrXrX4X-X;X|.|.,X).A.n._ W 1 P T s.fXgXj.i.e.i.e.9.V B z D 6.Z t d i t t ",
"r r r t C Z y 6.D 8.8.8.i.; ~ o (.;X6XpXpXAXAXDXAXiXAXpXrXyXrX<X7X.X2X2X!.S.Z.v.) < > K T i.z.z.i.0.9.q.e.A B z B D D d d d r r ",
"r r 0 y Z D V S 8.8.&.w.w.R o F.rXtX6XyXyXsXsXZXiX6XMXiXtX6X4X&X~.F O o * 3  .!.c.Q W ! P m 0.j.i.9.9.9.q.9.z z B Z D z t u t t ",
"r r q k V Z S S %.8.%.r.e.; > [.oXhXMX6XyXaXpXyXyX4XiX7X6X6X~.o - < 3 j 3 > 1 <.H.^ ! ! < F Y e.h.q.Y -.0.q.Z u z V C C r u u d ",
"r 0 r k M S l S %.8.%.h.t.  H.T.  X x.eX7XaXyXaX6X>X1X6X4XQ.. ~ G 9 6 6 9 6 3 _ H.H.! ! Q , G Y e.h.9.D Y e.-.y z B B A a p f d ",
"r r r k l l l S %.%.S h.t.  ~. .< ' . 9X<XtX7X1X,X>X1X<XR.. ] 6 r t 6 6 6 = 5 ..R.^.) ^ ) Q : J Y e.i.D D 9.w.k z z B C G h f d ",
"r 0 0 k k l l S S D S r.1.; T.Q < 3 O <.8X7X6X8X,X,X1X7X] ! 2 6 t 9 6 6 7 & 5 ] *X2XV.^ ) ! < g T Y s.q.Z -.q.Z u z z C J F s a ",
"r r 0 w y k l V S D l h.T _ R.W Q < 3 + 2X<X6X7X,X,X7XeX! _ 5 7 r 9 6 6 6 7 r % *X5XH./ / / ! > J Y 9.e.D Z q.Y y u B z J 3 2 i ",
"t t u e e u z Z Z A k r.7.} R.R E Q 2 5 >.1X1X6X:X;X<X:X^ ` 5 8 9 6 6 5 6 @ 8 5 [.1XL.v.b.c./ ! < G Y e.e.v 7.9.y u B u H 3 j s ",
"t d d d u z v C A D y i.9.N.`.^ ` ! & 5 k 1X<X<X|.<X<X*Xb.{ 5 & 7 6 6 7 7 @ i 5 *X1XJ.v.b.b.c.) Q = T Y e.9.D 9.B y v u n F h s ",
"0 i a d u z v b A I d i.7.D.*Xv.M.b.3 p 5 2X<X;X}.=X<X4XJ.{ @ * 5 6 6 @ 6 $ 0 > *X1XC.v.b.n.c.( ) , f I Y i.9.-.D y z t b b b d ",
"r t w x a a d v C A I 0.-.N.=XZ.Z.Z.! k 5 2X<X,X|.:X<X7XR.A.3 @ = O 6 @ 6 h 5 ..<X3Xv.n./ c.n./ ^ W & F b 0.e.N Y y u t B b d d ",
"q e x c c x u a d b n T 0.M.>X_.I.(.B.5 9 &X<X,X|.;X<X,XeX_.J.5 @ 2 s g 2 5 < *X1XU.v.Z./ c./ / ) R > F d C q.D D u B y d C d C ",
"w w x x a a a z d v b H e. .-X:X=X=X,XP.. ^.,X X/.:X;X-XrX5X'.K.5 5 5 5 O  .'.1XU.R b.n./ c.b./ ^ ! , & i i D Y D d z u t d d f ",
"w w w x x a u v b b Y L t.+.|.,XaXaXaXsX9X9X6X-X|.-X;X>X XrXeX5X*XE.T.T.%X1X1X^.W ( c.v.c./ / / ^ ! < : = a v D A C y q u v a u ",
"e * e e w u v H U J T T i.y._.;XtXDXFXIXIXDX-X!.{.;X,X;X-X/.9XpXaX8X8X8XaX5XQ.& _ / c.n.c./ b.^ ^ ) Q : # = e b A C y q t v i t ",
"a q e z v x n J T T T Y y.e.I.-X;X7XAXFXIXAXP.9 ^.,X>X-X XS./.XXOX9X9X&X3.> R M./ c./ c.) ( / / ! R R 1 $ * u d C B t q y x t t ",
"a a t v n H m H T @.Y T 0.s.W.-X>X-X-X=X=XM.. X   '.,X X}.).].}.S.m.R v.v.( ( / / / / _ # 1 W ! ! ! ! 1 : + i e z v t 0 u a q t ",
"a e t a v m J U T Y ;.q.q.d.t.'.>X=X4XrXuXl.x.x.r.2.XX X).A.V././.Z.` A.Z.c./ V.` ^ ( E & % : & : : , 1 : + # t u z t 0 d e e t ",
"p i q a d b U @.1.T ;.0.y.d.s.F.-XR.|.4XrXiXiXuXiXuXXX).S.A.b.S.A.b.( U._ ^ ^ V.2 ! ` 1 , 1 < < W > 1 1 , & @ i t z t q z x c x ",
"f d a v d b T 1.T T ;.t.t.s.j.@.I.].>X%XB.;X X'.).S. X/.S.Z.) L.S.V.~ O.O ~ ) _ O $ E Q W : , < Q W 1 , : $ o q q u q q k c 4 c ",
"d f b b b m J I L I @.p.u.:.s.d.  ..]._ Q :X,X^./.S./.].L.Z.) A.S.| + % $ 5 Q > O + , W , & , Q W W , , : % o # q t 0 z k k 4 c ",
"i f b C m m H n k H 1.t.1.y.q.d.@.. O ' o U.-XJ.E Z.(...$ V.< V.B.O 1 : + + O + + + : : + : , 1 < W > > > $ O 7 q q 0 B D Z z A ",
"p f f G I H P T Y A L Y Y 0.y.y.s.E *XE.1 o Y.C.1 L...O O _ < | #.5 : % O + # + + + + $ , Q : 1 > 1 > > : $ O + q 6 r B Z 6.Z V ",
"h K G b G J @.+.2.@.-.Y -.:.q.:.s.u.E.J.1 o ' 3 ~ C.3 + O 3 < % + & + + + + + + + O & , | ~ % > > > > % $ O @ 6 @ q z B B B V V ",
"h h g b I I X.t.t.t.;.;.-.-.=.*.=.s.f M.~ : o o O o + # + O @ $ $ o + # + + + + + & , { D.5 : % : > % % $ O # 5 0 q r z Z 6.V z ",
"= a e x C I J T T T ;.-.$.*.*.*.*.*.d...R o D.K.o & $ $ + + + @ + + + + o 2 = o % 1 E P.>.o : % % % $ $ O O 7 7 t u u B Z D Z y ",
"0 q w k k z v k k l m T ,.:.=.*.*.*.w.y.>.%X%XD.% & $ o o + + + + # + # O ' 2 o . ] P.G.O : % % % % % 5 O # 6 6 7 0 t y u B V B ",
"e w l L P M n N 4 M n 4.5.5.=.$.*.*.*.8.Q.G.o | E $ o ' 3 o & O : & o O = { & : 3 ] G. .O : $ $ % % 5 5 6 0 q t q @ @ 0 0 q B y ",
"e w [ Q.Q.,.4 ,.P n n 4.5.4.=.$.N $.=.-.&.K o G.H.+ % G.] $ O 2 ] , : O .. .o ' { ] o : $ $ $ $ $ + 5 7 0 @ 0 q t u u q @ 5 y z ",
"w F #.W.H.O.P P P J n 4 L =.N =.=.N =.:.:.:.-.3.N.X 1 K.3 1 o { ' : : [ D.O o ' N.2 + $ $ $ $ + O 5 @ @ 7 0 @ 7 7 0 y u u q w k ",
"b g K X.K J b b c L P L M N =.:.;.$.=.:.,.:.%.g.qX3.W ..O $ ' D.O $ : ..3 O $ O 2 O $ $ + + O O O # # 6 6 7 0 O @ @ @ 6 t t w w ",
"g G c m n C H H P ;.,.;.H L o.,.P =.=.:.:.:.M wXnXwXp.3 * o [  .o & $ + O $ + $ O $ # + O O O O O + # 6 7 @ 0 q @ @ @ # # k k e ",
"d b K @.,.Y T T O.3.<.4 n H H c N N =.=.=.;.5.wXnXwXf.N @ * P 4 e c a 7 7 @ + # 7 o O o + O # O O O # 6 7 0 @ # 7 @ O O O e l w ",
"a f K O.T Y ;.T 2.3.3.+.L n x x s x N N l <.f.9XxXzXf.N o L u.y.1.L x i 0 + O o o @ @ # @ @ 7 # + @ @ @ @ 0 0 # @ @ O O 7 z l k ",
"c H J F x N m L U +.+.1.L n J j h a x n ,.5.~.Q.wXxX$XL o ;.f.a.u.;.m a 0 @ @ O 7 7 # 6 @ # 0 q q q # O O + o @ O @ @ # @ t w l ",
"J I n l l l z Z Y U T U H Y U +.U p c L 4.OXqXg.9X$X4.L o ;.a.u.u.1.L 0 q + O x a a 7 7 7 7 e a a * e * * @ * q e q q q i a e k ",
"F b l l l w v x m T N n A I I @.U G H P ,.4.5.wXwX>.L N 5 H u.y.u.;.L # 0 O x c c a q q q x x a = u x e * t z v u v v i p s e e ",
"x k z k z B m n n H N l l x b b g b f c P 4 f.NXwX>.[ w u O :.1.y.;.m e # 0 T ;.L c x c L H b a a a x * q C b B z b f h h a k y ",
"T v e k z H I n n M l * * e 7 # # p s & c   0XNXqX2.OXO.w O L q.u.-.z d O H u.2.L k Y ;.L x a e q x e @ x m C A b g g U U f Y v ",
"+.b w e v v l k l l x c i 8 7 7 8 s g s * 4 zXnX$X$X0X3.O = T f.f.y.T 0 5 u.qX=.H 1.1.H i * # O v H # @ H c c g h K h g 0 d T I ",
"K i @ 0 u u x c N k :.O.K 6 8 7 i p i g o f.NXxXy.0X0Xo.4 c o.3.4.y.y.g.g.g.4.1.a.;.o o O 5 0 m Y @ O * a * + + 7 h p r u 9 I U ",
"q q i g c u c 4 4 k 3.oXX.5 8 8 8 i 8 p . qXVXqXM wXwXqXO.2.o.[ ,.u.wXqXf.g.x.a.6 O o.F ' o.F L J g 2 * & 7 7 6 @ @ y t t q x G ",
"q q K U c k x F 4 c f.oXK @ 8 + 8 g h O ;.zXxXd.x wX0XwXu.2 K 3.[ y.g.;.g.g.y.. <.5.3.2 <.2 p 2 = 2 F * 7 7 5 q e v a t t q y A ",
"0 q G F k * k * * H <.o.s q # # 7 p h . $XnXwX-.N 0XwXxX1.2 f.OX>.O 2.5.5.3.2 <.5.o.O & O o o O O O O # 5 5 # q H Y v u e q t b ",
"w q w k k * k * k x x H H x w a a p O 0.zXzXd.* =.$XwXwXO.f.wXqXo.o o.X.2 4 F 4 5 o # @ + # @ # @ # # @ 7 5 6 e T -.m q e q 0 z "
};
