/* XPM */
static char *result[] = {
/* columns rows colors chars-per-pixel */
"64 64 255 2 ",
"   c #010003",
".  c #01010B",
"X  c #0B020B",
"o  c #090608",
"O  c #14020D",
"+  c #1A0708",
"@  c #1B020D",
"#  c #11130E",
"$  c #060211",
"%  c #150211",
"&  c #1D0211",
"*  c #1F0912",
"=  c #23030E",
"-  c #2A040E",
";  c #27080D",
":  c #33040D",
">  c #3A050A",
",  c #2D120D",
"<  c #230412",
"1  c #2B0513",
"2  c #250A13",
"3  c #2C0A14",
"4  c #2E0A18",
"5  c #330513",
"6  c #3B0514",
"7  c #340A15",
"8  c #3B0A14",
"9  c #3A031A",
"0  c #340B18",
"q  c #3B0D19",
"w  c #2B1513",
"e  c #341215",
"r  c #3C1316",
"t  c #3A1917",
"y  c #351219",
"u  c #3B131A",
"i  c #3D2318",
"p  c #1C0021",
"a  c #470209",
"s  c #580206",
"d  c #5B1606",
"f  c #420514",
"g  c #4A0616",
"h  c #430B14",
"j  c #4B0C15",
"k  c #420D19",
"l  c #550816",
"z  c #530E16",
"x  c #431316",
"c  c #4B1215",
"v  c #471915",
"b  c #44131A",
"n  c #4A131B",
"m  c #441B1A",
"M  c #4B1C1C",
"N  c #541416",
"B  c #5B1415",
"V  c #5B1B15",
"C  c #52151B",
"Z  c #541B1B",
"A  c #581818",
"S  c #5A1C1A",
"D  c #670405",
"F  c #780203",
"G  c #710D0E",
"H  c #671917",
"J  c #631D1A",
"K  c #781916",
"L  c #482419",
"P  c #4C231D",
"I  c #5A2416",
"U  c #53231D",
"Y  c #5C251C",
"T  c #542B1D",
"R  c #5C2C1C",
"E  c #5C321C",
"W  c #6B210E",
"Q  c #6A2316",
"!  c #63231B",
"~  c #642719",
"^  c #6B241A",
"/  c #6C2B1A",
"(  c #772619",
")  c #712B1A",
"_  c #66351B",
"`  c #7C331C",
"'  c #77381B",
"]  c #501B20",
"[  c #4B2921",
"{  c #572721",
"}  c #5B2C22",
"|  c #5C3323",
" . c #583125",
".. c #632D22",
"X. c #692A21",
"o. c #752C21",
"O. c #643422",
"+. c #6C3423",
"@. c #643926",
"#. c #6C3A24",
"$. c #693B29",
"%. c #773925",
"&. c #733D24",
"*. c #6D4517",
"=. c #6B4328",
"-. c #744325",
";. c #7B4325",
":. c #73442A",
">. c #7B442A",
",. c #7C4B2B",
"<. c #784B32",
"1. c #7C5634",
"2. c #860202",
"3. c #950004",
"4. c #92120F",
"5. c #A40001",
"6. c #AC0200",
"7. c #B70402",
"8. c #BA0000",
"9. c #AE190E",
"0. c #892809",
"q. c #872A19",
"w. c #982A10",
"e. c #84341D",
"r. c #8A3519",
"t. c #833A1D",
"y. c #95341A",
"u. c #B43009",
"i. c #A83616",
"p. c #94292C",
"a. c #873B22",
"s. c #973C22",
"d. c #A23D24",
"f. c #C70100",
"g. c #D70100",
"h. c #C20F13",
"j. c #E60200",
"k. c #E61500",
"l. c #C92507",
"z. c #CE310A",
"x. c #E82D00",
"c. c #925003",
"v. c #89441D",
"b. c #99471D",
"n. c #AD4715",
"m. c #9A661D",
"M. c #B86A19",
"N. c #8B4423",
"B. c #874828",
"V. c #844B2B",
"C. c #974925",
"Z. c #87522A",
"A. c #8C532D",
"S. c #93542C",
"D. c #9B562A",
"F. c #945A2E",
"G. c #994E30",
"H. c #865634",
"J. c #8C5A33",
"K. c #945C32",
"L. c #975B35",
"P. c #A74927",
"I. c #A75829",
"U. c #B5552D",
"Y. c #B6592C",
"T. c #A75932",
"R. c #9B642D",
"E. c #896738",
"W. c #9C6334",
"Q. c #996539",
"!. c #AB6329",
"~. c #B6672A",
"^. c #BB742C",
"/. c #A36333",
"(. c #A76938",
"). c #B86A35",
"_. c #A8723D",
"`. c #B57336",
"'. c #B3743C",
"]. c #BC7A3C",
"[. c #D25010",
"{. c #E64A02",
"}. c #F1580C",
"|. c #EE6E14",
" X c #C6582E",
".X c #DB6E22",
"XX c #C7762B",
"oX c #C96935",
"OX c #D26632",
"+X c #C57936",
"@X c #D6753A",
"#X c #855843",
"$X c #996844",
"%X c #9A7344",
"&X c #A86D42",
"*X c #A97745",
"=X c #B37843",
"-X c #BB7C44",
";X c #C97544",
":X c #E87E4A",
">X c #DE7066",
",X c #BC881C",
"<X c #FA930B",
"1X c #D58928",
"2X c #D69C27",
"3X c #C9853B",
"4X c #D38738",
"5X c #EFB336",
"6X c #BA8548",
"7X c #AE8A51",
"8X c #B88B53",
"9X c #AC8B61",
"0X c #C78847",
"qX c #C38A4C",
"wX c #D78543",
"eX c #CB9349",
"rX c #D59849",
"tX c #C78D54",
"yX c #CB9454",
"uX c #C99757",
"iX c #D59A57",
"pX c #D39C55",
"aX c #E8924B",
"sX c #D2AD55",
"dX c #D4A25C",
"fX c #DAA75B",
"gX c #E9AD5D",
"hX c #D49D6F",
"jX c #EE8F71",
"kX c #CDA567",
"lX c #D4A463",
"zX c #D7AA67",
"xX c #DCAC63",
"cX c #DBB56B",
"vX c #D0A977",
"bX c #DBB577",
"nX c #F1AD6B",
"mX c #E4B568",
"MX c #E4BC73",
"NX c #E4BB76",
"BX c #DFC47F",
"VX c #EAC579",
"CX c #EBD271",
"ZX c #F8EB70",
"AX c #DCA791",
"SX c #EABC89",
"DX c #E8C886",
"FX c #F1CF8F",
"GX c #ECD28D",
"HX c #E4DB8C",
"JX c #EAD394",
"KX c #EFD0A6",
"LX c #F7E6B2",
"PX c #F4D8C5",
"IX c #F8F1CB",
/* pixels */
"[ 0 e t 3 @ 7 3 3 r 4 4 e m b q { b u P +.M P n ] O.u K.Z.>.Q.K.:...B.B.{ { +.+.Y n m M < 4 & p 4 2 u < < < < & % 4 & % % % % % ",
"u 0 4 } | t 1 0 0 0 r 2 3 m n ] q u U U b { P +.B./.| $.>.<.>.V.S.J.+.} Y M } } T T I R & 1 < 2 } m p < 2 2 4 2 $ m t $ & % % * ",
"e y y | @.{ & e 0 x q 4 0 u u U M r ] $.K.{ +.| B.%.| { &.O.A.B././.Z.....;.%...+.#.V._ e  .< & m { b u 4 4 4 4 % ] t $ % % % % ",
"t M =.<. .@.m 4 0 e u M m m t 0 M [ O.1.#Xg %.9 #.;.;.{ +.A.K.V.:.O.} ..;.$._ Q.Q.&.R e E O.b $ * 0 u u u u & 2 & $ & % O % % * ",
"< < @.$.=.(.=.e & @.| 1 { =.O.m 0 t c Q.<.%.B...U ;.S.9 ~ B.%...} P { Y ,.#.R '.(.%.. H.qXQ.J. .. [ m m < [ [ $ 2 < < 2 * % % $ ",
"i & =.<.| A.Z.M 0 [ y | (.' $X*XB ]  .@.O.W.+.} k +.-.@.V.&...$.%.L.J.,...B.F.K.F.F.. J.&X$XqX=X< 4 { [ < [ y 0 & 2 & & % + . 1.",
"<.% H.<.U -.R e U 3 . Q.'.! *X8XH.{ Z.$.b ..M 1 1 e = E.1.V ;.V.G.L.!.L.;.A.F.B.L.&.. O.,.uXqX6X$.. y M & % < y 2 4 3 O % O * (.",
"+.& L [ j F.,.e m < 7 K.].Z.(.=X$X .q m ] O.&.m 5 <.:.N 1.{ ] | X.D.(.;.B./.(.S.>.m O.6 Q.dX-X_.L.O.$ m < 4 < 1 0 < 4 & * O 2 Q.",
"L 8 . t I E.=.' R & r &.W.} :.,.:.} U m } &.'...r >.%._.dX6X_.E C %.L.`.B.S.L.F.Y ..+.A.<.&XtX_.&XJ.. < < 1 4 4 1 < 4 = @ O & :.",
"R T i @ e u < ;.&.< t 8 _ Y R.6XqXA.Y } +.Q.L.f =.V._.qXpXyX'.W.L.+.! S.V.G.B.%.B.;.-.W.K.< #.W.L.L.{ & 4 1 4 1 4 < 2 < < 2 % t ",
"' @.-.t @ v r @.E < m #.;.+.V.Q.&XY k _ o.L.(.6 =.Z.qX6X8X7XQ.(.D.L.%.k { %.%.X.Q.iX6X;.L.+.& $ <./.V.< 4 5 0 1 3 1 < < & 4 % ,.",
"E  .J.T @ m _ Z.<.1 m #.z C +...+.U S J._.S W.Z j ..!.6XfX6X'.qX_.L.G...{ 9 9 B.'.0XL.(.tX$XH.&.1 <.(.M 1 4 5 3 5 3 1 1 & * . _ ",
"Y =.J.O.@ t #.W.*Xr T :.K.{ (.S.~ x S ,.L.N.6 M f Q.L.uXdXyX*X=XQ.%.;.B.L.D.^ 6 +.S.(.(.0X;X&X-X$Xo J.+.5 q q 9 5 3 7 < < 1 % t ",
"e t 4 L 3 2 v Z.6XT 5 L.(.n (./._ n ~ V.%.`.S.> +.uX6X-X_.A.Q.(.A.~ ! F.D.(.'._.>.6 +.S.G.V.(.$X*X&.Z &.k 8 0 q 3 0 7 1 3 < < 7 ",
"t T { #.E t  .L E e 6 H.L.l 6XpXN U ! #.+.!.`.a 1.*X].eXyX;.B.B._ ,.=X_.=X0XiXqX-X(.J X.=X*X*XA.H.J.M } b 7 0 q 3 5 4 < < < % @.",
"r M O.' 8X#Xi W.F.< T J.,.S %XE.f j B.B...V.D.I Z v.4XcXF.+.F.> B.].0X;XqXqX'.=X-XtXtXD Q.MXuX*XtXL.B k k k 7 6 0 0 0 3 1 < O $.",
"#.e M >.,.=.  @.W.1 } Z.Q.<.  = ~ c S.(.0X(.t.Y D 8XLXkXD 8XE.Q.qX+X0X6X!.dXeXqXuXuXeXAX#X&.=XuXiXkX$X..9 k 0 q q 7 5 4 4 4 % T ",
">.:.$.*X6X:.L E < : @.8XA.=.x _ V R /.(.'.eXkX:.D DXJXW 8X=._.xXcXlX-X-X6X6X-XdXyX6XtXJXzXa.;.zXDXkXlXJ.f M q n n b m 0 0 5 % L ",
";.L.T.:.7X'.- R.T & =.cXH.: f /.;.I 0X_.6XsXdX;.Q F.s Z.d 7X8X'._.xXiX-XzXGXNXfXsX!.tXcXVXNX$XN.DXJXlX*X6 ] k n k n m b 0 1 < m ",
"+.,.*XE.| ' O R._ % O._.^ ,.%.W.W.> Q.V.(.;XvX#XD ~ -.<.vXGXVXqX/.yXNXqXzXGXJXfXcX0XJXIXDXDXbXbX=XhXkXuXa ] b b q q u 0 q 4 < O.",
"m L.sX8XE.h 0 ' m v n +.+.F.D.%.B.U 0./.yXgXlX%.s *Xd $XvXfXiX].L kXnXVXGXDXHXCXxX].DXIXJXuXzXKXLXkX(.L.S ] n C u u y 0 7 0 % -.",
"7 P ,.kX=X> e #.8 P { ! ' t.C.N.' s 9XGXmXyXuXN.! ;.H.'.rXfX`.R.< 1._.BXLXVXGXVXlX-XuXVXuX^.SXLXJXDX8Xs { S n k q 0 0 q 0 e % } ",
"| 1._.:.x t 0 I c c t / / o.I.v.%.s vXDXtXuXVXQ.G ) `.eXfXdXE . _ -   : kXJXDXyXuXiXqX-XuX;XkXGXDXDXbX&Xl S n ] b b q q 0 y % } ",
"*XcX8X&X> M 8 x c n S S / a.a.C.o.D 6X'.s.+XxXJ.H ` ).dXVX7X  6 M.R.&   7XFXMXDXDXxXlXkXqXhXeXDXLXbXdX(.J C b ] n b q q q 0 & L ",
"E E.9X%X> r 8 8 v v A V ) I.v.I.B.J N.T.0XxXfX0./ r.pXGXVXE.s f d W t ' | MXCXbXxXcXlXyXeXqXuXmXJXpXyXD.J C ] ] C q q 0 q 0 & u ",
"i R %XE.a v 3 8 3 7 v S ~ b.I.D.N.o.N.+XxXNXwXa.` r.rXVXVXE.c.,X2X,X2Xc.r xXCXmXlXJXVXVXdXyXqXbXcX`.=XN.J C ] n ] u q 0 0 4 4 4 ",
"4 7 =.:.c r 3 7 7 5 0 k Y ` a.N.a.o.C.0XDXVXpXK D.G bXVX1XE.  *.*.*.L   1.VXgXCXlXDXVXNX0XyX0XmXvXb.S.C.J C n n n k b k q 0 4 < ",
"@ 2 X 6 r x 7 r q 3 x A c / ` N.e.) ( eXGXGXfXr.C.F KXGX2XgXE.        o sXgXiXJXmXmXmXfXyXyXiXrX3XD.a.a.X.n n n n 9 u q q 0 0 p ",
"3 < 2 2 < q 5 8 7 7 c c A N A ! ) ! H I.eXVXdX0.` F zXVXzXsX7X+ w ; O e 1.^.dXMXfXmXfXfXpX].dXlXVX^.N.D.J n N k k q q q 0 0 4 < ",
"2 3 < 7 < ; 7 7 8 8 x A A A c ! ) S H `.+XxXxXb.( r.3X4X`.P   w O @ < <   e eX4XmXfXrXfXbXqXFX'.=X).D.).%.6 C b b q q q 0 0 4 < ",
"@ < 1 1 ; 5 x 7 7 8 h c N A c c N z ! ].3X^.I.N.W ` !.3X`.  i @ O @ @ < i   *.3XwX3X4X3XqX6XfX].~.).b.T.%.6 C n n k q 0 4 4 4 < ",
"& < < ; 1 < 1 1 : 7 8 r c c k N j N A o.I.~.N.Q ) r.3X+XB.. 2 @ @ @ @ @ @ 2 O eXeX^.+X^.b.^.pXI.I.0X!.`.o.9 n k k q q 9 9 4 < < ",
"= & & @ < < ; 1 : 7 7 8 h 8 h c j A j b.~.I.v.Q Q t.+X@X-.. ; @ @ & < @ < w   R.rX+XXX~.I.I.T.a.I.`.T.T.Y 6 x 8 k q q 0 1 1 < < ",
"& < < < = 5 1 3 7 5 8 8 8 8 8 j k c g t.I.b.r.e.` ` ~.XXR . ; @ @ @ & & @ = . E M.1X4XXXI.b.C.!.C.y.).!.U 6 j 8 8 8 7 4 1 1 < & ",
"& & & & < < 1 = - 7 3 - - : 7 8 h j c Q ' b.r.' ) ) b.!.t O + @ O @ @ @ @ @ * @ I.^.Y.~.XX/.y.!.C.r.+XT.x 6 8 : 7 6 5 3 4 < & % ",
"O @ & @ < @ @ & < : : 3 - 7 8 > 8 j c B ) t.d V ~ ) D.!.= @ @ @ @ @ O % % @ ; . m.^.^.XX~.I.a.~.P.K eX`.O x k 3 8 7 5 4 1 < & & ",
"O O O & < < = ; = < ; 1 = < 6 7 : x j c J N c J J ) I.b.. ; @ @ O O O + @ O , . ;.1X4X4XXX~.b.b.v.G 3X'.  m h 5 h 6 5 1 < 1 & & ",
"O % % * & & & @ @ ; ; = ; 1 1 - 7 > h g c d B V v B e.v.. 1 @ O + O + O @ O < . *.XXXX).I.C.r.` r.r.+XF.  r 5 8 8 5 5 < < < & & ",
"O O O O & @ = @ @ @ = 1 1 : 5 - 1 8 8 h N c c c N W t./ . - X O O O O O O + O X ' b.~.~.!.b./ / ) y.I.S.. r 6 5 6 6 1 - 1 @ @ & ",
"X @ & % & O @ = @ @ @ = < = ; 1 1 : 5 v v 8 > h 8 v ) v . + O + O + + O X O O . v Q r.b.` ) Q ' v.I.~.B.X 8 f > > : 5 - < < @ @ ",
"O % @ @ 2 , @ @ @ @ = = < = = = - 5 1 8 8 7 3 > 8 > v ; X O O @ O O + O X + @ o   I Q Q ) ) v.I.!.I.XX_ O 8 : 6 1 ; 1 1 = = @ @ ",
"O O @ 2 e L @ @ = @ < = 1 = @ ; ; - - - - : 8 - 7 : 8 : O @ + + + @ + X O @ 6 h 8 8 N c Q ! N.!.!.+X4Xv @ 8 : : - - : ; 1 = & @ ",
"X % O * O 2 < @ = @ + @ . = = @ < = = - - - 8 8 8 ; : c = O O @ @ + O + O ; I k h c V J I N ! t.^.^.!.Z f f f 6 8 : : 7 5 = ; = ",
"o X O O O = @ @ @ @ @ , L ; O ; = = @ - - = - , 5 v.v.: ; = @ @ = @ @ @ O X _ ' z v N W Q v V Q A 5 8 ' ' h < f 6 6 > : : - 1 < ",
"o o X O X + O O O O X , S.R.i o - + + @ = - @ . o ' XXE $   + @ = = ; . O r _ R.H W / S A J B N ( 0.w.y.s.i.0.< j h h h 6 : 1 ; ",
"X o o X X X O O o . +   ' !.E.  o = @ @ ; . 6 0.w.4.i.5.2.H . = = -   F 4.4.9.i.3.3.u.y.B H K w.9.6.9.5.8.h.z.u.j h a h 8 6 1 - ",
"X O X o o O O X = s G G 0.q.y.4.D . + @   f u.l.7.z.8..X4X8.W . - . D u.f.l.6.5.u.u.6.z.i.( w.l.9.9.5.).iXg.{.|.0.f x h j h 5 < ",
"O O O o X O @ @ g l D F 4.2.5.7.z.d   - . w.l.7.z.ZX.XgXLX[.5.# :   i.z.l.GXxX5.1X5X X7.u.6 [.[.z.h.f.hXGX@Xx.<XM.l Q H B N h 1 ",
"X X O X O X X ; g a s K 2.3XZXoXz.[.  + + 9.z.g.l.gXaXaXmX Xf.B @ = [.{.OXFXnXf..X1X[.6.9.l |.<X|.{.g.g.g.j.jXCX5XG I c A N g c ",
"O O O + @ @ = 5 f f s r.i.M.sX1Xk.[.=   a 9.g.jX:X{.j.{.{..X@XD # > [.}.aXx.j.x.g.g.gXu.3.K <X<X|.FXSXnXnXKXPXZXsXD V l A a Z } ",
"O @ @ @ 3 1 8 7 : : s G CXCXCXVXnX|.= o > 9.f.>XIXPXKXKXLXDXu.D + = .X}.nXLXPXSXDXSXxX[.2.b.<X<X}.:XAXAXSXhX5XZXsXD a.W.P.P.U. X",
"@ < @ 3 1 3 q 3 + = 8 a *.lXDXbX@Xi.X : ; F 9.7.AX>XKX>X>Xp.F v > . z.}.j.AXPXPXKXAX5.4.F w.l.l.l.f.6.7.8.f.5XCX0X@XoX).oX X XOX",
"* 2 2 3 3 3 3 j @ + @ ; - a D 2.3.G g l B a s G 2.3.2.2.F a w = - = F 7.h.f.f.7.6.3.2.D F /.$Xa.T. X@X@X@XwX@X@X@X:XaXOXU.p.s.C.",
"% ; 4 2 2 @ 2 7 @ @ = - , , { / a.y.t.y.P.P.G.P.T.T.G.a.P.b.0.K W K v.r.i.a.B.oX@X+XwX;XaXjXaXaX:X@X@X@XU.U.d.Y.P.P.;XI.a.a.o.K ",
"O + * O O @ @ < : 5 h l I J e.y.a.y.s.s.s.P.T.).T.U.U.oX+XoXoXoX+X@X@XoX@XOX+XaXaXaXaX:XtX;X9.U.Y.P.p.q.4.s.o.( q.H g g g 6 < 1 ",
"O X % % @ < = < 5 5 : h v N N ! H ( ( s.K ` y.T.P.P.Y.).).P.~.;X&XY.d.C.P.P.P.n.P.P.y.4.F G %.G ( ( Q H ^ / A A H n 7 7 5 5 1 O ",
"X X O O < & O < = < - 5 6 6 6 h z B H H ( y.q.q.q.q.s.q.4.e.y.( y.s.C.s.q.r.q.e.` K H H S ^ J H N h h c c f h j 6 < 1 1 1 < & @ ",
"O X X % @ O @ < @ = < < 5 1 7 6 h j g g H ( H B l H B H H H H ( q.q.y.q.( q.H l J K H K B l B g g g j k h k 9 6 6 5 < 1 < @ & @ ",
"o X o X X @ % O & < & 1 1 3 7 6 9 j h 8 l z z g g l N B B J K V g B Q B B z g N z g A z k g z f g h g g h 6 3 5 1 7 6 9 6 < @ & ",
". o X X X O X & O < < < 1 1 1 1 1 q 7 6 q 6 q g k k 6 6 f f j z 9 j > 6 9 h h 6 k k j g g k k k j 8 6 5 : 6 6 f 5 6 9 < 1 < O O ",
". . X X X O X O O O & 1 < & & < < 1 < 5 9 6 k 6 6 9 6 6 9 5 6 : 5 5 6 7 < h 5 < 1 9 9 6 6 9 g 9 6 5 < & 1 6 9 1 < < @ & % & & & ",
"X X X X o X X X % % % & @ & & & < < 1 9 1 6 5 < < 1 5 5 6 9 5 6 6 1 6 h 8 5 1 5 q f 6 7 0 5 7 1 1 < = < 1 9 < X 1 < < % O % % @ ",
"X o . o . o X X X X O % % & & < < % < < < & < 1 1 1 5 6 1 5 5 1 < = < 6 6 0 k 8 1 4 9 5 < & 1 < & 1 1 < < 4 9 1 9 f & @ % % O O ",
"      o   X X X o . $ % % % & & % & & % 1 1 < < < & & & & < < & O & < < & 1 0 < < < & < < 1 4 < < & < 9 1 % % % & < % X % % O O "
};
